<svg viewBox="0 -0.027326634126175087 77.62000000000002 20.794358626162985" xmlns="http://www.w3.org/2000/svg" width="2500" height="671"><linearGradient id="a" gradientUnits="userSpaceOnUse" x1="13.95" x2="13.95" y1="20.53"><stop offset=".35" stop-color="#ed0059"/><stop offset="1" stop-color="#f27076"/></linearGradient><g fill="#170085"><path d="M60.89 2.42h-.39c-1.01.13-1.9.64-2.52 1.44l-2.54 3.27c-.13.17-.28.26-.43.26s-.3-.09-.43-.26l-2.54-3.27c-.62-.8-1.52-1.31-2.52-1.43h-.21c-1.45 0-2.63 1.17-2.63 2.62v11.31c0 .19.15.34.34.34h2.6c.19 0 .34-.15.34-.34V6.92c0-.24.31-.35.46-.16L52.16 9c.71.92 1.75 1.45 2.84 1.45 1.09 0 2.13-.53 2.84-1.45l1.74-2.24c.15-.19.46-.09.46.16v9.44c0 .19.15.34.34.34h2.6c.19 0 .34-.15.34-.34V4.87c0-1.35-1.1-2.45-2.45-2.45zM75.29 3.01c-.75-.34-1.94-.55-3.27-.57h-.83c-1.32.02-2.51.23-3.26.57-1.5.69-2.28 1.94-2.31 3.72v5.92c.07 1.71.84 2.92 2.31 3.59 1.68.77 5.24.77 6.92 0 1.17-.54 1.91-1.42 2.19-2.63l.04-.16a.332.332 0 0 0-.24-.4l-2.42-.68a.334.334 0 0 0-.42.25s-.18.7-.61.88c-.78.32-3.31.33-4.08-.02-.12-.05-.39-.18-.39-.86v-1.29h3.13c1.32-.02 2.51-.23 3.26-.57 1.46-.67 2.24-1.87 2.31-3.57v-.45c-.03-1.78-.81-3.03-2.31-3.72zm-1.22 4.13c0 .68-.28.81-.39.86-.32.15-1.07.25-1.91.26h-3.12V6.62c0-.68.28-.81.39-.86.32-.15 1.07-.25 1.91-.26h.81c.84.01 1.6.12 1.92.26.12.05.39.18.39.86zM42.11 3.04c-1.68-.77-5.24-.77-6.92 0-1.17.54-1.91 1.42-2.19 2.63l-.04.16c-.04.18.06.35.24.4l2.42.68c.19.05.38-.06.42-.25 0 0 .18-.7.61-.88.78-.32 3.31-.33 4.08.02.12.05.39.18.39.86v1.29h-3.13c-1.32.02-2.51.23-3.26.57-1.46.67-2.24 1.87-2.31 3.57v.45c.03 1.78.81 3.03 2.31 3.72.75.34 1.94.55 3.27.57h.83c1.32-.02 2.51-.1 3.26-.44 1.5-.69 2.28-1.94 2.31-3.72V6.63c-.07-1.71-.84-2.92-2.31-3.59zm-.97 9.74c0 .68-.28.81-.39.86-.32.15-1.07.12-1.91.13h-.81c-.84-.01-1.6-.12-1.92-.26-.12-.05-.39-.18-.39-.86v-.52c0-.68.28-.81.39-.86.32-.15 1.07-.25 1.91-.26h3.12z"/></g><path d="M27.07 4.51L23.25.72A2.44 2.44 0 0 0 21.42 0c-.6.02-1.18.26-1.64.71l-4.1 4.08a2.462 2.462 0 0 1-3.46 0L8.12.71C7.66.26 7.07.03 6.48 0c-.66-.02-1.32.21-1.82.71L.83 4.51c-.51.51-.83 1.22-.83 2 0 .72.27 1.37.7 1.87l11.52 11.44a2.462 2.462 0 0 0 3.46 0S27.19 8.38 27.2 8.38c.44-.5.7-1.15.7-1.87 0-.78-.32-1.49-.83-2.01z" fill="url(#a)"/><path d="M12.22 4.79c.96.95 2.51.95 3.46 0L19.79.71c.45-.45 1.04-.69 1.64-.71S6.48 0 6.48 0c.6.03 1.18.26 1.64.71z" fill="#170085"/></svg>