<svg width="14" height="12" viewBox="0 0 14 12" fill="none" xmlns="http://www.w3.org/2000/svg">
    <path fill-rule="evenodd" clip-rule="evenodd" d="M3.25 8.25V0.75H4.75V8.25H3.25Z" fill="black"/>
    <path fill-rule="evenodd" clip-rule="evenodd" d="M1.75 11.25V0.75H0.25V11.25H1.75Z" fill="black"/>
    <path fill-rule="evenodd" clip-rule="evenodd" d="M13.75 11.25V0.75H12.25V11.25H13.75Z" fill="black"/>
    <path fill-rule="evenodd" clip-rule="evenodd" d="M7.75 8.25V0.75H6.25V8.25H7.75Z" fill="black"/>
    <path fill-rule="evenodd" clip-rule="evenodd" d="M10.75 8.25V0.75L9.25 0.75V8.25H10.75Z" fill="black"/>
    <path d="M7 9.75C7.41421 9.75 7.75 10.0858 7.75 10.5C7.75 10.9142 7.41421 11.25 7 11.25C6.58579 11.25 6.25 10.9142 6.25 10.5C6.25 10.0858 6.58579 9.75 7 9.75Z" fill="black"/>
    <path d="M4 9.75C4.41421 9.75 4.75 10.0858 4.75 10.5C4.75 10.9142 4.41421 11.25 4 11.25C3.58579 11.25 3.25 10.9142 3.25 10.5C3.25 10.0858 3.58579 9.75 4 9.75Z" fill="black"/>
    <path d="M10 9.75C10.4142 9.75 10.75 10.0858 10.75 10.5C10.75 10.9142 10.4142 11.25 10 11.25C9.58579 11.25 9.25 10.9142 9.25 10.5C9.25 10.0858 9.58579 9.75 10 9.75Z" fill="black"/>
</svg>
