<svg xmlns="http://www.w3.org/2000/svg" width="158" height="47" viewBox="0 0 158 47" fill="none"><script xmlns="" id="eppiocemhmnlbhjplcgkofciiegomcon"/><script xmlns="" id="PrlE0U676eByckfpWIVh6neCiT" type="text/javascript"/><script xmlns=""/><script xmlns=""/>
<path fill-rule="evenodd" clip-rule="evenodd" d="M77.88 16.697C76.5405 16.697 75.4374 17.8001 75.4374 19.0608V37.0257C75.4374 38.3651 76.5405 39.4682 77.88 39.4682C79.2195 39.4682 80.3226 38.3651 80.3226 37.0257V19.0608C80.3226 17.7607 79.2195 16.697 77.88 16.697ZM77.88 7.75392C76.3829 7.75392 75.1222 9.01461 75.1222 10.5117C75.1222 12.0088 76.3829 13.3088 77.88 13.3088C79.3771 13.3088 80.6378 12.0482 80.6378 10.5117C80.6378 8.97521 79.3771 7.75392 77.88 7.75392ZM101.597 19.1002C101.597 17.6031 100.415 17.0121 99.3118 17.0121H87.2564C86.0745 17.0121 85.129 17.9577 85.129 19.1002C85.129 20.2427 86.0745 21.2276 87.2564 21.2276H95.1751L84.932 35.5286C84.6169 35.9619 84.4592 36.5135 84.4592 36.9863C84.4592 38.4833 85.6412 39.3107 86.7049 39.3107H99.5088C100.691 39.3107 101.636 38.3651 101.636 37.1832C101.636 36.0013 100.691 35.0558 99.5088 35.0558H90.9203L100.966 21.07C101.479 20.3609 101.636 19.7305 101.636 19.1002H101.597ZM66.061 30.3676C66.061 33.3224 64.7609 35.1346 61.8061 35.1346C58.8514 35.1346 57.6301 33.3224 57.6301 30.3676V21.2276H62.0426C65.6277 21.2276 66.1004 23.1974 66.1004 25.3642V30.3676H66.061ZM70.9462 25.246C70.9462 20.2427 68.3066 16.9727 62.1608 16.9727H57.7089V10.1965C57.7089 8.85702 56.6058 7.75392 55.3451 7.75392C54.0844 7.75392 52.9025 8.85702 52.9025 10.1965V30.3676C52.9025 35.371 55.5815 39.4682 61.9638 39.4682C68.346 39.4682 71.025 35.3316 71.025 30.3676V25.246H70.9856H70.9462ZM120.625 16.697C119.286 16.697 118.183 17.8001 118.183 19.1396V30.3676C118.183 33.3224 116.883 35.1346 113.928 35.1346C110.973 35.1346 109.752 33.3224 109.752 30.3676V19.1396C109.752 17.8001 108.649 16.697 107.388 16.697C106.127 16.697 104.946 17.8001 104.946 19.1396V30.3676C104.946 35.371 107.624 39.4682 114.007 39.4682C120.389 39.4682 123.068 35.3316 123.068 30.3676V19.1396C123.029 17.8001 121.926 16.697 120.625 16.697ZM157.54 25.837C157.54 20.8336 155.216 16.7364 148.873 16.7364C146.036 16.7364 143.988 17.5637 142.609 18.9426C141.23 17.6031 139.181 16.7364 136.345 16.7364C130.041 16.7364 127.677 20.873 127.677 25.837V37.065C127.677 38.4045 128.781 39.5076 130.041 39.5076C131.302 39.5076 132.484 38.4045 132.484 37.065V25.837C132.484 22.8822 133.429 21.07 136.305 21.07C139.181 21.07 140.127 22.8822 140.127 25.837V37.065C140.127 38.4045 141.23 39.5076 142.491 39.5076C143.751 39.5076 144.933 38.4045 144.933 37.065V25.837C144.933 22.8822 145.879 21.07 148.755 21.07C151.631 21.07 152.576 22.8822 152.576 25.837V37.065C152.576 38.4045 153.679 39.5076 154.94 39.5076C156.201 39.5076 157.383 38.4045 157.383 37.065V25.837H157.54ZM8.58124 16.7364C10.2753 17.9971 12.6785 17.6031 13.8998 15.909L18.3516 9.76315C19.6123 8.06909 19.2184 5.66589 17.5243 4.4446C15.8302 3.1839 13.427 3.57787 12.2057 5.27193L7.71451 11.4178C6.53261 13.1119 6.88718 15.5151 8.58124 16.7364ZM28.9887 8.02969C27.2947 6.769 24.8915 7.16297 23.6702 8.85702L5.74467 33.48C4.48398 35.174 4.87794 37.5772 6.572 38.7985C8.26606 40.0592 10.6693 39.6652 11.8906 37.9712L29.816 13.3482C31.1161 11.6542 30.6828 9.25099 28.9887 8.02969ZM6.88718 6.05986C8.14788 4.3658 7.75391 1.9626 6.05986 0.741308C4.3658 -0.519386 1.96261 -0.125419 0.741309 1.56864C-0.519385 3.2627 -0.125422 5.66589 1.56864 6.88719C3.26269 8.14788 5.66588 7.75392 6.88718 6.05986ZM34.0709 39.9016C32.3768 38.6409 29.9737 39.0349 28.7524 40.7289C27.4917 42.423 27.8856 44.8262 29.5797 46.0475C31.2737 47.3082 33.6769 46.9142 34.8982 45.2202C36.1589 43.5261 35.765 41.1229 34.0709 39.9016ZM27.0977 30.1312C25.4036 28.8705 23.0004 29.2645 21.7791 30.9586L17.2879 37.1044C16.0272 38.7985 16.4212 41.2017 18.1152 42.423C19.8093 43.6837 22.2125 43.2897 23.4338 41.5957L27.925 35.4498C29.1857 33.7557 28.7918 31.3525 27.0977 30.1312Z" fill="#1BBDC5"/>
</svg>