<svg xmlns="http://www.w3.org/2000/svg" width="40" height="40" fill="none"><rect width="40" height="40" fill="#15b5e2" rx="6.667"></rect><path fill="#ffffff" d="M9.5 25.625a2.625 2.625 0 0 0 2.625 2.625h15.75a2.625 2.625 0 0 0 2.625-2.625v-7.219h-21zm3.094-3.562A1.406 1.406 0 0 1 14 20.656h2.25a1.407 1.407 0 0 1 1.406 1.407V23a1.406 1.406 0 0 1-1.406 1.406H14A1.406 1.406 0 0 1 12.594 23zM27.875 11.75h-15.75A2.625 2.625 0 0 0 9.5 14.375v1.219h21v-1.219a2.625 2.625 0 0 0-2.625-2.625"></path></svg>