<svg xmlns="http://www.w3.org/2000/svg" width="40" height="40" viewBox="0 0 40 40" fill="none">
  <!-- Background -->
  <rect width="40" height="40" fill="#15b5e2" rx="6.667"></rect>
  <!-- Truck -->
  <g fill="#FFFFFF" transform="translate(4, 4)"> <!-- Define a cor do caminhão -->
    <path fill-rule="evenodd" clip-rule="evenodd" d="M14.0001 25.5C14.0001 26.3284 13.3285 27 12.5001 27C11.6716 27 11.0001 26.3284 11.0001 25.5C11.0001 24.6716 11.6716 24 12.5001 24C13.3285 24 14.0001 24.6716 14.0001 25.5Z"></path> <path d="M21.0001 25.5C21.0001 26.3284 20.3285 27 19.5001 27C18.6716 27 18.0001 26.3284 18.0001 25.5C18.0001 24.6716 18.6716 24 19.5001 24C20.3285 24 21.0001 24.6716 21.0001 25.5Z"></path> <path fill-rule="evenodd" clip-rule="evenodd" d="M4 5.30273L6.63407 5.30273C8.11991 5.30273 9.3819 6.39037 9.60121 7.85994L11.4581 20.3027H21.8453L21.8453 22.3027H11.4581C10.4675 22.3027 9.6262 21.5776 9.48 20.5979L7.62312 8.15514C7.55001 7.66528 7.12935 7.30273 6.63407 7.30273L4 7.30273L4 5.30273Z"></path> <path fill-rule="evenodd" clip-rule="evenodd" d="M13.5685 7.23535H25.0289C26.3579 7.23535 27.3172 8.50749 26.9519 9.78523L25.2648 15.685C24.8966 16.9726 23.7196 17.8602 22.3804 17.8602H9.24738V15.8602H22.3804C22.8268 15.8602 23.2191 15.5644 23.3418 15.1352L25.0289 9.23535H13.5685V7.23535Z"></path>
  </g>
</svg>


