<svg class="LocalPaymentMethodsPricingCardHeader__logo" xmlns="http://www.w3.org/2000/svg" width="40" height="40" viewBox="0 0 40 40" fill="none"><path fill="#00D64F" d="M0 0h40v40H0z"></path><path fill="#fff" fill-rule="evenodd" d="M21.1146 12.8306c2.2282 0 4.3638.8655 5.7593 2.0535.3528.3006.8812.2987 1.2125-.0233l1.6601-1.6153c.3507-.3409.3378-.8991-.0405-1.2106-1.1141-.9188-2.61-1.8222-4.4509-2.40068l.5208-2.37857c.1129-.51842-.2987-1.00565-.8513-1.00565h-3.2083c-.4103 0-.7652.27544-.8507.66045l-.469 2.11536c-4.265.20444-7.8798 2.24579-7.8798 6.43429 0 3.626 2.9908 5.1801 6.1475 6.2555 2.9908 1.0754 4.5687 1.4747 4.5687 2.9883 0 1.554-1.5779 2.4703-3.9045 2.4703-2.1211 0-4.3429-.6714-6.067-2.3021-.3382-.3202-.8794-.3225-1.2175-.0025l-1.7841 1.6881c-.34905.3299-.34588.8723.0057 1.1991 1.391 1.2953 3.1521 2.2332 5.1623 2.7584l-.4896 2.2033c-.1141.5167.2936 1.0039.845 1.0081l3.2134.0234c.4135.0031.7727-.2742.857-.663l.4639-2.1185c5.1065-.3023 8.232-2.9648 8.232-6.862 0-3.5857-3.1145-5.1-6.8945-6.3352-2.1601-.7577-4.0298-1.2749-4.0298-2.8284 0-1.5137 1.7454-2.1123 3.4893-2.1123Z" clip-rule="evenodd"></path></svg>