<svg xmlns="http://www.w3.org/2000/svg" width="138" height="34" viewBox="0 0 138 34" fill="none"><script xmlns="" id="eppiocemhmnlbhjplcgkofciiegomcon"/><script xmlns="" id="Cg1-tQtHihgXbxjcmnQl8Jc4yf" type="text/javascript"/><script xmlns=""/><script xmlns=""/>
<path d="M20.9591 0.214844H135.761C136.391 0.530017 136.825 0.963375 137.179 1.59372C137.179 7.62141 137.455 13.7279 137.061 19.7162C136.116 25.4681 132.058 30.5503 126.503 32.4019C96.0492 34.6869 64.9258 32.5201 34.2752 33.2293C28.7597 32.9535 22.929 34.096 17.6498 32.2444C2.28509 26.0591 4.64889 3.0908 21.0379 0.214844H20.9591ZM35.8511 13.9643C36.1269 13.8067 38.2149 13.0582 37.7421 12.7824C36.1662 10.6156 33.3691 10.2216 30.8871 10.458C27.0262 10.655 24.623 14.5158 25.4109 18.1797C25.9625 23.2619 32.5811 24.4438 36.3632 22.1588C37.3875 21.5284 38.1755 20.5041 38.3331 19.2828C38.4906 18.8495 36.4814 19.1647 36.1663 19.0859C36.0481 19.0859 36.0087 19.0858 35.9693 19.2434C35.4965 20.8981 33.7236 21.686 32.1478 21.7254C27.5778 21.9224 26.3171 15.8553 28.9961 13.0188C30.9265 11.1671 34.551 11.6399 35.8905 13.9643H35.8511ZM71.3081 14.9886C67.9988 11.9945 62.4438 14.0037 62.6014 18.7313C62.6014 23.1043 68.3927 24.8378 71.2687 21.883C71.3869 23.5771 71.2687 22.8679 73.2385 22.9861C73.0809 18.6525 73.2385 14.3583 73.1597 9.98522C72.6082 10.261 71.6233 10.458 71.3081 10.9701C71.3081 12.3096 71.3081 13.6097 71.3081 14.9886ZM93.9612 18.6525C96.1674 18.5737 98.61 19.0465 100.54 17.6676C102.825 16.1705 102.865 12.1914 100.462 10.7732C99.5555 10.1822 98.4918 9.94583 97.4675 9.94583C96.0098 9.94583 94.5127 9.94583 93.055 9.94583C92.8581 9.94583 92.6611 10.0246 92.5035 10.1822C92.2671 10.4186 92.2277 10.7338 92.2277 11.0489C92.1883 14.9098 92.2671 18.8101 92.2277 22.671C92.4247 22.8679 92.5429 23.2225 92.9369 23.3013C93.252 23.4195 93.1732 23.3013 93.449 23.1831C94.5127 23.1043 93.843 19.598 94.04 18.6525H93.9612ZM45.0699 23.3801C47.5125 23.4589 50.3097 22.08 50.4672 19.3616C50.9794 16.2887 49.0884 13.9643 46.0154 13.6885C43.6516 13.3339 40.6181 13.8461 39.6332 16.3675C38.0179 20.4253 40.8938 23.7347 45.0699 23.3801ZM109.838 17.5888C108.105 17.2342 106.214 16.8796 104.519 17.6282C101.919 18.8101 102.313 22.7891 105.189 23.3013C106.805 23.7741 108.42 23.3013 109.602 22.1194C109.72 22.0012 109.799 22.0406 109.838 22.1982C109.641 23.6559 111.571 23.7347 111.493 22.3164C111.217 19.7162 112.399 16.0129 110.193 14.1219C108.538 12.9006 106.292 13.0582 104.441 13.7279C104.047 13.8855 103.653 13.9643 103.613 14.5158C103.574 14.9492 103.81 15.1462 104.165 15.3038C104.283 15.422 104.362 15.3826 104.519 15.3432C106.647 14.3977 110.193 14.5946 109.799 17.6282L109.838 17.5888ZM88.0911 20.4253C88.0911 17.313 83.8756 18.1009 81.9058 17.1554C80.7633 17.116 80.4875 15.7371 81.5512 15.3038C82.8907 14.7522 85.0181 14.5552 85.8061 16.0129C86.0031 16.2493 86.2788 15.7765 86.5152 15.7371C86.7516 15.5401 87.6971 15.5402 87.3819 15.0674C85.8061 13.1764 82.7725 13.2945 80.6057 14.0037C78.3995 14.831 78.3207 18.1403 80.8027 18.6131C81.1179 18.6919 81.3936 18.8101 81.7088 18.8495C81.827 18.8889 81.9452 18.9677 82.1028 18.8889C82.3786 18.9283 82.615 19.0859 82.8907 19.1253C83.9544 19.401 86.7516 19.3616 85.9637 21.0951C84.7818 22.3164 81.0785 22.4346 80.5269 20.4647C80.3693 20.1102 79.542 20.8193 79.2662 20.8981C77.9661 21.2133 79.4632 22.277 79.9754 22.6316C82.2998 23.7347 88.0517 23.971 88.0517 20.3859L88.0911 20.4253ZM117.481 21.2527C116.339 18.6919 115.354 16.2099 114.172 13.7279C113.738 12.8218 112.241 13.3339 112.596 14.3976C112.872 15.1856 113.305 15.8947 113.581 16.6433C114.526 18.7707 115.551 20.8981 116.535 23.0255C116.417 24.4044 114.96 25.2317 113.581 24.6408C112.714 24.4044 112.241 25.7439 113.108 26.0591C115.866 27.2016 117.639 25.2711 118.427 22.7891C119.333 20.6617 120.239 18.5343 121.106 16.4069C121.302 15.5008 122.445 14.2795 121.618 13.4915C121.066 13.1763 120.475 13.3733 120.278 13.9249C119.333 16.4069 118.387 18.8889 117.402 21.3315L117.481 21.2527ZM54.6827 13.9249C54.4857 11.7581 55.4706 10.8913 57.5587 11.3641C58.0314 11.4429 57.7162 10.3004 57.7556 9.98522C54.7615 9.55186 52.5947 10.2216 52.831 13.6885C52.831 14.2007 50.8612 13.6885 50.4278 13.9643C50.546 15.9735 50.3096 15.028 52.7916 15.2644V22.9861H54.6433C54.6433 20.5435 54.6433 18.1009 54.6827 15.6189C54.5251 14.9098 57.0071 15.3826 57.5587 15.2644C57.4799 14.9098 57.795 13.9643 57.3617 13.9249C56.4555 13.9249 55.5888 13.9249 54.6827 13.9249ZM76.9418 13.9249C76.3903 14.1219 75.8781 14.3582 75.3659 14.5946C75.0508 14.7522 75.0508 14.7522 75.0902 15.1068C75.0902 17.6676 75.0902 20.2677 75.0902 22.8285C75.0902 23.2619 76.3509 22.9073 76.7448 23.0255C76.9418 23.0255 76.9812 22.9861 76.9812 22.7891C76.9812 19.8344 76.9812 16.919 76.9812 13.9643L76.9418 13.9249ZM60.9074 23.0255C60.868 20.0314 61.065 16.8796 60.9074 13.8855C60.3952 14.2795 59.1739 14.3976 59.0557 15.028C59.1739 17.707 59.0557 20.3466 59.0557 23.0255H60.9074ZM75.0508 10.0246C75.1296 10.4186 74.8538 11.8763 75.2084 11.9157C77.454 11.9551 76.863 12.152 76.9418 10.0246H75.0508ZM59.0163 11.8763H60.9074C60.868 9.59125 61.3407 10.0246 59.0163 9.98522V11.8763Z" fill="#E21E2F"/>
<path d="M20.959 0.214844C2.79716 3.60296 2.67897 29.8412 20.8802 33.1505C18.1619 33.2687 15.2859 33.4262 12.6069 32.9535C5.87011 31.5746 0.82733 25.6651 0 18.9283V15.028V14.9098C0 14.9098 8.41692e-06 14.9098 0.0394051 14.9098C0.0394051 14.9098 0.0393967 14.9098 0 14.9098V14.5946C0.82733 8.33055 5.27916 2.49984 11.5038 0.88458C14.5768 -0.0215436 17.7679 0.372432 20.959 0.293639V0.214844Z" fill="#FECA08"/>
<path d="M35.8509 14.0038C34.5114 11.6794 30.8475 11.2067 28.9565 13.0583C26.2381 15.8949 27.5382 21.9226 32.1082 21.765C33.6841 21.7256 35.4569 20.9377 35.9297 19.283C35.9297 19.1648 36.0085 19.1254 36.1267 19.1254C36.4813 19.2436 38.4511 18.889 38.2935 19.3224C38.1359 20.5437 37.348 21.6074 36.3236 22.1983C31.3597 24.9167 24.5441 22.5923 25.2926 16.0919C25.4502 13.0977 27.9322 10.6945 30.8869 10.4975C33.3689 10.2612 36.2055 10.6551 37.7419 12.8219C38.2541 13.0977 36.0873 13.8462 35.8509 14.0038Z" fill="white"/>
<path d="M71.3473 15.0282C71.3473 13.6493 71.3473 12.3886 71.3473 11.0097C71.6625 10.4975 72.6474 10.3006 73.1989 10.0248C73.2777 14.3584 73.1201 18.6921 73.2777 23.0257C71.3079 22.8681 71.4655 23.6166 71.3079 21.9226C68.4319 24.8773 62.68 23.1439 62.6406 18.7708C62.483 14.0432 68.038 12.034 71.3473 15.0282ZM67.8016 22.0408C73.002 22.0408 72.0958 13.8463 66.9743 15.0676C63.1134 15.8161 63.8619 22.2378 67.8016 22.0408Z" fill="white"/>
<path d="M94.0004 18.6919C93.8034 19.6374 94.5125 23.1043 93.4094 23.2225C93.4094 23.2225 93.3306 23.2225 93.2912 23.2619C93.1731 23.4589 93.0548 23.3407 92.8973 23.3407C92.5033 23.2619 92.3851 22.9073 92.1881 22.7104C92.2669 18.8495 92.1881 14.9492 92.1881 11.0883C92.1881 10.7732 92.2275 10.458 92.4639 10.2216C92.6215 10.064 92.7791 9.98523 93.0155 9.98523C94.4731 9.98523 95.9702 9.98523 97.4279 9.98523C98.4916 9.98523 99.5553 10.261 100.422 10.8126C102.786 12.2308 102.786 16.2099 100.501 17.707C98.5704 19.0859 96.1278 18.6131 93.9216 18.6919H94.0004ZM94.0004 14.3977C94.1186 14.8704 93.7246 17.1554 94.1973 17.116C96.5218 17.116 100.58 17.5494 100.461 14.1613C100.264 11.0095 96.443 11.6399 94.1973 11.5611C93.9216 11.5611 93.9216 11.5611 93.961 11.8369C93.961 12.7036 93.961 13.5309 93.961 14.3977H94.0004Z" fill="white"/>
<path d="M45.1095 23.4193C40.9334 23.7344 38.0575 20.4645 39.6727 16.4067C40.6576 13.8853 43.6912 13.4125 46.055 13.7277C49.1279 14.0035 50.9796 16.3279 50.5068 19.4008C50.3886 22.1192 47.5915 23.4981 45.1095 23.4193ZM46.449 21.7252C50.5462 20.0311 48.3006 13.7671 43.8094 15.146C38.9636 16.6824 41.682 23.7738 46.449 21.7252Z" fill="white"/>
<path d="M109.877 17.5887C110.271 14.5552 106.726 14.3582 104.598 15.3037C104.441 15.3825 104.323 15.3037 104.165 15.1855C103.81 15.1067 103.613 14.8309 103.653 14.4764C103.968 13.2551 106.686 13.2551 107.711 13.2551C108.617 13.2157 109.483 13.649 110.232 14.1218C112.438 15.9734 111.256 19.7161 111.532 22.3163C111.611 23.774 109.68 23.6952 109.877 22.1981C109.877 22.0405 109.799 22.0405 109.641 22.1193C108.459 23.3012 106.844 23.774 105.229 23.3012C102.353 22.7891 101.959 18.81 104.559 17.6281C106.253 16.8796 108.144 17.2341 109.877 17.5887ZM109.956 19.3222C109.956 19.3222 109.996 18.8494 109.799 18.7706C109.208 18.6524 108.617 18.4948 107.986 18.416C106.214 18.0615 103.495 19.2434 104.913 21.3314C106.489 23.0254 110.035 22.0011 109.917 19.3222H109.956Z" fill="white"/>
<path d="M88.1304 20.4647C88.1304 24.0498 82.3785 23.8134 80.0541 22.7103C79.542 22.3558 78.0449 21.292 79.345 20.9769C79.6602 20.9375 80.4481 20.2283 80.6057 20.5435C81.1572 22.5133 84.8605 22.3952 86.0424 21.1739C86.8304 19.4404 84.0332 19.4798 82.9695 19.204C82.6937 19.1646 82.4179 19.007 82.1816 18.9676C82.024 19.0464 81.9058 18.9676 81.7876 18.9282C81.4724 18.9282 81.1572 18.7313 80.8815 18.6919C78.4389 18.2191 78.5177 14.8704 80.6845 14.0825C82.8513 13.4127 85.8454 13.2945 87.4607 15.1462C87.7759 15.5795 86.8304 15.6189 86.594 15.8159C86.3576 15.8159 86.0424 16.3281 85.8848 16.0917C85.0969 14.634 82.9695 14.831 81.63 15.3825C80.5663 15.8159 80.8421 17.1948 81.9846 17.2342C83.9544 18.2191 88.1304 17.3918 88.1698 20.5041L88.1304 20.4647Z" fill="white"/>
<path d="M117.481 21.2919C118.466 18.8493 119.411 16.3673 120.357 13.8854C120.554 13.3338 121.145 13.1368 121.696 13.452C122.524 14.2793 121.381 15.4612 121.184 16.3673C120.317 18.4948 119.411 20.6222 118.505 22.7496C117.717 25.2316 115.944 27.162 113.187 26.0195C112.32 25.7044 112.753 24.3649 113.659 24.6406C114.999 25.2316 116.457 24.4043 116.614 23.0254C115.629 20.898 114.605 18.7705 113.659 16.6431C113.384 15.8946 112.911 15.146 112.675 14.3975C112.32 13.3338 113.817 12.8216 114.25 13.7278C115.432 16.2098 116.417 18.7311 117.56 21.2525L117.481 21.2919Z" fill="white"/>
<path d="M54.6826 13.9642C55.5887 13.9642 56.4554 13.9642 57.3616 13.9642C57.7555 14.0036 57.4404 14.9491 57.5586 15.3037C57.007 15.4219 54.525 14.9491 54.6826 15.6583C54.6826 18.1009 54.6826 20.5435 54.6432 23.0255H52.7915V15.3037C50.2701 15.0673 50.5459 16.0128 50.4277 14.0036C50.8611 13.7672 52.8309 14.24 52.8309 13.7278C52.5946 10.2609 54.8008 9.55178 57.7555 10.0245C57.6767 10.3397 58.0313 11.4822 57.5586 11.4034C55.4705 10.9307 54.4856 11.7974 54.6826 13.9642Z" fill="white"/>
<path d="M76.981 13.9642C76.981 16.9189 76.981 19.8343 76.981 22.7891C76.981 22.986 76.9416 23.0254 76.7446 23.0254C76.39 22.9073 75.1294 23.2618 75.09 22.8284C75.09 20.2677 75.09 17.7069 75.09 15.1067C75.09 14.7521 75.09 14.7521 75.3657 14.5945C75.9173 14.3582 76.3901 14.1218 76.9416 13.9248L76.981 13.9642Z" fill="white"/>
<path d="M60.9466 23.0648H59.095C59.095 20.3859 59.1738 17.7463 59.095 15.0673C59.2132 14.4764 60.4738 14.3188 60.9466 13.9248C61.1436 16.919 60.9466 20.0313 60.9466 23.0648Z" fill="white"/>
<path d="M75.0901 10.064H76.9811C76.9023 12.152 77.4933 11.9944 75.2477 11.955C74.8931 11.9156 75.1689 10.4973 75.0901 10.064Z" fill="white"/>
<path d="M59.095 11.9156V10.0246C61.4194 10.0246 60.9466 9.6306 60.986 11.9156H59.095Z" fill="white"/>
<path d="M67.8018 22.0406C63.8621 22.2376 63.1136 15.8159 66.9744 15.0674C72.096 13.8461 73.0021 22.0012 67.8018 22.0406Z" fill="#E21E2F"/>
<path d="M94.0006 14.3978C94.0006 13.531 94.0006 12.7037 94.0006 11.837C94.0006 11.5612 94.0006 11.5612 94.237 11.5612C96.4432 11.64 100.265 10.9703 100.501 14.1614C100.619 17.5495 96.522 17.0767 94.237 17.1161C93.7642 17.1555 94.1188 14.8311 94.04 14.3978H94.0006Z" fill="#E21E2F"/>
<path d="M46.4092 21.7253C41.6422 23.7739 38.9238 16.6825 43.7696 15.146C48.2215 13.7671 50.5065 20.0312 46.4092 21.7253Z" fill="#E21E2F"/>
<path d="M109.956 19.3222C110.074 22.0012 106.529 23.0255 104.953 21.3315C103.219 18.1797 107.868 18.0615 109.838 18.7707C110.035 18.8495 109.996 19.204 109.996 19.3222H109.956Z" fill="#E21E2F"/>
</svg>