<svg xmlns="http://www.w3.org/2000/svg" xmlns:xlink="http://www.w3.org/1999/xlink" width="40" zoomAndPan="magnify" viewBox="0 0 30 30.000001" height="40" preserveAspectRatio="xMidYMid meet" version="1.0"><defs><clipPath id="aac6993c45"><path d="M 7.050781 7 L 23 7 L 23 22.535156 L 7.050781 22.535156 Z M 7.050781 7 " clip-rule="nonzero"/></clipPath></defs><g clip-path="url(#aac6993c45)"><path fill="#ffffff" d="M 15.035156 16.050781 C 17.230469 16.050781 18.527344 13.15625 18.527344 10.558594 C 18.527344 8.613281 17.183594 7.066406 15.035156 7.066406 C 12.890625 7.066406 11.542969 8.613281 11.542969 10.558594 C 11.542969 13.207031 12.839844 16.050781 15.035156 16.050781 Z M 21.023438 17.546875 C 20.027344 17.046875 18.628906 16.546875 17.183594 16.300781 C 16.582031 16.796875 15.835938 17.046875 15.035156 17.046875 C 14.238281 17.046875 13.488281 16.746094 12.890625 16.300781 C 11.445312 16.546875 10.046875 17.046875 9.046875 17.546875 C 7.652344 18.195312 7.550781 20.492188 7.550781 21.039062 C 7.550781 21.539062 7.949219 22.039062 8.550781 22.039062 L 21.523438 22.039062 C 22.121094 22.039062 22.519531 21.539062 22.519531 21.039062 C 22.519531 20.492188 22.421875 18.195312 21.023438 17.546875 Z M 21.023438 17.546875 " fill-opacity="1" fill-rule="nonzero"/></g></svg>