<svg xmlns="http://www.w3.org/2000/svg" viewBox="0 0 50 32"><script xmlns="" id="eppiocemhmnlbhjplcgkofciiegomcon"/><script xmlns=""/><script xmlns=""/>
  <defs>
    <style>
      .cls-1 {
        fill: #000035;
      }

      .cls-1, .cls-2 {
        fill-rule: evenodd;
      }

      .cls-1, .cls-2, .cls-3 {
        stroke-width: 0px;
      }

      .cls-2 {
        fill: #fff;
      }

      .cls-3 {
        fill: #2fccf2;
      }
    </style>
  </defs>
  <g id="BG">
    <rect class="cls-3" y="0" width="50" height="32" rx="4" ry="4"/>
  </g>
  <g id="LOGOS">
    <g>
      <path class="cls-1" d="M25.67,12.68v10.52h-3.17v-.98c-.68.79-1.72,1.28-3.14,1.28-2.76,0-5.03-2.43-5.03-5.55s2.27-5.55,5.03-5.55c1.42,0,2.43.49,3.14,1.28v-.98h3.17v-.03h0ZM22.53,17.93c0-1.58-1.07-2.57-2.51-2.57s-2.51.98-2.51,2.57,1.07,2.57,2.51,2.57,2.51-.98,2.51-2.57Z"/>
      <path class="cls-2" d="M9.57,21.37c.02-1.16.99-2.09,2.15-2.06,1.13.02,2.04.93,2.06,2.06,0,1.17-.96,2.1-2.1,2.1-1.18.03-2.1-.93-2.1-2.1h0Z"/>
      <path class="cls-2" d="M43.79,21.37c0-1.17.96-2.1,2.1-2.1s2.1.96,2.1,2.1-.96,2.1-2.1,2.1-2.1-.93-2.1-2.1h0Z"/>
      <path class="cls-1" d="M27.47,8.5h3.17v14.7h-3.17v-14.7Z"/>
      <path class="cls-2" d="M44.28,8.5h3.17v9.64h-3.17v-9.64Z"/>
      <path class="cls-1" d="M37.64,20.66c.87,0,1.61-.33,2.02-.79l2.51,1.45c-1.04,1.42-2.6,2.16-4.59,2.16-3.61,0-5.82-2.43-5.82-5.55s2.27-5.55,5.6-5.55c3.06,0,5.36,2.38,5.36,5.55,0,.44-.05.87-.14,1.26h-7.46c.38,1.12,1.37,1.48,2.51,1.48ZM39.58,16.83c-.33-1.23-1.28-1.67-2.24-1.67-1.2,0-2,.6-2.3,1.67h4.54ZM8.53,21.37c0-.38.05-.74.19-1.07-.33.14-.68.19-1.07.19-1.45,0-2.51-.98-2.51-2.57s1.07-2.57,2.51-2.57,2.51.98,2.51,2.57c0,.27-.03.52-.08.74.48-.28,1.03-.43,1.59-.44.6,0,1.18.16,1.67.46v-10.19h-3.17v5.16c-.68-.79-1.72-1.28-3.14-1.28-2.76,0-5.03,2.43-5.03,5.55s2.27,5.55,5.03,5.55c.76,0,1.45-.14,2-.41-.32-.51-.49-1.09-.49-1.69Z"/>
    </g>
  </g>
</svg>