<svg xmlns="http://www.w3.org/2000/svg" viewBox="0 0 50 32"><script xmlns="" id="eppiocemhmnlbhjplcgkofciiegomcon"/><script xmlns=""/><script xmlns=""/>
  <defs>
    <style>
      .cls-1 {
        fill: #fff;
      }

      .cls-1, .cls-2 {
        stroke-width: 0px;
      }

      .cls-2 {
        fill: #e5252b;
      }
    </style>
  </defs>
  <g id="BG">
    <rect class="cls-2" y="0" width="50" height="32" rx="4" ry="4"/>
  </g>
  <g id="LOGOS">
    <g id="Capa_1">
      <g id="_105553298945760" data-name=" 105553298945760">
        <path class="cls-1" d="M22.14,13.89c-.42,1.18-1.84,4.48-2.7,4.49-.86,0-2.33-3.26-2.77-4.43-.26-.7-1.07-.19-.8.51.47,1.26,2.24,5.07,3.59,5.02,1.36.02,3.05-3.82,3.5-5.09.25-.71-.56-1.2-.81-.49h0ZM24.52,14.17c0-.76-.95-.75-.95-.01v4.77c0,.72.95.74.95.03v-4.79h0,0ZM9,16.34s-.01-.09-.02-.13c-.05-.28-.14-.53-.26-.76,0,0,0,0,0-.01-.03-.06-.07-.11-.1-.17-.02-.04-.05-.07-.07-.11-.02-.02-.03-.05-.05-.07-.04-.05-.07-.09-.1-.13-.04-.04-.08-.09-.12-.13,0,0-.02-.02-.03-.03-1.54-1.52-4.9-1.37-5.86-.96-.65.27-.43,1.08.29.76,1.16-.29,2.27-.29,3.42,0,.93.23,1.91,1.05,1.91,1.93-.07,2.18-2.95,2.27-4.12,1.99v-2.72c0-.65-.83-.65-.83,0v2.73c0,.55.28.75.66.83.88.2,4.58.42,5.24-2.21.01-.05.02-.1.03-.15,0-.04.02-.09.03-.14.02-.18.03-.35.02-.51,0,0,0-.02,0-.03h0ZM12.93,13.58c-1.47-.04-3.36,3.77-3.86,5.03-.28.7.59,1.21.87.51.47-1.17,2.06-4.45,2.99-4.44.93,0,2.47,3.3,2.93,4.48.27.71,1.15.21.88-.5-.49-1.27-2.34-5.1-3.8-5.08h0Z"/>
        <path class="cls-1" d="M46.52,11.34c-.74-.63-2-1.56-2.37-1.84.05-.57.15-1.19.28-1.72.15-.6.28-1.12,0-1.49-.19-.25-.53-.36-1.05-.36h-1.96c-.45,0-.77.13-.96.38-.15.19-.2.45-.17.73-2.11-1.15-3.94-1.83-4.95-1.84h0c-1.09,0-3.11.79-5.42,2.1-.33.19-2.32,1.36-3.29,2.11-.02.01-1.6,1.16-2.48,1.9-.42.36-.73.68-.96.99h0s-.06.09-.06.15c0,.13.11.24.24.24.07,0,.14-.04.18-.09h0s.07-.09.12-.16c.2-.25.46-.51.77-.77.86-.73,2.44-1.86,2.46-1.88.95-.73,2.92-1.89,3.24-2.07,2.24-1.27,4.18-2.03,5.19-2.04,1.01,0,2.95.77,5.19,2.04.08.05.18.04.26-.02.08-.06.11-.15.09-.24-.01-.06-.03-.11-.05-.17,0-.03-.02-.06-.03-.1-.04-.15-.09-.42.04-.59.12-.16.39-.2.59-.2h1.96c.35,0,.59.06.68.18.14.18.03.62-.09,1.08-.15.59-.26,1.3-.31,1.93,0,.08.03.16.1.21.02.01,1.59,1.17,2.45,1.9,1.04.88,1.49,1.7,1.25,2.31-.27.68-1.38,1.08-2.76,1.01-.16,0-.32-.02-.48-.02l-.3-.02c-.06,0-.13.02-.18.07-.05.05-.07.11-.07.18.02.75.24,2.28,1.53,4.01,1.15,1.37,1.32,2.97.47,4.37-1.02,1.67-3.58,3.02-6.99,2.25-.04,0-.09,0-.13,0-.93.31-2.44.45-3.22.45s-2.29-.14-3.22-.45c-.02,0-.05-.01-.08-.01-.02,0-.03,0-.05,0-3.41.77-5.97-.58-6.99-2.25-.55-.91-.67-1.9-.37-2.86,0,0,.01-.05,0-.09,0,0,0,0,0-.01-.01-.1-.08-.18-.19-.2-.1-.02-.2.02-.25.11,0,0,0,0,0,0-.03.04-.05.15-.05.15-.3,1.06-.16,2.16.45,3.15.89,1.46,2.85,2.7,5.47,2.7.62,0,1.27-.07,1.96-.22,1.03.33,2.57.45,3.3.45s2.27-.12,3.3-.45c3.61.79,6.33-.67,7.43-2.48.95-1.56.76-3.4-.5-4.91-1.07-1.43-1.35-2.71-1.41-3.47h.04c.16,0,.32.02.49.03,1.61.08,2.88-.43,3.22-1.31.23-.58.17-1.54-1.38-2.85h0Z"/>
        <g>
          <path class="cls-1" d="M26.77,17.51c0,.11.02.21.03.3.13.51.58.86,1.11.86.78,0,1.23-.64,1.23-1.57,0-.81-.43-1.51-1.21-1.51-.5,0-.97.36-1.11.91-.02.09-.05.2-.05.3v.7h0ZM26.04,16.43c0-.52-.02-.94-.03-1.32h.66l.03.7h.02c.3-.49.78-.79,1.44-.79.98,0,1.72.83,1.72,2.06,0,1.46-.89,2.18-1.84,2.18-.54,0-1-.23-1.25-.64h-.02v2.2h-.73v-4.39h0Z"/>
          <polygon class="cls-1" points="30.8 13.21 31.54 13.21 31.54 19.16 30.8 19.16 30.8 13.21"/>
          <path class="cls-1" d="M34.91,17.09c-.8-.02-1.72.13-1.72.91,0,.48.32.7.7.7.53,0,.86-.33.98-.68.03-.08.04-.16.04-.23v-.7h0ZM35.02,19.16l-.06-.51h-.03c-.23.32-.66.6-1.24.6-.82,0-1.24-.58-1.24-1.16,0-.98.87-1.52,2.44-1.51v-.08c0-.33-.09-.94-.92-.94-.38,0-.77.12-1.06.3l-.17-.49c.33-.22.82-.36,1.33-.36,1.24,0,1.54.85,1.54,1.66v1.52c0,.35.02.69.07.97h-.67Z"/>
          <path class="cls-1" d="M37.67,13.94v1.16h1.06v.56h-1.06v2.19c0,.5.14.79.55.79.19,0,.33-.03.43-.05l.03.55c-.14.06-.37.1-.65.1-.34,0-.62-.11-.8-.31-.21-.22-.28-.58-.28-1.06v-2.21h-.63v-.56h.63v-.97l.72-.19h0Z"/>
          <path class="cls-1" d="M41.69,17.09c-.8-.02-1.72.13-1.72.91,0,.48.32.7.7.7.53,0,.86-.33.98-.68.03-.08.04-.16.04-.23v-.7h0ZM41.8,19.16l-.06-.51h-.03c-.23.32-.66.6-1.24.6-.82,0-1.24-.58-1.24-1.16,0-.98.87-1.52,2.44-1.51v-.08c0-.33-.09-.94-.92-.94-.38,0-.77.12-1.06.3l-.17-.49c.33-.22.82-.36,1.33-.36,1.24,0,1.54.85,1.54,1.66v1.52c0,.35.02.69.07.97h-.67Z"/>
        </g>
      </g>
    </g>
  </g>
</svg>