<svg xmlns="http://www.w3.org/2000/svg" width="40" height="40" fill="none"><rect width="40" height="40" fill="#15b5e2" rx="6.667"></rect><path fill="#ffffff" d="M23.973 24.148c.277-.97.46-2.098.53-3.18a.21.21 0 0 0-.209-.218h-3.33a.21.21 0 0 0-.194.126.2.2 0 0 0-.016.08v2.592a.21.21 0 0 0 .194.205c.939.076 1.866.255 2.765.534a.21.21 0 0 0 .26-.14m-.805 1.538a12 12 0 0 0-2.184-.426.207.207 0 0 0-.23.201v3.058a.21.21 0 0 0 .317.174c.745-.435 1.359-1.165 1.914-2.13.09-.157.23-.429.313-.595a.2.2 0 0 0-.13-.282m-4.138-.418c-.739.07-1.47.209-2.183.414-.124.035-.176.206-.12.318.084.167.188.38.277.54.61 1.078 1.258 1.757 1.933 2.153a.21.21 0 0 0 .317-.174v-3.06a.195.195 0 0 0-.224-.19m.014-4.518h-3.33a.21.21 0 0 0-.197.134.2.2 0 0 0-.013.083c.07 1.081.252 2.21.528 3.18a.21.21 0 0 0 .18.149q.043.004.082-.008a12.8 12.8 0 0 1 2.766-.533.21.21 0 0 0 .194-.205v-2.594a.21.21 0 0 0-.13-.191.2.2 0 0 0-.08-.015m1.94-6.01c.74-.07 1.47-.213 2.18-.43a.2.2 0 0 0 .15-.195.2.2 0 0 0-.02-.085c-.084-.168-.2-.407-.29-.567-.575-1.031-1.225-1.75-1.933-2.156a.21.21 0 0 0-.316.173v3.058a.207.207 0 0 0 .23.201m-.02 4.51h3.33a.205.205 0 0 0 .21-.215c-.07-1.067-.248-2.24-.524-3.198a.21.21 0 0 0-.18-.147.2.2 0 0 0-.082.009c-.89.269-1.818.489-2.77.562a.206.206 0 0 0-.194.203v2.583a.206.206 0 0 0 .21.203m-2.027-7.943c-.723.402-1.367 1.145-1.944 2.174-.09.16-.196.38-.281.547a.203.203 0 0 0 .13.281c.71.22 1.44.364 2.18.43a.207.207 0 0 0 .23-.201V11.48a.21.21 0 0 0-.315-.174m.122 4.955c-.951-.073-1.88-.293-2.77-.563a.21.21 0 0 0-.262.139c-.276.957-.453 2.13-.523 3.197a.207.207 0 0 0 .21.215h3.33a.207.207 0 0 0 .21-.203v-2.583a.206.206 0 0 0-.195-.202"></path><path fill="#ffffff" d="M27.426 12.575a10.5 10.5 0 0 0-14.886-.037 10.5 10.5 0 0 0 .037 14.886 10.5 10.5 0 0 0 14.886.037 10.5 10.5 0 0 0-.037-14.886M16.28 28.195a10 10 0 0 1-.586-.921 19 19 0 0 1-.315-.616.34.34 0 0 0-.483-.148c-.202.113-.469.268-.663.395a7 7 0 0 1-1.104-1.05q.682-.482 1.425-.861c.087-.047.13-.1.102-.196a17.6 17.6 0 0 1-.66-3.852.205.205 0 0 0-.202-.196h-2.66a.094.094 0 0 1-.093-.08A5 5 0 0 1 11 20a4.5 4.5 0 0 1 .04-.67.094.094 0 0 1 .095-.08h2.66c.107 0 .195-.062.2-.17.075-1.3.296-2.586.656-3.836a.205.205 0 0 0-.102-.24 12 12 0 0 1-1.399-.839q.492-.586 1.085-1.068c.191.125.44.267.64.38a.37.37 0 0 0 .516-.16c.088-.182.187-.384.284-.557q.27-.483.588-.934A8.7 8.7 0 0 1 20 11c1.357 0 2.62.329 3.775.866q.306.43.563.89c.121.219.25.486.359.718a.2.2 0 0 0 .277.091c.252-.136.526-.293.766-.451q.595.487 1.088 1.078-.653.453-1.363.812a.2.2 0 0 0-.102.24c.367 1.241.585 2.522.65 3.815a.203.203 0 0 0 .201.193l2.654-.003a.094.094 0 0 1 .094.08c.055.445.055.896 0 1.341a.094.094 0 0 1-.094.08h-2.656a.204.204 0 0 0-.202.196 17.2 17.2 0 0 1-.65 3.811.21.21 0 0 0 .103.244c.234.121.495.256.72.394q.34.208.662.438a8 8 0 0 1-1.078 1.075c-.114-.076-.25-.161-.367-.232-.08-.047-.23-.13-.312-.176-.179-.1-.37-.025-.459.16-.09.184-.226.449-.322.62q-.265.474-.579.916c-1.154.54-2.371.804-3.728.804-1.356 0-2.567-.264-3.722-.803"></path></svg>