<svg xmlns="http://www.w3.org/2000/svg" viewBox="0 0 50 32"><script xmlns="" id="eppiocemhmnlbhjplcgkofciiegomcon"/><script xmlns="" id="oRZr_w5Lc9or59tNs3GI6Ynbl8" type="text/javascript"/><script xmlns=""/><script xmlns=""/>
  <defs>
    <style>
      .cls-1 {
        fill: #E1BF36;
      }

      .cls-2 {
        fill: #010203;
        fill-rule: evenodd;
      }
    </style>
  </defs>
  <g id="BG">
    <rect class="cls-1" width="50" height="32" rx="4" ry="4"/>
  </g>
  <g id="LOGOS">
    <path class="cls-2" d="m34.27,22.16l-.96,2.86c-.1-.11-.83-1.94-.96-2.25-.18-.42-.45-.61-1.01-.61-.53,0-1.06,0-1.61,0v-1.15c-.19.04-.72.2-.86.28v.86h-.7s0,.7,0,.7l.69.02v2.32c.03.22.06.34.1.44.31.69,1.4.62,2.03.21l-.28-.58c-.21.08-.45.25-.75.16-.26-.08-.24-.39-.24-.69v-1.87h1.75s1.41,3.22,1.41,3.22c.03.14-.28.7-.35.79-.49.68-.94.4-1.33.31l-.19.7c.74.28,1.52.18,1.95-.29.38-.42.61-1.01.85-1.66l1.35-3.73h-.89Z"/>
    <path class="cls-2" d="m24.07,19.93c4.43,0,8.71-3.56,9.54-7.97.84-4.4-2.08-7.97-6.5-7.97s-8.71,3.57-9.55,7.97c-.84,4.4,2.08,7.97,6.51,7.97Zm-5.84-7.97c.74-3.87,4.36-7.03,8.24-7.29.15.09.16.11.24.31-.03.49-.06.97-.1,1.46.76.15,1.49.37,2.07.87.02,1.12-.82,1.58-1.14,1.41.02-.05-1.26-.41-1.53-.47-.32-.05-.64-.03-.96.11-.37.18-.55.44-.37.86.15.31.41.51.69.69.8.44,1.61.87,2.42,1.31.7.39,1.19.89,1.51,1.51.23.61.28,1.22.15,1.85-.16.51-.35.96-.65,1.23-.24.28-.52.5-.8.65-.41.22-.82.41-1.25.48-.01.26-.02.52-.04.78.03.02.07.01.11,0,.91-.29,1.71-.81,2.49-1.38,1.01-.89,1.96-1.83,2.45-3.03.34-.67.6-1.42.72-2.3.27-2.46-.62-4.77-3.28-5.98,2.75.96,4.34,3.7,3.72,6.93-.72,3.77-4.18,6.87-7.94,7.26-.3-.01-.31-.18-.31-.43.02-.52.03-1.05.05-1.57,0-.08-.02-.1-.06-.11-.38-.04-.76-.12-1.14-.24-.41-.16-.82-.39-1.22-.66-.19-.09-.16-.53-.16-.7.03-.31.26-1.02.63-1.06.44-.02.65.21,1.08.42.76.36,1.83.57,2.62.2.38-.23.47-.54.29-.94-.31-.65-1.79-1.18-2.46-1.5-1.61-.68-2.5-2.07-2.22-3.72.21-1.22,1.35-2.15,2.55-2.32v-.57c-1.48.43-2.6,1.28-3.61,2.26-1.46,1.43-2.32,3.23-2.39,5.54.11,2.82,1.58,4.07,3.11,5.01-2.63-1.02-4.14-3.71-3.53-6.87Z"/>
    <path class="cls-2" d="m20.86,21.06l.16-.68c-.33-.21-.99-.2-1.34-.04-.37.18-.65.64-.64.95v.86s-.71,0-.71,0l.27.67h.43v3.2c.14.04.7.03.85.01v-3.2h.79s.28-.69.28-.69h-1.06c0-1.12,0-1.3.97-1.09Z"/>
    <path class="cls-2" d="m26.29,25.29c-.86-.42-.8-2.03.07-2.43.34-.15.8-.14,1.15.01.12.06.22.12.32.16v-.74c-.51-.2-.88-.34-1.53-.19-.97.23-1.54,1.12-1.52,2.09.05,2.29,2.54,2.16,3.21,1.56-.02-.1-.19-.53-.25-.58-.46.19-.91.4-1.46.12Z"/>
    <path class="cls-2" d="m17.09,22.13c-.45-.15-1-.09-1.37.13-1.35.81-1.28,3.89,1.09,3.86.46,0,1.04-.13,1.3-.37l-.24-.57c-.23.06-.37.18-.66.23-.76.13-1.46-.23-1.48-1.1h2.49c0-.87-.15-1.87-1.13-2.18Zm-1.38,1.55c.06-.52.26-.95.82-.96.54-.01.79.44.82.97h-1.63Z"/>
    <path class="cls-2" d="m22.69,22.05c-1.28-.02-1.78,1.06-1.72,2.2.09,1.44,1.21,2.12,2.58,1.8.31-.07.45-.19.67-.27l-.24-.61c-.35.11-.79.41-1.42.19-.41-.15-.7-.51-.72-1.05h2.5c0-1.14-.34-2.26-1.65-2.26Zm-.85,1.64c.05-.53.28-.96.83-.97.52,0,.79.45.79.97h-1.62Z"/>
  </g>
</svg>