<svg xmlns="http://www.w3.org/2000/svg" width="161" height="46" viewBox="0 0 161 46" fill="none"><script xmlns="" id="eppiocemhmnlbhjplcgkofciiegomcon"/><script xmlns="" id="P5eW7MJ8i1Fshvyo8egZwwlaS9" type="text/javascript"/><script xmlns=""/><script xmlns=""/>
<path d="M134.697 12.9137L137.613 18.0747C138.558 19.6506 138.834 19.9657 139.701 19.9657C140.567 19.9657 140.804 19.7294 141.71 18.0747L144.625 12.9137C145.571 11.1803 146.319 10.7469 148.289 10.7469H148.919C150.889 10.7469 151.126 11.2591 150.141 12.8743L146.831 18.4293C145.256 20.9901 144.822 21.6204 143.837 22.172C144.349 22.4083 144.783 22.8023 145.137 23.2751C145.531 23.8266 145.728 24.063 145.728 24.1024L146.871 25.9146L151.126 33.0454C152.15 34.6607 151.914 35.1729 149.944 35.1729H149.235C147.265 35.1729 146.516 34.7395 145.531 33.006L141.749 26.3086C140.804 24.5752 140.567 24.3782 139.74 24.3782C138.913 24.3782 138.598 24.6933 137.652 26.3086L133.87 33.006C132.885 34.7395 132.136 35.1729 130.167 35.1729H129.457C127.488 35.1729 127.251 34.6607 128.276 33.0454L132.57 25.9146C133.397 24.5752 133.949 23.7084 134.303 23.2357C134.658 22.8023 135.091 22.4083 135.525 22.1326C134.54 21.581 134.146 21.1082 132.57 18.3899L129.261 12.8349C128.236 11.2197 128.473 10.7075 130.442 10.7075H131.073C133.043 10.7075 133.791 11.1409 134.737 12.8743L134.697 12.9137Z" fill="#5BBB59"/>
<path d="M119.727 5.42817C118.505 4.20687 118.505 2.23703 119.727 1.05513C120.948 -0.166164 122.918 -0.166164 124.1 1.05513C125.321 2.23703 125.321 4.20687 124.1 5.42817C122.878 6.64946 120.948 6.61007 119.727 5.42817ZM119.372 33.0058V12.9923C119.372 11.2195 119.805 10.7861 121.578 10.7861H122.209C123.981 10.7861 124.415 11.2195 124.415 12.9923V33.0058C124.415 34.7787 123.981 35.2121 122.209 35.2121H121.578C119.805 35.2121 119.372 34.7787 119.372 33.0058Z" fill="#5BBB59"/>
<path d="M110.941 25.0871V20.8323C110.941 16.5381 109.523 14.9228 104.795 14.9228C100.068 14.9228 98.5313 16.5381 98.5313 20.8323V25.0871C98.5313 29.2632 100.068 30.9572 104.795 30.9572C109.523 30.9572 110.941 29.3814 110.941 25.0871ZM93.4885 42.855V20.7141C93.4885 13.7803 97.4676 10.1952 104.717 10.1952C112.36 10.1952 116.023 13.5439 116.023 20.7141V25.0083C116.023 32.1391 112.635 35.7636 105.78 35.7636C102.274 35.7636 99.8708 34.6605 98.5313 32.5725V42.8944C98.5313 44.6673 98.0979 45.1007 96.3251 45.1007H95.7341C93.9613 45.1007 93.5279 44.6673 93.5279 42.8944L93.4885 42.855Z" fill="#5BBB59"/>
<path d="M79.4631 35.6848C71.899 35.6848 68.629 32.2179 68.629 25.3234V20.7534C68.629 13.859 72.2141 10.3921 79.4631 10.3921C86.7121 10.3921 90.2184 13.859 90.2184 20.7534V25.3234C90.2184 32.2179 86.6333 35.6848 79.4631 35.6848ZM86.5151 25.3234V20.7534C86.5151 15.8682 84.7423 13.8984 79.4631 13.8984C74.184 13.8984 72.3323 15.8682 72.3323 20.7534V25.3234C72.3323 30.2086 74.2234 32.1785 79.4631 32.1785C84.7029 32.1785 86.5151 30.2086 86.5151 25.3234Z" fill="#5BBB59"/>
<path d="M59.5678 19.1382V33.6361C59.5678 34.9756 59.3314 35.212 57.9919 35.212H57.4403C56.219 35.212 55.8645 34.9756 55.8645 33.6361V18.9412C55.8645 13.268 58.6617 10.3921 64.2954 10.3921C64.7288 10.3921 65.2803 10.4315 65.8712 10.5103C67.0925 10.6679 67.3683 11.0224 67.3683 12.2437V12.7559C67.3683 13.9772 67.0532 14.253 65.8319 14.056C65.0439 14.0166 64.5318 13.9378 64.2954 13.9378C60.7891 13.9378 59.5678 15.4743 59.5678 19.1776V19.1382Z" fill="#5BBB59"/>
<path d="M35.4173 12.4802V26.466C35.4173 30.4451 37.1507 32.1785 42.0359 32.1785C46.9211 32.1785 48.5758 30.5632 48.5758 26.466V12.4802C48.5758 11.2589 48.9303 10.9043 50.1516 10.9043H50.7032C52.0427 10.9043 52.2791 11.2589 52.2791 12.4802V26.466C52.2791 32.5725 49.1273 35.6848 42.0359 35.6848C34.9445 35.6848 31.714 32.6119 31.714 26.466V12.4802C31.714 11.2589 32.0686 10.9043 33.2899 10.9043H33.8414C35.1809 10.9043 35.4173 11.2589 35.4173 12.4802Z" fill="#5BBB59"/>
<path d="M11.8977 19.7289V21.3442H25.2138V19.7289C25.2138 15.7499 23.0076 13.7012 18.5558 13.7012C14.1039 13.7012 11.8977 15.7105 11.8977 19.7289ZM28.7201 20.2805C28.7201 21.423 28.6807 22.2897 28.5625 22.9595C28.4049 24.1808 28.1292 24.4959 26.7897 24.4959H11.8977V25.993C11.8977 30.4842 14.104 32.2571 19.5801 32.2571C21.7863 32.2571 24.0319 31.9419 26.2775 31.3116C27.4594 30.957 27.8534 31.3509 27.8534 32.6116V33.045C27.8534 34.0693 27.6564 34.4239 26.3169 34.8179C24.2289 35.4482 21.9833 35.7634 19.5801 35.7634C11.7402 35.7634 8.19446 32.6904 8.19446 25.4414V20.8714C8.19446 13.9376 11.6614 10.4707 18.5952 10.4707C25.135 10.4707 28.7201 13.8588 28.7201 20.3199V20.2805Z" fill="#5BBB59"/>
<path d="M157.035 2.74913H156.641C156.405 2.74913 156.247 2.86732 156.247 3.1431V3.81284H156.956C157.429 3.81284 157.626 3.65526 157.626 3.30069C157.626 2.94612 157.429 2.78853 157.035 2.78853V2.74913ZM157.508 5.4675L156.878 4.325H156.247V5.4675C156.247 5.66449 156.247 5.70388 156.011 5.70388H155.932C155.932 5.70388 155.696 5.70388 155.696 5.4675V3.1431C155.696 2.51275 155.971 2.23698 156.602 2.23698H157.035C157.823 2.23698 158.217 2.59154 158.217 3.26129C158.217 3.81284 157.981 4.12802 157.469 4.24621L158.138 5.4675C158.256 5.66449 158.217 5.70388 157.981 5.70388H157.902C157.666 5.70388 157.587 5.66449 157.508 5.4675ZM156.878 6.6888C157.626 6.6888 158.296 6.41302 158.808 5.90087C159.36 5.34931 159.596 4.71897 159.596 3.97043C159.596 3.22189 159.32 2.55215 158.808 2.03999C158.296 1.48844 157.626 1.25206 156.878 1.25206C156.129 1.25206 155.499 1.52783 154.947 2.03999C154.435 2.59155 154.159 3.22189 154.159 3.97043C154.159 4.71897 154.435 5.34931 154.947 5.90087C155.499 6.41302 156.129 6.6888 156.878 6.6888ZM154.671 1.72482C155.302 1.09447 156.011 0.779297 156.878 0.779297C157.744 0.779297 158.493 1.09447 159.123 1.72482C159.754 2.35517 160.029 3.06431 160.029 3.97043C160.029 4.87655 159.714 5.58569 159.123 6.21604C158.493 6.84639 157.784 7.12216 156.878 7.12216C155.971 7.12216 155.262 6.80699 154.671 6.21604C154.041 5.58569 153.765 4.87655 153.765 3.97043C153.765 3.06431 154.08 2.35517 154.671 1.72482Z" fill="#5BBB59"/>
<path fill-rule="evenodd" clip-rule="evenodd" d="M9.96736 3.49744C5.20036 3.49744 1.33949 7.35832 1.33949 12.1253C1.33949 12.4799 1.02432 12.7951 0.669751 12.7951C0.315181 12.7951 0 12.4799 0 12.1253C0 6.60978 4.45182 2.15796 9.96736 2.15796C10.3219 2.15796 10.6371 2.47313 10.6371 2.8277C10.6371 3.18227 10.3219 3.49744 9.96736 3.49744Z" fill="#5BBB59"/>
<path fill-rule="evenodd" clip-rule="evenodd" d="M10.5186 7.51612C7.68209 7.51612 5.35768 9.84053 5.35768 12.6771C5.35768 13.0317 5.0425 13.3468 4.68792 13.3468C4.33335 13.3468 4.01819 13.0317 4.01819 12.6771C4.01819 9.09199 6.93355 6.17664 10.5186 6.17664C10.8732 6.17664 11.1884 6.49181 11.1884 6.84638C11.1884 7.20095 10.8732 7.51612 10.5186 7.51612Z" fill="#5BBB59"/>
</svg>