<svg xmlns="http://www.w3.org/2000/svg" fill="none" viewBox="0 0 34 24" height="24" width="34" class="PaymentLogo PaymentMethodHubCountriesExplorerListItem__paymentLogo"><path fill="#00B14F" d="M0 4c0-2.20914 1.79086-4 4-4h26c2.2091 0 4 1.79086 4 4v16c0 2.2091-1.7909 4-4 4H4c-2.20914 0-4-1.7909-4-4V4Z"></path><path fill="#fff" d="M10 11.8006v.3932c0 2.1099.8121 4.0782 2.2864 5.5418 1.4709 1.4617 3.444 2.2645 5.553 2.2645 1.6955 0 3.1974-.3774 4.4654-1.1216 1.0448-.6144 1.5081-1.2352 1.5495-1.2919v-6.5507h-6.3147v1.2178h5.0794v4.9546l-.0049.0049c-.595.587-2.0061 1.5704-4.7747 1.5704-1.8041 0-3.4742-.6782-4.7041-1.9126-1.2271-1.2274-1.9007-2.889-1.9007-4.6772v-.3932c0-1.6885.7721-3.37332 2.1179-4.61899 1.374-1.27048 3.1646-1.97072 5.0426-1.97072 1.7509 0 2.9714.2616 3.9497.84747V4.69172c-1.0191-.42801-2.2385-.6197-3.9497-.6197C13.8449 4.07202 10 7.6117 10 11.8006Zm12.3448-3.40184V6.9606c-1.115-.59086-2.334-.85456-3.9497-.85456-1.6485 0-3.2117.59698-4.4019 1.67754-1.1925 1.08426-1.8499 2.51052-1.8499 4.01702v.3932c0 3.1392 2.5554 5.6938 5.6961 5.6938 2.5549 0 3.6038-.8239 3.8709-1.0841v-3.654h-4.1707v1.2163h3.0166v1.8309l-.0111.0026c-.3882.1525-1.1945.4715-2.7057.4715-1.198 0-2.3194-.4604-3.1579-1.2971-.841-.8387-1.3039-1.9683-1.3039-3.1799v-.3932c0-2.42615 2.2974-4.4766 5.0175-4.4766 1.8814 0 2.9938.30172 3.9497 1.07476Z" clip-rule="evenodd" fill-rule="evenodd"></path></svg>