<svg xmlns="http://www.w3.org/2000/svg" width="40" height="40" fill="none"><rect width="40" height="40" fill="#15b5e2" rx="6.667"></rect><path fill="#ffffff" d="M30.01 13.65a.75.75 0 0 0-1.197-.188l-2.88 2.882a.756.756 0 0 1-1.06 0l-1.246-1.247a.75.75 0 0 1 0-1.06l2.868-2.87a.75.75 0 0 0-.224-1.214c-2.166-.969-4.87-.463-6.575 1.229-1.448 1.438-1.88 3.685-1.183 6.165a.74.74 0 0 1-.21.75l-7.805 7.128a3.009 3.009 0 1 0 4.247 4.249l7.204-7.822a.75.75 0 0 1 .74-.214 8.4 8.4 0 0 0 2.166.299c1.565 0 2.94-.507 3.93-1.483 1.835-1.808 2.115-4.875 1.225-6.605M12.664 28.96a1.5 1.5 0 1 1-.326-2.982 1.5 1.5 0 0 1 .326 2.982"></path></svg>