<svg xmlns="http://www.w3.org/2000/svg" fill="none" viewBox="0 0 34 24" height="24" width="34" class="PaymentLogo PaymentMethodHubCountriesExplorerListItem__paymentLogo"><path fill="#fff" d="M0 4c0-2.20914 1.79086-4 4-4h26c2.2091 0 4 1.79086 4 4v16c0 2.2091-1.7909 4-4 4H4c-2.20914 0-4-1.7909-4-4V4Z"></path><path fill="#C4CCD8" d="M30 1H4C2.34315 1 1 2.34315 1 4v16c0 1.6569 1.34315 3 3 3h26c1.6569 0 3-1.3431 3-3V4c0-1.65685-1.3431-3-3-3ZM4 0C1.79086 0 0 1.79086 0 4v16c0 2.2091 1.79086 4 4 4h26c2.2091 0 4-1.7909 4-4V4c0-2.20914-1.7909-4-4-4H4Z" clip-rule="evenodd" fill-rule="evenodd"></path><path fill="#1B6BAF" d="M4.85204 6.01643v7.76327c.77632.4852 1.64969.7763 2.62009.7763.87337 0 1.55266-.6793 1.6497-1.5526V8.73357h2.62007v4.07573c0 1.5526-.8733 2.9112-3.68752 2.9112-1.06745 0-2.1349-.1941-3.1053-.3882v6.0166h4.65795c1.74677 0 3.10527-1.3586 3.10527-3.1053V2.91113H7.95734c-1.74674 0-3.1053 1.35857-3.1053 3.1053Z"></path><path fill="#D02644" d="M16.691 2.91113c-1.7467 0-3.1053 1.35857-3.1053 3.1053v3.68755c.7763-.77632 2.1349-1.26153 4.3668-1.16449.8734.09704 1.6497.19408 2.426.38817v1.45564c-.6792-.3882-1.5526-.67932-2.3289-.77636-1.3586-.09704-2.5231.87336-2.7172 2.13486-.097 1.3586.8734 2.5231 2.1349 2.7172h.4852c.8734-.0971 1.6497-.3882 2.329-.7764v1.4557c-.7763.194-1.6497.3881-2.426.3881-2.2319.0971-3.5905-.3881-4.3668-1.1645v6.7929h4.6579c1.7467 0 3.1053-1.3586 3.1053-3.1053V2.91113H16.691Z"></path><path fill="#46A548" d="M25.4247 2.91113c-1.7468 0-3.1053 1.35857-3.1053 3.1053v2.71714h4.755c.8733-.09704 1.6496.67929 1.7467 1.55263v.0971c0 .8733-.5823 1.5526-1.4556 1.6497.9704 0 1.7467.7763 1.8437 1.7467 0 .9704-.8733 1.7467-1.8437 1.7467h-5.0461v5.8225h4.5609c1.7467 0 3.1053-1.3586 3.1053-3.1053V2.91113h-4.5609ZM24.2602 14.459h2.2319c.4852-.1941.7763-.6793.6793-1.2616-.097-.2911-.3882-.5822-.6793-.6792h-2.2319v1.9408Zm2.7171-3.8817c0-.3881-.2911-.77628-.6793-.87332h-2.0378v1.74672h2.0378c.3882-.097.6793-.4852.6793-.8734Z"></path></svg>