<svg xmlns="http://www.w3.org/2000/svg" viewBox="0 0 50 32"><script xmlns="" id="eppiocemhmnlbhjplcgkofciiegomcon"/><script xmlns="" id="dp6TMKyqzlAJnLgQercoDV4x71" type="text/javascript"/><script xmlns=""/><script xmlns=""/>
  <defs>
    <style>
      .cls-1 {
        fill: #6b2fb9;
      }

      .cls-2 {
        fill: #fff;
      }

      .cls-3 {
        fill: #5ab2e1;
      }
    </style>
  </defs>
  <g id="BG">
    <rect class="cls-2" y="0" width="50" height="32" rx="4" ry="4"/>
  </g>
  <g id="LOGOS">
    <g>
      <path class="cls-1" d="m31.21,19.49c-.04.09,0,.17,0,.24,0,.9,0,1.79,0,2.69,0,.11.01.22-.02.32-.04.17-.14.28-.32.33-.07.02-.15.03-.22.03-.57,0-1.15,0-1.72,0-.3,0-.46-.21-.48-.47,0-.03,0-.06,0-.08,0-3.23,0-6.46,0-9.69,0-.12.01-.24.08-.34.08-.12.19-.18.33-.19.57-.02,1.15.02,1.72,0,.08,0,.15,0,.23.02.21.06.3.19.31.41,0,.07,0,.13,0,.2,0,.02-.02.06.02.07.03,0,.05-.03.06-.05.05-.08.12-.14.18-.2.19-.21.43-.34.69-.44.15-.05.31-.09.47-.11.2-.03.4-.04.6-.06.19-.02.38,0,.56.02.23.03.47.08.69.16.18.06.36.13.53.22.4.2.72.5,1,.85.09.11.15.25.23.37.1.16.19.34.24.53.06.22.12.44.16.66.03.17.06.35.07.51,0,.2,0,.4.01.59,0,.43-.02.87-.06,1.3-.04.4-.18.82-.35,1.23-.11.26-.27.48-.44.7-.36.45-.85.71-1.38.89-.27.09-.55.15-.83.17-.16.01-.32,0-.49,0-.43.01-.82-.13-1.2-.33-.22-.11-.42-.27-.58-.46-.02-.03-.05-.06-.09-.1Zm1.35-1.5c.25,0,.49-.04.71-.17.31-.18.47-.48.56-.81.15-.57.13-1.15-.09-1.7-.08-.2-.18-.38-.35-.52-.21-.16-.45-.22-.7-.24-.33-.02-.65.03-.93.23-.33.24-.47.58-.55.96-.08.39-.06.78.02,1.16.14.64.61,1.11,1.34,1.09Z"/>
      <path class="cls-1" d="m14.29,14.83c0-1.64,0-3.29,0-4.93,0-.3.14-.44.44-.44.61,0,1.23.02,1.84,0,.27,0,.44.17.44.44,0,.94,0,1.87,0,2.81,0,.08-.01.17-.02.25,0,.02-.01.05.01.07.03.02.05,0,.07-.03.13-.12.26-.22.39-.33.15-.12.33-.2.5-.28.21-.1.43-.14.65-.19.17-.03.35-.04.53-.03.31.02.62.05.92.12.27.06.53.15.77.28.3.17.57.39.8.66.26.3.39.64.52,1.01.06.18.09.38.16.56.02.06,0,.15,0,.22,0,.16.06.32.05.48-.01.16,0,.33,0,.49,0,1.25,0,2.49,0,3.74,0,.32-.15.48-.47.48-.57,0-1.14,0-1.7,0-.05,0-.11,0-.16,0-.16,0-.25-.11-.34-.21-.03-.04-.05-.08-.05-.14,0-1.27,0-2.54,0-3.8,0-.19-.05-.37-.08-.56-.04-.25-.15-.45-.31-.62-.22-.24-.51-.31-.82-.33-.23-.01-.47,0-.69.1-.23.1-.39.26-.51.47-.17.31-.21.64-.21.98,0,1.11,0,2.23,0,3.34,0,.15.02.29-.01.44-.05.23-.26.33-.46.33-.23,0-.46,0-.68,0-.39,0-.77,0-1.16,0-.23,0-.41-.23-.41-.42,0-.44,0-.88,0-1.32,0-1.22,0-2.43,0-3.65h0Z"/>
      <path class="cls-1" d="m43.36,19.52c-.06.07-.12.14-.18.21-.21.23-.49.36-.78.47-.21.08-.44.14-.66.17-.2.02-.41,0-.62.01-.3,0-.6-.03-.89-.11-.4-.11-.76-.29-1.08-.54-.26-.2-.46-.45-.64-.71-.19-.27-.23-.57-.33-.86-.08-.24-.09-.5-.11-.76-.05-.58-.02-1.15-.02-1.73,0-.95,0-1.89,0-2.84,0-.3.21-.51.5-.5.48,0,.97,0,1.45.01.13,0,.26-.02.39,0,.26.04.4.19.41.45,0,.05,0,.11,0,.16,0,1.24,0,2.48,0,3.72,0,.36.09.69.32.98.19.23.45.33.73.35.33.03.66,0,.94-.22.26-.21.37-.5.43-.82.03-.15.03-.3.03-.45,0-1.08,0-2.16,0-3.24,0-.2,0-.4.01-.6.02-.17.18-.32.35-.32.49,0,.99,0,1.48,0,.14,0,.28-.01.42,0,.2,0,.38.07.45.3.02.08.04.16.04.24,0,2.05,0,4.1,0,6.15,0,.27.01.54-.02.81-.03.23-.18.39-.43.4-.24.01-.49,0-.74,0-.31,0-.62,0-.93,0-.32,0-.49-.18-.5-.5,0-.07,0-.13,0-.2,0,0-.02,0-.03-.01Z"/>
      <path class="cls-3" d="m11.56,9.47c.4,0,.79,0,1.19,0,.15,0,.29.02.37.17.08.16.02.29-.07.41-.25.33-.5.66-.75,1-.39.52-.79,1.04-1.18,1.56-.48.64-.96,1.27-1.44,1.91-.04.06-.06.1-.01.17.58.77,1.15,1.55,1.73,2.32.4.54.79,1.08,1.19,1.61.25.34.5.67.75,1.01.07.1.14.19.11.33-.03.15-.12.23-.26.27-.07.02-.14.02-.21.02-.75,0-1.5,0-2.25,0-.32,0-.56-.12-.75-.37-.94-1.24-1.89-2.49-2.83-3.73-.3-.4-.57-.81-.87-1.21-.17-.23-.15-.46.05-.69.22-.26.44-.53.66-.8.26-.34.52-.68.78-1.02.19-.24.38-.48.56-.72.21-.28.42-.55.62-.83.1-.14.22-.26.33-.4.2-.26.39-.54.62-.79.12-.13.28-.21.46-.21.41,0,.83,0,1.24,0h0Z"/>
      <path class="cls-1" d="m4,14.84c0-1.59,0-3.17,0-4.76,0-.06,0-.13,0-.19-.01-.3.21-.44.44-.43.55.01,1.09,0,1.64.01.13,0,.26,0,.39,0,.27,0,.38.08.45.32.02.07.02.14.02.21,0,.81,0,1.63,0,2.44,0,.15-.1.23-.18.33-.17.24-.36.47-.54.7-.11.14-.23.28-.34.42-.14.18-.28.35-.32.58-.04.2,0,.37.09.54.06.13.14.24.23.36.13.17.24.34.37.51.22.3.44.61.66.91.03.04.04.08.04.13,0,.93,0,1.86,0,2.78,0,.38-.19.52-.52.52-.64,0-1.28,0-1.91,0-.11,0-.21,0-.3-.06-.16-.1-.21-.25-.21-.43,0-1.63,0-3.27,0-4.9,0,0,0,0,0,0Z"/>
      <path class="cls-1" d="m26.78,16.27c0,1.16,0,2.32,0,3.48,0,.28-.18.47-.47.47-.52,0-1.03,0-1.55,0-.12,0-.24.02-.36,0-.27-.07-.37-.25-.37-.46,0-.29,0-.58,0-.87,0-2,0-4.01,0-6.01,0-.17.02-.32.15-.45.11-.11.24-.1.36-.1.46,0,.91,0,1.37,0,.16,0,.32-.02.48,0,.24.04.37.13.38.38.01.23.01.46.01.69,0,.95,0,1.91,0,2.86h0Z"/>
      <path class="cls-3" d="m25.36,11.54c-.72-.01-1.34-.58-1.33-1.37.01-.72.61-1.3,1.39-1.28.68.02,1.27.6,1.26,1.35-.01.69-.56,1.28-1.31,1.3Z"/>
    </g>
  </g>
</svg>