<svg xmlns="http://www.w3.org/2000/svg" fill="none" viewBox="0 0 34 24" height="24" width="34" class="PaymentLogo PaymentMethodHubCountriesExplorerListItem__paymentLogo"><path fill="#E7ECF1" d="M0 4c0-2.20914 1.79086-4 4-4h26c2.2091 0 4 1.79086 4 4v16c0 2.2091-1.7909 4-4 4H4c-2.20914 0-4-1.7909-4-4V4Z"></path><path fill="#4F5B76" d="M21.0001 6.66666v4.00004h-8V5.33333H21v1.33333h.0001Zm1.3333 0v.00001h1.3333v-.00001h-1.3333Zm1.3333 1.36001h-1.3333v1.30666h1.3333V8.02667Zm0 3.97333h-2.5334v-.0067c-.0441.0045-.0885.0067-.1332.0067h-8c-.0674 0-.1343-.0051-.2002-.0151V12h-2.4666v6.6667H13v-4c0-.3537.1405-.6928.3905-.9428.2501-.2501.5892-.3906.9428-.3906h5.3334c.3536 0 .6927.1405.9428.3906.25.25.3905.5891.3905.9428v4h2.6667V12Zm-4 8H10.3333c-.35359 0-.69273-.1405-.94278-.3905C9.14048 19.3594 9 19.0203 9 18.6667V6.66666c0-.35362.14048-.69276.39052-.94281.25005-.25005.58919-.39052.94278-.39052h1.3334c0-.35362.1405-.69276.3906-.94281.25-.25004.5892-.39052.9428-.39052h8c.3536 0 .6927.14048.9428.39052.25.25005.3905.58919.3905.94281h1.3333c.3536 0 .6927.14047.9428.39052.25.25005.3905.58919.3905.94281V18.6667c0 .3536-.1405.6927-.3905.9428-.2501.25-.5892.3905-.9428.3905h-4Zm-8-13.33334h-1.3334v.00001h1.3334v-.00001Zm-1.3334 1.36001h1.3334v1.30666h-1.3334V8.02667Zm9.3334 10.64003v-4h-2.0001v4h2.0001Zm-3.3334 0v-4h-2v4h2Zm-2.133-9.75312c-.2034.32718-.3183.70152-.3337 1.08642h2.7733l.1067-.72h-1.8133c.0666-.17333.2533-.4.7333-.73333.6933-.54667.92-.77334.92-1.36C16.5866 6.6 16.2533 6 15.2533 6c-.3494-.01832-.692.10142-.9539.33339-.2619.23196-.4221.55758-.4461.90661h.8133c.0533-.33333.2667-.57333.5867-.57333s.4933.24.4933.58666c0 .34667-.1733.48-.72.88-.3383.18423-.623.45307-.8263.78025Zm4.6932.20642V10h.7733v-.88h.4667v-.69333h-.4667V6.08h-.92l-1.6267 2.29334V9.12h1.7734Zm0-2.30666v.92l-.0134.69333h-1.0267c.3766-.51789.7239-1.05652 1.0401-1.61333Z" clip-rule="evenodd" fill-rule="evenodd"></path></svg>