<svg class="LocalPaymentMethodsPricingCardHeader__logo" xmlns="http://www.w3.org/2000/svg" width="40" height="40" viewBox="0 0 40 40" fill="none"><path d="M8 8h24c2.2091 0 4 1.79086 4 4v16c0 2.2091-1.7909 4-4 4H8c-2.20914 0-4-1.7909-4-4V12c0-2.20914 1.79086-4 4-4Z" fill="#F6F9FC"></path><path fill-rule="evenodd" clip-rule="evenodd" d="M4 12c0-2.20914 1.79086-4 4-4h24c2.2091 0 4 1.79086 4 4v16c0 2.2091-1.7909 4-4 4H8c-2.20914 0-4-1.7909-4-4V12Zm2 0c0-1.1046.89543-2 2-2h24c1.1046 0 2 .8954 2 2v16c0 1.1046-.8954 2-2 2H8c-1.10457 0-2-.8954-2-2V12Z" fill="#EAEEF3"></path><path fill-rule="evenodd" clip-rule="evenodd" d="M9 16v-.4142L11.5858 12H14v.4142L11.4142 16H9Zm17-4v.4142L28.5858 16H31v-.4142L28.4142 12H26Zm0 15.5858V28h2.4142L31 24.4142V24h-2.4142L26 27.5858ZM9 24v.4142L11.5858 28H14v-.4142L11.4142 24H9Z" fill="#333"></path><path fill-rule="evenodd" clip-rule="evenodd" d="M14 20c0-3.3137 2.6863-6 6-6s6 2.6863 6 6c0 .9202-.2072 1.7921-.5774 2.5714H14.5774C14.2072 21.7921 14 20.9202 14 20Z" fill="#E25950"></path><path fill-rule="evenodd" clip-rule="evenodd" d="M22.8714 18.6912c1.9736 0 2.7902 1.3541 3.039 2.3464-.4848 2.7813-2.8849 4.9048-5.7914 4.9614-2.3609-.0439-4.4007-1.3266-5.4219-3.189-.438-.8248-.6891-1.7639-.6971-2.7609.0078-.9425.2492-1.8323.6721-2.6204.004.0811.0062.1688.0062.2636 0 1.1558-.0048 3.5734 2.901 3.5734 2.9059 0 2.8209-2.5745 5.2921-2.5745Z" fill="#43458B"></path></svg>