<svg xmlns="http://www.w3.org/2000/svg" id="b" viewBox="0 0 25.4657059 14"><script xmlns="" id="eppiocemhmnlbhjplcgkofciiegomcon"/><script xmlns="" id="nzw4YtSt0DDJWhRpBRabAtvVi0" type="text/javascript"/><script xmlns=""/><script xmlns=""/><rect x="3.6244801" y="4.6394036" width="1.9948437" height="7.8089448" fill="#7de9cf"/><rect y="1.5460973" width="1.9948437" height="10.9022511" fill="#7de9cf"/><path d="M4.6216991,1.3498491c-.6247075,0-1.1311283,.5064716-1.1311283,1.1311791s.5064209,1.1311283,1.1311283,1.1311283c.6247582,0,1.1311791-.5064209,1.1311791-1.1311283s-.5064209-1.1311791-1.1311791-1.1311791Z" fill="#7de9cf"/><path d="M25.4657059,12.4483484l-2.6117398-4.0070348c1.0822311-1.4742711,1.910846-2.9682735,2.3218565-3.80191h-2.248815c-.81284,1.4954734-1.9701922,3.3552918-3.1571161,4.6433072V1.5460973h-1.9948437V10.7416634c-.3042887,.0886642-.5988893,.1050986-.8748238,.0099418-.680503-.2346457-.7170238-.5866143-.6176569-2.1923093,.0830339-1.341782,.2975425-3.4993458-1.8396813-3.9607245-2.1055726-.4545817-3.9050303,1.4148234-5.1844734,3.4956938v-3.4548616h-1.9948437l.0002536,7.8092999h2.0675809c1.1109912-2.8096619,3.2392371-6.3452749,4.5509401-5.8295717,.4861316,.1911759,.4888706,.6974446,.4102496,1.8021968-.0963742,1.3539555-.3235636,3.7091879,2.149854,4.1731027,1.7996607,.3375632,3.5827856-.9024172,5.085766-2.5355028l1.5574065,2.3894198h2.3800868Z" fill="#7de9cf"/></svg>