<svg class="mr-2" width="24" height="25" viewBox="0 0 24 25" fill="none" xmlns="http://www.w3.org/2000/svg"><path fill-rule="evenodd" clip-rule="evenodd" d="M17 21.8633H7C5.895 21.8633 5 20.9683 5 19.8633V11.8633C5 10.7583 5.895 9.86328 7 9.86328H17C18.105 9.86328 19 10.7583 19 11.8633V19.8633C19 20.9683 18.105 21.8633 17 21.8633Z" stroke="white" stroke-width="1.5" stroke-linecap="round" stroke-linejoin="round"></path><path d="M12 17.9533V15.3633" stroke="white" stroke-width="1.5" stroke-linecap="round" stroke-linejoin="round"></path><path d="M12.5303 14.083C12.8232 14.3758 12.8232 14.8507 12.5303 15.1436C12.2374 15.4365 11.7626 15.4365 11.4697 15.1436C11.1768 14.8507 11.1768 14.3758 11.4697 14.083C11.7626 13.7901 12.2374 13.7901 12.5303 14.083" stroke="white" stroke-width="1.5" stroke-linecap="round" stroke-linejoin="round"></path><path d="M8 9.86328V7.86328V7.86328C8 5.65428 9.791 3.86328 12 3.86328V3.86328C14.209 3.86328 16 5.65428 16 7.86328V7.86328V9.86328" stroke="white" stroke-width="1.5" stroke-linecap="round" stroke-linejoin="round"></path></svg>