<svg xmlns="http://www.w3.org/2000/svg" width="40" height="40" viewBox="0 0 40 40" fill="none">
  <!-- Background -->
  <rect width="40" height="40" fill="#15b5e2" rx="6.667"></rect>
  <!-- Truck -->
  <g fill="#FFFFFF" transform="translate(4, 4)"> <!-- Define a cor do caminhão -->
    <path fill-rule="evenodd" clip-rule="evenodd" d="M19 8C19 6.89543 18.1046 6 17 6H7C5.89543 6 5 6.89543 5 8V22.9951C5 24.0997 5.89543 24.9951 7 24.9951H9.07474C9.63547 26.1802 10.8421 27 12.2402 27C13.6384 27 14.845 26.1802 15.4057 24.9951H17C17.1098 24.9951 17.2174 24.9863 17.3224 24.9693C17.8777 26.1683 19.0917 27 20.5 27C21.9497 27 23.1936 26.1186 23.7249 24.8625H25C26.1046 24.8625 27 23.967 27 22.8625V16.8362C27 16.3007 26.7853 15.7876 26.4039 15.4117L22.975 12.0325C22.6008 11.6638 22.0965 11.457 21.5711 11.457H19V8ZM19 13.457L19 20.3368C19.4546 20.1208 19.9632 20 20.5 20C22.2153 20 23.6424 21.2339 23.9421 22.8625H25V16.8362L21.5711 13.457H19ZM13.6531 22.9951H13.6466V24.0228C13.4344 24.5934 12.8848 25 12.2402 25C11.4118 25 10.7402 24.3284 10.7402 23.5C10.7402 22.6716 11.4118 22 12.2402 22C12.8915 22 13.4459 22.4151 13.6531 22.9951ZM15.7041 22.9951H17L17 8H7L7 22.9951H8.77638C9.02109 21.3014 10.4787 20 12.2402 20C14.0018 20 15.4594 21.3014 15.7041 22.9951ZM20.5 22C19.6716 22 19 22.6716 19 23.5C19 24.3284 19.6716 25 20.5 25C21.3284 25 22 24.3284 22 23.5C22 22.6716 21.3284 22 20.5 22Z"></path>
  </g>
</svg>
