<svg xmlns="http://www.w3.org/2000/svg" id="Layer_1" data-name="Layer 1" viewBox="0 0 512 512"><script xmlns="" id="eppiocemhmnlbhjplcgkofciiegomcon"/><script xmlns="" id="CneI7QjNtc6bEYV5NAKbQlUMaC" type="text/javascript"/><script xmlns=""/><script xmlns=""/>
  <defs>
    <style>
      .cls-1 {
        fill: #d60510;
      }

      .cls-1, .cls-2 {
        fill-rule: evenodd;
      }

      .cls-2, .cls-3 {
        fill: #fff;
      }
    </style>
  </defs>
  <title>0</title>
  <g>
    <g>
      <path class="cls-1" d="M132.4,5H399.54c18.77,0,34.12,16.25,34.12,36.11V58.37c0,24.4-33.05,24.31-33.05.16V49.11a10.94,10.94,0,0,0-10.9-10.9H122a10.93,10.93,0,0,0-10.9,10.9v9.24c0,24.27-31.5,24.09-31.5.53V41.11C79.61,21.25,95,5,113.73,5ZM254.88,407.73H428.13c39.56,0,40-42,35.93-62.81-2.2-13.95-25.91-13.84-28.52,0v16.2a13.5,13.5,0,0,1-13.46,13.46H89.92a13.5,13.5,0,0,1-13.46-13.46v-16.2c-2.61-13.84-26.32-13.95-28.52,0-4,20.76-3.64,62.81,35.93,62.81h171Z"/>
      <path class="cls-2" d="M362,189.9h27.62v-.3a26.37,26.37,0,0,0,22.29-26h0a26.35,26.35,0,0,0-26.27-26.27H330V274.72h70.55a27.2,27.2,0,0,0,27.12-27.13h0a27.21,27.21,0,0,0-27.12-27.13H389.61v-.06H362a15.29,15.29,0,0,1-15.25-15.25h0A15.29,15.29,0,0,1,362,189.9Zm64.93,13.48c18.5,8.7,31.28,26.67,31.28,47.3h0c0,29.09-25.39,52.88-56.44,52.88h-87c-8.14,0-14.79-6.24-14.79-13.86V124.18a14.57,14.57,0,0,1,14.53-14.52H387a55.59,55.59,0,0,1,55.46,55.4h0A55.18,55.18,0,0,1,426.92,203.38Z"/>
      <path class="cls-3" d="M286.15,287a17.46,17.46,0,0,1-34.72,3.69L237.12,159.09l-50.67,128.7,0,.12h0l-.14.34-.11.27,0,.06-.12.27-.07.16-.12.25-.06.12-.13.26,0,.09a17.37,17.37,0,0,1-3.54,4.61l-.05,0-.26.23a17.18,17.18,0,0,1-3,2.14l-.08,0-.33.18h0l-.31.16-.14.07-.2.09-.21.1-.18.08-.22.09-.19.08-.18.07-.16.06-.09,0-.15.05L176,298l-.13,0a17.44,17.44,0,0,1-5.12,1H169.5a17.44,17.44,0,0,1-5.72-1.19l-.23-.09-.06,0-.23-.09-.23-.1-.18-.08-.2-.09-.21-.1-.12-.06L162,297l0,0-.27-.15-.15-.08a17.43,17.43,0,0,1-2.67-1.85l-.07-.06-.58-.51h0l-.44-.42-.42-.44h0l-.51-.58-.06-.06a17.43,17.43,0,0,1-1.85-2.67l-.09-.15-.15-.28,0,0-.16-.32-.06-.12-.1-.21-.09-.2-.08-.18-.1-.23-.1-.23,0-.06-.1-.23L103.15,159.09,88.85,290.72A17.46,17.46,0,0,1,54.13,287L71,131.84v-.11h0a29.06,29.06,0,0,1,24.94-25.5h0l1-.1a29.64,29.64,0,0,1,4.4-.13h.07a29.54,29.54,0,0,1,5.28.71A28.66,28.66,0,0,1,127,124.24L170.14,233.9l43.17-109.66A28.67,28.67,0,0,1,233.6,106.7a29.52,29.52,0,0,1,5.28-.71h.07a29.53,29.53,0,0,1,4.41.13l.94.1h0a29,29,0,0,1,24.94,25.5h0v.11Z"/>
    </g>
    <g>
      <path class="cls-3" d="M215.39,471.26q-1.16,4.51-2.42,9.63t-2.52,9.78c-.82,3.12-1.59,5.84-2.34,8.19a28.07,28.07,0,0,1-1.85,4.83c-.87,1.54-2.41,2.3-4.6,2.3a9.94,9.94,0,0,1-2.4-.38,4.05,4.05,0,0,1-2.46-2.08,28.69,28.69,0,0,1-1.85-5.08c-.74-2.52-1.51-5.4-2.34-8.68S191,483,190.15,479.37s-1.56-7-2.22-10.21-1.21-5.82-1.65-8-.68-3.52-.74-4a3.44,3.44,0,0,1-.08-.57v-.33a2.73,2.73,0,0,1,1.06-2.26,4.05,4.05,0,0,1,2.63-.86,4.23,4.23,0,0,1,2.4.63,3.57,3.57,0,0,1,1.31,2.16c0,.11.16.91.45,2.38s.69,3.36,1.16,5.65,1,4.86,1.56,7.7,1.17,5.73,1.81,8.65,1.26,5.73,1.89,8.48,1.21,5.08,1.77,7c.54-1.85,1.14-4,1.81-6.35s1.32-4.83,2-7.36,1.28-5.08,1.89-7.62,1.16-4.91,1.69-7.09,1-4.12,1.35-5.81.68-3,.91-3.78a4.31,4.31,0,0,1,4.36-3.36,4.58,4.58,0,0,1,3,1,4.33,4.33,0,0,1,1.47,2.41q.92,4,2,9c.71,3.29,1.46,6.64,2.22,10s1.58,6.71,2.38,10,1.62,6.14,2.4,8.64c.54-2,1.14-4.31,1.77-7s1.26-5.55,1.92-8.45,1.29-5.76,1.89-8.6,1.16-5.39,1.66-7.66.88-4.11,1.18-5.53.45-2.16.45-2.22a3.52,3.52,0,0,1,1.32-2.16,4.18,4.18,0,0,1,2.38-.63,4.05,4.05,0,0,1,2.63.86,2.74,2.74,0,0,1,1.08,2.26v.33a3.44,3.44,0,0,1-.08.57c0,.45-.31,1.76-.79,4s-1,4.9-1.67,8-1.4,6.53-2.23,10.16-1.62,7.09-2.41,10.35-1.56,6.16-2.31,8.65a28,28,0,0,1-1.85,5,4.32,4.32,0,0,1-2.5,2.18,9.17,9.17,0,0,1-2.42.45,8.86,8.86,0,0,1-1-.08,8.28,8.28,0,0,1-1.4-.33,5.28,5.28,0,0,1-1.47-.77,3.56,3.56,0,0,1-1.16-1.44,36.63,36.63,0,0,1-1.77-5.16c-.68-2.41-1.43-5.12-2.22-8.15s-1.58-6.21-2.34-9.51-1.48-6.41-2.14-9.29"/>
      <path class="cls-3" d="M258.39,490.84c-.83,2.63-1.55,5-2.18,7.28s-1.22,4.08-1.77,5.5a3.52,3.52,0,0,1-3.62,2.38,3.6,3.6,0,0,1-2.76-.94,3.78,3.78,0,0,1-.69-3.5c.11-.31.45-1.44,1-3.35s1.32-4.28,2.26-7.13,2-6,3.08-9.33,2.28-6.73,3.5-10,2.38-6.4,3.54-9.25a59,59,0,0,1,3.2-6.92,3.72,3.72,0,0,1,1.77-1.89,9,9,0,0,1,6.09.08,3.27,3.27,0,0,1,1.77,2c.78,1.63,1.7,3.84,2.76,6.59s2.19,5.74,3.36,8.94,2.34,6.46,3.5,9.78,2.22,6.44,3.17,9.31,1.78,5.31,2.46,7.33,1.12,3.33,1.28,3.92a3.92,3.92,0,0,1,.16,1.08,3.21,3.21,0,0,1-1,2.42,4,4,0,0,1-2.87.94,3.08,3.08,0,0,1-2.11-.63,4.18,4.18,0,0,1-1.1-1.76c-.54-1.41-1.2-3.26-1.93-5.5s-1.52-4.65-2.34-7.28Zm18.25-7.13c-1.16-3.55-2.24-6.82-3.29-9.78s-2.11-5.81-3.21-8.49c-.27-.6-.56-1.28-.86-2.1s-.48-1.25-.53-1.41a7.19,7.19,0,0,0-.53,1.35c-.31.84-.6,1.56-.87,2.16q-1.64,4-3.17,8.49c-1,3-2.09,6.23-3.24,9.78Z"/>
      <path class="cls-3" d="M304.5,485.34a7.29,7.29,0,0,1-.78-.9,11,11,0,0,1-.79-1.14c-.78-1.09-1.59-2.41-2.5-4s-1.81-3.21-2.72-5-1.77-3.52-2.61-5.29-1.63-3.42-2.3-4.94-1.28-2.87-1.77-4a15.51,15.51,0,0,1-.91-2.35,3.89,3.89,0,0,1-.2-.61,5.19,5.19,0,0,1,0-.61,3.23,3.23,0,0,1,1-2.45,3.91,3.91,0,0,1,2.84-1,3,3,0,0,1,2.34.82,5.94,5.94,0,0,1,1,1.65c.11.29.38.87.79,1.8l1.51,3.44c.6,1.36,1.29,2.87,2.05,4.5s1.55,3.25,2.35,4.84,1.56,3.09,2.3,4.55a31,31,0,0,0,2.1,3.56,60.5,60.5,0,0,0,3.37-6c1.2-2.41,2.35-4.78,3.44-7.12s2-4.44,2.84-6.23,1.27-2.92,1.44-3.36a6.26,6.26,0,0,1,1-1.65,2.94,2.94,0,0,1,2.34-.82,3.91,3.91,0,0,1,2.84,1,3.23,3.23,0,0,1,1,2.45,3.37,3.37,0,0,1,0,.61,5.25,5.25,0,0,1-.19.61l-1,2.38c-.46,1.14-1,2.49-1.74,4s-1.44,3.18-2.29,5-1.73,3.54-2.63,5.29-1.81,3.41-2.72,5-1.74,2.92-2.5,4a12.92,12.92,0,0,1-1.56,1.88v17a3.6,3.6,0,0,1-1,2.67,4,4,0,0,1-5.33,0,3.61,3.61,0,0,1-1-2.67Z"/>
    </g>
  </g>
</svg>