<svg class="LocalPaymentMethodsPricingCardHeader__logo" xmlns="http://www.w3.org/2000/svg" width="40" height="40" viewBox="0 0 40 40" fill="none"><path fill="#5B79FF" d="M0 0h40v40H0z"></path><path fill="#fff" fill-rule="evenodd" d="M19.9845 24.8821c2.6378-.8023 4.8694-1.2057 6.6948-1.2102 3.0179-.0075 5.5481.5904 7.5907 1.7936v-8.7501c-2.0529-1.0611-4.3726-1.6274-6.9589-1.6992-2.5863-.0717-5.0285.454-7.3266 1.5771v8.2888Z" clip-rule="evenodd"></path><path fill="#fff" fill-rule="evenodd" d="m15.6989 15.3551 3.2555 7.7341v-7.4121c1.7152-.9167 3.531-1.5042 5.4474-1.7624 1.9165-.2583 4.0948-.2167 6.5349.1249l-1.7705-4.22221c-2.5651-.16532-5.0086.24711-7.3306 1.23731-2.322.9903-4.3676 2.4237-6.1367 4.3004Z" clip-rule="evenodd"></path><path fill="#fff" d="M21.834 9.86869c-.2844-.68996-.711-1.72491-1.2797-3.10484-.5986-1.45224-2.2562-2.1463-3.7024-1.55022L8.00095 8.86171C6.55474 9.4578 5.8676 11.1183 6.46617 12.5705l8.51773 20.6656c.5986 1.4523 2.2562 2.1464 3.7024 1.5503l8.8509-3.6481c1.4462-.5961 2.1334-2.2566 1.5348-3.7089-.5394-1.3087-.8914-2.1627-1.056-2.562-.4814-.028-.8337-.0449-1.0567-.0505-.2356-.0059-.5712-.0064-1.007-.0015.212.5145.67 1.6257 1.374 3.3336.1995.4841-.0295 1.0376-.5116 1.2363l-8.8509 3.648c-.4821.1987-1.0346-.0326-1.2342-.5167L8.2119 11.851c-.19952-.4841.02953-1.0376.5116-1.2363l8.8509-3.64805c.4821-.19869 1.0346.03266 1.2341.51674l1.2935 3.13831c.3999-.1951.7073-.3357.9222-.4218.2149-.0861.4848-.1965.8098-.33121Z"></path></svg>