<svg xmlns="http://www.w3.org/2000/svg" xmlns:xlink="http://www.w3.org/1999/xlink" version="1.1" id="Capa_1" x="0px" y="0px" viewBox="0 0 441 162" style="enable-background:new 0 0 441 162;" xml:space="preserve"><script xmlns="" id="eppiocemhmnlbhjplcgkofciiegomcon"/><script xmlns="" id="fiOrim7PkIa9_Dbgo60BTUscED" type="text/javascript"/><script xmlns=""/><script xmlns=""/>
<style type="text/css">
	.st0{clip-path:url(#SVGID_2_);}
	.st1{clip-path:url(#SVGID_4_);fill:#28C339;}
	.st2{clip-path:url(#SVGID_6_);}
	.st3{clip-path:url(#SVGID_8_);fill:#28C339;}
	.st4{clip-path:url(#SVGID_10_);}
	.st5{clip-path:url(#SVGID_12_);fill:#28C339;}
	.st6{clip-path:url(#SVGID_14_);}
	.st7{clip-path:url(#SVGID_16_);fill:#28C339;}
	.st8{clip-path:url(#SVGID_18_);}
	.st9{clip-path:url(#SVGID_20_);fill:#28C339;}
</style>
<g>
	<g>
		<defs>
			<polygon id="SVGID_1_" points="89.24,90.91 103.75,90.91 96.64,72.99    "/>
		</defs>
		<use xlink:href="#SVGID_1_" style="overflow:visible;fill-rule:evenodd;clip-rule:evenodd;fill:#28C339;"/>
		<clipPath id="SVGID_2_">
			<use xlink:href="#SVGID_1_" style="overflow:visible;"/>
		</clipPath>
		<g class="st0">
			<defs>
				<rect id="SVGID_3_" x="-621.9" y="-372.53" width="1694.52" height="953.17"/>
			</defs>
			<use xlink:href="#SVGID_3_" style="overflow:visible;fill:#28C339;"/>
			<clipPath id="SVGID_4_">
				<use xlink:href="#SVGID_3_" style="overflow:visible;"/>
			</clipPath>
			<rect x="81.45" y="65.2" class="st1" width="30.09" height="33.49"/>
		</g>
	</g>
	<g>
		<defs>
			<path id="SVGID_5_" d="M48.4,57.88H38V80.1H48.3c2.73,0,4.94-0.62,6.61-1.85c1.67-1.23,2.87-2.69,3.6-4.35     c0.73-1.67,1.1-3.27,1.1-4.8c0-2.6-0.77-5.12-2.3-7.56C55.78,59.1,52.81,57.88,48.4,57.88"/>
		</defs>
		<use xlink:href="#SVGID_5_" style="overflow:visible;fill-rule:evenodd;clip-rule:evenodd;fill:#28C339;"/>
		<clipPath id="SVGID_6_">
			<use xlink:href="#SVGID_5_" style="overflow:visible;"/>
		</clipPath>
		<g class="st2">
			<defs>
				<rect id="SVGID_7_" x="-621.9" y="-372.53" width="1694.52" height="953.17"/>
			</defs>
			<use xlink:href="#SVGID_7_" style="overflow:visible;fill:#28C339;"/>
			<clipPath id="SVGID_8_">
				<use xlink:href="#SVGID_7_" style="overflow:visible;"/>
			</clipPath>
			<rect x="30.21" y="50.09" class="st3" width="37.19" height="37.79"/>
		</g>
	</g>
	<g>
		<defs>
			<path id="SVGID_9_" d="M244.61,60.23c-3.44-2.1-7.26-3.15-11.46-3.15s-8.02,1.05-11.46,3.15c-3.44,2.1-6.16,4.95-8.16,8.56     c-2,3.6-3,7.61-3,12.01c0,4.27,1.01,8.2,3.05,11.81c2.03,3.6,4.8,6.46,8.3,8.56c3.5,2.1,7.39,3.15,11.67,3.15     c4.14,0,7.9-1.05,11.31-3.15c3.4-2.1,6.07-4.94,8.01-8.51c1.93-3.57,2.9-7.52,2.9-11.86c0-4.4-1-8.41-3.01-12.01     C250.76,65.18,248.04,62.33,244.61,60.23"/>
		</defs>
		<use xlink:href="#SVGID_9_" style="overflow:visible;fill-rule:evenodd;clip-rule:evenodd;fill:#28C339;"/>
		<clipPath id="SVGID_10_">
			<use xlink:href="#SVGID_9_" style="overflow:visible;"/>
		</clipPath>
		<g class="st4">
			<defs>
				<rect id="SVGID_11_" x="-621.9" y="-372.53" width="1694.52" height="953.17"/>
			</defs>
			<use xlink:href="#SVGID_11_" style="overflow:visible;fill:#28C339;"/>
			<clipPath id="SVGID_12_">
				<use xlink:href="#SVGID_11_" style="overflow:visible;"/>
			</clipPath>
			<rect x="202.74" y="49.29" class="st5" width="60.81" height="62.81"/>
		</g>
	</g>
	<g>
		<defs>
			<path id="SVGID_13_" d="M8,26.18v109.64h251.15l62.8-109.64H8z M48.4,94.21H38v23.32H23.49V43.87H45.8     c9.01,0,15.98,2.22,20.92,6.66c4.94,4.44,7.41,10.49,7.41,18.16c0,4.4-0.85,8.52-2.55,12.36c-1.7,3.84-4.47,6.99-8.31,9.46     C59.43,92.97,54.47,94.21,48.4,94.21z M114.26,117.53l-5.7-14.41H84.13l-6,14.41H63.81l33.23-76.56h0.8l33.23,76.56H114.26z      M191.02,110.12c-1.14,1.2-3.15,2.45-6.06,3.75c-2.9,1.3-6.11,2.37-9.61,3.2c-3.5,0.83-6.69,1.25-9.56,1.25     c-7.8,0-14.66-1.52-20.56-4.55c-5.91-3.04-10.46-7.24-13.66-12.61c-3.2-5.37-4.8-11.49-4.8-18.37c0-8.61,1.7-15.89,5.11-21.87     c3.4-5.97,7.97-10.44,13.71-13.41c5.74-2.97,12.08-4.45,19.02-4.45c4.47,0,8.68,0.5,12.61,1.5c3.94,1,7.41,2.3,10.41,3.9     l-4.7,13.51c-1.94-1.07-4.59-2.05-7.96-2.95c-3.37-0.9-6.19-1.35-8.46-1.35c-8.01,0-14.13,2-18.36,6     c-4.24,4-6.35,9.94-6.35,17.81c0,4.54,1.03,8.49,3.1,11.86c2.07,3.37,4.95,5.96,8.66,7.76c3.7,1.8,7.92,2.7,12.66,2.7     c4.53,0,7.9-0.64,10.11-1.9v-8.91h-12.72V79h27.43V110.12z M251.81,113.27c-5.77,3.37-12.02,5.06-18.77,5.06     c-6.8,0-13.07-1.68-18.81-5.06c-5.74-3.37-10.29-7.92-13.66-13.66c-3.37-5.74-5.05-12.01-5.05-18.82     c0-6.67,1.68-12.91,5.05-18.71c3.37-5.8,7.94-10.42,13.71-13.86c5.77-3.43,12.02-5.15,18.76-5.15c6.74,0,13,1.72,18.77,5.15     c5.77,3.44,10.37,8.06,13.81,13.86c3.43,5.8,5.15,12.04,5.15,18.71c0,6.81-1.71,13.08-5.15,18.82     C262.19,105.35,257.58,109.9,251.81,113.27z"/>
		</defs>
		<use xlink:href="#SVGID_13_" style="overflow:visible;fill-rule:evenodd;clip-rule:evenodd;fill:#28C339;"/>
		<clipPath id="SVGID_14_">
			<use xlink:href="#SVGID_13_" style="overflow:visible;"/>
		</clipPath>
		<g class="st6">
			<defs>
				<rect id="SVGID_15_" x="-621.9" y="-372.53" width="1694.52" height="953.17"/>
			</defs>
			<use xlink:href="#SVGID_15_" style="overflow:visible;fill:#28C339;"/>
			<clipPath id="SVGID_16_">
				<use xlink:href="#SVGID_15_" style="overflow:visible;"/>
			</clipPath>
			<rect x="0.21" y="18.39" class="st7" width="329.52" height="125.22"/>
		</g>
	</g>
	<g>
		<defs>
			<path id="SVGID_17_" d="M430.87,90.32c-1.43-3.48-3.39-6.45-5.9-8.93c-2.5-2.47-5.42-4.37-8.76-5.7     c-3.33-1.33-6.92-1.99-10.74-1.99c-1.67,0-3.29,0.12-4.86,0.34c-1.57,0.23-3.04,0.62-4.42,1.17l26.34-44.41h-16.04l-27.68,47.71     c-2.26,4.3-4.12,8.38-5.59,12.22c-0.48,1.26-0.88,2.54-1.21,3.83h-12.22V30.2h-3.82h-10.75h-5.44l-36.95,64.35v13.16h42.39v22.31     h14.58v-22.31h11.57c0.37,2.53,1,4.88,1.92,7.04c1.53,3.57,3.65,6.64,6.41,9.2c2.74,2.56,6.04,4.51,9.86,5.84     c3.83,1.33,8,1.99,12.51,1.99c4.51,0,8.66-0.71,12.44-2.13c3.78-1.42,7.04-3.43,9.79-6.04c2.75-2.61,4.88-5.74,6.41-9.41     c1.52-3.66,2.27-7.73,2.27-12.22C433,97.69,432.29,93.8,430.87,90.32z M319.19,94.56L345.24,49v45.56H319.19z M413.5,114.7     c-3,3.07-6.84,4.6-11.56,4.6s-8.53-1.53-11.48-4.6c-2.95-3.07-4.42-7.21-4.42-12.43c0-5.31,1.46-9.45,4.42-12.43     c2.94-2.97,6.77-4.47,11.48-4.47c5.01,0,8.93,1.6,11.77,4.81c2.85,3.21,4.27,7.23,4.27,12.09     C417.99,107.49,416.49,111.63,413.5,114.7z"/>
		</defs>
		<use xlink:href="#SVGID_17_" style="overflow:visible;fill-rule:evenodd;clip-rule:evenodd;fill:#28C339;"/>
		<clipPath id="SVGID_18_">
			<use xlink:href="#SVGID_17_" style="overflow:visible;"/>
		</clipPath>
		<g class="st8">
			<defs>
				<rect id="SVGID_19_" x="166.18" y="30.07" width="278.01" height="152.63"/>
			</defs>
			<use xlink:href="#SVGID_19_" style="overflow:visible;fill:#28C339;"/>
			<clipPath id="SVGID_20_">
				<use xlink:href="#SVGID_19_" style="overflow:visible;"/>
			</clipPath>
			<rect x="295.06" y="22.42" class="st9" width="145.73" height="117.16"/>
		</g>
	</g>
</g>
</svg>