<svg xmlns="http://www.w3.org/2000/svg" fill="none" viewBox="0 0 34 24" height="24" width="34" class="PaymentLogo PaymentMethodHubCountriesExplorerListItem__paymentLogo"><path fill="#F6F9FC" d="M0 4c0-2.20914 1.79086-4 4-4h26c2.2091 0 4 1.79086 4 4v16c0 2.2091-1.7909 4-4 4H4c-2.20914 0-4-1.7909-4-4V4Z"></path><path fill="#9E1791" d="M4 8.28057c0-1.99743.03197-3.66337.07107-3.70209.039-.03881.92021-.07055 1.95827-.07055 1.38234 0 1.98331.03988 2.2465.14904 1.48922.61782 1.95896 2.56343.92075 3.81378-.50379.60661-.8501.73767-2.10649.79701l-1.11883.05288-.02994 1.29576-.02995 1.2957H4V8.28057Zm8.3134-1.98442c.278-.7327.5619-1.43684.6308-1.56472.1138-.21123.195-.22963.885-.2016l.7596.03099.2946.74042c.3731.93747 1.4833 3.7994 2.0105 5.18296.2218.5817.4372 1.1409.479 1.2428.0664.1621-.0043.1838-.7492.185.0609.0171.1231.0356.1866.0555.7826.2452.8398.3358.5357.8491-.1618.2733-.2285.3054-.5061.2435-.9496-.2119-1.2163-.2358-1.6752-.1501-1.629.304-2.7447 1.6134-2.7447 3.2208 0 2.3834 2.4905 3.9638 4.6463 2.9484.5242-.247 1.2437-.992 1.5389-1.5935.4182-.8523.2898-2.8663-.1761-2.7612-.0766.0172-.6811.7896-1.3437 1.7163-.6625.9268-1.2586 1.7024-1.3248 1.7234-.1444.0459-2.1706-2.365-2.1706-2.5828 0-.2196.5424-.8935.6895-.8567.0684.0171.3847.3365.703.7099.3183.3734.6278.6951.6878.7148.0599.0198.6549-.726 1.3222-1.6572.6672-.9313 1.2737-1.6933 1.3478-1.6933.074 0 .3027.1951.5083.4334.8376.9714 1.2627 2.4709 1.0261 3.6186-.38 1.8423-1.6246 3.149-3.3936 3.5628-.6883.161-1.4514.0964-2.2811-.1932-2.9448-1.0278-3.8121-4.9241-1.5934-7.1582.5324-.5361 1.051-.8356 1.9424-1.1216.3693-.1185.6997-.1797 1.0364-.183l-.1451-.4009-.201-.5553-1.4107-.0295-1.4107-.0295-.2606.5848-.2605.5848h-.8697c-.7858 0-.8625-.0179-.7947-.1851.1097-.2709 1.494-3.88359 2.081-5.43085Zm5.5818.94509c-.5038-.89242-1.0597-1.87432-1.2355-2.18191L16.3401 4.5l1.0326.03046 1.0324.03036.6041 1.30715c.3323.71895.6506 1.30821.7072 1.30948.128.00275.308-.32514.8992-1.63822l.4643-1.0313h.9967c.5483 0 .9968.01756.9968.03914 0 .02147-.5515 1.01606-1.2254 2.21004l-1.2254 2.17101v2.98398h-1.8114V8.86391l-.916-1.62267ZM7.62586 7.5886c.41791-.41474.43187-.92785.0358-1.32101-.24497-.24307-.36825-.27882-.96241-.27882-.47214 0-.69825.04368-.73629.14216-.03026.07816-.04071.4946-.02334.92552l.03165.78336.66895.03152c.61994.0293.69229.00857.98564-.28273Zm6.96734 1.58798c.0312-.05014-.1141-.59752-.3229-1.2164-.3558-1.05488-.5157-1.30789-.6274-.993-.3325.93705-.6749 2.13716-.6301 2.20908.0741.1191 1.5062.11942 1.5804.00032ZM4 19.78V12.3679l.96699.0304.96709.0304 1.24393 2.0011c.68419 1.1005 1.30295 2.0205 1.37488 2.0442.09984.0329.13777-.4424.15983-2.0011l.02898-2.0442.8258-.0308.8258-.0309v7.413H8.59423l-1.3443-2.2212c-.73939-1.2217-1.38948-2.2213-1.44467-2.2213-.05957 0-.10038.9017-.10038 2.2213V19.78H4Zm15.8096-7.1705c.0356.1333.6547 1.7893 1.3757 3.68l1.3112 3.4376h1.585l.3387-.937c.3587-.9923.5095-1.2346.6641-1.0674.0511.0553.2494.5407.4408 1.0789l.3479.9784.7579-.003.7579-.0031 1.4385-3.6034c.7912-1.9819 1.4545-3.6466 1.474-3.699.0196-.0526-.3944-.0956-.9198-.0956h-.9552l-.6155 1.7188c-.9858 2.7536-1.0637 2.9511-1.1718 2.9701-.0565.0098-.2531-.413-.4371-.9398l-.3343-.9579.4573-1.35c.3321-.9806.4211-1.3637.325-1.4003-.0728-.0278-.5072-.0364-.9654-.0193l-.8332.0312-.7119 2.3011c-.3915 1.2656-.733 2.3221-.7588 2.3478-.1395.1384-.3293-.3082-1.0096-2.3747l-.7487-2.2742-.9387-.0307c-.9324-.0305-.9383-.0291-.874.2115Z" clip-rule="evenodd" fill-rule="evenodd"></path></svg>