<svg xmlns="http://www.w3.org/2000/svg" width="135" height="37" viewBox="0 0 135 37" fill="none"><script xmlns="" id="eppiocemhmnlbhjplcgkofciiegomcon"/><script xmlns="" id="ZZ2Kw31fSGl92gMXJvQAV_KOYh" type="text/javascript"/><script xmlns=""/><script xmlns=""/>
<path d="M29.9022 32.4629C29.5476 32.2265 29.1536 32.1477 28.7203 32.1477C28.2869 32.1477 27.8929 32.2659 27.5778 32.4629C26.908 32.8568 26.514 33.6054 26.514 34.3539C26.514 34.4327 26.514 34.4721 26.514 34.5115C26.5928 35.654 27.5778 36.5995 28.7203 36.5995C29.8628 36.5995 30.8477 35.6934 30.9265 34.5115C30.9265 34.4721 30.9265 34.3933 30.9265 34.3539C30.9265 33.566 30.5325 32.8568 29.8628 32.4629H29.9022Z" fill="#EE3825"/>
<path d="M24.5835 32.4629C24.229 32.2265 23.835 32.1477 23.4016 32.1477C22.9683 32.1477 22.5743 32.2659 22.2591 32.4629C21.5894 32.8568 21.1954 33.6054 21.1954 34.3539C21.1954 34.4327 21.1954 34.4721 21.1954 34.5115C21.2742 35.654 22.2591 36.5995 23.4016 36.5995C24.5442 36.5995 25.5291 35.6934 25.6079 34.5115C25.6079 34.4721 25.6079 34.3933 25.6079 34.3539C25.6079 33.566 25.2139 32.8568 24.5442 32.4629H24.5835Z" fill="#EE3825"/>
<path d="M13.9462 32.4629C13.5916 32.2265 13.1977 32.1477 12.7643 32.1477C12.331 32.1477 11.937 32.2659 11.6218 32.4629C10.9521 32.8568 10.5581 33.6054 10.5581 34.3539C10.5581 34.4327 10.5581 34.4721 10.5581 34.5115C10.6369 35.654 11.6218 36.5995 12.7643 36.5995C13.9068 36.5995 14.8917 35.6934 14.9705 34.5115C14.9705 34.4721 14.9705 34.3933 14.9705 34.3539C14.9705 33.566 14.5766 32.8568 13.9068 32.4629H13.9462Z" fill="#EE3825"/>
<path d="M8.66717 32.4629C8.3126 32.2265 7.91863 32.1477 7.48527 32.1477C7.0519 32.1477 6.65794 32.2659 6.34276 32.4629C5.67302 32.8568 5.27905 33.6054 5.27905 34.3539C5.27905 34.4327 5.27905 34.4721 5.27905 34.5115C5.35785 35.654 6.34276 36.5995 7.48527 36.5995C8.62777 36.5995 9.61269 35.6934 9.69148 34.5115C9.69148 34.4721 9.69148 34.3933 9.69148 34.3539C9.69148 33.566 9.29751 32.8568 8.62777 32.4629H8.66717Z" fill="#EE3825"/>
<path d="M19.2648 32.4629C18.9103 32.2265 18.5163 32.1477 18.0829 32.1477C17.6496 32.1477 17.2556 32.2659 16.9404 32.4629C16.2707 32.8568 15.8767 33.6054 15.8767 34.3539C15.8767 34.4327 15.8767 34.4721 15.8767 34.5115C15.9555 35.654 16.9404 36.5995 18.0829 36.5995C19.2254 36.5995 20.2103 35.6934 20.2891 34.5115C20.2891 34.4721 20.2891 34.3933 20.2891 34.3539C20.2891 33.566 19.8952 32.8568 19.2254 32.4629H19.2648Z" fill="#EE3825"/>
<path d="M28.7201 26.7896C27.7352 26.7896 26.9079 27.4199 26.5927 28.3654C26.5139 28.6018 26.4745 28.7988 26.4745 29.0352C26.4745 29.5473 26.6321 30.0201 26.9472 30.414C27.3806 30.9656 28.011 31.2414 28.6807 31.2414C29.3504 31.2414 29.9808 30.9262 30.4142 30.414C30.7293 30.0201 30.8869 29.5473 30.8869 29.0352C30.8869 28.7988 30.8869 28.5624 30.7687 28.3654C30.4929 27.4199 29.6262 26.7896 28.6413 26.7896H28.7201Z" fill="#EE3825"/>
<path d="M65.1228 26.2776C65.1228 26.0412 65.1228 25.8048 65.1228 25.4502V24.2289V22.1803V21.7469C65.1228 19.7771 65.1228 19.1074 64.9258 18.5558C64.847 18.3982 64.7682 18.2013 64.6894 18.0437C64.453 17.6103 64.0984 17.2951 63.6651 17.0193C62.9953 16.586 62.0892 16.3496 60.9861 16.3496C59.8042 16.3496 58.7405 16.5466 57.6768 16.9799C57.0464 17.2163 56.3767 17.5709 55.6676 18.0043C55.6282 18.0043 55.5494 18.0831 55.51 18.1224L56.7707 20.1711C56.7707 20.1711 58.8193 18.674 60.6315 18.674C62.1286 18.674 62.4044 19.4619 62.4044 20.959V21.6682H61.5377C60.1982 21.6682 59.0557 21.8258 58.1495 22.1409H58.1101C56.8888 22.5743 56.0221 23.244 55.5888 24.1895C55.313 24.7805 55.1554 25.4108 55.1554 26.1594V26.2382C55.1554 27.0261 55.3524 27.7353 55.6676 28.3262C56.3373 29.4687 57.6374 30.099 59.4496 30.099C60.9467 30.099 62.0498 29.5869 62.9953 28.4838C63.2711 29.2717 63.9409 29.9021 64.7682 30.2566L66.2259 28.4444C66.1865 28.405 66.1077 28.3656 66.0683 28.3262C65.3985 27.814 65.1622 27.3413 65.1228 26.2776ZM62.3256 26.2776V26.6715C61.7346 27.5382 60.8679 28.0504 60.0012 28.0504C58.9769 28.0504 58.3071 27.3807 58.2283 26.2776C58.2283 26.2776 58.2283 26.12 58.2283 26.0412C58.2283 25.1745 58.4647 24.6229 58.9769 24.2289C59.5284 23.7956 60.4739 23.5986 61.8922 23.5986C62.0104 23.5986 62.2074 23.5986 62.3256 23.5986H62.4044V26.2776H62.3256Z" fill="#EE3825"/>
<path d="M23.4015 26.7896C22.4166 26.7896 21.5892 27.4199 21.2741 28.3654C21.1953 28.6018 21.1559 28.7988 21.1559 29.0352C21.1559 29.5473 21.3135 30.0201 21.6286 30.414C22.062 30.9656 22.6924 31.2414 23.3621 31.2414C24.0318 31.2414 24.6622 30.9262 25.0956 30.414C25.4107 30.0201 25.5683 29.5473 25.5683 29.0352C25.5683 28.7988 25.5683 28.5624 25.4501 28.3654C25.1743 27.4199 24.3076 26.7896 23.3227 26.7896H23.4015Z" fill="#EE3825"/>
<path d="M12.8037 26.7896C11.8188 26.7896 10.9915 27.4199 10.6763 28.3654C10.5975 28.6018 10.5581 28.7988 10.5581 29.0352C10.5581 29.5473 10.7157 30.0201 11.0309 30.414C11.4642 30.9656 12.0946 31.2414 12.7643 31.2414C13.4341 31.2414 14.0644 30.9262 14.4978 30.414C14.8129 30.0201 14.9705 29.5473 14.9705 29.0352C14.9705 28.7988 14.9705 28.5624 14.8523 28.3654C14.5766 27.4199 13.7098 26.7896 12.7249 26.7896H12.8037Z" fill="#EE3825"/>
<path d="M18.1223 26.7896C17.1374 26.7896 16.3101 27.4199 15.9949 28.3654C15.9161 28.6018 15.8767 28.7988 15.8767 29.0352C15.8767 29.5473 16.0343 30.0201 16.3495 30.414C16.7828 30.9656 17.4132 31.2414 18.0829 31.2414C18.7527 31.2414 19.383 30.9262 19.8164 30.414C20.1316 30.0201 20.2891 29.5473 20.2891 29.0352C20.2891 28.7988 20.2891 28.5624 20.1709 28.3654C19.8952 27.4199 19.0284 26.7896 18.0435 26.7896H18.1223Z" fill="#EE3825"/>
<path d="M7.48511 26.7896C6.5002 26.7896 5.67287 27.4199 5.35769 28.3654C5.2789 28.6018 5.2395 28.7988 5.2395 29.0352C5.2395 29.5473 5.39709 30.0201 5.71226 30.414C6.14563 30.9656 6.77597 31.2414 7.44572 31.2414C8.11546 31.2414 8.74581 30.9262 9.17917 30.414C9.49434 30.0201 9.65193 29.5473 9.65193 29.0352C9.65193 28.7988 9.65193 28.5624 9.53374 28.3654C9.25796 27.4199 8.39124 26.7896 7.40632 26.7896H7.48511Z" fill="#EE3825"/>
<path d="M83.5209 24.2289C83.5209 24.2289 83.6785 24.2289 83.7573 24.2683L85.4513 24.6229C86.7908 24.8986 87.1848 25.135 87.1848 25.8441C87.1848 26.0017 87.1454 26.1199 87.0272 26.2775C86.7908 26.6321 86.3181 26.8291 85.8059 26.8291C85.2937 26.8291 84.5452 26.6321 83.6785 26.2775C82.6542 25.8441 81.748 25.2926 81.4723 25.135L79.9358 28.3262V28.4049C82.0632 29.5474 83.9149 30.0596 85.6483 30.0596C87.7363 30.0596 89.5092 29.4293 90.5729 28.3262C91.1245 27.7352 91.5184 27.0654 91.676 26.2775C91.7548 25.9623 91.7548 25.6472 91.7548 25.332C91.7548 24.938 91.7548 24.5441 91.6366 24.2289C91.4396 23.3228 91.0063 22.653 90.2577 22.1409C89.785 21.8257 89.194 21.5893 88.4455 21.4317L86.7908 21.0771C85.8453 20.8802 85.4119 20.565 85.4119 20.0135C85.4119 19.5801 85.8847 19.2649 86.5544 19.2649C87.5 19.2649 88.5637 19.5801 89.8244 20.2498L90.9275 18.0436L91.2032 17.4921C91.2032 17.4921 90.8881 17.3345 90.6911 17.2557C90.5335 17.1769 90.3365 17.0981 90.1789 17.0193C89.1152 16.5465 87.8939 16.1132 86.0029 16.1132C84.6634 16.1132 83.4815 16.4283 82.536 17.0193C82.1026 17.2951 81.7086 17.6497 81.3935 18.0436C80.8419 18.7922 80.5661 19.6589 80.5661 20.6438C80.5661 21.1953 80.6449 21.7075 80.8419 22.1803C81.2359 23.244 82.142 23.9137 83.4421 24.2289H83.5209Z" fill="#EE3825"/>
<path d="M52.8704 22.1411C52.7522 20.4076 52.2795 19.0287 51.4915 18.0044C51.137 17.571 50.743 17.2165 50.2702 16.9801C49.6005 16.5861 48.852 16.3892 47.9852 16.3892C47.1185 16.3892 46.37 16.5861 45.6608 16.9801C45.1881 17.2165 44.8335 17.571 44.5183 17.965C44.5183 17.5316 44.5183 17.2559 44.4395 17.0195C44.4395 16.7831 44.3607 16.5861 44.2819 16.3892L41.6818 16.8619V17.0195C41.7606 17.3741 41.8394 17.6892 41.8787 18.0438C41.9181 18.5954 41.9575 19.1863 41.9575 20.0924V32.5024V35.2996L44.6759 34.5904V32.5024V30.2568C44.6759 29.587 44.6365 28.9961 44.5971 28.9567C45.5032 29.6658 46.5669 30.0204 47.6701 30.0204C49.1671 30.0204 50.3884 29.4688 51.2946 28.3657C51.7673 27.8142 52.1219 27.105 52.3583 26.3171C52.5552 25.6868 52.6734 25.017 52.7522 24.2685C52.7916 23.8351 52.7916 23.4018 52.7916 22.9684C52.7916 22.6926 52.7916 22.4562 52.7916 22.1804L52.8704 22.1411ZM49.4035 26.2777C48.9701 27.2626 48.2216 27.7354 47.1579 27.7354C46.37 27.7354 45.4638 27.302 44.7547 26.5929V20.0924C45.5032 19.2257 46.4488 18.753 47.4731 18.753C48.9702 18.753 49.6793 19.7773 49.8369 22.1411C49.8369 22.4562 49.8369 22.8502 49.8369 23.2442C49.8369 23.5593 49.8369 23.8745 49.8369 24.2291C49.7581 25.0958 49.6399 25.7655 49.4035 26.2777Z" fill="#EE3825"/>
<path d="M118.584 18.0042C118.229 17.6102 117.835 17.2556 117.402 16.9798C116.457 16.3889 115.275 16.0737 113.975 16.0737C112.674 16.0737 111.611 16.3889 110.626 16.9798C110.153 17.2556 109.759 17.6102 109.405 18.0042C108.459 19.0679 107.868 20.4862 107.671 22.1408C107.671 22.456 107.632 22.7712 107.632 23.1257C107.632 23.5197 107.632 23.8743 107.671 24.2288C107.75 24.9774 107.907 25.6865 108.104 26.2775C108.38 27.1048 108.814 27.7745 109.326 28.3261C110.389 29.4686 111.887 30.0595 113.738 30.0595C115.432 30.0595 117.008 29.4292 118.111 28.3261C118.663 27.7745 119.136 27.0654 119.451 26.2775C119.687 25.6471 119.884 24.9774 119.963 24.2288C120.042 23.7561 120.042 23.2833 120.042 22.7712C120.042 22.5742 120.042 22.3772 120.042 22.1802C119.963 20.4861 119.49 19.0679 118.623 18.0436L118.584 18.0042ZM114.763 26.2381C114.566 26.6714 114.25 26.8684 113.817 26.8684C113.305 26.8684 112.95 26.6714 112.753 26.2381C112.556 25.8441 112.478 25.2138 112.438 24.1894C112.438 23.9137 112.438 23.5985 112.438 23.1651C112.438 22.7318 112.438 22.4166 112.438 22.1014C112.517 19.6588 112.99 19.1861 113.778 19.1861C114.802 19.1861 115.117 19.8952 115.156 22.1014C115.156 22.259 115.156 22.4166 115.156 22.5742C115.156 23.1651 115.156 23.6773 115.156 24.1894C115.117 25.1744 114.959 25.8441 114.763 26.2381Z" fill="#EE3825"/>
<path d="M18.1225 21.4319C17.4921 21.4319 16.9012 21.7077 16.5072 22.141C16.1132 22.535 15.9163 23.0865 15.9163 23.6775C15.9163 23.8745 15.9163 24.0321 15.9951 24.229C16.2314 25.214 17.1376 25.9231 18.1619 25.9231C19.1862 25.9231 20.0529 25.214 20.3287 24.229C20.3681 24.0321 20.4075 23.8745 20.4075 23.6775C20.4075 23.1259 20.2105 22.5744 19.8165 22.141C19.3832 21.6683 18.7922 21.4319 18.2013 21.4319H18.1225Z" fill="#EE3825"/>
<path d="M134.106 22.4167C134.106 22.4167 134.106 22.259 134.106 22.1803C134.106 20.4074 133.752 19.0679 133.043 18.0436C132.767 17.6497 132.452 17.2951 132.058 17.0193C131.23 16.4283 130.167 16.1132 128.906 16.1132C127.842 16.1132 126.857 16.5859 126.385 17.0193C126.266 17.1375 126.188 17.2557 126.148 17.3345C126.148 17.2163 126.148 17.1375 126.109 17.0193C126.07 16.7041 125.991 16.4283 125.873 16.1526L121.775 16.8617C121.775 16.8617 121.775 16.9799 121.815 17.0193C121.893 17.3345 121.933 17.689 122.012 18.0436C122.13 18.9497 122.209 19.9741 122.209 21.2741V26.2775V28.3262V35.6145L126.148 34.5508L126.66 34.3932V31.6749C126.66 31.1627 126.66 30.7687 126.621 30.4142C126.621 30.099 126.542 29.8232 126.463 29.6262C127.173 29.9414 127.842 30.0596 128.551 30.0596C130.285 30.0596 131.624 29.4687 132.531 28.3262C133.003 27.7746 133.358 27.0655 133.594 26.2381C133.791 25.6078 133.949 24.938 133.988 24.1895C134.067 23.6379 134.067 23.0076 134.067 22.3772L134.106 22.4167ZM128 19.5801C129.064 19.5801 129.261 20.5256 129.3 22.1803C129.3 22.3772 129.3 22.6136 129.3 22.8106C129.3 23.3228 129.3 23.7955 129.261 24.2289C129.142 25.332 128.906 25.9623 128.512 26.2775C128.236 26.4745 127.882 26.5139 127.488 26.5139C127.133 26.5139 126.857 26.4351 126.7 26.2775C126.7 26.2775 126.66 26.1987 126.66 26.1593V20.2104C126.936 19.7771 127.409 19.5407 128.039 19.5407L128 19.5801Z" fill="#EE3825"/>
<path d="M7.48527 21.4319C6.85492 21.4319 6.26397 21.7077 5.87 22.141C5.47604 22.535 5.27905 23.0865 5.27905 23.6775C5.27905 23.8745 5.27905 24.0321 5.35785 24.229C5.59423 25.214 6.50035 25.9231 7.52466 25.9231C8.54898 25.9231 9.4157 25.214 9.69148 24.229C9.73088 24.0321 9.77027 23.8745 9.77027 23.6775C9.77027 23.1259 9.57329 22.5744 9.17932 22.141C8.74596 21.6683 8.15501 21.4319 7.56406 21.4319H7.48527Z" fill="#EE3825"/>
<path d="M28.7203 21.4319C28.0899 21.4319 27.499 21.7077 27.105 22.141C26.711 22.535 26.514 23.0865 26.514 23.6775C26.514 23.8745 26.514 24.0321 26.5928 24.229C26.8292 25.214 27.7353 25.9231 28.7596 25.9231C29.784 25.9231 30.6507 25.214 30.9265 24.229C30.9659 24.0321 31.0053 23.8745 31.0053 23.6775C31.0053 23.1259 30.8083 22.5744 30.4143 22.141C29.9809 21.6683 29.39 21.4319 28.799 21.4319H28.7203Z" fill="#EE3825"/>
<path d="M12.8039 21.4319C12.1735 21.4319 11.5826 21.7077 11.1886 22.141C10.7946 22.535 10.5977 23.0865 10.5977 23.6775C10.5977 23.8745 10.5977 24.0321 10.6764 24.229C10.9128 25.214 11.819 25.9231 12.8433 25.9231C13.8676 25.9231 14.7343 25.214 15.0101 24.229C15.0495 24.0321 15.0889 23.8745 15.0889 23.6775C15.0889 23.1259 14.8919 22.5744 14.4979 22.141C14.0646 21.6683 13.4736 21.4319 12.8827 21.4319H12.8039Z" fill="#EE3825"/>
<path d="M23.4016 21.4319C22.7713 21.4319 22.1804 21.7077 21.7864 22.141C21.3924 22.535 21.1954 23.0865 21.1954 23.6775C21.1954 23.8745 21.1954 24.0321 21.2742 24.229C21.5106 25.214 22.4167 25.9231 23.441 25.9231C24.4654 25.9231 25.3321 25.214 25.6079 24.229C25.6473 24.0321 25.6867 23.8745 25.6867 23.6775C25.6867 23.1259 25.4897 22.5744 25.0957 22.141C24.6623 21.6683 24.0714 21.4319 23.4804 21.4319H23.4016Z" fill="#EE3825"/>
<path d="M3.97907 16.9798C3.5457 16.4283 2.87596 16.0737 2.20621 16.0737C1.53647 16.0737 0.82733 16.4283 0.433364 16.9798C0.196983 17.295 0.0787934 17.6496 0 18.0042C0 18.083 0 18.2011 0 18.2799C0 19.5012 0.984917 20.5255 2.20621 20.5255C3.42751 20.5255 4.41243 19.5406 4.41243 18.2799C4.41243 18.1617 4.41243 18.083 4.41243 18.0042C4.37303 17.6496 4.21545 17.2556 3.97907 16.9798Z" fill="#EE3825"/>
<path d="M30.4931 16.9798C30.0597 16.4283 29.39 16.0737 28.7203 16.0737C28.0505 16.0737 27.3414 16.4283 26.9474 16.9798C26.711 17.295 26.5928 17.6496 26.514 18.0042C26.514 18.083 26.514 18.2011 26.514 18.2799C26.514 19.5012 27.499 20.5255 28.7203 20.5255C29.9416 20.5255 30.9265 19.5406 30.9265 18.2799C30.9265 18.1617 30.9265 18.083 30.9265 18.0042C30.8871 17.6496 30.7295 17.2556 30.4931 16.9798Z" fill="#EE3825"/>
<path d="M19.8953 16.9798C19.462 16.4283 18.7922 16.0737 18.1225 16.0737C17.4527 16.0737 16.7436 16.4283 16.3496 16.9798C16.1132 17.295 15.9951 17.6496 15.9163 18.0042C15.9163 18.083 15.9163 18.2011 15.9163 18.2799C15.9163 19.5012 16.9012 20.5255 18.1225 20.5255C19.3438 20.5255 20.3287 19.5406 20.3287 18.2799C20.3287 18.1617 20.3287 18.083 20.3287 18.0042C20.2893 17.6496 20.1317 17.2556 19.8953 16.9798Z" fill="#EE3825"/>
<path d="M35.8117 16.9798C35.3783 16.4283 34.7086 16.0737 34.0389 16.0737C33.3691 16.0737 32.66 16.4283 32.266 16.9798C32.0296 17.295 31.9114 17.6496 31.8326 18.0042C31.8326 18.083 31.8326 18.2011 31.8326 18.2799C31.8326 19.5012 32.8176 20.5255 34.0389 20.5255C35.2602 20.5255 36.2451 19.5406 36.2451 18.2799C36.2451 18.1617 36.2451 18.083 36.2451 18.0042C36.2057 17.6496 36.0481 17.2556 35.8117 16.9798Z" fill="#EE3825"/>
<path d="M14.5767 16.9798C14.1434 16.4283 13.4736 16.0737 12.8039 16.0737C12.1341 16.0737 11.425 16.4283 11.031 16.9798C10.7946 17.295 10.6764 17.6496 10.5977 18.0042C10.5977 18.083 10.5977 18.2011 10.5977 18.2799C10.5977 19.5012 11.5826 20.5255 12.8039 20.5255C14.0252 20.5255 15.0101 19.5406 15.0101 18.2799C15.0101 18.1617 15.0101 18.083 15.0101 18.0042C14.9707 17.6496 14.8131 17.2556 14.5767 16.9798Z" fill="#EE3825"/>
<path d="M104.401 16.9801C103.771 16.3892 102.786 16.074 101.446 16.074C100.107 16.074 99.2005 16.3498 98.4914 16.9801C98.452 16.9801 98.4126 17.0589 98.3732 17.0983V16.9801C98.3732 16.9801 98.3732 16.8226 98.3732 16.7438C98.3732 16.7438 98.3732 16.3104 98.3732 15.9952V13.8678C98.3732 13.5132 98.3732 13.1587 98.3732 12.8435C98.3338 12.0556 98.255 11.3464 98.0974 10.7555L93.6062 11.5434C93.685 11.8586 93.7638 12.3314 93.8426 12.8435C93.9214 13.4345 93.9608 14.183 93.9608 14.8527V22.1411V28.3264V29.7053H98.4126V28.3264V22.1411V20.4077C98.8066 20.0137 99.3975 19.5803 99.9491 19.5803C100.895 19.5803 100.934 19.8955 100.934 20.9592V26.2384V28.287V29.6659H105.386V28.287V26.2384V19.9349C105.386 19.147 105.268 18.5166 105.071 17.9651C104.913 17.5711 104.677 17.2165 104.361 16.9408L104.401 16.9801Z" fill="#EE3825"/>
<path d="M25.214 16.9798C24.7807 16.4283 24.1109 16.0737 23.4412 16.0737C22.7715 16.0737 22.0623 16.4283 21.6683 16.9798C21.432 17.295 21.3138 17.6496 21.235 18.0042C21.235 18.083 21.235 18.2011 21.235 18.2799C21.235 19.5012 22.2199 20.5255 23.4412 20.5255C24.6625 20.5255 25.6474 19.5406 25.6474 18.2799C25.6474 18.1617 25.6474 18.083 25.6474 18.0042C25.608 17.6496 25.4504 17.2556 25.214 16.9798Z" fill="#EE3825"/>
<path d="M9.25812 16.9798C8.82475 16.4283 8.15501 16.0737 7.48527 16.0737C6.81552 16.0737 6.10638 16.4283 5.71242 16.9798C5.47604 17.295 5.35785 17.6496 5.27905 18.0042C5.27905 18.083 5.27905 18.2011 5.27905 18.2799C5.27905 19.5012 6.26397 20.5255 7.48527 20.5255C8.70656 20.5255 9.69148 19.5406 9.69148 18.2799C9.69148 18.1617 9.69148 18.083 9.69148 18.0042C9.65208 17.6496 9.4945 17.2556 9.25812 16.9798Z" fill="#EE3825"/>
<path d="M76.1536 16.9801L75.8384 18.0044L74.5777 22.1411L74.1049 23.7563C74.1049 23.7563 74.0261 24.0715 73.9473 24.2291C73.7504 24.82 73.5928 25.5292 73.3564 26.2777C73.1988 26.8293 73.12 27.2232 73.12 27.2626C73.12 27.2232 72.8836 26.2777 72.8836 26.2777C72.6473 25.3322 72.4897 24.7018 72.4109 24.3473L71.7411 22.1411L70.5198 18.0044L70.2047 16.9801L70.0077 16.3892L67.1317 16.9013L67.5257 18.0438L70.0865 25.7262L70.2835 26.3171C70.4804 26.9475 70.7168 27.6566 70.9532 28.3657C71.1108 28.8385 71.229 29.3113 71.3472 29.7446H72.2533C72.2533 29.7446 72.1351 30.1386 72.0563 30.4144C71.7017 31.3599 71.3078 31.9902 70.7956 32.463C70.3228 32.8963 69.6925 33.2115 68.7864 33.4873L69.6925 35.339C70.5592 35.1814 71.2684 34.945 71.8593 34.5904C72.6079 34.1176 73.1988 33.4873 73.711 32.5418C73.9867 31.9902 74.2625 31.3599 74.5777 30.4931C74.5777 30.4931 74.6565 30.2174 74.7353 30.0992L76.7445 24.3079L77.4536 22.2593L78.8719 18.1226L79.2265 17.0983L79.3053 16.7831H76.2718L76.193 17.0983L76.1536 16.9801Z" fill="#EE3825"/>
<path d="M18.1225 10.7159C16.9406 10.7159 15.9557 11.6615 15.9163 12.8434C15.9163 12.8434 15.9163 12.9222 15.9163 12.9616C15.9163 14.1828 16.9012 15.2072 18.1225 15.2072C19.3438 15.2072 20.3287 14.2222 20.3287 12.9616C20.3287 12.9616 20.3287 12.8828 20.3287 12.8434C20.2893 11.6615 19.3044 10.7159 18.1225 10.7159Z" fill="#EE3825"/>
<path d="M7.48527 10.7159C6.30337 10.7159 5.31845 11.6615 5.27905 12.8434C5.27905 12.8434 5.27905 12.9222 5.27905 12.9616C5.27905 14.1828 6.26397 15.2072 7.48527 15.2072C8.70656 15.2072 9.69148 14.2222 9.69148 12.9616C9.69148 12.9616 9.69148 12.8828 9.69148 12.8434C9.65208 11.6615 8.66717 10.7159 7.48527 10.7159Z" fill="#EE3825"/>
<path d="M28.7203 10.7159C27.5384 10.7159 26.5534 11.6615 26.514 12.8434C26.514 12.8434 26.514 12.9222 26.514 12.9616C26.514 14.1828 27.499 15.2072 28.7203 15.2072C29.9416 15.2072 30.9265 14.2222 30.9265 12.9616C30.9265 12.9616 30.9265 12.8828 30.9265 12.8434C30.8871 11.6615 29.9022 10.7159 28.7203 10.7159Z" fill="#EE3825"/>
<path d="M12.8039 10.7159C11.622 10.7159 10.6371 11.6615 10.5977 12.8434C10.5977 12.8434 10.5977 12.9222 10.5977 12.9616C10.5977 14.1828 11.5826 15.2072 12.8039 15.2072C14.0252 15.2072 15.0101 14.2222 15.0101 12.9616C15.0101 12.9616 15.0101 12.8828 15.0101 12.8434C14.9707 11.6615 13.9858 10.7159 12.8039 10.7159Z" fill="#EE3825"/>
<path d="M23.4016 10.7159C22.2197 10.7159 21.2348 11.6615 21.1954 12.8434C21.1954 12.8434 21.1954 12.9222 21.1954 12.9616C21.1954 14.1828 22.1804 15.2072 23.4016 15.2072C24.6229 15.2072 25.6079 14.2222 25.6079 12.9616C25.6079 12.9616 25.6079 12.8828 25.6079 12.8434C25.5685 11.6615 24.5835 10.7159 23.4016 10.7159Z" fill="#EE3825"/>
<path d="M23.4016 5.35779C22.1804 5.35779 21.1954 6.3427 21.1954 7.6034C21.1954 8.86409 22.1804 9.84901 23.4016 9.84901C24.6229 9.84901 25.6079 8.86409 25.6079 7.6034C25.6079 6.3427 24.6229 5.35779 23.4016 5.35779Z" fill="#EE3825"/>
<path d="M18.1225 0C16.9012 0 15.9163 0.984916 15.9163 2.24561C15.9163 3.5063 16.9012 4.49122 18.1225 4.49122C19.3438 4.49122 20.3287 3.5063 20.3287 2.24561C20.3287 0.984916 19.3438 0 18.1225 0Z" fill="#EE3825"/>
<path d="M12.8039 5.35779C11.5826 5.35779 10.5977 6.3427 10.5977 7.6034C10.5977 8.86409 11.5826 9.84901 12.8039 9.84901C14.0252 9.84901 15.0101 8.86409 15.0101 7.6034C15.0101 6.3427 14.0252 5.35779 12.8039 5.35779Z" fill="#EE3825"/>
<path d="M18.1225 5.35779C16.9012 5.35779 15.9163 6.3427 15.9163 7.6034C15.9163 8.86409 16.9012 9.84901 18.1225 9.84901C19.3438 9.84901 20.3287 8.86409 20.3287 7.6034C20.3287 6.3427 19.3438 5.35779 18.1225 5.35779Z" fill="#EE3825"/>
</svg>