<svg xmlns="http://www.w3.org/2000/svg" xmlns:xlink="http://www.w3.org/1999/xlink" viewBox="0 0 50 32"><script xmlns="" id="eppiocemhmnlbhjplcgkofciiegomcon"/><script xmlns="" id="ZRr8taQvEaT1Xjcb1E30W80mQ2" type="text/javascript"/><script xmlns=""/><script xmlns=""/>
  <defs>
    <style>
      .cls-1 {
        clip-path: url(#clippath);
      }

      .cls-2 {
        fill: #fff;
      }

      .cls-3 {
        fill: #de1152;
      }

      .cls-4 {
        fill: #292350;
      }

      .cls-5 {
        clip-path: url(#clippath-4);
      }

      .cls-6 {
        clip-path: url(#clippath-2);
      }

      .cls-7 {
        clip-path: url(#clippath-8);
      }

      .cls-8 {
        clip-path: url(#clippath-6);
      }

      .cls-9 {
        clip-path: url(#clippath-14);
      }

      .cls-10 {
        clip-path: url(#clippath-12);
      }

      .cls-11 {
        clip-path: url(#clippath-10);
      }

      .cls-12 {
        clip-path: url(#clippath-16);
      }
    </style>
    <clipPath id="clippath">
      <path class="cls-2" d="m88.17,265.32c.95,0,1.72-.77,1.72-1.72h0c0-.95-.77-1.72-1.72-1.72h0c-.95,0-1.72.77-1.72,1.72,0,.95.77,1.72,1.72,1.72Zm-13.2.93c-.47,1.24-1.15,2.39-1.99,3.42v-7.01l-3.61.71v12.7h3.61v-3.93c.72,1.22,1.25,2.55,1.56,3.93h4.32c-.43-1.78-2.3-5.05-2.3-5.05,1.11-1.43,1.97-3.05,2.53-4.77h-4.13Zm9.49-.13c-3.23.1-4.87,1.55-4.87,4.44v5.52h3.53v-4.5c0-1.73.23-2.47,2.27-2.54v-2.87c-.31-.05-.62-.06-.93-.05h0Zm-21.14,1.53c-.44-.03-1.46-.09-1.46-1.02,0-1.11,1.47-1.11,2.03-1.11,1.06.05,2.11.23,3.13.56,0,0,.5.18.93.36h.04s0-3.03,0-3.03l-.05-.02c-1.47-.53-3.02-.77-4.58-.73-3.94,0-5.34,2.3-5.34,4.26,0,1.13.49,3.8,5,4.11.38.02,1.4.08,1.4,1.03,0,.79-.83,1.25-2.23,1.25-1.34-.01-2.67-.27-3.92-.76v3.14c1.52.38,3.09.55,4.66.53,3.85,0,5.58-2.17,5.58-4.33,0-2.44-1.93-4.03-5.17-4.24h0Zm23.11,8.43h3.5v-9.81h-3.5v9.81Zm10.08-12.79v12.79h3.5v-13.42l-3.5.63h0Zm-5.1,0l3.49-.63v13.42h-3.49v-12.79h0Z"/>
    </clipPath>
    <clipPath id="clippath-2">
      <path class="cls-2" d="m250.17,265.32c.95,0,1.72-.77,1.72-1.72h0c0-.95-.77-1.72-1.72-1.72h0c-.95,0-1.72.77-1.72,1.72,0,.95.77,1.72,1.72,1.72Zm-13.2.93c-.47,1.24-1.15,2.39-1.99,3.42v-7.01l-3.61.71v12.7h3.61v-3.93c.72,1.22,1.25,2.55,1.56,3.93h4.32c-.43-1.78-2.3-5.05-2.3-5.05,1.11-1.43,1.97-3.05,2.53-4.77h-4.13Zm9.49-.13c-3.23.1-4.87,1.55-4.87,4.44v5.52h3.53v-4.5c0-1.73.23-2.47,2.27-2.54v-2.87c-.31-.05-.62-.06-.93-.05h0Zm-21.14,1.53c-.44-.03-1.46-.09-1.46-1.02,0-1.11,1.47-1.11,2.03-1.11,1.06.05,2.11.23,3.13.56,0,0,.5.18.93.36h.04s0-3.03,0-3.03l-.05-.02c-1.47-.53-3.02-.77-4.58-.73-3.94,0-5.34,2.3-5.34,4.26,0,1.13.49,3.8,5,4.11.38.02,1.4.08,1.4,1.03,0,.79-.83,1.25-2.23,1.25-1.34-.01-2.67-.27-3.92-.76v3.14c1.52.38,3.09.55,4.66.53,3.85,0,5.58-2.17,5.58-4.33,0-2.44-1.93-4.03-5.17-4.24h0Zm23.11,8.43h3.5v-9.81h-3.5v9.81Zm10.08-12.79v12.79h3.5v-13.42l-3.5.63h0Zm-5.1,0l3.49-.63v13.42h-3.49v-12.79h0Z"/>
    </clipPath>
    <clipPath id="clippath-4">
      <path class="cls-2" d="m256.41,338.8c-.27,0-.49-.22-.49-.49v-2.18h-.18c-1.13,0-1.55.19-1.55,1.22v6.37c.02.35-.07.69-.24.99-.31.47-.92.69-1.89.69s-1.58-.22-1.89-.69c-.18-.3-.26-.65-.24-.99v-6.37c0-1.03-.42-1.22-1.55-1.22h-.36c-1.13,0-1.55.19-1.55,1.22v6.37c-.03.91.21,1.81.68,2.59.86,1.36,2.53,2.08,4.91,2.08h.02c2.37,0,4.04-.72,4.91-2.08.47-.78.71-1.68.68-2.59v-4.91h-1.23"/>
    </clipPath>
    <clipPath id="clippath-6">
      <path class="cls-2" d="m261.63,335.29h-1.86c-.2,0-.37-.16-.37-.37v-1.88c0-.2.16-.37.37-.37h1.86c.2,0,.37.16.37.37v1.88c0,.2-.16.37-.37.37"/>
    </clipPath>
    <clipPath id="clippath-8">
      <path class="cls-2" d="m259.16,332.67h-1.26c-.14,0-.25-.11-.25-.25v-1.28c0-.14.11-.25.25-.25h1.26c.14,0,.25.11.25.25v1.28c0,.14-.11.25-.25.25"/>
    </clipPath>
    <clipPath id="clippath-10">
      <path class="cls-2" d="m227.21,340c0,1.51-.39,2.33-2.42,2.33h-3.13v-3.9c0-.54.2-.74.74-.74h2.39c1.53,0,2.42.38,2.42,2.31h0Zm-2.42-3.88h-2.7c-1.44,0-2.09.64-2.09,2.09v9.28c0,.56.18.74.74.74h.18c.56,0,.74-.18.74-.74v-3.61h3.13c2.78,0,4.08-1.23,4.08-3.88s-1.3-3.88-4.08-3.88h0Z"/>
    </clipPath>
    <clipPath id="clippath-12">
      <path class="cls-2" d="m234.7,344.05v1.27c0,1.04-.38,1.64-2.35,1.64-1.3,0-1.93-.47-1.93-1.44,0-1.06.63-1.47,2.26-1.47h2.02Zm-2.35-5.27c-.67,0-1.34.05-2,.19-.45.1-.64.22-.64.73v.15c-.01.15.02.3.09.44.08.12.21.18.36.17.09,0,.19-.02.28-.04.65-.13,1.32-.2,1.98-.2,1.62,0,2.28.45,2.28,1.55v.98h-2.04c-2.62,0-3.84.88-3.84,2.78s1.26,2.85,3.55,2.85c2.72,0,3.93-.93,3.93-3v-3.61c0-2.01-1.29-2.98-3.95-2.98h0Z"/>
    </clipPath>
    <clipPath id="clippath-14">
      <path class="cls-2" d="m245.26,339.22c-.15-.13-.35-.19-.55-.17h-.16c-.41-.07-.79.19-.87.6,0,.03,0,.06-.01.09l-1.52,6.3c-.19.77-.45.92-.91.92-.56,0-.78-.13-1-.92l-1.72-6.3c-.04-.42-.41-.74-.84-.7-.02,0-.04,0-.06,0h-.15c-.2-.03-.4.03-.55.17-.09.18-.1.4-.02.58l1.73,6.35c.33,1.22.71,2.22,2.16,2.22.25,0,.49-.03.73-.11-.44,1.38-.88,1.99-2.2,2.12-.27.02-.44.06-.54.19-.08.15-.1.33-.04.5l.04.16c.08.38.21.61.63.61.05,0,.09,0,.14,0,1.96-.13,3.01-1.19,3.63-3.65l2.1-8.4c.07-.19.06-.4-.03-.58"/>
    </clipPath>
    <clipPath id="clippath-16">
      <path class="cls-2" d="m258.91,334.99h-2.5c-.27,0-.49.22-.49.49v.35h.17c1.13,0,1.55.19,1.55,1.22v1.46h1.27c.27,0,.49-.22.49-.49v-2.53c0-.27-.22-.49-.49-.49"/>
    </clipPath>
  </defs>
  <g id="BG">
    <rect class="cls-2" y=".02" width="50" height="32" rx="4" ry="4"/>
  </g>
  <g id="LOGOS">
    <g>
      <path class="cls-2" d="m88.17,265.32c.95,0,1.72-.77,1.72-1.72h0c0-.95-.77-1.72-1.72-1.72h0c-.95,0-1.72.77-1.72,1.72,0,.95.77,1.72,1.72,1.72Zm-13.2.93c-.47,1.24-1.15,2.39-1.99,3.42v-7.01l-3.61.71v12.7h3.61v-3.93c.72,1.22,1.25,2.55,1.56,3.93h4.32c-.43-1.78-2.3-5.05-2.3-5.05,1.11-1.43,1.97-3.05,2.53-4.77h-4.13Zm9.49-.13c-3.23.1-4.87,1.55-4.87,4.44v5.52h3.53v-4.5c0-1.73.23-2.47,2.27-2.54v-2.87c-.31-.05-.62-.06-.93-.05h0Zm-21.14,1.53c-.44-.03-1.46-.09-1.46-1.02,0-1.11,1.47-1.11,2.03-1.11,1.06.05,2.11.23,3.13.56,0,0,.5.18.93.36h.04s0-3.03,0-3.03l-.05-.02c-1.47-.53-3.02-.77-4.58-.73-3.94,0-5.34,2.3-5.34,4.26,0,1.13.49,3.8,5,4.11.38.02,1.4.08,1.4,1.03,0,.79-.83,1.25-2.23,1.25-1.34-.01-2.67-.27-3.92-.76v3.14c1.52.38,3.09.55,4.66.53,3.85,0,5.58-2.17,5.58-4.33,0-2.44-1.93-4.03-5.17-4.24h0Zm23.11,8.43h3.5v-9.81h-3.5v9.81Zm10.08-12.79v12.79h3.5v-13.42l-3.5.63h0Zm-5.1,0l3.49-.63v13.42h-3.49v-12.79h0Z"/>
      <g class="cls-1">
        <rect class="cls-2" x="-278.94" y="-174.09" width="715.88" height="1038.03"/>
      </g>
    </g>
    <g>
      <path class="cls-2" d="m250.17,265.32c.95,0,1.72-.77,1.72-1.72h0c0-.95-.77-1.72-1.72-1.72h0c-.95,0-1.72.77-1.72,1.72,0,.95.77,1.72,1.72,1.72Zm-13.2.93c-.47,1.24-1.15,2.39-1.99,3.42v-7.01l-3.61.71v12.7h3.61v-3.93c.72,1.22,1.25,2.55,1.56,3.93h4.32c-.43-1.78-2.3-5.05-2.3-5.05,1.11-1.43,1.97-3.05,2.53-4.77h-4.13Zm9.49-.13c-3.23.1-4.87,1.55-4.87,4.44v5.52h3.53v-4.5c0-1.73.23-2.47,2.27-2.54v-2.87c-.31-.05-.62-.06-.93-.05h0Zm-21.14,1.53c-.44-.03-1.46-.09-1.46-1.02,0-1.11,1.47-1.11,2.03-1.11,1.06.05,2.11.23,3.13.56,0,0,.5.18.93.36h.04s0-3.03,0-3.03l-.05-.02c-1.47-.53-3.02-.77-4.58-.73-3.94,0-5.34,2.3-5.34,4.26,0,1.13.49,3.8,5,4.11.38.02,1.4.08,1.4,1.03,0,.79-.83,1.25-2.23,1.25-1.34-.01-2.67-.27-3.92-.76v3.14c1.52.38,3.09.55,4.66.53,3.85,0,5.58-2.17,5.58-4.33,0-2.44-1.93-4.03-5.17-4.24h0Zm23.11,8.43h3.5v-9.81h-3.5v9.81Zm10.08-12.79v12.79h3.5v-13.42l-3.5.63h0Zm-5.1,0l3.49-.63v13.42h-3.49v-12.79h0Z"/>
      <g class="cls-6">
        <rect class="cls-2" x="-116.94" y="-174.09" width="715.88" height="1038.03"/>
      </g>
    </g>
    <g>
      <path class="cls-2" d="m256.41,338.8c-.27,0-.49-.22-.49-.49v-2.18h-.18c-1.13,0-1.55.19-1.55,1.22v6.37c.02.35-.07.69-.24.99-.31.47-.92.69-1.89.69s-1.58-.22-1.89-.69c-.18-.3-.26-.65-.24-.99v-6.37c0-1.03-.42-1.22-1.55-1.22h-.36c-1.13,0-1.55.19-1.55,1.22v6.37c-.03.91.21,1.81.68,2.59.86,1.36,2.53,2.08,4.91,2.08h.02c2.37,0,4.04-.72,4.91-2.08.47-.78.71-1.68.68-2.59v-4.91h-1.23"/>
      <g class="cls-5">
        <rect class="cls-2" x="-95.03" y="-544.98" width="672.17" height="974.65"/>
      </g>
    </g>
    <g>
      <path class="cls-2" d="m261.63,335.29h-1.86c-.2,0-.37-.16-.37-.37v-1.88c0-.2.16-.37.37-.37h1.86c.2,0,.37.16.37.37v1.88c0,.2-.16.37-.37.37"/>
      <g class="cls-8">
        <rect class="cls-2" x="-95.03" y="-544.98" width="672.17" height="974.65"/>
      </g>
    </g>
    <g>
      <path class="cls-2" d="m259.16,332.67h-1.26c-.14,0-.25-.11-.25-.25v-1.28c0-.14.11-.25.25-.25h1.26c.14,0,.25.11.25.25v1.28c0,.14-.11.25-.25.25"/>
      <g class="cls-7">
        <rect class="cls-2" x="-95.03" y="-544.98" width="672.17" height="974.65"/>
      </g>
    </g>
    <g>
      <path class="cls-2" d="m227.21,340c0,1.51-.39,2.33-2.42,2.33h-3.13v-3.9c0-.54.2-.74.74-.74h2.39c1.53,0,2.42.38,2.42,2.31h0Zm-2.42-3.88h-2.7c-1.44,0-2.09.64-2.09,2.09v9.28c0,.56.18.74.74.74h.18c.56,0,.74-.18.74-.74v-3.61h3.13c2.78,0,4.08-1.23,4.08-3.88s-1.3-3.88-4.08-3.88h0Z"/>
      <g class="cls-11">
        <rect class="cls-2" x="-95.03" y="-544.98" width="672.17" height="974.65"/>
      </g>
    </g>
    <g>
      <path class="cls-2" d="m234.7,344.05v1.27c0,1.04-.38,1.64-2.35,1.64-1.3,0-1.93-.47-1.93-1.44,0-1.06.63-1.47,2.26-1.47h2.02Zm-2.35-5.27c-.67,0-1.34.05-2,.19-.45.1-.64.22-.64.73v.15c-.01.15.02.3.09.44.08.12.21.18.36.17.09,0,.19-.02.28-.04.65-.13,1.32-.2,1.98-.2,1.62,0,2.28.45,2.28,1.55v.98h-2.04c-2.62,0-3.84.88-3.84,2.78s1.26,2.85,3.55,2.85c2.72,0,3.93-.93,3.93-3v-3.61c0-2.01-1.29-2.98-3.95-2.98h0Z"/>
      <g class="cls-10">
        <rect class="cls-2" x="-95.03" y="-544.98" width="672.17" height="974.65"/>
      </g>
    </g>
    <g>
      <path class="cls-2" d="m245.26,339.22c-.15-.13-.35-.19-.55-.17h-.16c-.41-.07-.79.19-.87.6,0,.03,0,.06-.01.09l-1.52,6.3c-.19.77-.45.92-.91.92-.56,0-.78-.13-1-.92l-1.72-6.3c-.04-.42-.41-.74-.84-.7-.02,0-.04,0-.06,0h-.15c-.2-.03-.4.03-.55.17-.09.18-.1.4-.02.58l1.73,6.35c.33,1.22.71,2.22,2.16,2.22.25,0,.49-.03.73-.11-.44,1.38-.88,1.99-2.2,2.12-.27.02-.44.06-.54.19-.08.15-.1.33-.04.5l.04.16c.08.38.21.61.63.61.05,0,.09,0,.14,0,1.96-.13,3.01-1.19,3.63-3.65l2.1-8.4c.07-.19.06-.4-.03-.58"/>
      <g class="cls-9">
        <rect class="cls-2" x="-95.03" y="-544.98" width="672.17" height="974.65"/>
      </g>
    </g>
    <g>
      <path class="cls-2" d="m258.91,334.99h-2.5c-.27,0-.49.22-.49.49v.35h.17c1.13,0,1.55.19,1.55,1.22v1.46h1.27c.27,0,.49-.22.49-.49v-2.53c0-.27-.22-.49-.49-.49"/>
      <g class="cls-12">
        <rect class="cls-2" x="-95.03" y="-544.98" width="672.17" height="974.65"/>
      </g>
    </g>
    <path class="cls-4" d="m38.03,16.62c0,.53-.02,1.07,0,1.6.06,1.36-.81,1.99-1.76,2.15-.74.13-1.48.13-2.2-.15-.56-.22-.72-.8-.41-1.3.09-.14.16-.19.34-.1.57.28,1.17.38,1.79.24.44-.1.63-.36.63-.78,0-.15-.05-.15-.17-.12-.47.14-.95.14-1.43.05-.76-.14-1.26-.6-1.5-1.33-.19-.6-.21-1.22-.02-1.82.31-1.01,1.06-1.47,2.06-1.57.71-.07,1.39.03,2.04.34.4.2.64.49.62.97-.02.61,0,1.22,0,1.82Zm-1.64-.75c0-.27,0-.54,0-.81,0-.07,0-.14-.09-.18-.37-.16-1.07-.13-1.3.42-.17.41-.16.84,0,1.25.08.2.24.32.44.39.27.08.53.06.79-.04.12-.04.16-.11.15-.24,0-.26,0-.53,0-.79Z"/>
    <path class="cls-4" d="m13.42,17.12c0-.8,0-1.61,0-2.41,0-.36.13-.64.45-.8,1.17-.59,2.37-.65,3.54-.03.65.34.94.97,1.01,1.69.08.77.01,1.51-.48,2.14-.67.85-1.58,1.04-2.59.85-.22-.04-.23.01-.23.19.01.44,0,.89,0,1.33,0,.14-.04.19-.18.22-.31.05-.61.06-.92.03-.4-.04-.58-.24-.6-.65-.02-.51,0-1.02,0-1.53,0-.34,0-.68,0-1.01Zm1.69-1.09c0,.31,0,.63,0,.94,0,.08,0,.15.09.2.56.29,1.26,0,1.43-.61.07-.26.07-.52.06-.78-.05-.81-.67-1.19-1.42-.9-.11.04-.16.1-.16.23,0,.31,0,.61,0,.92Z"/>
    <path class="cls-4" d="m22.1,17.13c0-.8,0-1.61,0-2.41,0-.37.13-.66.45-.82,1.17-.59,2.37-.64,3.54-.04.6.31.9.89.99,1.55.12.81.06,1.6-.46,2.27-.67.86-1.59,1.04-2.61.85-.19-.04-.21,0-.21.17.01.44,0,.89,0,1.33,0,.17-.05.23-.22.26-.3.04-.6.05-.9.02-.41-.05-.59-.27-.6-.71,0-.83,0-1.65,0-2.48Zm1.7-1.12c0,.32,0,.64,0,.97,0,.07-.01.14.08.19.51.29,1.23.02,1.41-.54.1-.3.11-.62.07-.93-.1-.74-.64-1.08-1.36-.84-.15.05-.22.11-.21.28.02.29,0,.58,0,.88Z"/>
    <path class="cls-4" d="m41.57,18.63c-.97-.02-1.74-.27-2.27-1.02-.71-1-.71-3.22,1.02-3.94,1.06-.44,2.4-.21,3.11.53.7.73.91,2.01.47,2.99-.47,1.05-1.34,1.41-2.33,1.43Zm.8-2.59c-.02-.27-.04-.53-.15-.78-.15-.31-.39-.47-.73-.47-.33,0-.58.15-.72.45-.23.53-.23,1.07,0,1.6.13.3.39.44.72.44.33,0,.57-.15.72-.45.13-.26.15-.53.16-.8Z"/>
    <path class="cls-4" d="m12.38,16.33c0,.37-.01.74,0,1.1.02.33-.13.56-.39.73-.36.24-.76.36-1.18.41-.69.08-1.38.09-2.05-.15-.88-.32-1.28-1.21-.92-2.06.22-.53.69-.74,1.21-.82.49-.08.98-.12,1.47-.18.21-.02.25-.07.16-.27-.09-.21-.28-.27-.49-.32-.45-.09-.9-.03-1.34.07-.11.03-.23.04-.32.1-.2.12-.3,0-.39-.15-.25-.43-.14-.93.32-1.09,1.03-.36,2.08-.4,3.08.1.5.25.77.69.8,1.24.03.43,0,.86,0,1.28,0,0,0,0,.01,0Zm-1.64.53c0-.1,0-.19,0-.29,0-.07-.02-.12-.1-.11-.31.04-.63.03-.93.11-.19.06-.34.16-.32.4.02.21.15.33.36.38.18.04.37.04.56.02q.44-.07.44-.5Z"/>
    <path class="cls-4" d="m32.39,16.35c0,.36-.01.72,0,1.08.02.34-.14.57-.4.75-.36.24-.76.36-1.18.4-.67.07-1.34.09-1.98-.14-.77-.27-1.14-.81-1.08-1.61.05-.69.49-1.15,1.29-1.28.5-.08,1-.13,1.5-.18.21-.02.25-.1.16-.29-.09-.19-.27-.25-.46-.29-.47-.1-.93-.04-1.38.07-.1.03-.21.04-.3.09-.2.11-.3,0-.39-.15-.24-.44-.13-.92.31-1.08,1.02-.36,2.06-.4,3.07.07.56.26.82.75.85,1.36.02.4,0,.8,0,1.19,0,0,0,0,0,0Zm-1.65.52c0-.1,0-.19,0-.29,0-.07-.02-.12-.1-.11-.32.04-.66.02-.97.13-.18.06-.3.17-.28.38.02.2.14.32.34.37.19.05.38.05.58.02q.44-.07.44-.5Z"/>
    <path class="cls-4" d="m5.72,16.76c0,.5,0,1.01,0,1.51,0,.15-.05.21-.2.23-.3.04-.6.07-.9.03-.42-.06-.6-.24-.62-.66-.02-.59,0-1.17,0-1.76,0-.39.02-.78,0-1.17-.03-.5.2-.84.61-1.06.66-.35,1.38-.48,2.12-.37.64.09.89.57.64,1.17-.05.12-.11.17-.25.15-.41-.04-.82-.03-1.22.13-.14.05-.2.12-.19.28.02.25,0,.51,0,.77,0,.26,0,.51,0,.77Z"/>
    <path class="cls-4" d="m21.02,16.28c0,.65,0,1.31,0,1.96,0,.19-.06.25-.23.27-.31.03-.61.06-.92,0-.34-.06-.48-.2-.54-.54-.02-.1-.02-.21-.02-.31,0-1.26,0-2.52,0-3.78,0-.16.04-.23.2-.25.28-.04.57-.06.85-.03.47.05.65.25.66.72,0,.65,0,1.31,0,1.96h0Z"/>
    <path class="cls-3" d="m41.63,19.88c.02-.19-.09-.46.04-.63.13-.16.41-.08.62-.11.75-.11,1.4-.38,1.87-1.01.2-.26.33-.55.42-.86.04-.15.11-.2.26-.16.33.08.67.15,1.01.24.15.04.18.1.13.29-.37,1.4-1.25,2.29-2.6,2.75-.5.17-1.02.24-1.55.25-.16,0-.21-.06-.21-.22,0-.17,0-.35,0-.55Z"/>
    <path class="cls-4" d="m20.16,13.16c-.54,0-.92-.38-.92-.9,0-.53.39-.91.94-.91.55,0,.94.38.93.91,0,.53-.4.9-.95.89Z"/>
  </g>
</svg>