<svg xmlns="http://www.w3.org/2000/svg" width="43" height="43" viewBox="0 0 43 43" fill="none"><script xmlns="" id="eppiocemhmnlbhjplcgkofciiegomcon"/><script xmlns="" id="kjqptxSvJtXaISZjISMhEnZt4X" type="text/javascript"/><script xmlns=""/><script xmlns=""/>
<circle cx="12.1426" cy="33.1426" r="8.1426" fill="#60D669"/>
<g clip-path="url(#clip0_1716_25192)">
<path d="M7.68832 33.0872C7.6881 33.869 7.89399 34.6325 8.28549 35.3054L7.65088 37.6045L10.0221 36.9876C10.678 37.3418 11.4128 37.5275 12.1596 37.5275H12.1615C14.6267 37.5275 16.6333 35.5371 16.6344 33.0907C16.6349 31.9052 16.17 30.7904 15.3254 29.9517C14.481 29.1131 13.3579 28.6511 12.1613 28.6505C9.69591 28.6505 7.68937 30.6408 7.68836 33.0872" fill="url(#paint0_linear_1716_25192)"/>
<path d="M7.52864 33.0858C7.52839 33.8958 7.74166 34.6865 8.14712 35.3835L7.48975 37.7651L9.94601 37.126C10.6228 37.4922 11.3848 37.6852 12.1601 37.6855H12.1621C14.7157 37.6855 16.7945 35.6235 16.7956 33.0895C16.796 31.8614 16.3144 30.7065 15.4397 29.8378C14.5648 28.9692 13.4016 28.4905 12.1621 28.49C9.60813 28.49 7.52966 30.5517 7.52864 33.0858ZM8.9914 35.2635L8.89969 35.119C8.51415 34.5108 8.31066 33.8078 8.31095 33.0861C8.31179 30.9798 10.0393 29.2662 12.1636 29.2662C13.1923 29.2666 14.1591 29.6645 14.8863 30.3865C15.6134 31.1085 16.0135 32.0683 16.0133 33.0892C16.0123 35.1954 14.2847 36.9092 12.1621 36.9092H12.1606C11.4695 36.9089 10.7916 36.7247 10.2005 36.3767L10.0598 36.2939L8.60223 36.6731L8.9914 35.2634V35.2635Z" fill="url(#paint1_linear_1716_25192)"/>
<path d="M11.0039 31.1644C10.9172 30.9731 10.8259 30.9693 10.7434 30.9659C10.6759 30.963 10.5987 30.9633 10.5215 30.9633C10.4443 30.9633 10.3189 30.9921 10.2129 31.107C10.1067 31.2219 9.80762 31.4998 9.80762 32.065C9.80762 32.6302 10.2225 33.1764 10.2803 33.2531C10.3382 33.3297 11.0812 34.5266 12.258 34.9871C13.236 35.3697 13.435 35.2936 13.6473 35.2744C13.8595 35.2553 14.3323 34.9966 14.4287 34.7284C14.5252 34.4602 14.5252 34.2303 14.4963 34.1822C14.4673 34.1343 14.3901 34.1056 14.2743 34.0482C14.1585 33.9907 13.5893 33.7128 13.4832 33.6745C13.3771 33.6362 13.2999 33.617 13.2227 33.7321C13.1455 33.8469 12.9238 34.1056 12.8562 34.1822C12.7887 34.259 12.7211 34.2686 12.6054 34.2111C12.4895 34.1535 12.1167 34.0323 11.6743 33.641C11.3302 33.3365 11.0978 32.9605 11.0303 32.8455C10.9627 32.7306 11.023 32.6684 11.0811 32.6111C11.1331 32.5596 11.1969 32.477 11.2549 32.4099C11.3126 32.3428 11.3318 32.295 11.3705 32.2184C11.4091 32.1417 11.3898 32.0746 11.3609 32.0171C11.3318 31.9597 11.1069 31.3915 11.0039 31.1644Z" fill="white"/>
</g>
<g clip-path="url(#clip1_1716_25192)">
<path d="M41.9994 9.4997C41.9994 4.25319 37.7462 0 32.4997 0C27.2532 0 23 4.25312 23 9.4997C23 14.2412 26.4739 18.1714 31.0154 18.884V12.2457H28.6033V9.4997H31.0154V7.4068C31.0154 5.02594 32.4336 3.71082 34.6035 3.71082C35.6429 3.71082 36.73 3.89636 36.73 3.89636V6.23418H35.5322C34.352 6.23418 33.984 6.96647 33.984 7.71777V9.4997H36.6187L36.1975 12.2457H33.984V18.884C38.5255 18.1714 41.9994 14.2413 41.9994 9.4997Z" fill="#1877F2"/>
<path d="M36.1977 12.2457L36.6189 9.4997H33.9842V7.71776C33.9842 6.96639 34.3522 6.23417 35.5324 6.23417H36.7302V3.89636C36.7302 3.89636 35.6431 3.71082 34.6037 3.71082C32.4338 3.71082 31.0155 5.02593 31.0155 7.40679V9.4997H28.6035V12.2457H31.0155V18.884C31.5066 18.9609 32.0029 18.9995 32.4999 18.9994C32.9969 18.9995 33.4932 18.961 33.9842 18.884V12.2457H36.1977Z" fill="white"/>
</g>
<circle cx="33.4997" cy="33.4997" r="9.4997" fill="#1D9BF0"/>
<path d="M38.9281 30.3915C38.5215 30.5577 38.0903 30.6668 37.6488 30.7152C38.1087 30.4608 38.4618 30.0579 38.6281 29.5779C38.1909 29.8174 37.7126 29.9861 37.2137 30.0768C36.8074 29.6773 36.2286 29.4276 35.5879 29.4276C34.3578 29.4276 33.3604 30.348 33.3604 31.4832C33.3604 31.6443 33.3801 31.8012 33.4181 31.9517C31.5669 31.8659 29.9257 31.0476 28.8271 29.8039C28.6354 30.1075 28.5255 30.4606 28.5255 30.8373C28.5255 31.5505 28.9188 32.1796 29.5164 32.5483C29.1627 32.5381 28.8168 32.4499 28.5075 32.2911C28.5074 32.2997 28.5074 32.3084 28.5074 32.317C28.5074 33.313 29.2752 34.1438 30.2941 34.3326C29.9661 34.415 29.622 34.427 29.2882 34.3679C29.5716 35.1845 30.3943 35.7788 31.3689 35.7954C30.6066 36.3467 29.6462 36.6754 28.6026 36.6754C28.4228 36.6754 28.2455 36.6656 28.0713 36.6467C29.057 37.2299 30.2278 37.5702 31.4857 37.5702C35.5827 37.5702 37.8231 34.4379 37.8231 31.7216C37.8231 31.6324 37.821 31.5438 37.8166 31.4556C38.2527 31.1647 38.6291 30.8044 38.9281 30.3915Z" fill="white"/>
<g clip-path="url(#clip2_1716_25192)">
<path d="M27.9194 11.1426H16.384C13.5734 11.1426 11.2949 13.4211 11.2949 16.2317V27.7671C11.2949 30.5777 13.5734 32.8562 16.384 32.8562H27.9194C30.73 32.8562 33.0085 30.5777 33.0085 27.7671V16.2317C33.0085 13.4211 30.73 11.1426 27.9194 11.1426Z" fill="url(#paint2_radial_1716_25192)"/>
<path d="M27.9194 11.1426H16.384C13.5734 11.1426 11.2949 13.4211 11.2949 16.2317V27.7671C11.2949 30.5777 13.5734 32.8562 16.384 32.8562H27.9194C30.73 32.8562 33.0085 30.5777 33.0085 27.7671V16.2317C33.0085 13.4211 30.73 11.1426 27.9194 11.1426Z" fill="url(#paint3_radial_1716_25192)"/>
<path d="M22.1522 15.7955C20.4673 15.7955 20.2559 15.8029 19.5942 15.833C18.9337 15.8633 18.4828 15.9678 18.0884 16.1212C17.6803 16.2797 17.3342 16.4917 16.9894 16.8366C16.6443 17.1815 16.4323 17.5276 16.2733 17.9355C16.1195 18.33 16.0148 18.7811 15.9851 19.4412C15.9555 20.103 15.9478 20.3145 15.9478 21.9994C15.9478 23.6843 15.9552 23.8951 15.9852 24.5568C16.0156 25.2173 16.1202 25.6681 16.2735 26.0626C16.432 26.4706 16.644 26.8168 16.989 27.1616C17.3337 27.5067 17.6798 27.7192 18.0876 27.8776C18.4824 28.031 18.9333 28.1356 19.5936 28.1658C20.2554 28.1959 20.4667 28.2033 22.1515 28.2033C23.8365 28.2033 24.0473 28.1959 24.709 28.1658C25.3695 28.1356 25.8208 28.031 26.2156 27.8776C26.6235 27.7192 26.9691 27.5067 27.3138 27.1616C27.6589 26.8168 27.8708 26.4706 28.0298 26.0627C28.1823 25.6681 28.287 25.2172 28.3181 24.5569C28.3478 23.8952 28.3555 23.6843 28.3555 21.9994C28.3555 20.3145 28.3478 20.1031 28.3181 19.4413C28.287 18.7809 28.1823 18.3301 28.0298 17.9357C27.8708 17.5276 27.6589 17.1815 27.3138 16.8366C26.9687 16.4915 26.6236 16.2796 26.2152 16.1213C25.8197 15.9678 25.3686 15.8632 24.7081 15.833C24.0464 15.8029 23.8357 15.7955 22.1503 15.7955H22.1522ZM21.5956 16.9135C21.7609 16.9133 21.9452 16.9135 22.1522 16.9135C23.8087 16.9135 24.005 16.9195 24.6591 16.9492C25.264 16.9769 25.5923 17.0779 25.811 17.1629C26.1005 17.2753 26.3069 17.4097 26.524 17.6269C26.7411 17.844 26.8755 18.0508 26.9882 18.3403C27.0731 18.5587 27.1743 18.887 27.2019 19.4919C27.2316 20.1459 27.238 20.3423 27.238 21.998C27.238 23.6537 27.2316 23.8501 27.2019 24.5041C27.1742 25.109 27.0731 25.4373 26.9882 25.6557C26.8758 25.9452 26.7411 26.1514 26.524 26.3684C26.3068 26.5855 26.1007 26.7199 25.811 26.8324C25.5926 26.9177 25.264 27.0185 24.6591 27.0462C24.0051 27.0759 23.8087 27.0823 22.1522 27.0823C20.4956 27.0823 20.2993 27.0759 19.6453 27.0462C19.0405 27.0183 18.7121 26.9172 18.4933 26.8323C18.2038 26.7198 17.997 26.5854 17.7798 26.3683C17.5627 26.1511 17.4283 25.9449 17.3156 25.6552C17.2307 25.4368 17.1295 25.1085 17.1019 24.5036C17.0722 23.8496 17.0663 23.6532 17.0663 21.9964C17.0663 20.3398 17.0722 20.1444 17.1019 19.4903C17.1296 18.8855 17.2307 18.5572 17.3156 18.3385C17.4281 18.0489 17.5627 17.8422 17.7799 17.625C17.997 17.4079 18.2038 17.2735 18.4933 17.1608C18.712 17.0755 19.0405 16.9747 19.6453 16.9469C20.2176 16.921 20.4394 16.9133 21.5956 16.912V16.9135ZM25.4638 17.9436C25.0528 17.9436 24.7194 18.2768 24.7194 18.6878C24.7194 19.0988 25.0528 19.4323 25.4638 19.4323C25.8748 19.4323 26.2083 19.0988 26.2083 18.6878C26.2083 18.2768 25.8748 17.9434 25.4638 17.9434V17.9436ZM22.1522 18.8134C20.3928 18.8134 18.9663 20.24 18.9663 21.9994C18.9663 23.7589 20.3928 25.1847 22.1522 25.1847C23.9117 25.1847 25.3377 23.7589 25.3377 21.9994C25.3377 20.24 23.9116 18.8134 22.1521 18.8134H22.1522ZM22.1522 19.9314C23.2943 19.9314 24.2202 20.8572 24.2202 21.9994C24.2202 23.1415 23.2943 24.0674 22.1522 24.0674C21.0101 24.0674 20.0843 23.1415 20.0843 21.9994C20.0843 20.8572 21.0101 19.9314 22.1522 19.9314Z" fill="white"/>
</g>
<circle cx="9.4997" cy="12.4997" r="9.4997" fill="black"/>
<g clip-path="url(#clip3_1716_25192)">
<path d="M12.1174 10.7897C12.9095 11.3518 13.8799 11.6825 14.928 11.6825V9.68064C14.7296 9.68068 14.5318 9.66013 14.3377 9.61932V11.195C13.2897 11.195 12.3195 10.8644 11.5272 10.3024V14.3875C11.5272 16.4312 9.8581 18.0877 7.79938 18.0877C7.03122 18.0877 6.31722 17.8572 5.72412 17.4619C6.40106 18.1489 7.34509 18.5751 8.38947 18.5751C10.4484 18.5751 12.1175 16.9186 12.1175 14.8748V10.7897H12.1174ZM12.8455 8.77012C12.4407 8.33113 12.1749 7.76382 12.1174 7.13661V6.87915H11.558C11.6988 7.6763 12.1791 8.35733 12.8455 8.77012ZM7.02626 15.8937C6.80009 15.5993 6.67783 15.2392 6.67837 14.869C6.67837 13.9343 7.44179 13.1765 8.38366 13.1765C8.55915 13.1764 8.73362 13.2031 8.90092 13.2558V11.2092C8.70542 11.1826 8.50813 11.1713 8.31092 11.1755V12.7684C8.14355 12.7157 7.96899 12.689 7.7934 12.6891C6.85157 12.6891 6.08821 13.4469 6.08821 14.3817C6.08821 15.0427 6.46976 15.6149 7.02626 15.8937Z" fill="#FF004F"/>
<path d="M11.5271 10.3023C12.3194 10.8643 13.2896 11.195 14.3377 11.195V9.61928C13.7527 9.49558 13.2348 9.19217 12.8454 8.77012C12.179 8.35729 11.6988 7.67625 11.558 6.87915H10.0888V14.8748C10.0854 15.8069 9.32334 16.5616 8.38351 16.5616C7.82973 16.5616 7.3377 16.2996 7.02611 15.8936C6.4697 15.6149 6.0881 15.0426 6.0881 14.3817C6.0881 13.447 6.85147 12.6892 7.7933 12.6892C7.97375 12.6892 8.14767 12.7171 8.31082 12.7684V11.1755C6.28823 11.217 4.66162 12.8574 4.66162 14.8748C4.66162 15.8819 5.06667 16.7949 5.7241 17.4619C6.3172 17.8572 7.03116 18.0878 7.79936 18.0878C9.85813 18.0878 11.5271 16.4311 11.5271 14.3875V10.3024L11.5271 10.3023Z" fill="white"/>
<path d="M14.3375 9.61926V9.19329C13.81 9.19409 13.2929 9.04745 12.8453 8.77015C13.2415 9.20067 13.7632 9.49756 14.3375 9.61935V9.61926ZM11.5578 6.87914C11.5444 6.80297 11.5341 6.7263 11.5269 6.64931V6.39185H9.49833V14.3875C9.49511 15.3196 8.73301 16.0743 7.79314 16.0743C7.52669 16.0747 7.26388 16.0129 7.02595 15.8938C7.33753 16.2996 7.82957 16.5616 8.38335 16.5616C9.32314 16.5616 10.0853 15.807 10.0886 14.8748V6.87918H11.5578V6.87914ZM8.31079 11.1755V10.7219C8.14127 10.6989 7.97038 10.6874 7.79929 10.6875C5.74031 10.6875 4.07129 12.3441 4.07129 14.3875C4.07129 15.6687 4.72723 16.7978 5.72403 17.4619C5.06659 16.7948 4.66154 15.8818 4.66154 14.8748C4.66154 12.8574 6.28811 11.217 8.31079 11.1755Z" fill="#00F2EA"/>
</g>
<defs>
<linearGradient id="paint0_linear_1716_25192" x1="456.826" y1="924.048" x2="456.826" y2="28.6505" gradientUnits="userSpaceOnUse">
<stop stop-color="#1FAF38"/>
<stop offset="1" stop-color="#60D669"/>
</linearGradient>
<linearGradient id="paint1_linear_1716_25192" x1="472.781" y1="955.996" x2="472.781" y2="28.49" gradientUnits="userSpaceOnUse">
<stop stop-color="#F9F9F9"/>
<stop offset="1" stop-color="white"/>
</linearGradient>
<radialGradient id="paint2_radial_1716_25192" cx="0" cy="0" r="1" gradientUnits="userSpaceOnUse" gradientTransform="translate(17.0626 34.5286) rotate(-90) scale(21.5198 20.0151)">
<stop stop-color="#FFDD55"/>
<stop offset="0.1" stop-color="#FFDD55"/>
<stop offset="0.5" stop-color="#FF543E"/>
<stop offset="1" stop-color="#C837AB"/>
</radialGradient>
<radialGradient id="paint3_radial_1716_25192" cx="0" cy="0" r="1" gradientUnits="userSpaceOnUse" gradientTransform="translate(7.65781 12.7067) rotate(78.681) scale(9.61947 39.6518)">
<stop stop-color="#3771C8"/>
<stop offset="0.128" stop-color="#3771C8"/>
<stop offset="1" stop-color="#6600FF" stop-opacity="0"/>
</radialGradient>
<clipPath id="clip0_1716_25192">
<rect width="9.30583" height="9.30583" fill="white" transform="translate(7.48975 28.49)"/>
</clipPath>
<clipPath id="clip1_1716_25192">
<rect width="18.9994" height="18.9994" fill="white" transform="translate(23)"/>
</clipPath>
<clipPath id="clip2_1716_25192">
<rect x="11.2949" y="11.1426" width="21.7136" height="21.7136" rx="7" fill="white"/>
</clipPath>
<clipPath id="clip3_1716_25192">
<rect width="10.8568" height="12.2139" fill="white" transform="translate(4.07129 6.39185)"/>
</clipPath>
</defs>
</svg>