<svg xmlns="http://www.w3.org/2000/svg" width="50" height="50" fill="none"><rect width="49" height="49" x="0.5" y="0.5" fill="#fff" stroke="#EEE" rx="9.5"></rect><path fill="#1C1C1E" fill-rule="evenodd" d="M14.454 14.131q-1.741.126-3.454.458V36.95h5.107v-8.283h2.52q.658.786 1.315 1.752a60 60 0 0 1 1.331 2.046q.674 1.08 1.314 2.226l1.266 2.26h5.709a62 62 0 0 0-1.277-2.538 45 45 0 0 0-1.424-2.488 56 56 0 0 0-1.49-2.292 31 31 0 0 0-1.44-1.948q2.063-.851 3.159-2.34 1.095-1.49 1.096-3.88 0-3.831-2.717-5.648T17.645 14q-1.407 0-3.191.131m7.202 4.927q1.26.705 1.26 2.374 0 1.736-1.244 2.456t-4.125.72h-1.44v-6.155q.393-.032.835-.066.441-.032.998-.032 2.456 0 3.716.703" clip-rule="evenodd"></path><path fill="#00E86E" d="M36.387 14.066H43L30.469 36.974h-6.613z"></path></svg>