<svg xmlns="http://www.w3.org/2000/svg" width="40" height="40" fill="none"><rect width="40" height="40" fill="#15b5e2" rx="6.667"></rect><path fill="#ffffff" d="M20 22.25a2.25 2.25 0 1 0 0-4.5 2.25 2.25 0 0 0 0 4.5"></path><path fill="#ffffff" d="m30.05 22.063-.023-.018-1.479-1.16a.76.76 0 0 1-.286-.625v-.542a.75.75 0 0 1 .287-.62l1.479-1.16.022-.018a1.25 1.25 0 0 0 .276-1.597l-2.002-3.464-.006-.01a1.26 1.26 0 0 0-1.521-.53l-.017.006-1.739.7a.75.75 0 0 1-.678-.06 9 9 0 0 0-.469-.275.75.75 0 0 1-.383-.554l-.262-1.856-.006-.034a1.276 1.276 0 0 0-1.239-1.027h-4.008a1.26 1.26 0 0 0-1.24 1.05l-.004.025-.261 1.86a.75.75 0 0 1-.382.554q-.239.129-.468.273a.75.75 0 0 1-.677.06l-1.74-.704-.017-.006a1.26 1.26 0 0 0-1.522.531l-.006.01-2.005 3.467a1.25 1.25 0 0 0 .276 1.599l.023.017 1.479 1.16a.76.76 0 0 1 .286.625v.542a.75.75 0 0 1-.287.62l-1.478 1.16-.023.018a1.25 1.25 0 0 0-.276 1.597l2.002 3.464.006.01a1.26 1.26 0 0 0 1.521.53l.017-.006 1.737-.7a.75.75 0 0 1 .678.06q.23.147.47.275a.75.75 0 0 1 .383.554l.26 1.856.006.034a1.275 1.275 0 0 0 1.242 1.027h4.008a1.26 1.26 0 0 0 1.24-1.05l.005-.026.26-1.86a.75.75 0 0 1 .384-.553q.24-.13.469-.273a.75.75 0 0 1 .676-.06l1.74.701.017.007a1.26 1.26 0 0 0 1.529-.542l2.002-3.464a1.25 1.25 0 0 0-.276-1.599m-6.304-1.887a3.75 3.75 0 1 1-3.922-3.922 3.76 3.76 0 0 1 3.922 3.922"></path></svg>