  <svg xmlns="http://www.w3.org/2000/svg" width="50" height="50" fill="none">
    <rect width="50" height="50" fill="#E0F7E5" rx="10"></rect>
    <path fill="#95BF47" d="M33.875 16.519c-.017-.15-.15-.216-.25-.216s-2.277-.167-2.277-.167-1.512-1.512-1.695-1.662c-.166-.166-.482-.116-.615-.083-.017 0-.333.1-.848.266-.515-1.48-1.396-2.826-2.975-2.826h-.15c-.432-.565-.997-.831-1.463-.831-3.657 0-5.419 4.571-5.967 6.898-1.43.449-2.444.748-2.56.798-.798.25-.814.266-.914 1.014C14.078 20.275 12 36.35 12 36.35l16.173 3.025 8.777-1.895c.017-.033-3.059-20.81-3.075-20.96m-6.582-1.63a30 30 0 0 0-1.364.433v-.3c0-.897-.116-1.628-.332-2.21.831.1 1.346 1.014 1.695 2.078m-2.71-1.894c.216.565.366 1.363.366 2.46v.166c-.898.283-1.845.565-2.826.881.549-2.094 1.596-3.125 2.46-3.507m-1.064-1.03c.166 0 .333.066.466.165-1.18.549-2.427 1.928-2.942 4.721-.782.25-1.53.466-2.244.698.598-2.127 2.094-5.585 4.72-5.585"></path>
    <path fill="#5E8E3E" d="M33.626 16.28c-.1 0-2.277-.167-2.277-.167s-1.513-1.512-1.696-1.662a.32.32 0 0 0-.216-.1l-1.213 25.034L37 37.49s-3.075-20.811-3.092-20.96a.45.45 0 0 0-.282-.25"></path>
    <path fill="#fff" d="M25.214 21.13 24.15 24.34s-.964-.515-2.11-.515c-1.713 0-1.796 1.08-1.796 1.346 0 1.463 3.823 2.028 3.823 5.469 0 2.71-1.712 4.455-4.022 4.455-2.793 0-4.19-1.73-4.19-1.73l.749-2.46s1.463 1.264 2.693 1.264c.814 0 1.147-.632 1.147-1.097 0-1.912-3.125-1.995-3.125-5.153 0-2.643 1.895-5.203 5.734-5.203 1.43-.016 2.161.416 2.161.416"></path>
  </svg>