<svg xmlns="http://www.w3.org/2000/svg" width="40" height="40" viewBox="0 0 40 40" fill="none"><script xmlns="" id="eppiocemhmnlbhjplcgkofciiegomcon"/><script xmlns="" id="tGspi53ozVzXB9wC2Thg1kBrDe" type="text/javascript"/><script xmlns=""/><script xmlns=""/>
<path d="M32.2836 8.38765C32.2613 8.18738 32.0833 8.09838 31.9498 8.09838C31.8163 8.09838 28.9013 7.87586 28.9013 7.87586C28.9013 7.87586 26.8764 5.85093 26.6316 5.65066C26.4091 5.42814 25.9863 5.4949 25.8083 5.5394C25.786 5.5394 25.3632 5.67291 24.6734 5.89543C23.9836 3.91501 22.8043 2.1126 20.6903 2.1126H20.49C19.9115 1.35603 19.1549 1 18.5319 1C13.6364 1 11.2777 7.11929 10.5434 10.2346C8.62975 10.8354 7.27238 11.2359 7.11661 11.3027C6.04852 11.6364 6.02627 11.6587 5.89276 12.66C5.7815 13.4166 3 34.9343 3 34.9343L24.6512 38.9841L36.4002 36.4474C36.4225 36.4029 32.3058 8.58792 32.2836 8.38765ZM23.4718 6.20696C22.9378 6.36272 22.2925 6.56299 21.6471 6.78551V6.38497C21.6471 5.18337 21.4914 4.20428 21.2021 3.42546C22.3147 3.55898 23.0045 4.78283 23.4718 6.20696ZM19.8447 3.67024C20.134 4.4268 20.3343 5.4949 20.3343 6.96353V7.18605C19.1327 7.56433 17.8643 7.94261 16.5514 8.3654C17.2858 5.56165 18.6876 4.18203 19.8447 3.67024ZM18.4206 2.29061C18.6431 2.29061 18.8657 2.37962 19.0437 2.51313C17.4638 3.24745 15.7949 5.09436 15.1051 8.83269C14.0592 9.16647 13.0579 9.45575 12.1011 9.76727C12.9021 6.91902 14.9048 2.29061 18.4206 2.29061Z" fill="#95BF47"/>
<path d="M31.9536 8.06963C31.8201 8.06963 28.9051 7.84711 28.9051 7.84711C28.9051 7.84711 26.8801 5.82218 26.6353 5.62192C26.5463 5.53291 26.4351 5.4884 26.3461 5.4884L24.7217 38.9999L36.4707 36.4631C36.4707 36.4631 32.3541 8.60368 32.3319 8.40341C32.2428 8.20315 32.0871 8.11414 31.9536 8.06963Z" fill="#5E8E3E"/>
<path d="M20.6905 14.5628L19.2663 18.8574C19.2663 18.8574 17.9757 18.1676 16.4403 18.1676C14.1484 18.1676 14.0371 19.614 14.0371 19.97C14.0371 21.9282 19.1551 22.6847 19.1551 27.2909C19.1551 30.918 16.8631 33.2544 13.7701 33.2544C10.0318 33.2544 8.1626 30.9402 8.1626 30.9402L9.16394 27.6469C9.16394 27.6469 11.1221 29.3381 12.7688 29.3381C13.8591 29.3381 14.3041 28.4925 14.3041 27.8695C14.3041 25.3105 10.1208 25.1992 10.1208 20.9714C10.1208 17.4333 12.6575 14.0065 17.7977 14.0065C19.7114 13.9842 20.6905 14.5628 20.6905 14.5628Z" fill="white"/>
</svg>