<svg xmlns="http://www.w3.org/2000/svg" viewBox="0 0 50 32"><script xmlns="" id="eppiocemhmnlbhjplcgkofciiegomcon"/><script xmlns="" id="ikQBdLNoy7kN5A-7dTCSMXIJ-C" type="text/javascript"/><script xmlns=""/><script xmlns=""/>
  <defs>
    <style>
      .cls-1 {
        fill: #004384;
      }

      .cls-2 {
        fill: #005ca5;
      }

      .cls-3 {
        fill: #eb6f65;
      }

      .cls-4 {
        fill: #fff;
      }

      .cls-5 {
        fill: #ffd900;
      }

      .cls-6 {
        fill: #ffe659;
      }

      .cls-7 {
        fill: #a6ce74;
      }

      .cls-8 {
        fill: #e02213;
      }

      .cls-9 {
        fill: #5995c4;
      }

      .cls-10 {
        fill: #76b42a;
      }
    </style>
  </defs>
  <g id="BG">
    <rect class="cls-4" y="0" width="50" height="32" rx="4" ry="4"/>
  </g>
  <g id="LOGOS">
    <g>
      <path class="cls-1" d="m24,14.71c-.02.09-.01.17-.02.26-.01.03,0,.05,0,.08,0,.03,0,.06,0,.09,0,.09,0,.18,0,.27,0,.03,0,.06,0,.09,0,.12.02.24.06.35.07.18.23.22.4.24.04,0,.07,0,.11,0,.04.01.07,0,.11,0,.06,0,.13,0,.19,0,.04,0,.07,0,.11,0,.15,0,.29-.02.42-.1.09-.06.14-.14.18-.23.13-.26.18-.55.22-.83.03-.19.05-.38.07-.58.02-.23.06-.46.08-.7.01-.15.03-.3.05-.45.01-.15.04-.3.06-.45.02-.15.03-.3.05-.44.02-.15.02-.3.06-.45,0-.04-.01-.08.01-.12.02,0,.04,0,.06,0,.54,0,1.08,0,1.63,0,.03,0,.08-.02.06.05-.02.16-.04.32-.06.48-.01.11-.02.21-.03.32-.02.15-.04.31-.06.46-.01.1-.02.21-.03.31-.01.11-.03.22-.04.33,0,.1-.02.2-.03.29-.01.12-.03.24-.04.36-.01.1-.02.2-.03.31-.01.12-.02.23-.04.35-.04.19-.07.38-.11.57-.09.36-.21.71-.44,1.02-.17.23-.39.42-.65.55-.21.1-.44.18-.67.22-.19.03-.38.06-.57.06-.03.01-.06,0-.09,0-.04,0-.08,0-.12,0-.09,0-.18,0-.26,0-.01,0-.03,0-.04,0-.09-.01-.17,0-.26,0-.04,0-.08,0-.12,0-.03,0-.05,0-.08,0-.33,0-.65-.05-.96-.16-.35-.13-.62-.36-.78-.7-.09-.2-.14-.42-.17-.65,0-.09,0-.17-.01-.26,0-.12,0-.24,0-.37,0-.03,0-.06,0-.09,0-.03,0-.06,0-.09,0-.12.02-.24.03-.36.01-.02,0-.05.01-.08.01-.18.04-.37.06-.55.02-.15.03-.3.05-.45.02-.15.04-.3.06-.45.02-.15.03-.3.04-.44.02-.15.04-.31.06-.46,0-.09.02-.18.03-.26,0-.1.02-.19.03-.29.01-.01.03,0,.05,0,.55,0,1.1,0,1.65,0,.02,0,.03,0,.05,0-.02.15-.04.3-.05.45-.01.1-.02.21-.03.31-.02.15-.04.31-.06.46-.01.1-.02.21-.03.31-.02.16-.04.31-.06.47,0,.11-.02.21-.03.32-.02.15-.04.3-.05.46,0,.04,0,.08,0,.12-.01.02,0,.05-.01.07Z"/>
      <path class="cls-1" d="m17.95,17.36c-.21,0-.41-.04-.62-.07-.16-.02-.31-.05-.47-.07-.04,0-.05-.01-.04-.06.05-.25.09-.51.13-.77.03-.18.07-.36.1-.54,0-.05.04-.04.06-.03.16.05.32.08.47.12.19.04.38.07.58.1.16.03.32.03.48.06.02,0,.04,0,.06,0,.03,0,.06,0,.09,0,.02,0,.05,0,.07,0,.05.01.09,0,.14,0,.07,0,.15,0,.22,0,.04,0,.08,0,.11,0,.03,0,.06,0,.09,0,.03-.01.06,0,.09-.01.14-.01.28-.04.41-.12.09-.06.13-.14.15-.23,0-.03.02-.06.02-.09,0-.04,0-.09,0-.13,0-.09-.07-.15-.15-.17-.1-.03-.21-.06-.32-.06-.03,0-.06-.01-.09-.02-.03-.01-.06,0-.08,0-.04,0-.08,0-.12,0-.1,0-.21,0-.31,0-.04,0-.08,0-.12,0-.02,0-.05,0-.08,0-.03,0-.06,0-.09,0-.04,0-.09,0-.13-.01-.02-.01-.05,0-.08-.01-.34-.02-.67-.1-.98-.25-.24-.12-.44-.3-.56-.55-.07-.15-.12-.31-.13-.48,0-.03-.03-.05,0-.08-.02-.09,0-.18-.01-.27.03-.44.12-.85.41-1.2.22-.26.5-.43.83-.54.23-.07.47-.13.71-.15.1,0,.2-.02.31-.03.03-.01.06,0,.08,0,.03,0,.06,0,.09,0,.03,0,.07,0,.1,0,.15,0,.29,0,.44,0,.04,0,.08,0,.12,0,.03,0,.05,0,.08,0,.02,0,.05,0,.07,0,.24.02.48.04.72.07.27.04.54.09.82.14.07.01.05.06.06.1.01.03,0,.07,0,.1,0,.04,0,.08,0,.11,0,.04,0,.07,0,.11,0,.03,0,.07,0,.1.01.03,0,.07,0,.1,0,.03,0,.07,0,.1,0,.04,0,.07,0,.11v.12s0,.07.01.1c0,.07,0,.14,0,.21,0,.03,0,.07,0,.1.01.03,0,.07,0,.1,0,.02.02.07-.04.06-.19-.06-.38-.12-.57-.18-.26-.08-.52-.14-.79-.18-.18-.03-.37-.04-.55-.06-.03-.01-.07,0-.1,0-.06,0-.11,0-.17,0-.03,0-.07,0-.1,0-.05.01-.1,0-.15.01-.12,0-.23.02-.35.04-.21.04-.25.17-.28.31-.02.08-.01.17-.01.25,0,.09.04.14.12.17.09.03.18.04.27.06.04,0,.08,0,.12,0,.03,0,.07,0,.1,0,.11.01.21,0,.32,0,.04,0,.09,0,.13,0,.03,0,.06,0,.09,0,.22.03.43.03.65.08.31.06.6.14.86.32.27.18.45.43.53.75.01.06.03.11.03.17.01.02,0,.05.01.07,0,.02,0,.04,0,.06,0,.06,0,.13,0,.19-.03.28-.07.56-.19.81-.12.25-.28.45-.5.62-.29.22-.62.33-.96.41-.15.03-.29.05-.44.07-.03,0-.05,0-.07,0-.09,0-.17.02-.26.02-.03,0-.05,0-.08,0-.04,0-.07,0-.11,0-.17,0-.33,0-.5,0-.04,0-.08,0-.12,0-.03,0-.06,0-.09,0-.02,0-.04,0-.06,0-.03,0-.06,0-.09,0-.05.01-.1,0-.15-.01-.03,0-.07,0-.1,0-.04,0-.08,0-.11-.01-.02-.01-.05,0-.08-.01Z"/>
      <path class="cls-8" d="m12.06,11.77s.05,0,.07.01c.03,0,.06,0,.09,0,.15.03.3.05.45.1.36.1.69.27.98.49.39.29.69.66.91,1.1.12.25.2.51.26.78.02.09.02.19.03.29.01.02,0,.05,0,.07,0,.04,0,.09,0,.13,0,0,0,.02,0,.03-.01.04,0,.09-.01.13-.03.56-.21,1.07-.56,1.51-.19.25-.42.46-.69.63-.28.17-.57.29-.9.36-.13.03-.27.04-.4.05-.03,0-.07,0-.1,0-.04,0-.09,0-.13,0-.03,0-.07,0-.1,0-.13,0-.26-.02-.39-.05-.19-.04-.38-.09-.56-.17-.23-.1-.46-.22-.66-.37-.14-.11-.28-.22-.4-.36-.02-.04.01-.05.03-.06.54-.54.86-1.18.95-1.93,0-.02,0-.05.02-.07.01-.03,0-.07,0-.1,0-.02,0-.05,0-.07,0-.08,0-.17,0-.25,0-.02,0-.05,0-.07,0-.03,0-.07,0-.1-.03-.11-.03-.23-.06-.34-.09-.42-.25-.81-.49-1.16-.03-.04-.06-.08-.05-.13.13-.1.28-.17.43-.23.16-.07.33-.12.5-.15.13-.03.26-.04.39-.06.03,0,.06,0,.09,0,.07,0,.14,0,.21,0,.03,0,.05,0,.08,0Z"/>
      <path class="cls-10" d="m8.25,9.05c.07,0,.15,0,.22,0,.02,0,.04,0,.06,0,.03.02.06,0,.09.01.46.06.87.22,1.18.56.18.2.3.44.34.71,0,.02.01.04.02.05.01.02,0,.05,0,.07,0,.03,0,.05,0,.08,0,.02,0,.05,0,.07-.02.04,0,.08-.01.12-.04.34-.17.64-.38.91-.04,0-.07-.04-.11-.06-.47-.32-.99-.51-1.57-.5-.09,0-.18,0-.26,0-.03,0-.06,0-.09,0-.56.07-1.06.29-1.49.65-.02.01-.03.03-.05.04-.1-.13-.14-.29-.18-.44-.01-.06-.01-.11-.02-.17,0-.07,0-.14,0-.21.02-.38.17-.69.4-.99.24-.31.54-.53.89-.69.22-.1.45-.17.7-.2.03,0,.05-.01.08-.02.02,0,.05,0,.07,0,.03,0,.07,0,.1-.01Z"/>
      <path class="cls-5" d="m8.42,19.4c-.4,0-.76-.11-1.11-.3-.31-.17-.59-.39-.82-.66-.14-.16-.26-.34-.35-.53-.09-.18-.15-.38-.19-.58,0-.04,0-.08,0-.12,0-.07,0-.15,0-.22,0-.19.06-.36.15-.53.04-.02.05,0,.07.03.45.41.98.66,1.59.72.37.04.74.02,1.09-.1.15-.05.29-.1.43-.17.02-.01.05-.03.07,0,.14.19.26.39.33.62.04.13.09.25.09.39,0,.03.01.05.02.08,0,.09,0,.18,0,.26-.03.2-.08.4-.2.57-.16.23-.37.39-.64.48-.16.05-.32.08-.48.08-.02,0-.05,0-.07,0Z"/>
      <path class="cls-3" d="m10.98,14.45c-.03.14-.04.28-.07.41-.09.4-.26.77-.49,1.11-.13.19-.27.35-.43.51,0,0-.01.02-.02.03-.15-.14-.27-.31-.38-.49-.12-.19-.21-.39-.29-.6-.06-.16-.1-.33-.12-.51,0-.06-.01-.11-.02-.17-.02-.03,0-.07-.01-.1v-.25s0-.1,0-.15c.04-.47.19-.9.45-1.29.09-.14.19-.28.32-.39.14-.13.28-.26.44-.35.07.14.17.27.25.41.15.27.25.56.31.86.02.12.04.24.06.36.01.03,0,.06,0,.09,0,.03,0,.05,0,.08v.27s0,.05,0,.08c0,.03,0,.06,0,.09Z"/>
      <path class="cls-7" d="m7.83,11.05c.32,0,.65,0,.96.09.35.1.67.25.96.47.01,0,.02.02.03.03-.07.11-.16.2-.25.28-.19.17-.4.31-.63.42-.28.13-.57.22-.87.24-.03,0-.05.02-.08.01-.04,0-.08,0-.12,0-.01,0-.03,0-.04,0-.06-.02-.12,0-.18-.01-.39-.02-.73-.15-1.04-.38-.14-.1-.25-.23-.34-.37-.01-.02-.02-.04-.03-.06.03-.07.1-.1.16-.14.38-.28.8-.47,1.26-.54.04,0,.08-.02.12-.01.03-.02.06,0,.09-.01Z"/>
      <path class="cls-2" d="m4.01,13.83c0-.26.07-.5.18-.73.1-.22.25-.42.45-.56.13-.09.28-.16.44-.17.03,0,.05-.01.08-.02.04,0,.09,0,.13,0,.11.02.22.04.32.09.02.03,0,.05-.01.07-.15.28-.27.58-.35.89-.03.12-.04.23-.06.35,0,.03,0,.05,0,.08,0,.03,0,.06,0,.09-.01.14-.01.28,0,.43,0,.03,0,.06,0,.09,0,.03,0,.06,0,.08.05.35.14.68.29,1,0,.02.03.04,0,.07-.2.06-.39.05-.58-.02-.29-.11-.48-.32-.64-.58-.13-.22-.19-.47-.24-.72,0-.04,0-.09,0-.14,0-.02,0-.05,0-.08,0-.04,0-.09,0-.13,0-.03,0-.06,0-.09Z"/>
      <path class="cls-6" d="m9.36,16.92c-.12.05-.24.11-.36.15-.3.1-.61.15-.93.16-.36,0-.71-.06-1.05-.2-.32-.13-.61-.31-.87-.54-.02-.02-.03-.04-.06-.04.1-.17.24-.31.4-.42.11-.07.22-.1.34-.14.12-.04.25-.04.37-.06.07,0,.14,0,.21,0,.25.02.5.08.73.17.23.08.44.21.63.35.21.16.4.34.57.55,0,0,0,.01.01.02Z"/>
      <path class="cls-9" d="m5.15,14.45s0-.06,0-.09c-.01-.15-.01-.29,0-.44v-.09s0-.05.01-.07c.03-.32.12-.62.24-.91.06-.14.13-.27.19-.41.26.1.43.3.57.53.14.24.22.51.25.78.01.03,0,.06.01.09,0,.06,0,.13,0,.19-.02.04,0,.09-.01.13-.04.46-.19.86-.53,1.18-.12.11-.26.19-.42.24-.05-.14-.12-.28-.17-.43-.06-.21-.12-.42-.14-.64-.01-.02,0-.05-.01-.07Z"/>
      <path class="cls-1" d="m32.19,22.88c.03-.19.06-.39.1-.58.03-.16.05-.32.08-.48.05-.26.1-.53.26-.75.08-.12.2-.17.33-.21.07-.02.15-.02.23-.03.03,0,.06,0,.09,0,.04,0,.09,0,.13,0,.03,0,.05,0,.08,0,.06.01.12.02.18.03.11.03.2.07.27.16.02.03.04.03.07,0,.11-.11.25-.15.4-.18.04,0,.08-.01.12-.02.02,0,.05,0,.08,0,.04,0,.08,0,.12,0,.03,0,.07,0,.1,0,.07.02.15.02.23.04.17.05.24.17.27.32,0,.04.01.08.02.12,0,.04,0,.08,0,.12,0,.04-.02.09,0,.13-.01.02,0,.05-.01.08-.02.12-.04.23-.06.35-.02.15-.05.3-.07.44-.02.14-.05.29-.07.43,0,.01,0,.02-.01.03,0,0,0,.02,0,.02-.1,0-.21.02-.31,0,0-.11.03-.21.05-.32.02-.13.04-.25.06-.38.03-.16.05-.31.08-.47.01-.07.02-.14.03-.21,0-.07.01-.14,0-.21-.02-.02-.01-.04-.02-.07-.03-.11-.13-.17-.28-.18-.01,0-.03,0-.04,0-.03-.01-.06,0-.09,0-.03,0-.05,0-.08,0-.19.02-.32.12-.38.3-.03.07-.05.14-.07.22-.06.27-.11.55-.15.83-.03.16-.06.32-.09.48-.11.02-.22.02-.33,0,.03-.1.04-.2.06-.3.04-.19.07-.38.1-.56.02-.14.06-.28.06-.43,0-.03.01-.06.02-.09,0-.05,0-.11,0-.16-.03-.02-.01-.05-.02-.08-.04-.14-.13-.17-.27-.2-.01,0-.03,0-.04,0-.03-.01-.06,0-.09,0-.03,0-.05,0-.08,0-.23.01-.34.16-.41.36-.06.2-.1.41-.13.62-.03.17-.06.35-.1.52-.02.11-.03.22-.05.33-.1.02-.2,0-.3,0-.02,0-.03-.02-.02-.04Z"/>
      <path class="cls-1" d="m41.47,20.83c.07.03.15.02.23.04.16.05.23.15.27.3,0,.04.01.08.02.13,0,.05,0,.11,0,.16-.03.25-.07.51-.12.76-.04.21-.08.42-.11.63,0,.01,0,.03-.01.04,0,0,0,.02,0,.02-.1,0-.21.02-.31,0,.02-.1.03-.2.05-.3.03-.16.05-.31.08-.47.02-.13.05-.27.07-.4,0-.05,0-.1.02-.14.01-.04,0-.08,0-.12,0-.02,0-.05,0-.07,0-.03,0-.05,0-.08-.04-.2-.16-.24-.34-.25-.03,0-.07,0-.1,0-.26.02-.36.09-.46.35-.07.18-.09.37-.13.56-.02.12-.05.25-.07.37-.03.16-.05.32-.08.47,0,.03-.01.05-.02.08-.11.01-.21.01-.32,0,0-.11.04-.22.05-.33.02-.16.05-.33.08-.49.05-.27.09-.55.19-.8.1-.25.27-.42.56-.44.04,0,.08-.01.11-.01.03-.01.07,0,.1,0,.05,0,.1,0,.14,0,.03,0,.06,0,.09,0Z"/>
      <path class="cls-1" d="m45.17,21.75c.14.01.27.03.4.1.15.09.19.23.18.39,0,.1-.03.21-.07.31-.09.22-.26.33-.48.37-.07.01-.14.02-.2.03-.02,0-.05,0-.07,0-.06,0-.12,0-.18,0-.03,0-.06,0-.09,0-.18,0-.36-.03-.54-.07-.02-.1-.01-.19,0-.29.18.05.35.1.54.1.03.01.05,0,.08,0,.02,0,.05,0,.07,0,.15,0,.31,0,.44-.08.14-.09.2-.27.16-.43-.01-.04-.04-.07-.08-.09-.07-.04-.14-.06-.22-.06-.06-.02-.12,0-.18-.01-.12,0-.24,0-.36-.05-.16-.06-.25-.17-.25-.34.01-.04,0-.07,0-.11,0-.03,0-.06,0-.08.02-.23.09-.44.32-.55.12-.06.26-.07.39-.08.03,0,.06,0,.09,0,.04,0,.09,0,.13,0,.03,0,.06,0,.09,0,.01,0,.03,0,.04,0,.02.01.05,0,.08.01.11.02.22.04.34.06.02,0,.03.01.03.03,0,.08,0,.15,0,.23,0,.03,0,.04-.04.03-.17-.06-.34-.09-.52-.11-.03-.01-.05,0-.08,0-.03,0-.07,0-.1,0-.05,0-.11,0-.16.02-.17.03-.27.16-.29.33,0,.05,0,.1,0,.15.04.14.15.16.28.16.03.01.07,0,.1,0,.05,0,.1,0,.15,0Z"/>
      <path class="cls-1" d="m22.95,22.59c.17.04.33.09.51.1.02,0,.03.02.05.01.04,0,.08,0,.12,0,.15,0,.3,0,.43-.07.11-.06.18-.16.19-.29.01-.04.01-.08,0-.12-.03-.13-.15-.16-.27-.18-.02,0-.03,0-.05,0-.05-.02-.11,0-.16-.01-.14,0-.28,0-.41-.07-.14-.07-.21-.18-.2-.33,0-.03,0-.06,0-.09,0-.03,0-.06,0-.09.02-.08.03-.16.06-.23.07-.2.22-.31.43-.35.07-.02.15-.02.23-.03.03,0,.07,0,.1,0,.04,0,.08,0,.12,0,.03,0,.06,0,.09,0,.16.02.32.04.48.08.02.09,0,.17,0,.26,0,.01,0,.02-.02.03-.15-.05-.31-.09-.47-.1-.02,0-.04-.01-.06-.02-.02-.01-.05,0-.08,0-.03,0-.07,0-.1,0-.09,0-.18.02-.27.06-.13.06-.17.17-.18.29,0,.06-.01.12,0,.17.03.09.12.12.2.14.02,0,.04,0,.07,0,.03.01.07,0,.1,0,.05,0,.1,0,.15,0,.13.01.25.03.37.08.12.06.19.15.2.28.01.04,0,.09,0,.13-.01.2-.07.39-.23.53-.09.08-.2.12-.31.14-.05.01-.11.02-.16.03-.04,0-.08,0-.12,0-.06,0-.13,0-.19,0-.03,0-.06,0-.09,0-.18,0-.35-.03-.53-.07-.01-.1-.01-.19,0-.29Z"/>
      <path class="cls-1" d="m4.02,22.91c0-.11.03-.21.05-.32.03-.15.05-.31.08-.46.03-.18.07-.37.1-.55.03-.15.05-.3.08-.45.03-.18.06-.36.09-.55.03-.17.06-.33.08-.5,0-.01,0-.02.01-.02.1-.01.2,0,.31,0,.04,0,.05.02.03.05-.05.28-.1.56-.15.84-.05.29-.11.58-.16.87-.04.26-.09.53-.13.79,0,0,0,.02,0,.03.02.02.05,0,.08,0,.39,0,.77,0,1.16,0,.02,0,.07-.02.06.04-.01.07-.03.15-.04.22,0,.03-.02.02-.04.02-.53,0-1.06,0-1.59,0-.01,0-.02,0-.03,0Z"/>
      <path class="cls-1" d="m27.53,21.19c-.13-.05-.27-.1-.41-.1-.02,0-.04-.01-.05-.02-.03-.01-.06,0-.09,0-.03,0-.05,0-.08,0-.03,0-.05,0-.08,0-.11.03-.22.04-.29.14-.07.09-.11.2-.14.31-.06.24-.11.48-.12.72,0,.06,0,.12,0,.18,0,.18.11.27.29.28.26.01.51-.03.77-.13-.03.1-.06.18-.09.27-.01.04-.05.04-.07.04-.13.02-.27.06-.4.06-.02,0-.05,0-.07,0-.06,0-.13,0-.19,0-.03,0-.06,0-.09,0-.21-.02-.39-.06-.46-.29-.03-.1-.02-.2-.02-.31,0-.03,0-.06,0-.09,0-.09.01-.19.03-.28.03-.16.05-.32.1-.48.05-.17.1-.34.22-.47.1-.11.23-.16.38-.19.05,0,.1-.01.15-.02.03-.01.07,0,.1,0,.04,0,.09,0,.13,0,.03,0,.05,0,.08,0,.15.02.29.04.44.08.02.09,0,.17,0,.26,0,.01,0,.02-.02.03Z"/>
      <path class="cls-1" d="m20.27,22.91c0-.11.03-.22.05-.34.03-.16.05-.32.08-.48.03-.18.07-.36.1-.54.03-.16.05-.32.08-.48.03-.18.06-.35.09-.53.03-.16.05-.32.08-.48.01-.07.03-.15.05-.22.1-.02.21,0,.31,0,.01,0,.01.01.01.02-.04.22-.08.43-.12.65-.04.21-.07.42-.11.63-.05.27-.1.54-.14.81-.05.27-.09.54-.13.81,0,.05-.02.1-.03.15-.11.01-.21.01-.32,0Z"/>
      <path class="cls-1" d="m29.51,22.91c.03-.17.06-.33.09-.5.03-.18.06-.36.09-.54.03-.16.05-.31.08-.47.03-.18.06-.36.09-.54.03-.15.06-.31.08-.46.03-.17.06-.33.09-.5,0-.02-.01-.04.01-.06.11,0,.21-.01.32,0-.03.17-.06.34-.09.51-.02.14-.05.29-.08.43-.03.16-.06.32-.08.48-.03.18-.06.36-.1.54-.03.15-.05.3-.08.46-.03.19-.07.38-.1.57,0,.02,0,.04,0,.07-.11.02-.22.02-.33,0Z"/>
      <path class="cls-1" d="m8.87,22.91c0-.11.03-.21.05-.32.02-.13.04-.26.06-.38.02-.12.04-.25.06-.37.03-.14.06-.29.1-.43.04-.13.09-.26.17-.37.09-.12.23-.16.37-.19.05,0,.09-.01.14-.02.03,0,.06,0,.09,0,.05,0,.1,0,.14,0,.03,0,.06,0,.09,0,.09.02.18.02.27.03.04,0,.06.01.05.05,0,.03,0,.05,0,.08-.01.04,0,.08,0,.12-.02.03-.04.02-.07.01-.14-.02-.27-.03-.41-.05-.03,0-.07,0-.1,0-.28,0-.37.15-.44.4-.08.29-.11.58-.16.87-.03.18-.07.36-.1.54,0,0,0,.02,0,.02-.1,0-.21.01-.31,0Z"/>
      <g>
        <path class="cls-1" d="m37.48,22.91c0-.14.04-.28.07-.42.02-.16.05-.32.08-.48.03-.18.06-.35.1-.53.03-.16.05-.32.08-.48,0-.04,0-.08.03-.12.11-.01.21-.01.32,0-.04.21-.07.42-.11.63-.03.16-.05.32-.08.49-.03.18-.06.35-.09.53-.02.13-.04.26-.07.39-.11.01-.21.01-.32,0Z"/>
        <path class="cls-1" d="m38.29,20.06c-.01.08-.03.16-.04.24,0,.06-.02.09-.09.08-.06,0-.13,0-.2,0-.06,0-.06-.03-.05-.07.01-.06.03-.13.04-.19,0-.02,0-.04,0-.06.11-.01.22-.01.33,0Z"/>
      </g>
      <path class="cls-1" d="m46,13.16s-.01-.01-.01-.02c-.03-.17-.05-.33-.1-.5-.13-.4-.38-.68-.77-.83-.24-.09-.49-.11-.74-.13-.04-.01-.07,0-.11,0-.96,0-1.93,0-2.89,0-.03,0-.06,0-.09,0-.03.04,0,.09-.02.13-.03.15-.04.3-.06.45-.02.15-.03.3-.05.44-.02.16-.04.32-.05.48-.01.1-.02.19-.03.29-.01.16-.04.32-.06.48-.01.1-.02.19-.03.29-.03.16-.04.31-.06.47-.01.1-.02.21-.03.31-.02.15-.04.3-.05.45-.02.15-.04.29-.05.44-.01.15-.04.29-.06.44-.02.15-.03.3-.05.45-.02.18-.05.37-.07.55,0,.02,0,.04.03.04,0,0,0,0,.01,0,.83,0,1.67,0,2.5,0,.13-.01.25,0,.38,0,.06,0,.13,0,.19,0,.04,0,.07,0,.11,0,.19,0,.37-.04.56-.09.25-.07.47-.18.66-.35.43-.38.59-.89.71-1.42.06-.25.09-.5.12-.76.02-.16.03-.32.06-.48.01-.02,0-.05.01-.08.01-.08-.02-.16.03-.23v-.06s0-.06,0-.09c0-.03,0-.06,0-.09v-.4s-.01-.06,0-.09v-.07Zm-1.73.37c-.02.12-.03.25-.05.38-.02.14-.04.28-.06.43-.01.09-.02.19-.03.29-.01.1-.03.2-.04.3-.01.09-.02.19-.03.28-.02.16-.03.32-.09.47-.06.15-.16.26-.32.31-.09.03-.18.06-.27.06-.03.01-.06,0-.1,0-.22,0-.44,0-.67,0-.02,0-.05,0-.07,0,0-.13.02-.26.04-.39.01-.1.02-.21.03-.31.02-.15.03-.3.06-.46.02-.1.02-.21.03-.31.02-.15.03-.3.06-.46.02-.1.02-.2.03-.3.02-.15.03-.31.05-.46.01-.1.02-.19.03-.29,0-.04.02-.04.05-.04.3,0,.61,0,.91,0,.12,0,.25.01.34.12.05.05.07.11.08.18,0,.03.02.05.02.08,0,.04,0,.09,0,.13Z"/>
      <path class="cls-1" d="m35.05,17.65c-.19-.54-.38-1.08-.57-1.62-.12-.35-.24-.69-.37-1.04-.02-.05-.01-.07.03-.09.1-.05.19-.12.27-.2.25-.24.41-.53.52-.85.08-.23.12-.47.15-.7.01-.02,0-.05.01-.08,0,0-.01-.02-.01-.02,0-.1.02-.21.03-.31,0-.07,0-.14,0-.21-.01-.14-.03-.29-.07-.43-.11-.36-.32-.63-.65-.81-.31-.18-.66-.22-1.01-.24-.02-.01-.05,0-.08-.01-.04,0-.09,0-.13,0-.01,0-.03,0-.04,0-.89,0-1.78,0-2.67,0-.02,0-.04,0-.06,0,0,.05-.01.11-.02.16-.01.11-.03.21-.04.32-.01.1-.02.2-.03.29-.01.11-.03.23-.04.34-.01.1-.02.2-.03.29-.01.1-.03.21-.04.31-.01.1-.03.2-.03.3-.01.15-.04.3-.05.45-.01.1-.02.2-.03.3-.02.14-.04.29-.06.43-.01.1-.02.2-.03.29-.02.12-.03.23-.04.35-.01.1-.02.19-.03.29-.01.11-.03.22-.04.33,0,.1-.02.19-.03.29-.01.11-.03.22-.04.33-.01.09-.02.19-.03.29-.01.11-.03.21-.04.32-.01.1-.02.2-.03.29-.01.1-.03.2-.04.3,0,.04,0,.06.05.06.55,0,1.1,0,1.66,0,.04,0,.05-.02.05-.05,0-.11.02-.21.03-.31.01-.12.03-.23.04-.35.01-.1.03-.2.03-.31,0-.11.03-.22.04-.33.01-.11.02-.22.03-.32.02-.16.04-.32.06-.48.02-.02.05,0,.07,0,.19,0,.37,0,.56,0,.05,0,.1-.01.14,0,0,.01,0,.02,0,.04.16.44.31.87.47,1.31.15.43.3.86.44,1.28,0,.03.02.05.06.05.57,0,1.14,0,1.72,0-.02-.08-.05-.16-.08-.24Zm-1.71-4.76s0,.05,0,.08c-.01.1-.03.2-.04.3-.03.19-.1.37-.27.48-.1.07-.22.1-.34.1-.04.02-.09,0-.13.01-.23,0-.47,0-.7,0-.05,0-.05-.02-.04-.05.03-.18.04-.36.06-.53.02-.2.05-.41.07-.61,0-.09.01-.19.03-.28.01-.01.03,0,.04,0,.32,0,.63,0,.95,0,.01,0,.02,0,.04,0,.2.02.32.12.35.34.01.06,0,.11,0,.17Z"/>
      <g>
        <path class="cls-1" d="m35.12,12.74c.02-.07.02-.14,0-.21,0,.07,0,.14,0,.21Z"/>
        <path class="cls-1" d="m40.72,13.17s0,0,0,0c0-.03,0-.07,0-.1,0-.03.01-.06-.01-.09-.03-.06-.02-.13-.03-.2-.04-.22-.14-.42-.29-.58-.19-.2-.43-.31-.68-.39-.23-.07-.47-.1-.71-.13-.03-.02-.06-.02-.09,0-.05-.02-.1,0-.14-.01-.02-.02-.05-.01-.08-.01-.03,0-.06,0-.09,0-.04,0-.09,0-.13,0-.11-.03-.22,0-.34-.01-.05,0-.1-.01-.15.01-.04,0-.09,0-.13,0-.04,0-.07-.01-.1.01-.06,0-.13,0-.19,0-.03,0-.06,0-.09.01-.19.03-.38.05-.56.1-.29.08-.55.2-.78.39-.28.24-.47.54-.59.88-.12.34-.2.69-.25,1.06-.03.2-.06.4-.07.6-.02.03-.01.06-.01.09-.01.1-.02.19-.02.29-.02.02-.01.05-.01.08h0s0,0,0,0c0,.03,0,.06,0,.09,0,.13,0,.25,0,.38,0,.03,0,.06,0,.09-.01.03.01.05.01.08,0,.14.03.28.06.42.12.52.43.86.93,1.04.29.1.6.14.91.15.03.02.06.01.09.01h0s.08,0,.12,0c.09,0,.19,0,.28,0h0s0,0,0,0c.08,0,.17,0,.25,0,.03,0,.07,0,.1,0,.03,0,.05.01.08,0,.16-.01.32-.02.48-.03.03,0,.06,0,.09-.01.05,0,.1-.01.14-.02.2,0,.39-.05.59-.08.16-.02.32-.06.49-.08.04,0,.08-.02.09-.08.02-.12.05-.23.09-.35.1-.34.17-.69.27-1.03.01-.05.01-.07-.04-.06-.2.05-.4.11-.59.17-.34.1-.68.16-1.03.21-.2.03-.41.05-.61.05-.04,0-.09,0-.13,0-.07,0-.15,0-.22,0-.03,0-.06,0-.09,0-.07,0-.14,0-.22-.02-.12-.03-.23-.07-.29-.2-.06-.13-.08-.27-.09-.42h0s0-.05,0-.07c0-.06,0-.13,0-.19.04,0,.08,0,.12,0,.32,0,.64,0,.96,0,.05,0,.1,0,.15,0h.09s.05.01.07,0c.07,0,.14,0,.22-.01.19-.01.38-.04.56-.08.33-.06.64-.18.91-.38.24-.18.41-.41.53-.68.1-.25.13-.51.16-.77h0s0-.06.01-.09h0Zm-1.84.47c-.03.09-.11.12-.2.15-.09.03-.17.05-.26.05-.03,0-.06,0-.09.01-.03,0-.06,0-.09,0-.03,0-.06,0-.09,0-.36,0-.71,0-1.07,0,0-.07.03-.14.04-.21.04-.14.09-.27.16-.4.08-.15.21-.23.38-.25.05,0,.09-.02.14-.01.06,0,.13,0,.19-.01.04,0,.08,0,.12,0,.05.03.11,0,.16.01.02,0,.05,0,.07,0,.15.02.31.02.46.08.07.03.1.08.11.15,0,.06,0,.13,0,.19,0,.08-.03.16-.05.23Z"/>
        <path class="cls-1" d="m35.09,13.15s.01-.05.01-.08c-.02.02-.01.05-.01.08Z"/>
      </g>
      <path class="cls-1" d="m14.13,19.85c-.04.12-.05.25-.07.38-.04.2-.07.4-.1.59,0,.03-.02.04-.04.03-.09-.01-.17-.02-.26-.03-.03,0-.06,0-.09,0-.04,0-.09,0-.13,0-.03,0-.07,0-.1,0-.12.01-.25.03-.36.08-.2.09-.3.26-.37.46-.06.17-.1.34-.13.52-.02.12-.04.24-.04.36,0,.03,0,.06,0,.09,0,.09,0,.18.01.27.03.11.09.21.2.27.08.05.18.06.27.07.04,0,.09,0,.13,0,.07,0,.14,0,.2,0,.04,0,.08,0,.12,0,.05,0,.1-.02.15-.03.2-.04.36-.14.43-.34.08-.23.1-.47.15-.71.03-.18.06-.36.09-.54.03-.17.07-.35.1-.52.03-.22.08-.43.11-.65.02-.1.05-.2.05-.31-.11-.01-.21-.01-.32,0Zm-.24,1.33c-.03.15-.06.3-.08.45-.03.15-.05.3-.08.46-.02.13-.03.27-.08.4-.04.12-.14.18-.26.2-.09.02-.19.02-.28.01-.03,0-.06,0-.09,0-.2-.04-.27-.18-.26-.36,0-.34.06-.67.19-.98.08-.18.22-.26.41-.28.08,0,.17,0,.25,0,.07.02.15.02.22.03.05,0,.07.02.06.07Z"/>
      <path class="cls-1" d="m17.42,19.84c-.1,0-.2-.01-.3,0-.04.16-.06.33-.09.49-.03.16-.06.32-.09.48,0,.04-.02.04-.05.04-.08-.01-.17-.02-.25-.03-.03,0-.06,0-.09,0-.04,0-.09,0-.13,0-.03,0-.06,0-.09,0-.08.01-.16.01-.24.03-.13.03-.25.09-.34.2-.15.18-.21.4-.26.63-.04.18-.07.35-.08.53,0,.09,0,.18,0,.26.02.26.14.44.45.45.03.01.05,0,.08,0,.03,0,.05,0,.08,0,.07,0,.14,0,.2,0,.02,0,.05,0,.07,0,.08,0,.16,0,.23-.03.09-.03.18-.06.26-.13.12-.11.17-.25.19-.41.03-.15.04-.31.08-.46.04-.18.07-.36.1-.53.03-.18.06-.37.09-.55.04-.21.07-.42.11-.63.02-.11.04-.22.06-.33,0-.02,0-.04-.02-.04Zm-.54,1.32c-.02.13-.04.25-.06.38-.03.16-.05.32-.08.48-.03.14-.05.29-.08.43-.03.14-.14.22-.3.23-.03.02-.07,0-.1.01-.05,0-.1,0-.15,0-.03,0-.06,0-.09,0-.11-.02-.2-.08-.24-.2,0-.03,0-.05-.01-.08-.01-.02,0-.05-.01-.08,0-.05,0-.11,0-.16.01-.02,0-.05.01-.08.02-.25.07-.49.16-.73.08-.19.22-.3.42-.31.08,0,.17,0,.25,0,.08.01.16.02.24.03.03,0,.04.02.04.05Z"/>
      <path class="cls-1" d="m37.33,21.31c-.02-.26-.1-.37-.29-.44-.08-.03-.17-.02-.25-.05-.03,0-.06,0-.09,0-.04,0-.08,0-.12,0-.03,0-.06,0-.09,0-.01,0-.03,0-.04,0-.03.01-.06,0-.09.01-.06,0-.12.03-.18.01.06-.34.11-.67.17-1-.11-.01-.21-.01-.32,0-.03.03-.01.06-.02.1-.04.2-.08.4-.11.61-.03.16-.05.32-.08.48-.03.15-.05.31-.08.46-.03.15-.05.31-.08.46-.03.18-.07.35-.08.53,0,.04,0,.09,0,.13,0,.12.06.21.17.26.1.05.22.07.33.07.03,0,.06,0,.09,0,.07,0,.14,0,.2,0,.04,0,.08,0,.12,0,.02,0,.04-.01.06-.01.26-.02.44-.16.55-.39.16-.33.21-.68.24-1.04,0-.06,0-.13,0-.19Zm-.33.22s0,.05,0,.08c0,.02,0,.05,0,.07-.03.21-.06.42-.13.62-.04.13-.1.25-.22.33-.08.05-.17.08-.26.08-.12,0-.24.02-.35-.03-.07-.03-.11-.07-.12-.15,0-.04,0-.08,0-.12.02-.11.03-.21.05-.32.02-.13.05-.26.07-.39.02-.12.04-.24.06-.37,0-.04.02-.07.02-.11.02-.11.02-.12.14-.13.06,0,.12-.02.19-.02.03,0,.06,0,.09,0,.03,0,.07,0,.1,0,.03,0,.05,0,.08,0,.05.02.11.02.15.04.08.04.12.11.13.2,0,.07.03.14.02.21Z"/>
      <path class="cls-1" d="m40,21.52c.02-.1,0-.2,0-.3-.01-.17-.1-.29-.26-.35-.08-.03-.16-.02-.24-.04-.03,0-.06,0-.09,0-.05,0-.1,0-.14,0-.03,0-.06,0-.09,0-.14.02-.27.03-.41.05-.1.01-.17.04-.18.16,0,.04-.02.07-.03.11-.01.04,0,.06.04.04.18-.06.37-.08.57-.11.03-.01.06,0,.09,0,.03,0,.06,0,.09,0,.24,0,.32.1.34.29.01.05,0,.1,0,.15,0,.07-.01.15-.02.22-.02.04-.05.02-.08.02-.17,0-.34,0-.51,0-.13,0-.25.02-.38.05-.16.04-.29.12-.37.28-.07.16-.1.32-.09.49,0,.08.03.14.08.2.12.15.3.15.47.16.03,0,.06,0,.09,0h.2s.05,0,.08,0c.02,0,.05,0,.07,0,.04,0,.08,0,.12-.02.11-.03.22-.08.29-.16.13-.14.19-.32.24-.51.05-.21.09-.42.12-.63.01-.02,0-.05.01-.08,0,0-.01-.02-.01-.03Zm-.54.96c-.06.12-.16.19-.29.21-.03.02-.06,0-.09.01-.1,0-.2.01-.3-.01-.14-.03-.19-.1-.2-.25,0-.1.01-.18.07-.27.06-.09.15-.12.25-.15.05-.01.11-.01.16-.02.18,0,.36-.01.54,0-.03.16-.07.32-.15.47Z"/>
      <path class="cls-1" d="m18.91,20.88c-.1-.03-.2-.03-.3-.06-.03,0-.06,0-.09,0-.05,0-.1,0-.16,0-.03,0-.06,0-.09,0-.12,0-.25.03-.36.08-.18.08-.26.24-.33.42-.07.19-.11.38-.14.58-.02.12-.04.24-.04.36,0,.03,0,.06,0,.09,0,.1-.01.21.02.31.06.19.23.3.46.29.03,0,.06,0,.09,0,.07,0,.14,0,.2,0,.02,0,.05,0,.07,0,.16,0,.31-.04.47-.06.05,0,.07-.03.08-.08.01-.06.03-.11.05-.17,0-.02.02-.03,0-.05-.02-.02-.03,0-.05,0-.25.07-.49.12-.75.1-.03,0-.06,0-.09,0-.19-.04-.23-.16-.24-.29,0-.06,0-.12,0-.18,0-.07,0-.15.03-.22.2-.01.4,0,.6,0,.03,0,.06,0,.09,0,.06,0,.12,0,.17-.02.22-.04.39-.15.48-.38.03-.09.05-.19.06-.28.02-.18-.03-.37-.25-.44Zm-.08.5c-.02.06-.02.13-.05.18-.07.11-.18.16-.29.18-.04,0-.08.03-.13.02-.16-.01-.32,0-.48,0-.03,0-.05,0-.08,0,.03-.22.08-.43.25-.59.07-.07.16-.07.24-.08.02,0,.03,0,.05,0,.03-.01.07,0,.1,0,.03,0,.05,0,.08,0,.04,0,.08.01.12.02.1.02.17.08.19.19,0,.03,0,.07,0,.1Z"/>
      <path class="cls-1" d="m7.73,21.47c0-.06,0-.13,0-.19,0-.03-.01-.05-.02-.08-.02-.17-.1-.28-.27-.34-.08-.03-.16-.01-.23-.04-.03,0-.06,0-.09,0-.04,0-.09,0-.13,0-.03,0-.07,0-.1,0-.13.02-.26.03-.38.05-.1.01-.2.03-.2.16,0,.02-.02.05-.02.07,0,.02-.04.05,0,.07.02,0,.05,0,.07,0,.17-.06.35-.08.53-.1.03-.01.06,0,.09,0,.05,0,.1,0,.14,0,.02,0,.03.01.05.02.16.02.24.14.23.29.01.04,0,.08,0,.12,0,.03,0,.07,0,.1-.03.05,0,.1-.02.14-.02.02-.05,0-.08,0-.17,0-.34,0-.51,0-.11,0-.21.01-.31.03-.16.03-.3.1-.4.24-.07.11-.09.24-.12.37,0,.07,0,.15,0,.22.02.06.03.11.07.16.1.11.23.14.38.15.03.01.06,0,.08,0,.03,0,.06,0,.09,0,.07,0,.14,0,.2,0,.03,0,.05,0,.08,0,.02,0,.05,0,.07,0,.18-.01.33-.07.45-.21.15-.19.21-.42.26-.66.03-.14.05-.28.08-.42.01-.02,0-.05.01-.08-.03-.03.01-.07,0-.1Zm-.41.57c-.04.13-.06.26-.12.38-.08.19-.21.27-.41.28-.12,0-.24.02-.35-.03-.11-.04-.15-.09-.16-.21,0-.14.02-.26.14-.35.1-.08.23-.09.35-.09.17-.01.34,0,.51,0,.03,0,.04,0,.04.04Z"/>
      <path class="cls-1" d="m12.26,21.19c-.01-.14-.08-.24-.22-.3-.11-.05-.23-.05-.34-.07-.08-.01-.15,0-.23,0-.04,0-.07,0-.11,0-.04,0-.07.01-.11.02-.29.02-.47.18-.57.45-.12.32-.17.66-.2,1,.02.07,0,.15.01.22-.01.23.15.42.41.42.03.01.05,0,.08,0,.03,0,.05,0,.08,0h.19s.05,0,.07,0c.16,0,.32-.04.48-.06.04,0,.07-.02.08-.07.02-.08.05-.15.08-.24-.2.06-.4.1-.6.12-.02,0-.05,0-.07,0-.05,0-.1,0-.15,0-.03,0-.06,0-.09,0-.1-.03-.19-.08-.22-.19-.02-.07-.01-.14-.01-.22,0-.1,0-.19.03-.28.2-.01.4,0,.6,0,.03,0,.06,0,.09,0,.05,0,.11,0,.16-.02.18-.03.34-.1.43-.26.08-.13.11-.27.12-.41,0-.04,0-.08,0-.12Zm-.34.21c-.02.21-.14.32-.38.35-.03,0-.05,0-.08,0-.17,0-.33,0-.5,0-.03,0-.06,0-.07-.04.04-.14.07-.27.13-.4.07-.16.2-.23.37-.25.02,0,.05,0,.07,0,.02,0,.05,0,.07,0,.03,0,.06,0,.09,0,.05.02.11.02.16.04.07.03.12.07.13.15,0,.04,0,.09,0,.13Z"/>
      <path class="cls-1" d="m22.79,21.52c.03-.11.01-.21,0-.31-.02-.13-.07-.24-.19-.31-.1-.05-.2-.05-.3-.07-.03,0-.06,0-.09,0-.05,0-.1,0-.14,0-.03,0-.07,0-.1,0-.12,0-.25.03-.36.08-.18.08-.26.24-.33.42-.07.19-.11.38-.14.58-.02.12-.04.24-.04.36,0,.03,0,.06,0,.09,0,.1-.01.21.02.31.06.19.23.29.46.29.03,0,.07,0,.1,0,.06,0,.13,0,.19,0,.02,0,.05,0,.07,0,.07,0,.15-.01.22-.03.11-.03.21-.08.29-.16.13-.14.19-.32.24-.51.05-.21.08-.42.12-.63.01-.02,0-.05.01-.08,0,0-.01-.02-.01-.03Zm-.32,0c-.03.31-.07.62-.19.91-.06.14-.16.24-.32.26-.03.02-.06,0-.09.01-.04,0-.09,0-.13,0-.03-.01-.06,0-.09,0-.18-.06-.23-.11-.24-.27,0-.06,0-.12,0-.18.02-.28.07-.56.16-.83.06-.19.18-.32.4-.34.02,0,.05,0,.07,0,.02,0,.05,0,.07,0,.02,0,.05,0,.07,0,.03,0,.07.01.1.02.13.04.16.11.18.27,0,.05,0,.1,0,.15Z"/>
      <path class="cls-1" d="m43.97,21.43s0-.07,0-.1c0-.05,0-.11-.02-.16-.02-.09-.05-.17-.13-.23-.11-.08-.24-.08-.36-.11-.03,0-.06,0-.09,0-.05,0-.1,0-.14,0-.03,0-.07,0-.1,0-.04,0-.07.01-.11.02-.29.02-.47.18-.56.43-.12.31-.17.63-.2.96-.01.05,0,.1,0,.14,0,.05,0,.1,0,.15,0,.03.01.05.01.08.02.12.08.22.19.28.08.04.16.05.25.07.04,0,.09,0,.13,0,.07,0,.14,0,.2,0,.04,0,.08,0,.12,0,.02-.01.05,0,.07-.01.16-.02.3-.08.4-.21.14-.17.19-.37.24-.58.05-.21.07-.43.1-.65,0-.02,0-.05,0-.08Zm-.34.11c-.02.31-.07.62-.19.91-.08.18-.22.26-.42.26-.04,0-.08,0-.12,0-.03,0-.06,0-.09,0-.17-.05-.23-.11-.23-.33,0-.2.04-.4.07-.6.02-.14.06-.27.11-.4.07-.2.22-.31.44-.3.03,0,.07,0,.1,0,.07,0,.15,0,.21.04.09.05.12.14.12.23.01.06,0,.12,0,.18Z"/>
      <path class="cls-1" d="m32.05,21.3s0-.05,0-.08c0-.02-.01-.04-.02-.06-.02-.1-.06-.19-.15-.25-.1-.06-.22-.06-.33-.09-.03-.01-.07,0-.1,0-.05,0-.1,0-.14,0-.03,0-.06,0-.09,0-.09,0-.17.02-.25.04-.24.06-.36.23-.43.44-.12.32-.17.66-.19,1,0,.06,0,.13,0,.19,0,.31.18.43.43.44.02.01.05,0,.07,0,.03,0,.05,0,.08,0,.07,0,.14,0,.2,0,.02,0,.05,0,.07,0,.03.01.06-.01.09-.01.27-.02.45-.16.55-.4.15-.34.2-.71.22-1.08.01-.05,0-.11,0-.16Zm-.39.59c-.03.18-.07.35-.13.52-.07.18-.2.27-.39.29-.09,0-.18,0-.27,0-.12-.02-.19-.09-.21-.21,0-.02-.02-.04-.01-.07,0-.04,0-.09,0-.13,0-.12.02-.23.04-.34.03-.19.06-.37.13-.55.05-.12.11-.23.24-.28.05-.02.1-.03.15-.03.02,0,.05,0,.07,0,.02,0,.05,0,.07,0,.02,0,.05,0,.07,0,.02,0,.04.01.06.02.14.02.18.11.2.21.04.2-.01.39-.04.59Z"/>
      <path class="cls-1" d="m29.38,21.44s0-.09,0-.13c0-.02,0-.04,0-.07-.02-.15-.06-.29-.21-.35-.09-.04-.19-.04-.28-.06-.03-.01-.07,0-.1,0-.05,0-.1,0-.14,0-.03,0-.06,0-.09,0-.05,0-.1,0-.15.02-.13.02-.25.06-.35.16-.15.14-.21.34-.26.53-.05.21-.09.42-.12.63,0,.03,0,.06,0,.09,0,.01,0,.03,0,.04,0,.07,0,.15,0,.22,0,.28.17.41.41.43.03.01.05,0,.08,0,.03,0,.05,0,.08,0,.07,0,.14,0,.2,0,.02,0,.05,0,.07,0,.03.01.06-.01.09-.01.26-.02.43-.15.54-.38.08-.17.13-.35.16-.53.03-.17.06-.34.07-.51.01-.03,0-.05,0-.08Zm-.36.26c-.01.13-.03.25-.06.37-.03.15-.07.3-.15.44-.07.11-.16.16-.29.18-.02.01-.05,0-.08,0-.08,0-.16,0-.24,0-.13-.02-.22-.13-.22-.28.01-.04,0-.09,0-.13,0-.03,0-.06,0-.09.02-.28.07-.55.17-.82.07-.18.19-.29.39-.3.02,0,.05,0,.07,0,.02,0,.05,0,.07,0,.02,0,.05,0,.07,0,.05.01.1.02.14.04.08.03.1.11.12.18.03.13,0,.27-.01.4Z"/>
    </g>
  </g>
</svg>