<svg class="LocalPaymentMethodsPricingCardHeader__logo" xmlns="http://www.w3.org/2000/svg" width="40" height="40" viewBox="0 0 40 40" fill="none"><path fill="#F5F6F8" d="M0 0h40v40H0z"></path><path fill="url(#a)" fill-rule="evenodd" d="M13.5332 33.5397c6.0264 2.8818 13.4638 1.4554 17.9579-3.8987 5.3252-6.3454 4.4993-15.8064-1.8478-21.12977l-4.2195 5.02647c4.9583 4.1598 5.605 11.5494 1.4435 16.5077-3.3169 3.9533-8.7802 5.2722-13.3341 3.4926" clip-rule="evenodd"></path><path fill="url(#b)" fill-rule="evenodd" d="M13.5332 33.5396c6.0264 2.8818 13.4638 1.4554 17.9579-3.8987.5512-.6552 1.034-1.3445 1.4537-2.0594.7098-4.4089-.8514-9.0703-4.5214-12.15-.9333-.7832-1.9417-1.4127-2.9979-1.8939 4.9566 4.1598 5.6033 11.5494 1.4435 16.5077-3.3169 3.9533-8.7802 5.2722-13.3341 3.4926" clip-rule="evenodd"></path><path fill="url(#c)" fill-rule="evenodd" d="M26.4684 6.46031C20.442 3.57851 13.0046 5.00491 8.51047 10.359c-5.32511 6.3454-4.4993 15.8064 1.84783 21.1298l4.2195-5.0265c-4.95829-4.1598-5.60495-11.5494-1.4435-16.50765 3.3169-3.95331 8.7802-5.27392 13.3341-3.49434Z" clip-rule="evenodd"></path><path fill="url(#d)" fill-rule="evenodd" d="M26.4683 6.46031c-6.0264-2.8818-13.4638-1.4554-17.95795 3.89869-.55111.6552-1.03397 1.3445-1.4537 2.0594-.70978 4.4089.85141 9.0703 4.52145 12.15.9333.7832 1.9417 1.4127 2.9979 1.8939-4.95661-4.1598-5.60326-11.5494-1.4435-16.50765 3.3186-3.95331 8.7819-5.27392 13.3358-3.49434Z" clip-rule="evenodd"></path><defs><linearGradient id="a" x1="24.8358" x2="18.4406" y1="27.0924" y2="14.2584" gradientUnits="userSpaceOnUse"><stop stop-color="#EF2131"></stop><stop offset="1" stop-color="#FECF2C"></stop></linearGradient><linearGradient id="b" x1="29.9816" x2="18.9307" y1="16.444" y2="35.7845" gradientUnits="userSpaceOnUse"><stop stop-color="#FBC52C"></stop><stop offset=".26" stop-color="#F87130"></stop><stop offset=".56" stop-color="#EF52E2"></stop><stop offset="1" stop-color="#661EEC"></stop></linearGradient><linearGradient id="c" x1="15.23" x2="21.3276" y1="12.7255" y2="25.0797" gradientUnits="userSpaceOnUse"><stop stop-color="#78F6D8"></stop><stop offset=".27" stop-color="#77D1F6"></stop><stop offset=".55" stop-color="#70A4F3"></stop><stop offset="1" stop-color="#661EEC"></stop></linearGradient><linearGradient id="d" x1="10.0259" x2="21.0767" y1="23.5606" y2="4.22011" gradientUnits="userSpaceOnUse"><stop stop-color="#536EED"></stop><stop offset=".25" stop-color="#54C3EC"></stop><stop offset=".56" stop-color="#64D769"></stop><stop offset="1" stop-color="#FECF2C"></stop></linearGradient></defs></svg>