<svg xmlns="http://www.w3.org/2000/svg" viewBox="0 0 50 32"><script xmlns="" id="eppiocemhmnlbhjplcgkofciiegomcon"/><script xmlns="" id="dY83VeSEkLXyOP0LL8gToeJyL0" type="text/javascript"/><script xmlns=""/><script xmlns=""/>
  <defs>
    <style>
      .cls-1 {
        fill: #fff;
      }

      .cls-2 {
        fill: #20c0b2;
      }
    </style>
  </defs>
  <g id="BG">
    <rect class="cls-1" width="50" height="32" rx="4" ry="4"/>
  </g>
  <g id="LOGOS">
    <g>
      <path class="cls-2" d="m12.41,17.61s0-.03,0-.05c0,0,0-.01,0-.02,0-.05,0-.1-.01-.15,0,0,0-.01,0-.02,0-.03,0-.06,0-.08,0-.08,0-.15,0-.23,0-.01,0-.02,0-.03,0-.01,0-.03,0-.04,0-.02,0-.05,0-.07.02-.01,0-.03,0-.04,0-.02,0-.03,0-.05,0,0,0-.01,0-.02,0-.01,0-.03,0-.04,0,0,0-.02,0-.02,0-.02,0-.05,0-.07,0,0,0-.01,0-.02,0-.01,0-.03,0-.04,0-.01,0-.03,0-.04,0,0,0,0,0,0,0-.01,0-.02,0-.03.01-.01.01-.03.01-.05,0,0,0-.01,0-.02.05-.14.1-.28.16-.42.07-.15.17-.28.27-.41.07-.09.15-.18.24-.25.07-.06.14-.11.22-.15,0,0,0,0,.01,0,.02-.01.03-.02.05-.03,0,0,.02,0,.03-.01.03,0,.05-.04.08-.04.02.02.02,0,.02-.01.1-.05.21-.08.31-.12.03-.01.07-.01.11-.02.2-.05.4-.05.6-.04.13,0,.26.03.39.06.1.03.19.05.28.1.11.06.22.12.32.2.1.08.18.17.27.26,0,0,.01.01.02,0,0-.02,0-.05,0-.07,0-.91,0-1.83,0-2.74,0-.03,0-.07,0-.1h1.07s-.01.03-.01.05c0,2.15,0,4.3,0,6.45,0,.02.01.05,0,.07-.02.02-.05,0-.08,0-.31,0-.61,0-.92,0-.01-.02-.01-.04-.01-.06,0-.16,0-.31,0-.47,0-.02.01-.06,0-.07-.03,0-.04.03-.05.05,0,0,0,0,0,0,0,0,0,0-.01,0-.03.04-.06.07-.08.11-.04.06-.1.11-.15.16l-.08.06s-.06.02-.08.05c-.01,0-.03.01-.04.02-.01,0-.03,0-.04.02-.06.02-.1.06-.16.07-.02,0-.04,0-.05.01-.03-.02-.02,0-.02.02-.02,0-.03,0-.04.01,0,0,0,0,0,0-.04,0-.09.02-.13.03,0,0,0,0,0,0-.01,0-.03,0-.04,0,0,0-.02,0-.02,0-.06.01-.13.02-.19.03-.08,0-.16.01-.24.01-.06,0-.12-.02-.18,0-.1,0-.21-.01-.31-.03,0,0,0,0-.01,0-.07-.02-.15-.04-.22-.06-.02-.01-.03-.02-.06-.02-.08-.04-.17-.08-.25-.12-.05-.05-.11-.06-.16-.1,0,0,0,0,0,0-.02-.03-.05-.05-.08-.07,0,0,0,0,0,0-.04-.03-.07-.07-.12-.09,0,0,0,0-.01-.01,0-.01-.02-.02-.03-.02,0,0-.01-.01-.02-.02-.04-.04-.06-.08-.1-.12,0,0,0,0,0,0,0-.02-.01-.03-.03-.03-.02-.02-.03-.04-.05-.06-.02-.02-.04-.05-.05-.07-.02-.03-.03-.06-.06-.09,0,0,0,0,0-.01,0,0,0,0,0-.01-.05-.1-.1-.2-.15-.3,0,0,0,0,0,0,0,0,0,0,0-.01,0,0,0,0,0,0,0-.02,0-.04-.02-.05,0,0,0,0,0-.01,0,0,0-.02,0-.02,0-.02,0-.04-.01-.05,0,0,0,0,0-.01,0,0,0,0,0,0,0-.03,0-.07-.02-.1,0-.03,0-.06-.02-.09,0-.03,0-.07-.02-.1Zm3.1.44s0,0,0,0c.01,0,.03-.02.03-.03,0,0,0,0,0,0,.04-.04.07-.08.1-.12.02-.02.04-.05.05-.07.07-.1.11-.21.14-.33,0,0,0-.01,0-.02,0-.01,0-.02,0-.04,0,0,0-.01,0-.02,0-.02,0-.03,0-.05.01-.02,0-.04,0-.06h0c.02-.09.02-.19,0-.28,0-.08-.02-.16-.05-.23,0,0,0,0,0-.01,0-.02,0-.03-.01-.05,0,0,0,0,0-.01-.02-.11-.08-.2-.14-.29,0-.01-.01-.03-.03-.03-.08-.11-.18-.21-.3-.28,0-.01-.02-.02-.03-.02-.05-.04-.12-.07-.18-.09-.12-.05-.25-.07-.38-.08-.14,0-.27,0-.41.04-.01,0-.02,0-.03,0h-.04s-.02,0-.02.02c-.11.02-.2.09-.29.16-.02,0-.03.02-.04.03-.09.06-.15.13-.21.21-.11.15-.19.32-.22.5,0,0,0,0,0,.01-.01.04-.02.09-.01.13,0,0,0,.01,0,.02,0,.01,0,.02,0,.03,0,.06,0,.11,0,.17,0,.02,0,.04,0,.06,0,0,0,0,0,.01.02.15.07.3.14.44.08.14.18.27.31.37.15.12.32.21.51.23,0,0,0,0,.01,0,.04,0,.08.01.12.02,0,0,0,0,.01,0,.06,0,.13,0,.19,0h0s0,0,0,0c.02,0,.04,0,.06,0,.01,0,.02,0,.03,0,.02,0,.04,0,.05,0,0,0,.02,0,.03,0,.16-.03.31-.1.44-.19,0,0,0,0,0,0,.04-.02.07-.05.1-.08.01,0,.02-.01.03-.03h0Z"/>
      <path class="cls-2" d="m43.55,16.12c-.16.12-.23.29-.28.48-.03.14-.04.27-.04.41,0,.74,0,1.48,0,2.22-.03.01-.05,0-.08,0-.02,0-.03,0-.05,0-.25,0-.51,0-.76,0-.02,0-.04,0-.06,0,0,0-.01,0-.02,0-.02,0-.04,0-.07,0,0,0,0,0,0,0,0,0,0,0-.01-.01,0-.14,0-.29,0-.43,0-.38,0-.76,0-1.13,0-.03,0-.07,0-.1,0-.02,0-.04,0-.06,0-1.15,0-2.29,0-3.44,0-.39,0-.77,0-1.16,0-.07,0-.13,0-.2,0-.01,0-.03,0-.04h1.06c0,.95,0,1.9,0,2.85,0,0,0,.02,0,.03,0,.02-.01.06.01.06.02,0,.03-.03.04-.04.1-.16.23-.29.39-.39.07-.04.14-.07.22-.1.05-.02.09-.05.14-.06.31-.08.62-.08.93,0,.38.1.69.31.87.67.05.1.09.2.1.31,0,0,0,0,0,0h0s0,.01,0,.02c.01.02,0,.05.02.06,0,.03,0,.07.01.1.01.06,0,.13.04.19v2.85s-.04,0-.06.01c0,0-.01,0-.02,0-.01,0-.02,0-.03,0,0,0,0,0,0,0-.31,0-.61,0-.92,0,0,0,0,0,0,0,0-.69,0-1.39,0-2.08,0-.1,0-.21-.01-.31,0,0,0,0,0-.01,0-.02,0-.05,0-.07,0-.04,0-.07,0-.1,0-.01,0-.02,0-.03,0,0,0-.02,0-.02,0,0,0-.02,0-.03,0-.02,0-.04-.02-.05,0,0,0-.01,0-.02,0,0,0,0,0-.01-.03-.14-.09-.27-.19-.38-.01-.02-.03-.03-.04-.05,0,0,0,0-.01,0-.08-.06-.16-.11-.26-.13-.01-.01-.03-.01-.04,0-.07-.01-.15-.02-.22-.01-.01,0-.02,0-.03,0-.08,0-.16.01-.24.04-.02,0-.04.02-.07.01,0,0,0,0,0,0,0,0,0,0,0,0,0,.02-.02.02-.04.03-.01,0-.02,0-.03.01-.03.02-.06.04-.08.06-.03.01-.05.03-.06.05Z"/>
      <path class="cls-2" d="m25.51,19.33c-.16.02-.33,0-.49,0-.01,0-.03,0-.04,0,0,0,0,0,0,0h0c-.05-.01-.11,0-.16,0,0,0,0,0-.01,0-.09-.02-.18-.04-.27-.06,0,0,0,0-.01,0-.09-.03-.17-.06-.26-.09-.04-.02-.09-.04-.13-.06-.02-.01-.04-.03-.07-.04-.03-.02-.06-.04-.09-.05,0,0,0,0,0,0,0,0,0,0-.01,0,0,0-.02-.01-.03-.02-.03-.02-.06-.05-.1-.06,0,0,0,0,0,0-.03-.03-.07-.05-.1-.08-.01-.01-.02-.02-.04-.04-.03-.03-.07-.07-.1-.1,0,0,0,0,0,0-.04-.04-.08-.08-.12-.12,0,0,0,0,0,0,0,0,0,0,0,0-.05-.06-.09-.13-.14-.19,0,0,0,0,0,0,0,0,0,0,0,0-.01-.03-.03-.06-.05-.08-.03-.07-.07-.13-.1-.2,0-.02-.01-.03-.02-.04,0-.02-.01-.04-.02-.06,0,0,0,0,0-.01,0,0,0,0,0,0-.02-.05-.04-.11-.05-.16,0,0,0-.01,0-.02,0-.02,0-.04-.02-.06,0,0,0-.01,0-.02,0,0,0-.01,0-.02,0-.01,0-.03,0-.04,0-.03-.01-.06-.02-.09,0-.02,0-.04-.01-.06,0-.01,0-.02,0-.03,0-.03,0-.06,0-.08,0,0,0,0,0-.01,0-.12-.02-.23,0-.35,0-.01,0-.03,0-.04,0-.01,0-.03,0-.04.01-.02,0-.04,0-.05,0-.03,0-.05,0-.08,0,0,0-.02,0-.03,0,0,0-.02,0-.03,0,0,0,0,0-.01,0-.02,0-.04,0-.06,0,0,0-.01,0-.02,0-.01,0-.02,0-.03,0,0,0-.02,0-.03,0-.01,0-.02,0-.03,0,0,0,0,0-.01,0,0,0-.01,0-.02,0,0,.01-.02,0-.03,0,0,0,0,0,0,0,0,0,0,0,0,0-.02.02-.04.02-.07,0,0,0-.02.01-.03.06-.16.13-.31.22-.46,0,0,0,0,0-.01,0,0,0,0,0,0,0-.01.02-.02.02-.03,0-.01.02-.03.03-.04.02-.01.03-.03.04-.05.02-.02.04-.04.05-.06,0,0,0,0,0,0,.09-.1.18-.21.3-.29,0,0,0,0,.01-.01.15-.11.3-.2.47-.27.06-.02.11-.05.17-.07,0,0,.01,0,.02,0,.01,0,.02,0,.03-.01.03,0,.05,0,.07-.02,0,0,0,0,.01,0,0,0,.01,0,.02,0,.01,0,.03,0,.04,0,.03,0,.06-.01.09-.02.02,0,.05,0,.07-.01,0,0,.01,0,.02,0,.04,0,.07,0,.11-.01,0,0,.01,0,.02,0,.13,0,.26-.02.39-.01.1,0,.2.02.3.02,0,0,.01,0,.02,0,0,0,.02,0,.03,0,0,0,.01,0,.02,0,.04,0,.07.02.11.01,0,0,.01,0,.02,0h0s0,0,.01,0c.02,0,.04,0,.06.01,0,0,0,0,0,0h0s0,0,0,0c0,0,0,0,.01,0,.11.03.22.06.33.11.29.11.54.28.76.49.09.09.17.2.24.31.05.07.08.14.12.21,0,0,0,.01.01.02,0,.02.02.04.03.06,0,.02.01.04.03.05.02.07.04.14.07.22,0,0,0,.02,0,.02.03.1.04.2.06.3,0,0,0,0,0,.01,0,.03,0,.06,0,.09,0,0,0,0,0,0,0,0-.02.02-.01.03.03.11.02.23,0,.35,0,.05,0,.09,0,.14,0,0,0,0,0,.01,0,.02,0,.04,0,.06,0,0,0,.02,0,.03,0,.04-.02.08-.01.12,0,0,0,.01,0,.02,0,0,0,.01,0,.02,0,0,0,0,0,.01-.05.22-.15.43-.28.62,0,0,0,0,0,0h0s-.05.08-.07.12c-.03,0-.03.04-.05.06-.02.03-.05.05-.07.08,0,0,0,0,0,0-.01,0-.02.01-.02.03-.07.04-.1.12-.17.16-.03.03-.06.05-.1.08-.02.02-.04.04-.06.05,0,0-.01,0-.02,0-.03.02-.06.05-.1.07-.1.05-.2.1-.3.15-.02,0-.05.02-.07.03-.04,0-.08.03-.12.04-.07.02-.15.04-.23.06,0,0,0,0-.01,0,0,0-.01,0-.02,0-.01,0-.02,0-.03,0-.05,0-.1.02-.16.03,0,0-.01,0-.02,0-.02,0-.03,0-.05,0Zm.46-3.17h0s-.03-.03-.05-.04c-.03-.02-.06-.05-.09-.06,0,0,0,0-.01,0-.16-.09-.32-.14-.5-.14,0,0-.01,0-.02,0-.04,0-.08,0-.12,0-.01,0-.02,0-.03,0-.04,0-.09-.01-.13,0,0,0-.01,0-.02,0-.15.02-.29.07-.41.16-.01,0-.02,0-.03.02-.03.02-.06.04-.08.06-.01,0-.02.01-.03.03-.02.02-.05.04-.06.06-.03.02-.05.05-.07.07-.09.1-.15.2-.2.32-.03.09-.07.18-.07.28v.02s0,.02-.01.03c0,0,0,0,0,.01-.02.11-.02.22,0,.34,0,0,0,.01,0,.02,0,.06.02.12.04.17,0,0,0,.02,0,.02.04.14.1.27.19.38,0,.02,0,.03.03.03.05.07.11.14.19.19,0,0,0,0,0,0,0,0,0,0,0,0,.01.02.03.03.05.04.08.06.17.12.28.14,0,0,.01,0,.02,0,0,0,.01,0,.02,0,0,0,.02,0,.02,0,.02.02.04.02.07.03.04.01.09,0,.12.02.08.02.15.02.23.02.02,0,.03,0,.05,0,.07,0,.15,0,.21-.03,0,0,.02,0,.02,0,.05-.01.1-.03.15-.06,0,0,.01,0,.02,0,.07-.03.13-.06.19-.11.09-.06.18-.13.24-.23,0,0,0,0,0,0,0,0,0,0,0,0,0,0,0,0,.01-.01.02-.01.02-.03.03-.05.11-.15.17-.33.2-.51,0,0,0-.02,0-.03,0-.01,0-.02,0-.03,0-.02,0-.03,0-.05,0-.09,0-.18,0-.27,0,0,0,0,0,0,0,0,0,0,0,0-.01-.08-.03-.16-.06-.24,0,0,0-.02,0-.02,0,0,0,0,0,0,0,0,0-.01,0-.02,0,0,0-.01,0-.02,0-.01-.01-.02-.02-.03-.06-.15-.15-.27-.26-.37-.01-.01-.02-.02-.03-.03,0,0,0,0,0,0,0-.01-.02-.02-.04-.03,0,0,0,0,0,0,0,0,0,0-.01-.01Z"/>
      <path class="cls-2" d="m35.47,19.33c-.14.02-.28,0-.42,0-.08,0-.16-.02-.24-.02-.01-.01-.03-.01-.04-.01-.01,0-.02-.01-.03,0,0,0,0,0,0,0,0,0,0,0,0,0-.02-.01-.04-.02-.07-.02-.11-.03-.21-.08-.31-.13,0,0-.01,0-.02-.01,0,0-.01,0-.02,0-.12-.07-.22-.16-.32-.26,0-.01-.02-.02-.03-.03-.02-.03-.04-.06-.06-.09-.03-.05-.06-.1-.09-.15,0,0,0,0,0-.01l-.05-.13v-.05s-.02-.02-.02-.03c0-.01,0-.02,0-.03,0-.01,0-.03,0-.04,0,0,0-.01,0-.02,0-.02,0-.04,0-.06,0,0,0-.02,0-.02,0-.07,0-.15,0-.22,0-.02.02-.05.01-.07,0,0,0-.01,0-.02,0-.01,0-.03,0-.04,0-.02-.01-.03,0-.05.01-.02.02-.04.02-.07,0,0,0-.01,0-.02,0,0,0-.01,0-.02,0-.02,0-.03.01-.05.01-.03.03-.05.03-.08,0,0,0,0,0,0,0,0,0,0,0-.01.05-.1.1-.19.17-.27.02-.02.04-.04.06-.06.03-.03.07-.07.1-.1,0,0,0,0,.01-.01.07-.04.14-.09.21-.13.03-.01.06-.03.09-.04.02,0,.03,0,.05-.01,0,0,0,0,0,0,.02-.01.05-.02.07-.04.01,0,.03,0,.03-.01.02,0,.03-.01.05-.02,0,0,0,0,.01,0,0,0,.01,0,.02,0,.02,0,.03,0,.05-.02.03,0,.06-.02.09-.03.02,0,.03,0,.04-.01.06-.01.12-.03.18-.04,0,0,.01,0,.02,0,.07-.01.14-.02.21-.04,0,0,.02,0,.03,0,.05,0,.1-.01.15-.01,0,0,.01,0,.02,0,.08,0,.15,0,.23-.02,0,0,0,0,0,0h0c.08.01.15-.01.23,0,0,0,.02.02.03.01.18-.04.37,0,.56-.02q.06,0,.06-.06s0-.07,0-.1c0,0,0,0,0,0,0-.02,0-.05,0-.07,0,0,0-.01,0-.02,0-.02,0-.04-.01-.06,0-.02,0-.04-.02-.05,0-.02-.01-.04-.03-.06,0-.01,0-.02-.02-.03,0,0-.01-.02-.02-.03-.03-.06-.08-.12-.14-.16,0,0-.01,0-.02-.01-.02-.02-.04-.04-.07-.05,0,0-.02,0-.03-.01-.04-.03-.09-.05-.14-.07-.03-.01-.05-.02-.09-.03,0,0-.02,0-.03,0,0,0,0,0,0,0,0,0,0,0,0,0-.06-.02-.13-.03-.2-.03,0,0-.01,0-.02,0-.09-.01-.18,0-.27,0,0,0-.01,0-.02,0-.03,0-.06,0-.09.01-.01,0-.02,0-.03,0-.02,0-.04,0-.05.01,0,0,0,0-.01,0,0,0,0,0,0,0-.01,0-.03,0-.04,0-.07.02-.14.03-.2.06-.03,0-.06.02-.08.04-.01,0-.02,0-.03.01-.02,0-.04.01-.05.03,0,0-.01,0-.02.01-.08.04-.16.08-.22.14,0,0,0,0,0,0-.02.01-.04.02-.05.04,0,0-.01.01-.02.02-.02.02-.04.03-.07.02,0-.01,0-.03-.03-.03-.02-.02-.05-.05-.07-.07-.1-.11-.21-.22-.32-.32-.01-.02-.02-.03-.04-.04-.07-.08-.07-.08.01-.16.11-.11.24-.2.38-.27.02,0,.02,0,.02-.01.05-.03.11-.06.16-.08l.09-.04s.04-.01.06-.02c.02,0,.05.02.06-.02.03,0,.06-.02.09-.03.02.02.04.01.04-.02.04,0,.09-.01.13-.03,0,0,.01,0,.02,0,0,0,0,0,.01,0,0,0,.02,0,.02,0,.07,0,.14-.02.21-.03.02,0,.03,0,.05,0,.03,0,.05,0,.08,0,0,0,.01,0,.02,0,.06,0,.12,0,.18-.01,0,0,0,0,0,0h0c.17,0,.34.01.51.02,0,.02.02.02.03,0,.02,0,.03,0,.05,0,0,0,.01,0,.02,0,.07.01.13.03.2.04.01,0,.02,0,.03.01.06.04.14.05.21.08.07.04.14.08.21.12.18.1.31.24.4.42.1.18.16.38.18.59.03.2.03.4.03.6,0,.27,0,.53,0,.8-.02.02-.02.03,0,.05,0,.49,0,.98,0,1.46,0,.06-.02.06-.06.06-.24,0-.49,0-.73,0-.02,0-.05,0-.07,0,0,0,0,0,0,0-.02,0-.04,0-.07,0-.02-.01-.02-.03-.02-.05,0-.05,0-.1,0-.15,0-.04,0-.08,0-.13,0-.01,0-.03,0-.04,0-.02,0-.04,0-.06,0-.04,0-.08,0-.12,0,0,0-.02-.01-.03-.01,0-.02,0-.02.02-.02.02-.03.05-.05.07-.02.03-.05.06-.07.09-.02.02-.04.04-.05.06-.01.01-.03.03-.04.04,0,0,0,0-.01.01,0,0,0,0,0,0-.01,0-.02.01-.03.03-.06.05-.12.08-.18.13-.02,0-.04.01-.05.03-.01,0-.03.01-.04.02-.02,0-.05.01-.06.03,0,0-.01,0-.02,0-.02,0-.03,0-.05.02-.09.02-.17.05-.26.07,0,0-.02,0-.03,0-.03,0-.05,0-.08.01-.01,0-.02,0-.03,0,0,0-.01,0-.02,0Zm1.04-1.55c.01-.12.01-.24,0-.37,0-.01,0-.02,0-.03,0,0-.02,0-.03,0-.13,0-.27,0-.4,0,0,0,0-.01,0-.01,0,0,0,0,0,.01-.09,0-.18,0-.27.02,0,0,0,0-.01,0-.08,0-.15.01-.23.02-.21.03-.41.09-.59.21-.09.06-.16.12-.19.23,0,0,0,.01,0,.02-.02.06-.03.12-.02.19,0,0,0,0,0,.01,0,.01,0,.02,0,.04,0,0,0,0,0,.01.05.17.17.27.32.34.02.02.04.02.07.02.06.02.11.04.18.04,0,0,0,0,.01,0,.02,0,.05,0,.07,0,0,0,.02,0,.03,0,.05,0,.11,0,.16,0h0s0,0,0,0c.02,0,.04,0,.05,0,0,0,.01,0,.02,0,.03,0,.06,0,.08-.01,0,0,.01,0,.02,0,0,0,.02,0,.03,0,0,0,.02,0,.02,0,.07-.01.13-.03.2-.07,0,0,0,0,0,0,.09-.04.16-.09.23-.15h0s0,0,0,0c.06-.06.11-.13.14-.22,0,0,0,0,0-.01.03-.08.06-.17.07-.25,0,0,0,0,0-.02Z"/>
      <path class="cls-2" d="m40.09,19.33c-.19.02-.37,0-.56,0-.12,0-.23-.02-.35-.04,0,0,0,0,0,0-.06-.02-.12-.02-.17-.05,0,0-.01-.01-.02,0-.02,0-.05,0-.07-.01,0,0,0,0,0,0-.02,0-.04-.01-.06-.02-.02-.01-.05-.02-.08-.03,0,0-.01,0-.02-.01,0,0,0,0,0,0,0,0-.01,0-.02-.01-.03-.01-.05-.02-.08-.04,0,0-.01,0-.02-.01-.02-.01-.03-.02-.05-.03-.02-.01-.03-.03-.05-.03,0-.02-.03-.02-.04-.03-.02-.02-.05-.03-.07-.05,0,0,0,0-.01,0,0,0,0,0,0,0-.08-.06-.15-.14-.22-.21,0-.01,0-.02,0-.03,0,0,0,0,0,0,0,0,.02-.02.03-.03,0,0,0,0,0,0,.08-.05.14-.12.2-.18.13-.12.26-.24.38-.36,0,0,.02-.02.03-.03,0,0,0,0,0-.01,0,0,0,0,0,0,0,0,0,0,.01-.01.02-.01.04,0,.05.01.04.05.09.09.14.14,0,0,0,0,0,0,.09.07.18.15.28.2,0,0,0,0,.01,0,.1.06.21.11.33.12,0,0,.01,0,.02,0,.09.02.18.02.26.01,0,0,.01,0,.02,0,0,0,.02,0,.03,0,.02,0,.04,0,.05,0,.01,0,.02,0,.03,0,0,0,.01,0,.02,0,0,0,.02,0,.03,0,0,0,0,0,.01,0,.02,0,.03,0,.05-.02.02,0,.03,0,.04-.02.14-.06.25-.15.31-.29,0-.02.01-.03.01-.05.02-.04.01-.08,0-.11-.01-.11-.06-.19-.15-.25,0-.01-.02-.02-.03-.02-.02-.01-.03-.03-.05-.03,0,0-.01-.01-.02-.01,0,0,0-.02-.02-.02,0-.01-.01-.01-.02,0-.02,0-.03-.01-.05-.02,0,0,0,0-.01,0,0,0,0,0,0,0,0,0,0,0-.01,0,0,0,0,0,0,0,0,0,0,0,0,0,0,0,0,0,0,0-.07,0-.12-.05-.19-.05-.01,0-.03-.01-.04-.01,0,0,0,0,0,0,0,0-.01,0-.02,0l-.11-.02s-.02-.01-.03,0c0,0,0,0-.01,0,0,0,0,0,0,0-.02,0-.04-.01-.05,0,0-.01-.02,0-.03,0-.05-.01-.1-.03-.15-.03-.01-.01-.03,0-.04,0-.06-.01-.12-.02-.17-.03,0,0,0,0-.01,0-.1-.02-.19-.06-.28-.09-.07-.03-.13-.07-.2-.1,0,0,0,0,0,0-.03-.02-.06-.03-.08-.05-.02-.01-.04-.03-.06-.04-.01-.01-.02-.02-.03-.03-.03-.03-.07-.07-.1-.1-.02-.02-.03-.04-.05-.06-.01-.02-.03-.04-.04-.06,0-.02-.02-.04-.03-.05,0,0,0-.02-.01-.02,0-.02-.02-.05-.03-.07,0-.01,0-.03-.01-.04,0-.03-.01-.06-.03-.09,0-.02,0-.05-.01-.07,0-.01,0-.03,0-.04,0,0,0,0,0,0-.01-.07,0-.13-.01-.2,0-.02,0-.05,0-.07,0-.03,0-.06,0-.09,0-.02,0-.05,0-.07,0,0,0,0,0-.01,0-.03.01-.07.02-.1,0,0,0,0,0-.01,0,0,0-.02,0-.03,0,0,0,0,0-.01.03-.12.09-.22.15-.32.08-.14.2-.24.33-.33.1-.08.22-.12.33-.17.08-.03.16-.05.25-.07.17-.04.34-.05.51-.07,0,0,0,0,0,0h0s.04,0,.06,0c0,0,.01,0,.02,0,.01,0,.02,0,.03,0,0,0,.02,0,.03,0,.04,0,.08,0,.13,0,0,0,.01,0,.02,0,.05,0,.1.01.15.02,0,0,.01,0,.02,0,.04,0,.07.02.11.01,0,0,.01,0,.02,0,.03,0,.07.02.1.02,0,0,.01,0,.02,0,.07.02.15.05.22.07.22.08.41.21.57.39.03.03.05.06.06.1-.02.02-.04.04-.06.06-.07.05-.13.11-.19.16-.05.04-.1.09-.15.13,0,0-.02.02-.03.03-.02.01-.04.03-.06.05,0,0-.01,0-.02,0,0,0,0,0,0,0-.05.04-.1.09-.15.13-.03.03-.07.03-.09,0,0-.02-.02-.03-.04-.04-.03-.06-.08-.1-.14-.13,0,0-.01,0-.02-.01-.04-.03-.08-.06-.13-.08,0,0,0,0,0,0-.02-.02-.04-.03-.06-.03,0,0-.02-.01-.03-.01-.03-.01-.07-.03-.1-.03-.13-.04-.27-.04-.4-.02,0,0-.01,0-.02,0,0,0,0,0-.01,0-.01,0-.02,0-.03,0-.07.01-.13.03-.19.07-.03.01-.06.03-.08.05-.1.08-.13.2-.12.32,0,0,0,.02,0,.02,0,.03.02.05.02.08,0,.02.02,0,.02.01.06.09.16.13.26.17.02.01.04.02.05.02.03.01.07.03.1.04,0,0,0,0,.01,0,.06.01.12.02.18.04,0,0,0,0,0,0,0,0,0,0,0,0,.04,0,.09.03.13.02,0,0,.01,0,.02,0,0,0,.02,0,.03,0,0,0,.01,0,.02,0,.1.02.2.05.29.07.23.06.44.14.64.27.01,0,.03.02.04.02.01,0,.02.02.04.02.02.02.05.04.07.06.03.04.06.07.1.1.06.08.11.16.15.26,0,0,0,0,0,.01,0,.03.01.07.02.1,0,0,0,.01,0,.02,0,.01,0,.02,0,.04,0,0,0,.02,0,.03.02.1.02.21.02.31,0,.23-.05.45-.18.64-.13.18-.27.33-.48.42-.06.03-.12.06-.18.09-.17.08-.34.11-.52.14-.05,0-.1.02-.15.02Z"/>
      <path class="cls-2" d="m22.53,19.24s-.05,0-.07,0c-.24,0-.48,0-.73,0-.02,0-.04,0-.06,0,0,0-.02,0-.03,0-.08,0-.16,0-.24-.01,0,0-.01,0-.02,0-.04,0-.08-.02-.12-.02-.02,0-.04,0-.06-.01-.06-.02-.11-.04-.17-.05,0,0,0,0-.01,0,0,0,0,0-.01,0-.05-.02-.09-.05-.14-.07h0s0-.01,0-.01c-.08-.03-.13-.1-.19-.15,0-.02-.02-.04-.04-.05-.02-.03-.04-.06-.06-.1,0,0,0,0,0,0,0-.02-.01-.03-.02-.04,0,0,0,0,0-.01-.01-.03-.03-.06-.04-.08,0,0,0,0,0,0h0s0-.01,0-.01c0-.01,0-.02-.01-.03,0-.03-.02-.05-.02-.08,0-.05-.01-.1-.03-.14,0-.02,0-.03,0-.05,0-.01,0-.02,0-.03,0-.04,0-.08-.01-.11,0-.04,0-.08-.01-.13,0-.01,0-.03,0-.04-.01-.08,0-.15-.01-.23,0-.49,0-.98,0-1.47,0-.09,0-.18,0-.28,0-.02,0-.04-.03-.03-.03-.01-.07,0-.1,0-.21,0-.43,0-.64,0,0,0-.02,0-.03,0,0,0,0,0,0,0h0s-.06-.02-.06-.06c0-.26,0-.51,0-.77,0-.05.02-.06.07-.06.25,0,.5,0,.75,0,.02,0,.05,0,.05-.03,0-.38,0-.75,0-1.13,0,0,0-.01,0-.02,0,0,0,0,0,0,.01-.03.04-.02.07-.02.31,0,.61,0,.92,0,.01,0,.02,0,.03,0,0,0,0,0,0,0h0s.03,0,.03.01c0,0,0,0,0,0,0,.03,0,.07,0,.1,0,.34,0,.68,0,1.02,0,.02,0,.03,0,.05,0,.01,0,.02.02.02.16,0,.32,0,.48,0,.21,0,.41,0,.62,0,0,0,0,0,0,0h0s.03,0,.03.03c0,.28,0,.57,0,.85,0,0,0,.02,0,.02-.01,0-.03,0-.04,0-.07,0-.14,0-.21,0-.28,0-.55,0-.83,0-.01,0-.03,0-.04,0-.04.01-.04.01-.02.05,0,.01,0,.02,0,.03,0,0,0,0,0,0,0,.01,0,.02,0,.03-.02.02-.02.03,0,.05,0,.52,0,1.04,0,1.57-.01,0-.01.01,0,.02,0,.05,0,.1.01.15,0,0,0,0,0,.01,0,.03,0,.05.02.08,0,0,0,0,0,0,0,0,0,.01,0,.02,0,0,0,0,0,.01,0,.02,0,.04.02.06,0,0,0,0,0,.01,0,0,0,0,0,0,0,.03.02.06.05.08.07.11.18.15.31.17,0,0,.02,0,.02,0,.02,0,.04,0,.05,0,.01,0,.03.01.04,0,.18,0,.37,0,.55,0,.04,0,.05.01.05.05,0,.28,0,.55,0,.83,0,0,0,.01,0,.02,0,0,0,0,0,0-.03.01-.05,0-.08,0Z"/>
      <path class="cls-2" d="m32.05,19.33c-.05-.01-.1,0-.16,0-.09,0-.18,0-.28-.01-.16,0-.32-.04-.47-.07,0,0-.01,0-.02,0-.01,0-.02,0-.03,0,0,0-.02,0-.03,0-.05-.02-.1-.04-.16-.05,0,0-.01,0-.02,0-.04-.03-.08-.04-.12-.05-.05-.02-.09-.05-.14-.07-.01-.01-.03-.02-.04-.02-.06-.04-.13-.08-.19-.13-.15-.11-.28-.24-.39-.39,0,0,0,0,0,0,0,0,0,0,0-.01-.04-.05-.08-.11-.12-.16-.06-.12-.12-.24-.18-.36,0,0,0,0,0,0,0,0,0,0,0,0,0-.01-.01-.03-.02-.04,0-.03-.01-.06-.03-.09,0-.01,0-.03-.01-.05,0-.03,0-.05-.02-.07,0-.01,0-.02,0-.03,0,0,0-.01,0-.02,0-.01,0-.02,0-.04,0,0,0,0,0-.01,0,0,0-.01,0-.02,0,0,0-.01,0-.02,0,0,0-.02,0-.02,0-.02,0-.04-.01-.05,0,0,0-.01,0-.02,0-.06,0-.13-.01-.19,0-.01,0-.02,0-.03,0-.01,0-.03,0-.04,0-.06,0-.12,0-.18.01,0,0-.02,0-.03,0-.01,0-.03,0-.04,0-.01,0-.02,0-.03,0-.04,0-.08.01-.12.01-.02,0-.03,0-.05,0-.02.01-.04.01-.06,0,0,0-.01,0-.02.06-.32.21-.61.4-.88.07-.09.16-.17.24-.25.11-.11.22-.19.36-.26.13-.07.27-.13.4-.18,0,0,.01,0,.02,0,.02,0,.05-.02.07-.02,0,0,0,0,.01,0,.08-.02.16-.04.23-.06.07-.02.14-.02.22-.03.07,0,.14,0,.21-.01,0,0,0,0,0,0h0s.04,0,.06,0c.02,0,.04,0,.06,0,.1,0,.19.02.29.03,0,0,.01,0,.02,0,.06.01.12.03.18.04.13.03.26.08.39.13.11.05.2.11.3.17.11.07.21.16.3.25,0,0,0,.01,0,.02-.13.13-.27.26-.4.39-.1.11-.22.2-.31.32,0,0-.02.01-.03.01-.04-.04-.08-.08-.13-.12-.02-.02-.04-.04-.06-.05,0,0,0,0-.01,0-.02-.02-.05-.04-.08-.06,0,0-.02-.02-.03-.02-.01-.02-.03-.03-.05-.04-.01,0-.02-.01-.03-.02-.01-.01-.03-.02-.05-.03-.04-.02-.07-.04-.11-.05,0,0-.01,0-.02,0-.02,0-.03-.01-.05-.01-.02-.01-.03-.01-.05,0-.22-.03-.42,0-.62.09-.02,0-.03,0-.03.02-.02,0-.03.02-.05.02-.02,0-.03,0-.03.02-.01,0-.03,0-.03.02-.02,0-.03.01-.04.03-.04.02-.08.05-.12.09-.01,0-.02.01-.03.03-.06.06-.12.12-.16.2-.04.02-.05.06-.06.09-.06.11-.1.22-.12.34,0,.03,0,.05-.01.08,0,.01,0,.02,0,.04,0,.05-.02.1-.01.15,0,.02,0,.04,0,.06,0,.06,0,.12.02.18,0,0,0,0,0,.01,0,.01,0,.02,0,.04,0,0,0,0,0,.01,0,0,0,.01,0,.02,0,.01,0,.02,0,.03,0,.01,0,.02,0,.03,0,0,0,0,0,.01,0,.02.01.04.02.06,0,.02.01.04.03.06,0,0,0,.01,0,.02,0,0,0,0,0,.01,0,0,0,0,0,0,0,.02.01.04.03.05,0,.01.01.03.02.04,0,.01,0,.01.01.01.06.1.12.19.21.26,0,.01,0,.03.02.02.09.07.17.14.27.18,0,0,.01,0,.02,0,.05.03.1.05.16.06.01,0,.02,0,.03,0,0,0,.01,0,.02,0,.01,0,.03,0,.04.01,0,0,.02,0,.03,0,0,0,.02,0,.03,0,.02,0,.03.01.05.01,0,0,.01,0,.02,0,0,0,0,0,.01,0,0,0,.01,0,.02,0,.06,0,.13,0,.19,0,0,0,.02,0,.03,0,0,0,.02,0,.03,0,.05,0,.1,0,.14-.03.07-.01.13-.05.19-.08,0,0,0,0,.01,0,.03-.02.07-.03.09-.06.01,0,.02-.01.03-.02,0,0,0,0,.01,0,.01,0,.02-.01.03-.02.05-.03.08-.07.11-.11.01-.01.02-.04.04-.05,0,0,0,0,0,0,.01,0,.02.01.03.02.03.04.06.08.1.11,0,.01,0,0,.01,0,.08.08.15.16.23.24.05.05.1.1.14.16,0,0,0,0,0,0,.02.02.04.04.06.06.01.02.03.04.05.05,0,.02.02.03.03.04.01.03.06.05.03.09,0,0,0,0,0,0-.05.02-.08.06-.11.1,0,0,0,0-.01,0-.04.03-.1.06-.14.09,0,0-.01,0-.02.01-.07.02-.12.07-.19.1-.02,0-.03,0-.05.02-.03,0-.06.01-.08.03-.04,0-.07.04-.1.03-.03-.02-.02.01-.03.02,0,0-.01,0-.02,0,0,0,0,0-.01,0,0,0,0,0,0,0-.02,0-.03,0-.05.02-.03-.02-.04.01-.06.02,0,0-.02,0-.03,0-.06,0-.11.02-.16.03,0,0,0,0-.01,0,0,0,0,0,0,0-.02,0-.04,0-.05.01-.05,0-.1.02-.15.02Z"/>
      <path class="cls-2" d="m17.85,19.24s-.04,0-.07,0c-.03-.02-.02-.04-.02-.07,0-.9,0-1.81,0-2.71,0-.39,0-.78,0-1.18,0-.06,0-.12,0-.18,0-.05.04-.04.06-.04.32,0,.64,0,.96,0,0,0,0,0,0,0h0s.03,0,.03.03c0,.02,0,.03,0,.05,0,1.34,0,2.68,0,4.02,0,.02,0,.04,0,.06,0,0,0,.01,0,.02,0,0,0,0,0,0-.03.01-.05,0-.08,0-.02,0-.03,0-.05,0-.25,0-.51,0-.76,0-.02,0-.04,0-.06,0,0,0-.01,0-.02,0Z"/>
      <path class="cls-2" d="m18.91,13.91c-.03.06-.07.13-.12.18-.03.03-.06.05-.1.07-.04.02-.08.04-.12.06-.04.01-.08.03-.12.04,0,0,0,0,0,0h0s-.06.01-.09.02c-.02,0-.03,0-.05,0-.04,0-.08,0-.12,0,0,0,0,0,0,0-.02,0-.04,0-.06-.01-.01,0-.02,0-.03,0-.03-.01-.07-.03-.1-.04-.01-.01-.03-.02-.04-.02,0,0,0,0,0,0,0,0,0,0-.01,0,0,0,0,0,0,0,0,0,0,0,0,0-.02-.01-.04-.03-.06-.04-.01,0-.02-.02-.04-.03,0,0,0,0,0,0-.02-.02-.03-.04-.05-.05,0,0,0,0,0,0-.03-.05-.07-.1-.1-.15-.01-.03-.03-.06-.04-.09,0-.01,0-.03-.01-.04-.01-.08-.01-.17,0-.25,0,0,0-.01,0-.02.03-.1.08-.19.14-.27,0,0,0,0,0,0,0,0,0,0,0,0,0,0,0,0,0,0,.1-.1.23-.17.37-.19.11-.02.22-.01.32,0,0,0,0,0,.01,0,.28.09.46.27.49.58,0,.04,0,.08,0,.13,0,.01,0,.03,0,.04,0,0,0,.02,0,.02-.01.03-.01.06-.03.09,0,0,0,0,0,.01Z"/>
      <path class="cls-2" d="m27.37,14.97s0-.04,0-.05c0,0,0,0,0,0,.04-.13.12-.24.22-.32.07-.06.15-.09.23-.11,0,0,.02,0,.03,0,.08,0,.16,0,.23,0,.18.04.33.14.41.31.06.12.06.26.05.39,0,.07-.03.13-.06.2-.01.03-.04.04-.05.07,0,0,0,0,0,0-.02.02-.04.04-.07.06-.08.08-.18.13-.3.15,0,0,0,0,0,0-.08,0-.17,0-.25,0-.01,0-.02,0-.03-.01,0,0-.01,0-.02,0,0,0-.01,0-.02,0-.17-.09-.3-.22-.35-.41,0,0,0-.02,0-.03-.02-.07-.02-.14-.02-.21,0,0,0,0,0-.01Zm1.04.09c.02-.21-.19-.47-.48-.45-.21.01-.42.22-.42.45,0,.23.19.46.46.45.28,0,.45-.25.44-.45Z"/>
      <path class="cls-2" d="m9.99,19.33c-.17.02-.35,0-.52,0-.1-.01-.19-.01-.29-.03-.01-.01-.03,0-.05,0-.06-.02-.11-.03-.17-.05,0,0,0,0,0,0,0,0,0,0,0,0-.08-.02-.16-.05-.23-.08,0,0,0,0-.01,0-.03,0-.05-.02-.08-.03,0,0,0,0-.01,0,0,0,0,0-.01,0-.04-.02-.06-.05-.11-.05-.01-.01-.02-.02-.04-.02,0,0,0,0-.01,0,0,0,0,0,0,0-.01,0-.03-.02-.04-.03,0,0,0,0,0,0-.03-.02-.06-.04-.08-.06-.12-.08-.23-.18-.33-.28-.02-.03-.05-.06-.07-.08,0,0,0,0,0,0,0,0,0,0-.01-.01-.02-.03-.05-.07-.07-.1-.01-.02-.03-.04-.04-.06-.02-.03-.03-.07-.06-.1-.05-.09-.09-.19-.14-.28,0-.03-.01-.05-.03-.08,0,0,0,0,0,0,0-.01-.01-.03-.02-.04l-.03-.08s-.02-.08-.03-.12c0-.03-.01-.05-.02-.08v-.06s-.01-.04-.02-.05c0-.02,0-.03,0-.05,0-.03,0-.05,0-.08,0,0,0,0,0-.01,0-.05,0-.1,0-.16,0-.05,0-.09,0-.14,0-.02,0-.03,0-.05.01-.02,0-.04,0-.06,0-.01,0-.02,0-.03,0-.01,0-.03,0-.04,0,0,0-.01,0-.02,0,0,0,0,0-.01,0-.01,0-.03,0-.04,0-.02.01-.05.01-.07,0,0,0,0,0-.01,0,0,0-.01,0-.02,0,0,0-.01,0-.02,0,0,0-.01,0-.02,0-.01,0-.02,0-.03,0-.02.01-.05.02-.07,0-.02,0-.03.01-.05,0,0,0-.01,0-.02.01-.04.02-.07.03-.11,0,0,0-.01,0-.02.06-.14.13-.28.2-.41.03-.05.07-.1.1-.14,0-.01.01-.02.02-.03.02-.02.05-.03.05-.06.01,0,.02-.02.03-.03.09-.11.21-.19.32-.28.15-.12.33-.2.51-.27,0,0,.02,0,.03-.01,0,0,.01,0,.02,0,.04,0,.08-.02.12-.04,0,0,0,0,.01,0,.13-.03.27-.06.4-.08.18-.02.35-.02.53-.01.06,0,.13.03.19.02,0,0,.01,0,.02,0,.03,0,.07,0,.1.01,0,0,0,0,.01,0,.02,0,.05,0,.07.01,0,0,.01,0,.02,0,.07.02.14.04.2.06,0,0,.01,0,.02,0,0,0,0,0,.01,0,0,0,.02.01.03.01.17.08.35.16.5.27.08.05.15.1.22.17.32.29.52.66.62,1.07.08.33.07.66.01,1-.01.07-.02.13-.04.2,0,0,0,0,0,0-.05.17-.14.32-.22.48-.03,0-.04.02-.03.04-.03.04-.06.08-.09.13,0,0-.02,0-.01.01,0,0,0,.01,0,.02,0,.01-.02.02-.03.03-.02.02-.04.04-.06.07-.01,0-.02.02-.03.03,0,0,0,0,0,0,0,0,0,0,0,.01,0,0,0,.01-.01.02-.05.05-.11.11-.16.16-.03,0-.04.02-.06.04-.03,0-.04.03-.06.04,0,0,0,0-.01,0-.02.01-.04.03-.06.04,0,0-.01,0-.01.01,0,0-.02,0-.02,0,0,0-.02,0-.02.01-.02.01-.04.02-.06.04,0,0,0,0-.01,0,0,0,0,0,0,0,0,0,0,0,0,0-.02,0-.03,0-.04.02,0,0-.01,0-.02.01-.02,0-.04.02-.06.03-.06.03-.11.05-.17.08,0,0-.01,0-.02,0-.12.05-.24.08-.37.11-.01,0-.02,0-.03,0-.02,0-.05,0-.07.01,0,0-.01,0-.02,0-.04,0-.07,0-.11.01Zm.9-1.99s0-.01,0-.02v-.04s.01-.03,0-.05c.01-.05,0-.1,0-.15,0-.01,0-.02,0-.03,0-.02,0-.04,0-.06,0-.02,0-.05-.01-.07,0-.02-.02-.05-.02-.07-.04-.19-.12-.36-.25-.51-.01-.02-.03-.03-.04-.05-.04-.05-.09-.09-.15-.13-.01-.02-.02-.03-.04-.03-.18-.13-.39-.21-.62-.21,0,0-.01,0-.02,0-.04,0-.08,0-.12,0-.01,0-.02,0-.03,0-.04,0-.09,0-.13,0,0,0,0,0,0,0,0,0-.01,0-.02,0,0,0-.02,0-.02,0-.02,0-.04,0-.06.01-.01,0-.02,0-.03,0-.1.02-.2.06-.28.13-.02,0-.03.01-.04.03,0,0,0,0,0,0,0,0,0,0-.01,0-.03.02-.06.04-.08.06-.04.03-.08.06-.11.1-.03.02-.05.06-.07.08-.2.27-.28.57-.25.9v.02s0,0,0,.01c0,0,0,0,0,0,0,0,0,0,0,0,0,.05.02.1.03.15,0,0,0,0,0,0,0,.02,0,.04.02.05,0,0,0,.01,0,.02.01.04.02.09.04.13.07.13.14.26.25.36.01.01.03.02.03.04,0,0,0,.01.01,0,.02,0,.03.02.05.03.1.07.2.14.31.18.11.04.23.08.35.08,0,0,0,0,.02,0,.06,0,.11,0,.17,0,.02,0,.03,0,.05,0,.02,0,.05,0,.07,0,0,0,.01,0,.02,0,.02,0,.05,0,.07,0,.17-.04.33-.11.47-.21.17-.13.3-.29.38-.49.02-.02.02-.05.03-.07.03-.08.06-.16.06-.24Z"/>
      <path class="cls-2" d="m4.26,15.96c-.07,0-.14,0-.2,0-.04,0-.05-.02-.05-.06,0-.27,0-.54,0-.81.02-.03.05-.02.07-.02.25,0,.51,0,.76,0,.03,0,.03-.02.03-.04,0-.32,0-.65,0-.97,0-.06,0-.12,0-.18,0,0,0,0,0-.01,0,0,0,0,0,0,.01,0,.02,0,.03-.01.03,0,.07,0,.1,0,.29,0,.58,0,.87,0,.01,0,.03,0,.04,0,0,0,0,0,.01.01,0,0,0,0,0,.01,0,.34,0,.68,0,1.02,0,.05,0,.1,0,.15,0,0,0,.01,0,.02,0,0,0,0,.01,0,.34,0,.69,0,1.03,0,.02,0,.03,0,.05,0,0,0,0,0,0,0h0s.03.01.03.04c0,.29,0,.57,0,.86,0,0-.01,0-.02,0-.02,0-.05,0-.07,0-.34,0-.67,0-1.01,0-.03,0-.04,0-.04.04,0,.02,0,.05,0,.07,0,.15,0,.3,0,.45,0,.39,0,.78,0,1.18v.03s0,.06,0,.09c0,0,0,.01,0,.02,0,.05.01.11.03.16,0,0-.01,0,0,.01.03.07.05.14.11.19,0,.01.02.03.03.03.09.08.2.09.32.1.02,0,.03.01.05,0,.18,0,.36,0,.54,0,.04,0,.05.01.05.05,0,.28,0,.55,0,.83,0,0,0,.01,0,.02,0,0,0,0,0,0-.03.01-.05,0-.08,0-.01,0-.03,0-.04,0-.28,0-.56,0-.83,0,0,0,0,0,0,0-.1,0-.21-.02-.31-.03,0,0-.01,0-.02,0-.01,0-.02,0-.04,0,0,0-.01,0-.02,0-.08-.01-.15-.04-.23-.07-.03-.01-.05-.03-.08-.04-.01,0-.02-.01-.03-.02-.06-.04-.12-.08-.18-.13-.03-.03-.05-.05-.08-.08,0,0,0,0,0,0,0-.01-.02-.02-.02-.03,0,0-.01-.01-.02-.02-.02-.02-.03-.05-.05-.07,0,0,0,0,0-.01,0,0,0,0,0,0,0,0,0,0,0-.01-.02-.05-.04-.11-.07-.16,0-.02-.01-.03-.02-.05,0-.01,0-.03-.01-.04-.01-.06-.02-.11-.03-.17,0,0,0,0,0,0,0-.03,0-.05-.01-.07,0-.04,0-.09-.01-.13,0,0,0-.01,0-.02,0-.02,0-.05,0-.07,0-.13,0-.25,0-.38,0-.53,0-1.06,0-1.59,0-.05-.02-.07-.06-.05-.04,0-.07,0-.1,0-.02,0-.05,0-.07,0-.09,0-.17,0-.26,0-.01,0-.03,0-.04,0-.02,0-.04,0-.06,0Z"/>
      <path class="cls-2" d="m27.91,15.19s0,.08,0,.12c0,.03-.01.05-.04.05-.03,0-.06,0-.09,0-.02,0-.03-.02-.03-.04.01-.16,0-.33,0-.49,0-.05.02-.07.07-.06.06,0,.13,0,.19,0,.09,0,.17.05.19.12.03.1,0,.19-.08.24-.03.02-.03.04,0,.06.03.04.06.07.08.11.02.03.02.04-.03.05-.11.02-.17-.03-.21-.12,0-.02-.02-.04-.05-.05Zm0-.23s-.01.07.04.07c.03,0,.08,0,.08-.05,0-.04-.04-.07-.08-.07-.04,0-.04.03-.04.06Z"/>
    </g>
  </g>
</svg>