<svg xmlns="http://www.w3.org/2000/svg" viewBox="0 0 50 32"><script xmlns="" id="eppiocemhmnlbhjplcgkofciiegomcon"/><script xmlns=""/><script xmlns=""/>
  <defs>
    <style>
      .cls-1 {
        fill: #222f4d;
      }

      .cls-1, .cls-2, .cls-3 {
        stroke-width: 0px;
      }

      .cls-2 {
        fill: #fff;
      }

      .cls-3 {
        fill: #e3e5e9;
      }
    </style>
  </defs>
  <g id="BG">
    <rect class="cls-1" y="0" width="50" height="32" rx="4" ry="4"/>
  </g>
  <g id="LOGOS">
    <g>
      <path class="cls-2" d="M3.66,15.33c-.13-.03-.27-.05-.4-.09-1.21-.37-1.23-.4-1.23-1.63,0-.79.04-1.58-.01-2.36-.05-.67.1-1.18.7-1.53h.6c1.24.57,2.56.88,3.84,1.31,1.09.37,2.18.71,3.27,1.06.3.1.61.19.79.48-.26.38-.67.56-1.08.69-1.71.56-3.41,1.16-5.17,1.58-.45.11-.96.11-1.31.49Z"/>
      <path class="cls-3" d="M11.53,13.56c-.27.41-.66.69-1.12.84-1.66.55-3.33,1.08-5,1.62-.53-.37-1.19-.39-1.75-.69.35-.38.86-.38,1.31-.49,1.76-.42,3.45-1.02,5.17-1.58.41-.13.82-.31,1.08-.69.32.26.38.6.31.99Z"/>
      <g>
        <path class="cls-2" d="M47.83,15.32c-.3-.98-1-1.48-1.98-1.65-.88-.15-1.75,0-2.58.22-1.03.26-1.01.31-.55,1.22.14.28.24.39.56.2.5-.31,1.08-.39,1.66-.35.81.05,1.21.46,1.25,1.27-.67.02-1.35.03-2.02.05-.33.07-.66.11-.98.21-.61.2-1,.62-1.08,1.27-.09.72.12,1.32.75,1.74.87.58,2.33.54,3.12-.13.46-.39.28.06.35.21-.05.25.13.24.29.24.46,0,.92,0,1.37,0v-4.16c-.19-.05-.13-.23-.17-.34ZM46.02,18.25c-.4.49-1.2.68-1.78.4-.32-.16-.47-.4-.44-.76.03-.35.27-.53.57-.61.3-.07.63-.06.95-.09,0,0,0,.01,0,.02.08,0,.16-.01.24,0,.21.05.54-.14.63.14.09.29.07.62-.16.89Z"/>
        <path class="cls-2" d="M41.1,13.73c-.47-.12-.95-.09-1.42-.03-.38.05-.03.45-.27.68-.82-.91-1.9-.88-2.97-.64-1.18.27-1.89,1.09-2.08,2.26-.19,1.21.12,2.3,1.24,2.98,1.07.66,2.2.72,3.34.12.15-.08.26-.33.43-.23.24.13-.08.34,0,.52.03.07,0,.16-.01.23-.11.55-.9,1.25-1.39,1.2-.9-.09-1.82-.12-2.6-.75-.16.28-.27.53-.44.75-.34.43-.13.62.28.81.74.34,1.52.49,2.31.49,2.08,0,3.51-.61,3.64-3.11.08-1.66.02-3.32.01-4.98,0-.11.06-.29-.07-.32ZM37.8,18.13c-.95.02-1.75-.7-1.74-1.58,0-.86.76-1.55,1.7-1.56.95,0,1.67.66,1.68,1.55,0,.9-.68,1.57-1.64,1.59Z"/>
        <path class="cls-2" d="M24.53,13.72c-1-.19-1.97-.15-2.9.64.14-.7-.2-.73-.62-.69-.28.03-.56.01-.84,0-.15,0-.22.05-.2.21,0,2.69,0,5.38,0,8.07.39.28.83.05,1.23.12.4.07.55-.06.53-.49-.04-.77-.01-1.54-.01-2.38,1.41.97,3.07.88,4.12-.16,1.02-1.02,1.16-2.99.3-4.22-.39-.56-.93-.97-1.61-1.1ZM24.97,16.82c-.06,1.02-.89,1.83-1.85,1.79-.67-.02-1.48-1.09-1.44-1.92.04-1.02.81-1.78,1.74-1.71.94.07,1.6.86,1.55,1.84Z"/>
        <path class="cls-2" d="M10.41,14.4c-1.66.55-3.33,1.08-5,1.62-.78.39-1.62.63-2.46.85-.63.17-.92.45-.93,1.09,0,.43.03.87,0,1.3-.03.45.11.5.51.35,1.28-.47,2.57-.9,3.87-1.29,1.63-.49,3.23-1.07,4.87-1.52.21-.06.31-.15.3-.4-.03-.95-.03-1.9-.04-2.84-.27.41-.66.69-1.12.84Z"/>
        <path class="cls-2" d="M31.73,13.8c-1-.21-2.03-.29-3.04.06-.99.34-1,.38-.54,1.28.16.31.28.33.57.16.53-.31,1.12-.39,1.73-.34.79.07,1.15.5,1.14,1.29l-1.91.02c-.27.04-.55.06-.82.13-.85.23-1.33.8-1.35,1.59-.02.84.41,1.48,1.26,1.73,1.01.3,2,.34,2.81-.52.08-.09.17-.08.25.02.02.2-.23.46.13.59h.36c.32,0,.63,0,.95,0,.04-.03.11-.07.11-.1,0-1.29.05-2.57-.02-3.86-.06-1-.57-1.83-1.61-2.04ZM31.46,18.21c-.39.52-1.18.74-1.76.46-.3-.14-.53-.36-.5-.73.03-.36.25-.58.59-.65.31-.06.63-.07.94-.1v.03c.08,0,.16-.01.24,0,.21.05.53-.15.63.15.09.27.05.58-.14.84Z"/>
        <path class="cls-2" d="M11.55,17.61s-.02-.04-.03-.05c-.21-.05-.39.06-.57.12-1.34.46-2.68.92-4.02,1.34-1.52.48-3.04,1-4.57,1.44-.12.03-.33.03-.32.2.02.44-.19.93.21,1.29.34.31.73.43,1.21.27,2.09-.7,4.19-1.36,6.28-2.05,2.18-.72,1.78-.33,1.82-2.55Z"/>
        <path class="cls-2" d="M18.03,18.5c-.7.19-1.1-.13-1.14-.86-.02-.37-.02-.75,0-1.12.02-.49-.2-1.08.09-1.43.26-.31.87-.03,1.31-.13.42-.85.2-1.26-.66-1.26-.22,0-.43.02-.65.03-.23-.53-.01-1.09-.13-1.63-.55-.21-1.11-.2-1.67,0,0,.39-.04.79-.02,1.18.01.3-.07.46-.4.4-.47-.08-.59.11-.59.57,0,.54.07.87.72.74.08-.02.18.05.28.08,0,.95,0,1.9.01,2.85.07,1.03.44,1.57,1.29,1.84.64.2,1.29.21,1.93,0,.19-.06.63-.06.37-.45-.2-.29.06-1.02-.74-.8Z"/>
      </g>
    </g>
  </g>
</svg>