<svg xmlns="http://www.w3.org/2000/svg" viewBox="0 0 50 32"><script xmlns="" id="eppiocemhmnlbhjplcgkofciiegomcon"/><script xmlns=""/><script xmlns=""/>
  <defs>
    <style>
      .cls-1 {
        fill: #fed800;
      }

      .cls-1, .cls-2, .cls-3 {
        stroke-width: 0px;
      }

      .cls-2 {
        fill: #fff;
      }

      .cls-3 {
        fill: #001c64;
      }
    </style>
  </defs>
  <g id="BG">
    <rect class="cls-3" y="0" width="50" height="32" rx="4" ry="4"/>
  </g>
  <g id="LOGOS">
    <g>
      <path class="cls-2" d="M45.08,17.14c-.14.01-.21.1-.3.15-.57.4-1.21.51-1.89.42-.81-.1-1.43-.66-1.61-1.49-.26-1.18-.09-2.31.48-3.37.49-.92,1.37-1.31,2.48-1.17.48.06.91.23,1.32.48.06.04.12.08.18.12.07-.13.06-.26.08-.39.02-.1.06-.14.17-.14.46,0,.91,0,1.37,0,.14,0,.17.05.15.18-.14.97-.28,1.95-.41,2.92-.12.85-.24,1.71-.35,2.56-.02.17-.06.24-.25.23-.43-.01-.86,0-1.28,0-.15,0-.22-.03-.17-.19.03-.09.03-.2.04-.3ZM42.84,15.09c0,1.03.54,1.45,1.45,1.2.32-.09.58-.28.85-.47.09-.07.15-.14.16-.26.06-.49.14-.97.2-1.46.07-.55.03-.62-.47-.87-.05-.02-.09-.05-.14-.06-.73-.3-1.47,0-1.79.72-.18.42-.24.86-.26,1.22Z"/>
      <path class="cls-2" d="M37.3,15.55c.08-.03.1-.11.14-.18.7-1.09,1.27-2.26,1.83-3.43.07-.14.14-.2.31-.2.47.01.94,0,1.41,0,.11,0,.16.02.1.14-.81,1.57-1.52,3.2-2.49,4.68-.87,1.33-2,2.36-3.52,2.93-.19.07-.28.06-.34-.15-.08-.31-.19-.61-.3-.91-.06-.16-.01-.21.13-.27.5-.21.95-.5,1.35-.85.1-.09.12-.17.09-.3-.45-1.68-.9-3.36-1.35-5.04-.05-.18-.04-.24.17-.23.44.02.88.01,1.33,0,.14,0,.2.04.23.18.28,1.18.62,2.35.87,3.54,0,.03,0,.06.04.07Z"/>
      <path class="cls-2" d="M14.62,16.79c-.18.12-.33.24-.49.35-.61.43-1.29.57-2.03.46-.98-.14-1.63-.83-1.73-1.89-.09-.93.07-1.84.49-2.68.66-1.34,1.98-1.56,3.12-1.24.42.12.79.32,1.13.59.1.08.16.09.17-.06,0-.11.04-.22.04-.32,0-.2.09-.24.27-.23.15.01.3,0,.46,0,.12,0,.14.04.13.15-.18,1.21-.35,2.42-.52,3.63-.08.58-.17,1.16-.24,1.74-.02.15-.05.24-.23.22-.2-.03-.46.08-.59-.04-.12-.11.03-.36.03-.55,0-.03,0-.07,0-.14ZM11.18,15.15c0,.07,0,.14,0,.22.06,1.11.76,1.68,1.85,1.54.67-.08,1.17-.46,1.68-.86.05-.04.05-.1.06-.16.12-.85.24-1.71.37-2.56.01-.09,0-.15-.07-.21-.32-.26-.66-.5-1.06-.63-.96-.32-2.09-.11-2.56,1.19-.17.47-.25.97-.27,1.47Z"/>
      <path class="cls-1" d="M43.26,6.86c0,.47-.48.79-.95.62-.74-.27-1.47-.53-2.23-.72-3.98-1.03-7.9-.82-11.75.64-.03.01-.05.02-.08.03-.11.04-.22.06-.27-.07-.05-.13.05-.18.15-.22.6-.29,1.22-.54,1.85-.76,1.93-.67,3.92-1.04,5.96-1.09,2.34-.07,4.61.28,6.83.97.32.1.49.32.49.61Z"/>
      <path class="cls-2" d="M21.22,17.51c-.42,0-.42,0-.36-.41.15-1.03.31-2.06.46-3.1.05-.32.07-.65,0-.97-.1-.39-.35-.61-.74-.66-.55-.07-1.06.06-1.55.33-.29.16-.55.35-.81.55-.1.07-.13.16-.14.28-.17,1.23-.35,2.47-.51,3.7-.03.22-.09.3-.33.29-.55-.02-.55,0-.47-.54.24-1.68.47-3.36.7-5.04.02-.14.06-.19.2-.18.16,0,.32.01.48,0,.16-.01.18.06.16.19-.02.09-.03.17-.04.26,0,.09-.08.21,0,.26.07.04.14-.07.21-.12.24-.17.48-.32.75-.44.55-.23,1.12-.31,1.7-.2.69.13,1.11.58,1.22,1.27.08.51-.01,1.01-.08,1.51-.12.88-.25,1.75-.37,2.63q-.06.39-.47.39Z"/>
      <path class="cls-1" d="M45.95,6.42c1.13,0,2.06.94,2.05,2.07,0,1.15-.94,2.06-2.11,2.06-1.11,0-2.04-.94-2.03-2.04,0-1.18.92-2.08,2.08-2.08ZM46.77,8.48c0-.47-.38-.85-.84-.85-.47,0-.84.38-.84.85,0,.46.39.84.85.83.46,0,.82-.38.82-.83Z"/>
      <path class="cls-1" d="M25.37,10.51c-1.15,0-2.06-.9-2.06-2.05,0-1.15.92-2.09,2.07-2.07,1.13.02,2.05.84,2.06,2.07,0,1.22-1.03,2.09-2.07,2.05ZM25.37,7.61c-.47,0-.84.37-.84.84,0,.45.4.89.82.87.4-.03.85-.32.85-.87,0-.47-.37-.84-.84-.84Z"/>
      <path class="cls-2" d="M25.24,11.66c.77,0,1.44.15,2.09.42.14.06.19.11.11.27-.22.42-.21.42-.66.27-.57-.2-1.15-.34-1.77-.29-.2.02-.4.07-.58.16-.47.24-.63.95-.07,1.29.31.19.65.32.99.45.35.13.71.25,1.05.43.49.26.83.62.81,1.23-.02.64-.27,1.14-.85,1.44-.55.29-1.15.34-1.76.28-.73-.08-1.4-.31-1.98-.76-.12-.09-.14-.16-.04-.28.09-.12.15-.32.26-.36.13-.05.25.14.37.22.73.48,1.52.67,2.38.47.36-.08.65-.28.76-.67.11-.37.02-.63-.29-.86-.28-.21-.6-.32-.92-.43-.42-.14-.84-.28-1.22-.52-.5-.3-.75-.73-.68-1.32.06-.59.36-1.01.91-1.25.37-.16.76-.2,1.09-.19Z"/>
      <path class="cls-2" d="M30.99,12.47c-.25,0-.51,0-.76,0-.13,0-.18.04-.2.17-.21,1.53-.44,3.07-.64,4.6-.03.21-.09.31-.31.28-.18-.03-.42.08-.51-.05-.08-.1.01-.33.04-.5.2-1.42.4-2.84.6-4.26.02-.17.01-.26-.19-.24-.16.02-.32,0-.48,0-.1,0-.13-.03-.11-.13,0,0,0-.01,0-.02q.04-.56.61-.56c.3,0,.31,0,.35-.31.04-.35.1-.7.23-1.04.25-.63.72-.99,1.38-1.08.47-.07.94-.03,1.41.04.12.02.15.07.12.18,0,0,0,.01,0,.02-.1.46-.1.45-.56.45-.27,0-.55-.03-.82.03-.37.08-.62.29-.75.65-.11.3-.13.62-.19.94-.03.14.07.13.16.13.5,0,1,0,1.5,0,.16,0,.18.05.16.19-.06.52-.06.52-.57.52-.15,0-.29,0-.44,0Z"/>
      <path class="cls-2" d="M4.6,12.47c-.25,0-.49,0-.74,0-.1,0-.15.01-.17.14-.14,1.04-.28,2.08-.43,3.12-.01.1-.01.2,0,.3.02.43.25.69.68.74.33.04.67.01,1-.04.16-.02.23,0,.25.19.05.44.06.44-.37.54-.41.1-.83.14-1.25.07-.7-.1-1.12-.54-1.16-1.25-.03-.58.12-1.14.19-1.7.08-.64.17-1.28.27-1.92.02-.13,0-.2-.16-.19-.18.01-.36,0-.54,0-.13,0-.15-.05-.14-.16.05-.54.04-.54.6-.54q.36,0,.41-.35c.05-.33.1-.66.14-.99.01-.11.06-.16.18-.15.12.01.25,0,.37,0,.32,0,.32,0,.27.33-.05.33-.09.66-.14.99-.02.13,0,.18.15.18.48,0,.96,0,1.44,0,.15,0,.18.04.16.19-.07.52-.06.52-.59.52-.13,0-.26,0-.39,0Z"/>
      <path class="cls-2" d="M7.78,12.75c.25-.27.46-.5.72-.69.56-.4,1.18-.44,1.83-.38.09,0,.13.04.1.14-.03.08-.04.17-.06.25q-.1.43-.55.41c-.9-.04-1.84.51-2.17,1.35-.12.31-.12.68-.17,1.02-.12.82-.24,1.65-.35,2.47-.02.13-.06.18-.19.17-.17-.01-.33-.01-.5,0-.14,0-.17-.04-.15-.17.11-.75.21-1.51.32-2.26.14-1.03.29-2.05.43-3.08.02-.19.08-.27.28-.24.18.02.44-.08.54.04.1.12-.02.35-.04.54-.01.12-.03.24-.05.41Z"/>
      <path class="cls-2" d="M32.51,17.51c-.43,0-.43,0-.37-.41.24-1.71.48-3.41.71-5.12.02-.18.08-.24.26-.22.12.01.25.01.37,0,.19-.02.25.03.22.24-.14.96-.27,1.92-.41,2.88-.11.79-.23,1.58-.32,2.37-.03.23-.12.3-.32.26-.04,0-.09,0-.13,0Z"/>
      <path class="cls-2" d="M40.9,25.27c.15-.12.29-.26.5-.3.35-.07.62.1.65.46.03.38,0,.77.01,1.15,0,.09-.04.11-.12.11-.09,0-.13-.03-.13-.12,0-.33,0-.67-.01-1-.02-.34-.23-.46-.53-.31-.21.1-.37.24-.34.52.03.23,0,.46,0,.69,0,.08.06.21-.12.22-.19,0-.13-.14-.13-.23,0-.3,0-.59-.01-.89-.02-.35-.26-.48-.57-.3-.19.11-.33.24-.3.5.02.26,0,.52,0,.78,0,.1-.03.14-.14.14-.1,0-.12-.05-.12-.13,0-.49,0-.97,0-1.46,0-.07.01-.12.09-.11.06,0,.16-.04.16.08,0,.18.09.09.16.04.38-.25.69-.21.95.16Z"/>
      <path class="cls-2" d="M29.38,25.55c0-.31,0-.62,0-.93,0-.09,0-.15.12-.15.13,0,.14.06.14.16,0,.22,0,.43,0,.65,0,.12.03.17.16.17.33,0,.65,0,.98,0,.15,0,.18-.06.18-.19,0-.22,0-.43,0-.65,0-.09.01-.13.12-.13.1,0,.14.03.14.14,0,.65,0,1.3,0,1.96,0,.11-.05.13-.14.13-.1,0-.12-.05-.12-.13,0-.24,0-.48,0-.72,0-.12-.03-.17-.16-.17-.33,0-.67,0-1,0-.13,0-.16.05-.15.17,0,.23,0,.46,0,.7,0,.11-.02.16-.14.16-.13,0-.12-.07-.12-.16,0-.33,0-.65,0-.98Z"/>
      <path class="cls-2" d="M24.68,26.67c.31-.72.61-1.41.91-2.11.05-.12.14-.08.22-.09.09,0,.16,0,.21.1.29.69.59,1.38.89,2.08-.18.07-.31.04-.35-.15-.07-.36-.3-.45-.63-.4-.06.01-.13.01-.2,0-.38-.06-.64.03-.72.45-.03.17-.17.14-.33.11ZM25.79,24.72c-.15.36-.3.69-.45,1.03-.04.09,0,.12.08.11.24,0,.48,0,.72,0,.1,0,.13-.03.08-.13-.14-.33-.28-.66-.43-1.02Z"/>
      <path class="cls-2" d="M42.55,25.49c0-.34,0-.68,0-1.02,0-.1.01-.16.14-.16.13,0,.12.07.12.16,0,.19,0,.38,0,.57,0,.13.02.19.15.09.06-.04.12-.07.19-.1.51-.19.9.03.98.57.03.18.03.36-.01.54-.12.55-.67.78-1.14.47-.08-.05-.16-.17-.18.05,0,.08-.11.04-.17.04-.09,0-.07-.08-.07-.13,0-.36,0-.71,0-1.07ZM42.8,25.86c.02.11-.04.24.04.36.14.21.42.33.64.27.25-.06.37-.25.4-.49.03-.28.05-.57-.23-.76-.1-.07-.22-.07-.34-.06-.36.05-.51.25-.51.68Z"/>
      <path class="cls-2" d="M21.41,25.2c0-.28,0-.52,0-.76,0-.1.03-.14.13-.14.11,0,.13.05.13.15,0,.67,0,1.35,0,2.02,0,.08.06.19-.1.21-.18.03-.15-.1-.16-.23-.2.19-.41.28-.66.26-.1,0-.19-.03-.27-.07-.39-.19-.54-.9-.29-1.38.18-.34.64-.42,1.05-.19.05.03.1.06.18.12ZM21.41,25.84c0-.06,0-.12,0-.17,0-.22-.13-.37-.38-.46-.23-.08-.47-.02-.59.14-.18.24-.16.75.02.98.1.12.23.17.38.18.36,0,.57-.24.57-.67Z"/>
      <path class="cls-2" d="M4.13,25.28c-.02.22.03.48-.03.74-.1.46-.42.7-.91.7-.48,0-.8-.26-.87-.71-.08-.47-.02-.95-.04-1.43,0-.11.07-.1.15-.11.09,0,.13.04.13.13,0,.39,0,.78,0,1.17,0,.45.26.71.68.7.37,0,.62-.25.63-.66.02-.38,0-.77,0-1.15,0-.09-.03-.19.13-.19.16,0,.13.1.13.19,0,.2,0,.39,0,.63Z"/>
      <path class="cls-2" d="M22.97,25.91c-.16,0-.32,0-.48,0-.18-.01-.19.07-.15.21.06.23.24.39.48.4.21.01.4-.04.57-.16.05-.03.09-.08.14,0,.03.05.06.1,0,.15-.26.2-.55.26-.86.2-.27-.05-.46-.2-.55-.47-.08-.25-.08-.5-.01-.75.12-.4.5-.61.93-.52.38.07.62.42.59.82,0,.1-.05.12-.14.12-.17,0-.35,0-.52,0ZM22.88,25.16c-.26,0-.48.16-.53.4-.02.08-.02.14.09.14.28,0,.57,0,.85,0,.11,0,.11-.06.1-.14-.04-.24-.24-.4-.5-.4Z"/>
      <path class="cls-2" d="M33.57,26.72c-.7,0-1.11-.49-1.04-1.25.08-.91.92-1.34,1.74-.9.07.04.1.07.07.15-.04.09-.08.1-.17.06-.21-.08-.43-.12-.66-.1-.35.02-.58.22-.67.55-.05.21-.06.42-.02.63.08.4.34.61.75.61.24,0,.46-.04.67-.16.07-.04.12-.07.17.03.04.08.03.13-.05.17-.24.14-.51.2-.79.2Z"/>
      <path class="cls-2" d="M28.12,26.47c.23,0,.45-.05.64-.16.06-.04.11-.06.15.03.04.07.06.13-.03.18-.42.23-.87.3-1.31.1-.4-.18-.51-.55-.52-.95,0-.13,0-.26.02-.39.07-.47.36-.75.83-.82.3-.05.59,0,.87.12.06.02.12.05.08.14-.03.08-.06.11-.16.08-.2-.08-.42-.11-.64-.1-.37.02-.62.21-.7.56-.05.21-.05.43,0,.65.09.4.34.58.77.58Z"/>
      <path class="cls-2" d="M9.83,25.91c-.17,0-.35,0-.52,0-.13,0-.15.05-.13.16.04.25.23.43.48.45.22.02.42-.04.59-.17.06-.04.1-.05.14.02.03.06.05.1-.02.15-.3.23-.64.27-.99.16-.3-.1-.43-.35-.47-.65-.02-.17-.01-.33.03-.49.11-.41.48-.64.92-.56.39.07.64.41.61.83,0,.1-.05.12-.13.12-.17,0-.35,0-.52,0ZM9.7,25.7c.13,0,.26,0,.39,0,.14.01.16-.06.13-.17-.06-.23-.26-.38-.52-.37-.26.01-.47.19-.51.42-.02.09.02.11.1.11.14,0,.27,0,.41,0Z"/>
      <path class="cls-2" d="M46.41,26.47c-.23.21-.46.28-.73.24-.27-.04-.42-.18-.44-.43-.03-.32.09-.51.36-.59.19-.06.39-.03.58-.04.08,0,.22.08.25-.08.03-.17-.08-.34-.23-.37-.2-.03-.39,0-.58.03-.07.01-.16.07-.19-.07-.03-.12.05-.13.13-.15.21-.05.43-.09.65-.07.29.03.44.16.46.45.03.39.01.78.02,1.17,0,.08-.03.09-.1.1-.16.03-.14-.1-.17-.22ZM46.44,26.05c-.02-.06.06-.19-.08-.2-.22,0-.43-.03-.65.02-.11.03-.2.09-.22.21-.02.13-.01.25.1.34.16.13.35.13.53.04.17-.08.35-.17.32-.42Z"/>
      <path class="cls-2" d="M34.69,25.82c.01-.53.35-.87.85-.87.52,0,.86.37.84.92-.01.54-.35.86-.89.85-.5,0-.82-.36-.81-.9ZM34.95,25.85c0,.4.23.65.59.65.36,0,.59-.26.59-.66,0-.39-.23-.66-.59-.66-.37,0-.6.26-.6.67Z"/>
      <path class="cls-2" d="M39.14,25.85c0,.53-.32.87-.83.87-.53,0-.86-.34-.86-.88,0-.54.34-.89.85-.89.51,0,.84.35.84.89ZM38.89,25.84c0-.4-.23-.66-.59-.66-.37,0-.6.26-.6.67,0,.4.24.65.6.64.36,0,.59-.26.59-.66Z"/>
      <path class="cls-2" d="M17.23,25.83c0-.53.33-.88.84-.88.52,0,.86.36.85.91,0,.53-.33.86-.85.86-.52,0-.84-.34-.84-.89ZM17.49,25.85c0,.41.23.65.59.65.36,0,.59-.26.59-.66,0-.4-.23-.66-.59-.66-.37,0-.6.26-.6.67Z"/>
      <path class="cls-2" d="M4.89,25.23c.24-.19.45-.3.7-.28.3.02.48.17.5.47.02.38.01.77.02,1.15,0,.09-.04.11-.12.11-.09,0-.14-.02-.14-.12,0-.3,0-.61,0-.91,0-.36-.1-.46-.38-.45-.31,0-.59.25-.59.51,0,.28,0,.55,0,.83,0,.09,0,.15-.13.15-.11,0-.13-.05-.13-.14,0-.44,0-.88,0-1.33,0-.08-.08-.21.1-.23.17-.02.16.1.16.25Z"/>
      <path class="cls-2" d="M8.01,26.72c-.22,0-.43-.07-.62-.18-.07-.04-.12-.08-.06-.17.06-.1.11-.06.17-.02.17.12.37.17.58.15.13-.01.26-.05.29-.21.03-.17-.06-.26-.21-.31-.17-.06-.34-.12-.51-.18-.19-.08-.31-.21-.29-.43.02-.22.14-.35.38-.41.24-.05.47,0,.7.09.07.03.12.05.08.14-.03.08-.07.09-.15.06-.15-.05-.3-.1-.47-.09-.14,0-.27.04-.3.19-.04.17.09.23.21.27.15.06.3.1.45.16.28.12.39.29.34.55-.04.22-.23.36-.5.38-.04,0-.07,0-.11,0Z"/>
      <path class="cls-2" d="M11.98,25.01c.18-.07.27,0,.34.16.16.39.34.76.53,1.18.19-.42.38-.8.54-1.19.07-.16.16-.21.33-.15-.24.54-.47,1.07-.71,1.6-.06.13-.29.1-.35-.03-.23-.52-.46-1.05-.69-1.57Z"/>
      <path class="cls-2" d="M15.49,26.72c-.5,0-.8-.31-.81-.84-.01-.54.29-.89.77-.92.19-.01.37.03.55.11.05.03.13.04.09.14-.04.08-.08.12-.17.06-.02-.01-.04-.02-.06-.02-.27-.08-.54-.13-.75.11-.22.25-.23.54-.11.84.12.31.5.41.86.25.05-.02.1-.05.15-.09.06-.04.1-.04.14.03.04.06.03.1-.02.15-.19.14-.39.21-.63.21Z"/>
      <path class="cls-2" d="M33.49,10.58c-.29,0-.47-.16-.47-.42,0-.32.27-.57.59-.56.27,0,.46.17.47.42,0,.31-.26.57-.59.57Z"/>
      <path class="cls-2" d="M11.16,25.23c.16-.2.34-.29.57-.28.08,0,.16,0,.15.13,0,.1-.05.13-.15.13-.41.02-.59.22-.59.63,0,.22,0,.43,0,.65,0,.09.03.19-.12.19-.16,0-.13-.09-.13-.19,0-.43,0-.87,0-1.3,0-.08-.08-.21.11-.22.19-.02.13.13.17.25Z"/>
      <path class="cls-2" d="M36.79,25.49c0-.34,0-.68,0-1.02,0-.1.01-.17.14-.16.12,0,.12.07.12.16,0,.69,0,1.38,0,2.07,0,.1,0,.16-.14.16-.12,0-.12-.07-.12-.16,0-.35,0-.7,0-1.04Z"/>
      <path class="cls-2" d="M16.81,25.83c0,.23,0,.46,0,.7,0,.09,0,.17-.13.16-.12,0-.13-.06-.13-.15,0-.47,0-.94,0-1.41,0-.1.03-.14.14-.14.12,0,.12.06.12.15,0,.23,0,.46,0,.7Z"/>
      <path class="cls-2" d="M44.57,25.82c0-.23,0-.46,0-.69,0-.09,0-.15.13-.14.1,0,.14.03.14.14,0,.48,0,.95,0,1.43,0,.11-.04.13-.14.14-.1,0-.12-.04-.12-.13,0-.25,0-.49,0-.74Z"/>
      <path class="cls-2" d="M14.25,25.82c0,.24,0,.48,0,.72,0,.09-.01.15-.13.15-.1,0-.12-.06-.12-.14,0-.48,0-.96,0-1.43,0-.09.02-.13.12-.13.09,0,.13.03.13.12,0,.24,0,.48,0,.72Z"/>
      <path class="cls-2" d="M47.37,26.38c.1,0,.16.06.15.17,0,.1-.07.16-.18.15-.1,0-.14-.07-.14-.16,0-.1.06-.16.17-.16Z"/>
      <path class="cls-2" d="M16.84,24.5c-.01.09-.06.14-.15.15-.09,0-.15-.05-.16-.14,0-.11.06-.15.16-.15.09,0,.14.06.15.15Z"/>
      <path class="cls-2" d="M44.85,24.49c0,.1-.05.15-.15.15-.1,0-.16-.05-.16-.16,0-.09.07-.14.16-.14.09,0,.14.05.15.14Z"/>
      <path class="cls-2" d="M14.13,24.35c.09,0,.15.05.15.15,0,.09-.05.15-.14.15-.1,0-.16-.05-.16-.15,0-.1.07-.13.15-.14Z"/>
    </g>
  </g>
</svg>