<svg xmlns="http://www.w3.org/2000/svg" viewBox="0 0 50 32"><script xmlns="" id="eppiocemhmnlbhjplcgkofciiegomcon"/><script xmlns="" id="tw3RDQAZkJACDDd8ptzczsyPvN" type="text/javascript"/><script xmlns=""/><script xmlns=""/>
  <defs>
    <style>
      .cls-1 {
        fill: #01aeef;
      }

      .cls-2 {
        fill: #ed164f;
      }

      .cls-3 {
        fill: #fff;
      }

      .cls-4 {
        fill: #fefeff;
      }

      .cls-5 {
        fill: #522972;
      }
    </style>
  </defs>
  <g id="BG">
    <rect class="cls-3" y="0" width="50" height="32" rx="4" ry="4"/>
  </g>
  <g id="LOGOS">
    <g>
      <path class="cls-2" d="m26.63,14.64c.07-.04.12-.1.19-.13.1-.06.2-.11.3-.15.16-.06.33-.1.5-.12.04,0,.08,0,.13,0,.08,0,.16-.02.24-.01.06,0,.12,0,.18.01.09.01.18.01.28.03.13.03.25.06.37.1.15.05.28.12.41.2.11.08.22.18.31.28.09.1.16.21.22.32.03.06.06.12.09.18.04.08.07.16.09.24.03.08.05.16.06.25.02.11.04.22.05.33.03.21.04.41.04.62,0,.16,0,.33-.03.49-.01.1-.02.21-.04.31-.01.08-.03.17-.05.25-.03.14-.09.28-.14.42-.03.07-.07.14-.1.2-.07.13-.15.25-.25.35-.16.18-.36.31-.59.4-.15.06-.3.1-.46.13-.1.02-.19.03-.29.03-.14,0-.28,0-.42,0-.4-.04-.75-.19-1.04-.47,0,0-.01-.01-.02-.02,0,0-.01-.02-.02-.01-.01,0,0,.02,0,.02,0,.08,0,.17,0,.25,0,.11-.06.17-.17.18-.18,0-.36,0-.53,0-.11,0-.17-.08-.17-.17,0-2.09,0-4.19,0-6.28,0-.13.05-.19.19-.19.17,0,.33,0,.5,0,.12,0,.18.06.18.18,0,.58,0,1.16,0,1.74,0,.01,0,.03,0,.05Zm1.25,3.98c.14,0,.25,0,.36-.03.11-.02.22-.05.31-.1.15-.08.28-.19.37-.34.05-.07.09-.15.12-.23.11-.27.14-.54.16-.83,0-.05,0-.1,0-.15.01-.12,0-.25,0-.37,0-.07,0-.13,0-.2,0-.02.03-.03.01-.05-.03-.03-.02-.07-.02-.1-.01-.1-.03-.2-.05-.29-.03-.13-.08-.26-.14-.38-.12-.23-.29-.4-.53-.49-.12-.05-.24-.07-.36-.08-.22-.02-.44,0-.66.06-.15.04-.29.12-.4.23-.11.11-.19.24-.25.38-.03.08-.07.15-.08.24-.02.1-.04.19-.05.29-.01.09-.03.18-.03.27,0,.32-.02.63.03.94.02.13.04.27.08.4.04.13.09.24.16.36.04.07.1.12.15.17.12.13.27.2.43.25.14.04.28.06.4.05Z"/>
      <path class="cls-2" d="m34.64,16.73c0,.24,0,.53,0,.82,0,.1,0,.2-.02.29-.02.13-.04.26-.08.39-.05.16-.11.31-.21.44-.07.1-.15.18-.24.26-.08.07-.17.12-.26.17-.17.08-.34.13-.52.16-.18.03-.37.04-.55.03-.22,0-.44,0-.66,0-.11,0-.21-.02-.31-.04-.19-.03-.37-.08-.54-.16-.16-.08-.29-.18-.42-.31-.21-.21-.31-.47-.36-.76-.05-.29-.01-.58.1-.86.06-.13.13-.26.23-.36.17-.17.36-.3.58-.39.24-.09.49-.14.74-.15.44-.02.88,0,1.32,0,.08,0,.17,0,.25,0,.03,0,.05-.01.04-.05,0-.12,0-.24,0-.35,0-.19-.05-.37-.15-.53-.03-.05-.09-.1-.15-.13-.05-.03-.1-.07-.15-.09-.05-.02-.1-.04-.15-.05-.07-.03-.15-.03-.23-.05-.09-.02-.18-.02-.26-.02-.11,0-.22,0-.33,0-.12,0-.23.02-.35.05-.14.04-.27.1-.38.19-.07.06-.13.13-.19.2-.03.04-.06.09-.1.12-.08.06-.14.05-.21-.01-.13-.11-.26-.22-.39-.33-.02-.02-.04-.04-.05-.06-.03-.06-.04-.12.03-.19.07-.08.13-.16.21-.24.13-.11.25-.22.41-.3.08-.04.16-.07.25-.11.1-.04.2-.06.3-.08.11-.02.21-.04.32-.04.14,0,.28-.02.41-.01.18,0,.37,0,.55.04.07.01.14.02.21.04.14.04.27.08.4.14.13.06.26.13.37.22.13.11.24.24.33.39.07.12.11.24.15.37.05.18.07.35.07.54,0,.26,0,.52,0,.82Zm-.9.65c0-.12,0-.21,0-.3,0-.04,0-.05-.05-.05-.3,0-.61,0-.91,0-.2,0-.41,0-.61,0-.15.01-.29.04-.42.09-.14.06-.26.15-.33.29-.08.19-.09.38-.04.58.05.19.18.3.35.37.15.06.32.09.48.1.22.01.43.01.65-.02.25-.03.47-.12.66-.28.12-.1.16-.25.19-.39.03-.15.03-.3.03-.41Z"/>
      <path class="cls-2" d="m15.66,16.6c0,.31,0,.56,0,.81,0,.13,0,.26-.02.39,0,.07,0,.14-.02.21-.03.1-.05.2-.08.3-.08.2-.18.39-.34.54-.16.16-.35.26-.57.33-.18.06-.36.09-.55.1-.16.01-.31,0-.47,0-.21,0-.41,0-.62-.02-.23-.02-.45-.07-.67-.16-.13-.06-.25-.13-.36-.22-.08-.07-.14-.14-.21-.22-.15-.19-.23-.41-.28-.65-.03-.14-.02-.27-.01-.41,0-.08.02-.15.05-.23.02-.05.02-.11.04-.16.05-.13.11-.25.2-.36.05-.06.11-.1.16-.16.05-.06.13-.09.19-.15.03-.03.08-.04.12-.06.04-.02.09-.04.13-.07.02-.01.03,0,.05-.01.11-.04.21-.07.33-.09.09-.02.18-.03.26-.04.51-.05,1.02-.01,1.54-.02.06,0,.13,0,.19,0,.03,0,.04,0,.04-.04,0-.15,0-.3,0-.44-.02-.16-.05-.31-.15-.44-.12-.16-.29-.24-.48-.29-.2-.05-.41-.07-.62-.06-.2,0-.4.02-.59.08-.1.04-.2.09-.29.15-.12.08-.2.2-.29.31-.06.07-.13.09-.2.04-.1-.07-.18-.15-.27-.23-.05-.04-.1-.09-.15-.13-.08-.06-.09-.16-.04-.24.1-.14.22-.27.36-.38.27-.21.57-.32.9-.38.12-.02.24-.03.36-.04.16,0,.32-.01.48,0,.11,0,.22.01.33.03.18.02.36.07.53.13.17.06.33.15.48.27.09.07.17.15.24.24.08.1.15.22.19.34.04.11.07.21.09.32.01.07.02.14.02.21.02.32,0,.64,0,.9Zm-.9.72h0c0-.08,0-.16,0-.24,0-.06,0-.06-.06-.06-.49,0-.99-.01-1.48,0-.08,0-.16,0-.24.03-.09.02-.18.05-.27.09-.1.05-.19.13-.25.22-.06.1-.08.2-.09.31,0,.08,0,.16.02.24,0,.06.02.11.04.16.05.1.12.18.22.24.08.05.17.08.27.1.09.02.19.04.28.05.24.02.48.02.73-.02.11-.01.21-.05.31-.09.1-.04.18-.1.26-.16.08-.06.14-.14.18-.23.06-.12.07-.26.08-.4,0-.08,0-.17,0-.26Z"/>
      <path class="cls-2" d="m40.88,16.69s.1-.08.14-.12c.19-.19.37-.4.56-.59.1-.1.19-.21.29-.32.08-.09.17-.17.25-.26.13-.14.26-.29.4-.43.09-.09.17-.18.25-.27.13-.14.26-.27.39-.41.02-.02.04-.05.07-.08.04-.04.09-.05.14-.05.23,0,.45,0,.68,0,.08,0,.13.04.15.12.01.06-.02.1-.06.13-.13.14-.27.27-.4.42-.1.11-.21.22-.31.34-.09.1-.19.19-.28.3-.1.11-.21.22-.32.33-.11.12-.22.24-.34.35-.02.02-.02.05,0,.06.08.11.15.22.23.33.11.16.22.32.33.48.09.13.19.27.28.4.13.18.25.37.38.55.14.2.28.39.42.59.12.17.25.35.37.52.03.04.04.09.02.14-.03.05-.07.07-.13.07-.24,0-.47,0-.71,0-.05,0-.09-.02-.12-.07-.16-.24-.32-.47-.48-.71-.03-.04-.05-.09-.08-.12-.06-.08-.11-.16-.17-.24-.06-.09-.13-.19-.19-.29-.07-.11-.15-.22-.22-.33-.02-.03-.04-.08-.06-.1-.06-.06-.1-.14-.15-.21-.1-.14-.19-.28-.28-.42-.03-.04-.03-.04-.07,0-.14.15-.28.3-.42.45-.12.13-.24.26-.36.39-.06.07-.12.13-.18.2-.02.02-.02.04-.02.06,0,.4,0,.81,0,1.21,0,.12-.06.18-.18.18-.17,0-.34,0-.5,0-.13,0-.18-.06-.18-.19,0-2.06,0-4.12,0-6.18,0-.05-.01-.1,0-.16.02-.07.07-.12.14-.12.17-.01.33-.01.5,0,.02,0,.05,0,.07,0,.09,0,.16.07.16.16,0,1.28,0,2.56,0,3.83,0,.02,0,.04,0,.06Z"/>
      <path class="cls-2" d="m23,19.3c-.11.01-.24,0-.36-.01-.18-.01-.35-.04-.53-.08-.23-.06-.46-.13-.67-.24-.14-.08-.28-.16-.4-.27-.03-.02-.05-.04-.08-.06-.05-.03-.08-.08-.09-.13,0-.04.01-.09.04-.12.08-.09.15-.19.23-.28.03-.04.06-.08.1-.12.1-.11.19-.09.29,0,.07.06.13.11.2.16.11.09.23.15.36.21.12.05.25.08.37.11.05,0,.1,0,.14.03,0,0,.02,0,.03,0,.22,0,.44.01.66,0,.05,0,.1,0,.15-.01.06-.01.11-.03.17-.03.12-.02.23-.06.34-.12.1-.05.18-.11.25-.2.06-.08.1-.18.11-.28.01-.14.01-.28-.06-.41-.04-.06-.09-.11-.16-.15-.05-.03-.11-.06-.17-.08-.11-.02-.21-.05-.32-.06-.07,0-.15,0-.22-.02-.06,0-.12,0-.18-.01-.1-.03-.2-.02-.3-.03-.07,0-.14,0-.21-.02-.07-.01-.14-.02-.22-.03-.12-.01-.24-.04-.35-.07-.1-.03-.2-.06-.3-.11-.1-.05-.2-.11-.29-.18-.1-.08-.19-.17-.26-.27-.05-.07-.08-.15-.11-.23-.03-.08-.05-.16-.07-.24-.03-.15-.03-.3-.02-.45,0-.1.03-.19.06-.28.06-.15.13-.3.24-.42.11-.12.23-.23.37-.32.15-.09.3-.16.47-.21.13-.04.27-.07.4-.09.19-.03.39-.03.58-.02.2,0,.41.02.61.07.07.02.15.03.22.05.12.03.23.07.34.11.2.08.4.18.57.32.1.08.1.19.02.29-.07.08-.12.18-.18.26-.03.05-.06.1-.1.15-.06.06-.15.07-.23,0-.05-.04-.1-.07-.15-.11-.08-.06-.17-.1-.26-.14-.08-.04-.16-.06-.25-.09-.07-.03-.15-.04-.22-.05-.08-.01-.16-.03-.23-.03-.12,0-.24-.02-.37-.01-.1.01-.2.01-.29.03-.19.04-.37.1-.51.25-.06.06-.1.14-.12.22-.04.14-.05.28,0,.42.04.13.14.22.27.27.11.05.23.08.35.09.07,0,.14.02.21.02.09,0,.19.02.28.02.08,0,.16.01.24.02.12,0,.24.02.36.03.11,0,.23.03.34.05.13.02.25.06.37.11.14.05.27.12.39.22.12.1.22.21.29.35.05.1.08.2.11.31.03.12.03.24.03.36,0,.07.01.14,0,.21-.02.07-.03.15-.06.22-.04.1-.08.2-.14.3-.04.07-.09.13-.14.19-.12.14-.27.25-.42.33-.25.14-.53.23-.82.27-.21.03-.42.05-.65.04Z"/>
      <path class="cls-2" d="m19.55,17.61c0-.49,0-.98,0-1.47,0-.24-.04-.47-.15-.68-.06-.12-.15-.21-.25-.29-.11-.08-.22-.15-.36-.18-.08-.02-.17-.04-.25-.04-.08,0-.16-.02-.23-.01-.23.01-.45.05-.65.16-.15.09-.27.21-.36.37-.04.08-.08.16-.1.25-.02.08-.04.17-.04.25,0,.07,0,.14-.02.21,0,.02,0,.04,0,.07,0,.95,0,1.91,0,2.86,0,.11-.1.19-.18.18-.17,0-.34,0-.52,0-.08,0-.13-.03-.17-.1-.02-.03-.01-.06-.01-.1,0-.26,0-.52,0-.78,0-.75,0-1.49,0-2.24,0-.13,0-.25.03-.37.02-.15.06-.3.13-.44.07-.15.14-.29.24-.41.07-.1.16-.18.26-.26.07-.06.14-.11.23-.16.13-.07.26-.12.39-.17.18-.06.37-.1.55-.1.14,0,.29-.02.43,0,.06,0,.12,0,.18,0,.09,0,.17.02.26.04.18.04.36.1.52.19.14.07.27.16.38.27.13.12.24.26.33.41.07.13.12.27.16.41.01.05.03.11.04.16.01.08.03.15.03.23,0,.05.02.1.01.15,0,.05,0,.1,0,.15,0,.96,0,1.92,0,2.88,0,.03,0,.06,0,.09-.02.08-.08.13-.15.13-.18,0-.37,0-.55,0-.11,0-.17-.08-.17-.18,0-.5,0-1,0-1.5h0Z"/>
      <path class="cls-2" d="m38.53,17.65c0-.46,0-.92,0-1.38,0-.21-.02-.41-.08-.61-.09-.27-.26-.48-.52-.6-.14-.07-.3-.1-.45-.11-.15-.02-.29,0-.44.02-.14.02-.28.06-.41.13-.16.09-.27.21-.36.37-.05.09-.09.18-.11.27-.02.08-.03.16-.03.24-.02.34,0,.67,0,1.01,0,.68,0,1.36,0,2.04,0,.04.01.09,0,.13-.03.08-.09.13-.17.13-.18,0-.35,0-.53,0-.04,0-.08,0-.12-.03-.05-.03-.06-.08-.06-.14,0-.9,0-1.79,0-2.69,0-.11,0-.22,0-.32,0-.06,0-.12,0-.18,0-.07.02-.13.02-.2,0-.08.03-.16.05-.24,0-.03.02-.07.03-.1.02-.05.04-.1.06-.15.05-.12.11-.23.19-.33.13-.18.28-.32.46-.44.09-.06.18-.1.28-.14.16-.07.33-.11.51-.14.07-.01.14-.03.21-.03.13,0,.25-.01.38,0,.21.01.42.03.63.09.22.07.43.17.62.3.14.1.26.22.36.36.09.12.16.26.22.4.02.05.03.1.05.16.01.06.04.11.04.17,0,.08.03.16.03.24.02.25,0,.5,0,.75,0,.25,0,.5,0,.75,0,.58,0,1.16,0,1.74,0,.08-.08.17-.16.17-.18,0-.37,0-.55,0-.09,0-.16-.05-.16-.16,0-.49,0-.98,0-1.47Z"/>
      <path class="cls-2" d="m5.48,15.45c0-.88,0-1.76,0-2.64,0-.1.05-.14.13-.15.02,0,.05,0,.07,0,.16,0,.32,0,.48,0,.03,0,.06,0,.08.01.07.02.11.07.11.15,0,.44,0,.88,0,1.32,0,.04.01.05.05.05.28,0,.56,0,.84,0,.12,0,.18.07.18.17,0,.18,0,.36,0,.54,0,.12-.09.17-.18.17-.28,0-.57,0-.85,0-.03,0-.05,0-.05.04,0,.19,0,.38,0,.58,0,.73,0,1.46,0,2.19,0,.09,0,.18.04.27.04.13.13.22.27.26.06.02.13.03.19.03.13,0,.26,0,.39,0,.11,0,.18.06.18.18,0,.17,0,.35,0,.52,0,.1-.08.18-.19.18-.17,0-.35,0-.52,0-.26,0-.5-.07-.72-.22-.12-.08-.22-.18-.3-.29-.15-.22-.22-.46-.22-.72,0-.87,0-1.73,0-2.6h0Z"/>
      <path class="cls-2" d="m8.05,16.77c0-.78,0-1.56,0-2.34,0-.03,0-.06,0-.09,0-.02-.01-.05,0-.07.04-.04.08-.09.15-.09.19,0,.37,0,.56,0,.1,0,.15.06.15.17,0,.11.01.21,0,.32,0,.01,0,.02.01.03.01,0,.02,0,.02-.02.07-.08.13-.16.21-.23.09-.08.19-.14.3-.19.21-.09.43-.11.65-.09.12.01.25.03.36.08.12.05.24.1.34.18.13.09.24.2.35.32.02.02.04.05.06.07.04.05.05.16.01.21-.02.03-.05.06-.08.07-.08.05-.14.12-.21.17-.06.05-.11.12-.18.16-.06.04-.13.04-.19-.02-.07-.07-.13-.14-.2-.21-.03-.04-.08-.06-.12-.09-.1-.08-.21-.11-.34-.12-.08,0-.17,0-.25,0-.1,0-.2.04-.28.09-.15.08-.27.21-.35.36-.06.12-.1.24-.12.38-.02.1-.01.19-.01.29,0,1.01,0,2.02,0,3.02,0,.09-.09.17-.17.17-.16,0-.33,0-.5,0-.06,0-.11,0-.16-.05-.03-.03-.05-.07-.05-.12,0-.07,0-.14,0-.21,0-.71,0-1.43,0-2.14h0Z"/>
      <path class="cls-5" d="m45.47,19.31c-.3,0-.53-.23-.53-.53,0-.28.22-.55.54-.54.28,0,.52.24.52.52,0,.37-.3.55-.53.55Z"/>
      <path class="cls-1" d="m4.52,14.08c.28-.02.53.23.54.53,0,.25-.2.53-.53.53-.29,0-.52-.23-.53-.52,0-.3.23-.55.52-.54Z"/>
      <path class="cls-2" d="m38.54,12.84c0,.1,0,.2,0,.29,0,.02,0,.04,0,.06,0,.03-.02.03-.04.03-.02,0-.03-.02-.03-.04,0-.14,0-.28,0-.43,0-.02,0-.03.03-.03.07,0,.07,0,.09.06.03.1.07.19.09.29,0,.01,0,.03.02.03.03-.06.05-.13.07-.2.01-.05.03-.09.04-.14.02-.05.05-.06.1-.05.02,0,.02.02.02.03,0,.14,0,.28,0,.43,0,.02,0,.04-.02.04-.02,0-.04,0-.04-.03,0-.02,0-.04,0-.06,0-.09,0-.18,0-.27-.02.02-.03.04-.03.06-.02.07-.05.13-.06.2,0,.02-.02.05-.03.08,0,.03-.03.02-.05.02-.03,0-.03-.02-.04-.04-.03-.08-.06-.17-.08-.25,0-.03-.01-.05-.04-.09Z"/>
      <path class="cls-2" d="m39.22,12.96c0-.07,0-.14,0-.2,0-.02,0-.04.03-.04.08,0,.16,0,.24,0,.07,0,.13.08.11.16,0,.04-.04.06-.05.09-.01.03.04.05.04.09,0,.04-.01.09.02.13,0,0,0,.02-.01.03-.04.02-.08,0-.08-.05,0-.04,0-.07,0-.11,0-.03-.02-.04-.05-.05-.05,0-.1,0-.14,0-.02,0-.03,0-.03.03,0,.05,0,.09,0,.14,0,.03-.01.04-.04.04-.03,0-.04-.01-.04-.04,0-.07,0-.14,0-.21h0Zm.18-.18q-.1,0-.1.1s0,.02,0,.03c0,.02,0,.03.03.03.05,0,.1,0,.15,0,.05,0,.07-.03.07-.08,0-.04-.03-.07-.07-.08-.02,0-.05,0-.07,0Z"/>
      <path class="cls-2" d="m39.73,13.16s.02-.03.04-.03c.02,0,.04.02.04.04,0,.02-.02.03-.04.03-.02,0-.04-.02-.03-.05Z"/>
      <path class="cls-2" d="m39.13,13.19s-.02.02-.04.02c-.02,0-.04-.01-.04-.04,0-.02.01-.03.04-.03.02,0,.04.01.04.05Z"/>
      <path class="cls-4" d="m39.4,12.78s.05,0,.07,0c.04,0,.07.03.07.08,0,.04-.02.07-.07.08-.05,0-.1,0-.15,0-.02,0-.03,0-.03-.03,0-.01,0-.02,0-.03q0-.1.1-.1Z"/>
    </g>
  </g>
</svg>