<?xml version="1.0" encoding="utf-8"?>
<!-- Generator: Adobe Illustrator 26.0.3, SVG Export Plug-In . SVG Version: 6.00 Build 0)  -->
<svg version="1.0" id="katman_1" xmlns="http://www.w3.org/2000/svg" xmlns:xlink="http://www.w3.org/1999/xlink" x="0px" y="0px"
	 viewBox="0 0 600 450" style="enable-background:new 0 0 600 450;" xml:space="preserve">
<style type="text/css">
	.st0{fill:#010202;}
	.st1{fill:#FFFFFF;}
	.st2{fill:url(#SVGID_1_);}
	.st3{fill:url(#SVGID_00000095339762731348502830000002759618219642509214_);}
</style>
<g>
	<path class="st0" d="M520.7,311.4H79.6c-3.5,0-6.3-2.8-6.3-6.3V145.7c0-3.5,2.8-6.3,6.3-6.3h441c3.5,0,6.3,2.8,6.3,6.3v159.4
		C527,308.6,524.1,311.4,520.7,311.4z"/>
	<path class="st1" d="M215.6,256.2c0,1.7-1.2,3.7-2.6,4.5l-51.1,29.3c-1.4,0.9-3.8,0.9-5.2,0l-51.1-29.3c-1.4-0.9-2.6-2.8-2.6-4.5
		v-58.6c0-1.7,1.2-3.7,2.6-4.5l51.1-29.3c1.4-0.9,3.8-0.9,5.2,0L213,193c1.4,0.9,2.6,2.8,2.6,4.5V256.2z"/>
	<g transform="translate(57 20)">
		<path class="st1" d="M439.8,180.7h-45.9v10.7h16.4v45.9h13v-45.9h16.5V180.7z"/>
		<path class="st1" d="M231.4,180.7h-45.9v10.7h16.5v45.9h13v-45.9h16.4V180.7z"/>
		<path class="st1" d="M364.2,178.9c-14.4,0-22.5,9.1-22.5,22.1v36.3h12.8v-36.6c0-5.7,3.4-10.1,9.8-10.1c6.3,0,9.7,5.1,9.7,10.1
			v36.6h12.8V201C386.9,188,378.6,178.9,364.2,178.9z"/>
		<path class="st1" d="M315.7,180.7v56.6h12.9v-56.6H315.7z"/>
		<path class="st1" d="M272.1,203.2l0.5,2.5l12,31.6h5.3l16.4-56.6h-12.7l-7.9,29.7l-0.4,3.2l-0.6-3.2l-10.5-29.7h-4.1l-10.4,29.7
			l-0.6,3.2l-0.5-3.2l-7.8-29.7H238l16.4,56.6h5.3l12-31.6L272.1,203.2z"/>
	</g>
	<g transform="translate(14 20)">
		
			<radialGradient id="SVGID_1_" cx="0.8003" cy="416.8919" r="3.3563" gradientTransform="matrix(18.1159 0 0 -18.1159 124.3404 7736.5933)" gradientUnits="userSpaceOnUse">
			<stop  offset="0" style="stop-color:#FFCC03"/>
			<stop  offset="9.157000e-02" style="stop-color:#FEC704"/>
			<stop  offset="0.1739" style="stop-color:#FBBC0D"/>
			<stop  offset="0.2528" style="stop-color:#F8A913"/>
			<stop  offset="0.3295" style="stop-color:#F38F1A"/>
			<stop  offset="0.4046" style="stop-color:#EE701C"/>
			<stop  offset="0.4786" style="stop-color:#E84B1E"/>
			<stop  offset="0.5503" style="stop-color:#E52D1F"/>
			<stop  offset="0.5822" style="stop-color:#E52421"/>
			<stop  offset="1" style="stop-color:#E52421"/>
		</radialGradient>
		<path class="st2" d="M169,205.8l-13.1,18.7l-6.7-10l7.8-11.3c1.4-2,4.6-7.5,0.9-15.1c-2.9-6.1-9.2-9-14.7-9s-11.5,2.7-14.7,9
			c-3.6,7.2-0.5,12.9,0.9,14.8c0,0,4.3,6.2,7.9,11.3l5.9,8.2l8.8,13c0.1,0.1,1.5,2.1,3.9,2.1c2.4,0,3.8-2.1,4-2.3l20.6-29.6H169z
			 M143.2,206.2c0,0-3.5-5.1-5.7-8.6c-2.4-3.8,0.3-9.4,5.7-9.4c5.4,0,8.1,5.6,5.7,9.4C146.6,201.2,143.2,206.2,143.2,206.2z"/>
		
			<radialGradient id="SVGID_00000093152785025263479590000016514396569518603650_" cx="3.4651" cy="411.852" r="4.1348" gradientTransform="matrix(13.4836 0 0 -13.4837 55.4639 5740.8901)" gradientUnits="userSpaceOnUse">
			<stop  offset="0" style="stop-color:#00B4E6"/>
			<stop  offset="0.201" style="stop-color:#01B0E3"/>
			<stop  offset="0.3898" style="stop-color:#07A5DC"/>
			<stop  offset="0.5737" style="stop-color:#0092CE"/>
			<stop  offset="0.7546" style="stop-color:#0378BB"/>
			<stop  offset="0.9316" style="stop-color:#0756A1"/>
			<stop  offset="1" style="stop-color:#064794"/>
		</radialGradient>
		<path style="fill:url(#SVGID_00000093152785025263479590000016514396569518603650_);" d="M130.5,223.8l-12.9-17.6
			c0,0-3.5-5.1-5.7-8.6c-2.4-3.8,0.3-9.4,5.7-9.4c0.7,0,1.3,0.1,1.9,0.2l4.6-8.1c-2.1-0.8-4.3-1.3-6.4-1.3c-5.5,0-11.5,2.7-14.7,9
			c-3.6,7.2-0.5,12.9,0.9,14.8l22.6,32.5c0.2,0.3,1.6,2.4,4,2.4c2.4,0,3.8-2,4-2.3l6.8-10l-5.9-8.4L130.5,223.8z"/>
	</g>
</g>
</svg>
