<svg xmlns="http://www.w3.org/2000/svg" width="40" height="40" fill="none"><rect width="40" height="40" fill="#15b5e2" rx="6.667"></rect><path fill="#ffffff" d="M23.75 20c-.964 0-1.896-.43-2.625-1.211a4.68 4.68 0 0 1-1.219-2.86c-.081-1.154.27-2.215.991-2.988.72-.774 1.728-1.191 2.853-1.191 1.117 0 2.127.425 2.845 1.196.725.78 1.078 1.839.997 2.983-.078 1.083-.511 2.098-1.219 2.86-.727.78-1.659 1.211-2.623 1.211m6.18 8.25H17.57a1.3 1.3 0 0 1-1.03-.5 1.42 1.42 0 0 1-.247-1.21c.395-1.584 1.373-2.898 2.828-3.8 1.291-.8 2.935-1.24 4.629-1.24 1.727 0 3.328.422 4.627 1.221 1.458.897 2.438 2.219 2.83 3.823a1.42 1.42 0 0 1-.25 1.208 1.3 1.3 0 0 1-1.027.498m-15.04-8.062c-1.649 0-3.1-1.534-3.234-3.42-.066-.965.235-1.858.844-2.513.603-.648 1.453-1.005 2.39-1.005s1.782.36 2.388 1.011c.614.66.914 1.551.844 2.509-.135 1.884-1.585 3.418-3.231 3.418m3.078 1.474c-.824-.403-1.894-.605-3.077-.605-1.38 0-2.722.36-3.777 1.014-1.195.741-2 1.822-2.325 3.127a1.28 1.28 0 0 0 .225 1.095 1.19 1.19 0 0 0 .942.457h5.203a.375.375 0 0 0 .369-.308q.007-.045.019-.088c.397-1.597 1.329-2.946 2.705-3.93a.374.374 0 0 0-.03-.627 4 4 0 0 0-.254-.135"></path></svg>