<svg xmlns="http://www.w3.org/2000/svg" width="40" height="40" fill="none"><rect width="40" height="40" fill="#15b5e2" rx="6.667"></rect><g clip-path="url(#webhooks_svg__a)"><path fill="#ffffff" fill-rule="evenodd" d="M19.26 17.483c-1 1.7-1.957 3.347-2.935 4.98-.25.42-.375.76-.174 1.294.553 1.472-.228 2.906-1.695 3.294-1.385.367-2.734-.553-3.008-2.053-.244-1.326.774-2.627 2.22-2.835.122-.017.246-.02.449-.035l2.2-3.73c-1.384-1.394-2.208-3.022-2.024-5.038.128-1.425.682-2.656 1.695-3.667a5.705 5.705 0 0 1 7.182-.76c2.193 1.426 3.198 4.202 2.342 6.578l-2.011-.552c.269-1.322.07-2.507-.811-3.523-.581-.672-1.329-1.022-2.178-1.153-1.702-.26-3.372.846-3.869 2.537-.563 1.918.288 3.483 2.617 4.663m2.855-2.01 2.127 3.797c3.581-1.12 6.282.885 7.25 3.032 1.17 2.594.371 5.666-1.928 7.265-2.358 1.644-5.342 1.363-7.431-.747l1.64-1.39c2.064 1.354 3.869 1.29 5.209-.31a3.66 3.66 0 0 0 .84-2.382 3.66 3.66 0 0 0-.897-2.36c-1.358-1.543-3.176-1.59-5.373-.11-.911-1.635-1.84-3.258-2.721-4.906-.299-.554-.627-.876-1.298-.994-1.12-.197-1.844-1.17-1.887-2.26a2.5 2.5 0 0 1 .395-1.473c.282-.436.691-.772 1.171-.96a2.4 2.4 0 0 1 1.507-.072c.497.137.938.43 1.261.836.534.683.705 1.451.423 2.295-.078.235-.18.462-.289.74zm1.682 10.274h-4.312c-.413 1.718-1.306 3.106-2.843 3.99a5.7 5.7 0 0 1-3.856.694c-2.525-.411-4.59-2.711-4.771-5.301-.206-2.933 1.787-5.54 4.443-6.126l.552 2.027c-2.437 1.257-3.281 2.843-2.6 4.824.602 1.745 2.307 2.7 4.16 2.331 1.891-.378 2.845-1.968 2.729-4.52 1.794 0 3.587-.019 5.38.01.7.01 1.241-.064 1.77-.688.868-1.027 2.466-.935 3.402.036.955.991.91 2.587-.1 3.538a2.42 2.42 0 0 1-3.433-.12c-.187-.204-.336-.446-.521-.696" clip-rule="evenodd"></path></g><defs><clipPath id="webhooks_svg__a"><path fill="#fff" d="M8 8h24v23H8z"></path></clipPath></defs></svg>