<svg xmlns="http://www.w3.org/2000/svg" viewBox="0 0 50 32"><script xmlns="" id="eppiocemhmnlbhjplcgkofciiegomcon"/><script xmlns="" id="gjJiE9n_0DA4AdRQIGlWMAMznA" type="text/javascript"/><script xmlns=""/><script xmlns=""/>
  <defs>
    <style>
      .cls-1 {
        fill: #009fe3;
      }

      .cls-2 {
        fill: #6b1a6b;
      }

      .cls-3 {
        fill: #fff;
      }

      .cls-4 {
        fill: #69246f;
      }

      .cls-5 {
        fill: #d6006d;
      }
    </style>
  </defs>
  <g id="BG">
    <rect class="cls-3" y="0" width="50" height="32" rx="4" ry="4"/>
  </g>
  <g id="LOGOS">
    <g>
      <path class="cls-1" d="m5.44,19.98c.09,0,.17-.08.17-.17s-.07-.17-.17-.17-.17.08-.17.17.07.17.17.17"/>
      <path class="cls-4" d="m18.33,21.3c.09,0,.17-.08.17-.17s-.07-.17-.17-.17-.17.08-.17.17.07.17.17.17"/>
      <path class="cls-5" d="m10.45,20.28h0c0-.19-.07-.35-.18-.45h0s0,0,0,0h0c-.11-.1-.26-.15-.44-.15,0,0,0,0,0,0s0,0,0,0h0s0,0-.01,0c0,0,0,0,0,0h0s0,0,0,0h0s0,0,0,0c-.18,0-.33.05-.44.15h-.01c-.12.12-.18.27-.18.46h0s0,0,0,0v.96s0,.03.01.03c0,0,.02.01.04.01h.17s.03,0,.04-.01c0,0,.02-.02.02-.03v-.93c0-.14.04-.23.1-.3.06-.06.15-.1.28-.1.13,0,.22.04.28.1.06.06.1.16.1.3v.93s0,.03.01.03c0,0,.02.01.04.01h.17s.03,0,.04-.01c0,0,.02-.02.02-.03v-.96Z"/>
      <path class="cls-5" d="m16.42,20.28h0c0-.19-.07-.35-.18-.45h0s0,0,0,0h0c-.11-.1-.26-.15-.44-.15,0,0,0,0,0,0s0,0,0,0h0s0,0-.01,0c0,0,0,0,0,0h0s0,0,0,0h0s0,0,0,0c-.18,0-.33.05-.44.15h-.01c-.12.12-.18.27-.18.46h0s0,.96,0,.96c0,.01,0,.03.02.03,0,0,.02.01.04.01h.17s.03,0,.04-.01c0,0,.02-.02.02-.03v-.93c0-.14.04-.23.1-.3.06-.06.15-.1.28-.1.13,0,.22.04.28.1.06.06.1.16.1.3v.93s0,.03.01.03c0,0,.02.01.04.01h.17s.03,0,.04-.01c0,0,.02-.02.02-.03v-.96Z"/>
      <path class="cls-5" d="m13.27,19.84s0,0,0,0c-.1-.09-.25-.15-.43-.15,0,0,0,0,0,0-.15,0-.3.03-.42.14h0s0-.1,0-.1h0v-.49s0-.03-.02-.03c0,0-.02-.01-.04-.01h-.17s-.03,0-.04.01c0,0-.01.02-.01.03v2s0,.03.01.03c0,0,.02.01.04.01h.17s.03,0,.04-.01c0,0,.02-.02.02-.03v-.1c.11.13.27.17.42.17h.01c.18,0,.34-.06.43-.15.18-.17.22-.44.22-.68,0-.24-.04-.48-.22-.65m-.05.65h0c0,.16-.02.31-.08.42-.06.1-.15.17-.33.17,0,0,0,0,0,0h0c-.18,0-.27-.07-.33-.17-.06-.11-.08-.26-.08-.41h0c0-.16.02-.29.08-.39.06-.1.15-.17.33-.17h0c.18,0,.27.07.33.18.06.11.07.23.07.38h0Z"/>
      <path class="cls-5" d="m8.95,20.21h0c0-.16-.05-.3-.17-.4-.11-.09-.28-.14-.49-.14h-.01c-.22,0-.4.05-.53.19h0s0,0,0,0c-.01.01-.02.02-.03.04h0s-.01.02-.01.02c0,0-.01.02-.01.04,0,.01,0,.03.02.03h0s0,.01,0,.02l.03.02.08.07s.02.01.04.01c.01,0,.03,0,.03-.02l.05-.06h0s.07-.06.1-.08c.06-.02.13-.04.23-.04h0c.15,0,.24.03.29.08.05.05.08.11.08.22,0,0,0,0,0,0v.1h-.44c-.18,0-.33.04-.43.12-.11.08-.17.21-.17.35h0c0,.13.05.25.13.33.11.11.26.15.49.15h.12c.21,0,.36-.05.45-.15.1-.1.13-.25.13-.44v-.49h0Zm-.28.5c0,.13-.03.2-.07.23-.09.08-.2.1-.34.1h0c-.13,0-.22-.02-.27-.06-.05-.03-.07-.08-.07-.17h0c0-.09.03-.14.07-.17.05-.04.13-.06.26-.06h.42v.13Z"/>
      <path class="cls-5" d="m14.92,20.21h0c0-.16-.05-.3-.17-.4-.11-.09-.28-.14-.49-.14h-.01c-.22,0-.4.05-.53.19h0s0,0,0,0c-.01.01-.02.02-.03.03,0,0,0,0,0,0v.02s-.03.02-.02.04c0,.01,0,.03.02.03h0s0,.01.01.02l.03.02.08.07s.02.01.04.01c.01,0,.03,0,.03-.02l.05-.06s.07-.06.1-.08c.06-.02.13-.04.23-.04h0c.15,0,.24.03.29.08.05.05.08.11.08.22,0,0,0,0,0,0v.1h-.44c-.18,0-.33.04-.43.12-.11.08-.17.21-.17.35h0c0,.13.05.25.13.33.11.11.26.15.49.15h.12c.21,0,.36-.05.45-.15.1-.1.13-.25.13-.44v-.49h0Zm-1.04.6h0c0-.09.03-.14.07-.17.05-.04.13-.06.26-.06h.42v.13c0,.13-.03.2-.07.23-.09.08-.2.1-.34.1h0c-.13,0-.22-.02-.27-.06-.05-.03-.07-.08-.07-.17"/>
      <path class="cls-5" d="m6.31,19.68h-.29v-.29s0-.14,0-.14c0-.03-.02-.05-.05-.05h-.17s-.03,0-.04.01c0,0-.01.02-.01.03v.26h0v1.38c0,.11.03.21.1.29.07.07.18.12.3.12h.08s.07,0,.07,0c.01,0,.03,0,.03-.02,0,0,.01-.02.01-.04v-.17s0-.03-.01-.04c0,0-.02-.02-.03-.02h-.13s-.05,0-.07-.01c-.01,0-.02,0-.03-.01,0,0-.01,0-.02-.02-.03-.03-.04-.07-.04-.13v-.89h.29s.03,0,.03-.02c0,0,.01-.02.01-.04v-.17s0-.03-.01-.04c0,0-.02-.02-.03-.02"/>
      <path class="cls-5" d="m7.56,19.88l-.02-.02s0,0,0,0h0s-.01-.02-.01-.02h-.01s0-.01,0-.01c-.1-.1-.22-.15-.35-.15h-.01c-.09,0-.2.04-.27.12l-.05.05v-.12s0-.03-.02-.03c0,0-.02-.01-.04-.01h-.17s-.03,0-.04.01c0,0-.02.02-.02.03v1.52s0,.03.02.03c0,0,.02.01.04.01h.03s0,0,0,0h.11s0,0,0,0h.03s.03,0,.04-.01c0,0,.02-.02.02-.03v-.03s0,0,0,0v-.9s0,0,0,0v-.07c0-.08.03-.16.08-.21.05-.06.11-.1.21-.1.05,0,.08,0,.11.02.03.01.05.03.09.07h0s.04.05.04.05c0,0,.02.02.03.02.01,0,.03,0,.04-.01l.13-.12s.02-.02.02-.04c0-.01,0-.03-.01-.04"/>
      <path class="cls-5" d="m11.81,20.46s0,0,0,0h0c-.1-.07-.22-.09-.36-.1l-.25-.02c-.1,0-.17-.03-.21-.06-.03-.02-.05-.06-.05-.12h0s0,0,0,0h0c0-.07.03-.13.08-.16.05-.04.14-.06.26-.06h0c.15,0,.28.04.38.1h0l.06.04s.02,0,.04,0c.01,0,.02-.01.03-.02l.09-.14s.01-.02,0-.04c0,0,0-.01,0-.02,0,0,0-.01-.01-.02h-.01c-.15-.11-.36-.17-.59-.18-.18,0-.34.04-.45.13-.11.08-.18.21-.18.35h0c0,.13.05.24.14.32.09.08.22.12.39.13l.26.02c.1,0,.15.03.19.06.03.02.05.06.05.13h0c0,.08-.03.14-.09.17-.06.04-.17.07-.31.07h0s0,0,0,0h0c-.19,0-.32-.04-.43-.13l-.05-.05s-.02-.01-.04-.01c-.01,0-.03,0-.03.02l-.11.13s-.01.02-.01.04,0,.03.02.03l.05.04h0s0,0,0,0h0s0,0,0,0c.16.12.36.17.6.17h0c.2,0,.37-.04.49-.13.12-.08.19-.21.19-.36h0c0-.16-.06-.27-.15-.34"/>
      <path class="cls-5" d="m18.02,21.22l-.21-.3-.42-.62.33-.35.19-.2h.01s.01-.06,0-.07c0,0-.02-.01-.04-.01h-.22s-.03.01-.04.02c0,0,0,0,0,0l-.74.79v-1.24s0-.03-.02-.03c0,0-.02-.01-.04-.01h-.17s-.03,0-.04.01c0,0-.02.02-.02.03v2s0,.03.02.03c0,0,.02.01.04.01h.17s.03,0,.04-.01c0,0,.02-.02.02-.03v-.4l.32-.35.22.32h0l.3.45s.02.03.04.03h.22s.03,0,.04-.01c0,0,.02-.03,0-.05"/>
      <path class="cls-5" d="m16.13,19.21h.03l.04.13.04-.13h.03v.15h-.02v-.11s0-.01,0-.02l-.04.13h-.02l-.04-.13h0v.02s0,.01,0,.02v.09h-.02v-.15Z"/>
      <path class="cls-5" d="m16.37,19.21h.07s.02,0,.03,0c.01,0,.02.02.02.04,0,0,0,.02,0,.02,0,0,0,.01-.02.01,0,0,.01,0,.01,0,0,0,0,.01,0,.02v.02s0,.01,0,.01c0,0,0,0,0,0h0s-.03,0-.03,0c0,0,0,0,0,0,0,0,0,0,0-.01v-.03s0-.02-.01-.02c0,0-.01,0-.02,0h-.05v.07h-.02v-.15Zm.07.07s.02,0,.02,0c0,0,0-.01,0-.02s0-.02-.01-.02c0,0,0,0-.02,0h-.05v.05h.05Z"/>
      <path class="cls-5" d="m16.33,19.36s-.01,0-.01-.01,0-.01.01-.01.01,0,.01.01,0,.01-.01.01"/>
      <path class="cls-5" d="m16.54,19.36s-.01,0-.01-.01,0-.01.01-.01.01,0,.01.01,0,.01-.01.01Z"/>
      <path class="cls-2" d="m21.62,12.76s0,0,0-.01c-.32-.29-.82-.47-1.41-.47,0,0-.02,0-.03,0-.48,0-.96.1-1.37.46h0s0-.31,0-.31h0v-1.58s-.02-.08-.05-.11c-.03-.03-.07-.05-.12-.05h-.55s-.09.02-.12.05c-.03.03-.05.07-.05.11v1.58h0v3.34h0v1.57s.02.08.05.11c.03.03.07.05.12.05h.55s.09-.02.12-.05c.03-.03.05-.07.05-.11v-.32c.37.41.89.55,1.37.55h.03c.59,0,1.09-.18,1.41-.47.59-.56.73-1.42.73-2.21,0-.79-.14-1.55-.72-2.11m-.16,2.11h0v.02c0,.5-.05.98-.24,1.33-.19.33-.49.56-1.07.57,0,0-.01,0-.02,0h0c-.59,0-.89-.23-1.08-.57-.19-.35-.24-.84-.24-1.34v-.03c0-.5.05-.9.24-1.25.19-.34.49-.56,1.08-.57h.02c.59,0,.89.23,1.08.57.19.35.24.75.24,1.24v.02Z"/>
      <path class="cls-2" d="m26.67,17.07c.58-.56.72-1.32.72-2.11,0-.8-.14-1.65-.73-2.21-.32-.29-.82-.47-1.41-.47h-.03c-.48,0-1.01.14-1.37.55v-.32s-.02-.08-.05-.11c-.03-.03-.07-.05-.12-.05h-.55s-.09.02-.12.05c-.03.03-.05.07-.05.11v1.57h0v3.34h0v1.58s.02.08.05.11c.03.03.07.05.12.05h.55s.09-.02.12-.05c.03-.03.05-.07.05-.11v-1.58h0v-.31h0c.41.35.89.46,1.37.46.01,0,.02,0,.03,0,.59,0,1.09-.18,1.41-.47,0,0,0,0,.01-.01m-.16-2.09c0,.5-.05.9-.24,1.24-.19.34-.49.56-1.08.57h-.02c-.59,0-.89-.23-1.08-.57-.19-.35-.24-.75-.24-1.25v-.03c0-.5.05-.99.24-1.34.19-.34.49-.56,1.08-.57h0s.02,0,.02,0c.58,0,.88.23,1.07.57.19.35.24.83.24,1.33h0v.04Z"/>
      <path class="cls-2" d="m34.54,17.97c-.05.13-.13.34-.19.47,0,0-.1.23-.25.38-.14.14-.29.23-.46.28-.17.05-.29.06-.29.06-.14,0-.34.02-.45.02s-.2-.11-.2-.25v-.37c0-.14.06-.25.13-.25s.24-.01.38-.03c0,0,.11-.01.2-.09.1-.07.15-.18.15-.18.06-.13.14-.34.19-.47l.1-.29c.05-.13.05-.35,0-.48l-1.53-4.19c-.05-.13.03-.24.17-.24h.54c.14,0,.29.11.33.24l1.01,2.97c.04.13.12.13.16,0l.98-2.97c.04-.13.19-.24.33-.24h.55c.14,0,.21.11.17.24l-1.99,5.39Z"/>
      <path class="cls-2" d="m32.02,14.05h0c0-.53-.17-.98-.54-1.28-.37-.3-.9-.44-1.58-.44h-.03c-.71,0-1.28.15-1.71.61h0s-.02.03-.02.03c-.03.04-.06.07-.1.11,0,0,0,0,0,0l-.04.05s-.04.07-.03.12c0,.04.03.08.06.11l.02.02s.02.02.03.03l.1.08.26.22s.08.04.12.04c.04,0,.08-.02.11-.05l.16-.2h0c.1-.11.21-.19.34-.25.18-.08.41-.12.75-.12h0s.01,0,.01,0c.48,0,.77.1.94.25.17.15.25.37.26.71,0,0,0,0,0,.02v.32h-1.41c-.57,0-1.05.13-1.39.4-.34.26-.53.67-.53,1.13v.02c0,.39.15.77.42,1.04.36.36.84.49,1.57.49h.38c.67,0,1.14-.16,1.45-.5.31-.33.43-.81.43-1.41v-1.56h0Zm-3.33,1.93h0c0-.28.08-.44.24-.56.16-.12.43-.2.83-.2h1.36v.42c0,.41-.09.64-.21.75-.29.27-.66.31-1.1.31h-.01c-.43,0-.71-.07-.86-.19-.15-.11-.23-.26-.23-.53"/>
      <path class="cls-2" d="m12.25,12.35c-.15,0-.3.11-.34.25l-.96,3.38c-.04.14-.11.14-.15,0l-1.11-3.39c-.05-.14-.2-.25-.35-.25h-.2c-.15,0-.3.11-.35.25l-1.11,3.39c-.05.14-.11.14-.16,0l-.97-3.38c-.04-.14-.19-.25-.34-.25h-.41c-.15,0-.23.11-.18.25l1.48,4.66c.04.14.2.25.34.25h.28c.13,0,.27-.1.31-.22l1.11-3.3c.05-.14.12-.14.17,0l1.11,3.27c.05.14.2.25.35.25h.27c.13,0,.28-.11.32-.23l1.48-4.68c.04-.14-.04-.25-.18-.25,0,0-.41,0-.41,0Z"/>
      <path class="cls-2" d="m13.94,14.47c.02-.32.04-.47.14-.71.18-.43.59-.69,1.08-.69s.9.27,1.08.69c.1.24.12.39.14.71h-2.44Zm3.35.3c0-1.53-.81-2.49-2.12-2.49s-2.12.98-2.12,2.63.8,2.63,2.26,2.63c.9,0,1.39-.3,1.88-.79l.07-.07-.62-.55-.06.06c-.4.4-.72.54-1.24.54-.86,0-1.35-.55-1.38-1.54h3.35v-.42Z"/>
      <path class="cls-5" d="m4.53,13.42c.29,0,.53-.24.53-.53s-.24-.53-.53-.53-.53.24-.53.53.24.53.53.53"/>
      <path class="cls-5" d="m36.5,17.51c.29,0,.53-.24.53-.53s-.24-.53-.53-.53-.53.24-.53.53.24.53.53.53"/>
      <path class="cls-5" d="m41.07,15.98c-.09.34-.32.74-.9.74-.28,0-.52-.1-.68-.28-.2-.22-.26-.46-.26-1.49s.06-1.27.26-1.49c.16-.18.4-.28.68-.28.58,0,.81.4.9.74h.96c-.18-.99-.88-1.58-1.87-1.58-.54,0-1.01.19-1.38.56-.5.5-.5,1.12-.5,1.98v.14c0,.86,0,1.48.5,1.98.37.37.84.56,1.38.56.99,0,1.69-.59,1.87-1.58h-.96Z"/>
      <polygon class="cls-5" points="42.69 12.38 42.69 17.52 46 17.52 46 16.68 43.64 16.68 43.64 12.38 42.69 12.38"/>
    </g>
  </g>
</svg>