<svg class="LocalPaymentMethodsPricingCardHeader__logo" xmlns="http://www.w3.org/2000/svg" width="40" height="40" viewBox="0 0 40 40" fill="none"><path fill="#F0F5F7" d="M0 0h40v40H0z"></path><path fill="#1AAD19" d="M15.8878 22.8679c-.1395.0693-.2942.1042-.4506.1016-.3631.0008-.6967-.195-.8669-.5086l-.0695-.1356-2.7391-5.8324c-.0283-.0641-.0402-.1339-.0348-.2035-.0032-.1269.0469-.2495.1386-.3392.0918-.0897.2171-.1387.3468-.1355.1121.0025.2208.0379.312.1016l3.2249 2.238c.2511.1495.5382.2314.8321.2375.1784-.0009.355-.0354.5201-.1016l15.1197-6.5785c-2.7408-3.15373-7.2136-5.18826-12.2416-5.18826C11.6922 6.52344 5 11.9828 5 18.7309c0 3.6624 2.01126 6.9856 5.1666 9.2249.3703.231.5169.689.3474 1.0852-.2428.9157-.65874 2.4088-.65874 2.4755-.04291.1201-.06635.2459-.06947.3731-.0028.1264.04741.2485.13896.3379.09155.0893.21645.1382.34575.1352.1024.0027.2019-.0337.2773-.1016l3.2596-1.8656c.2406-.1446.5151-.2264.7973-.2375.1524.006.3035.0288.4507.068 1.5882.4532 3.2346.682 4.889.6794 8.2525 0 14.9795-5.4594 14.9795-12.2075-.0135-2.0059-.6021-3.9679-1.699-5.6629L15.992 22.8003l-.1042.0676Z"></path></svg>