<svg xmlns="http://www.w3.org/2000/svg" width="40" height="40" viewBox="0 0 40 40" fill="none"><script xmlns="" id="eppiocemhmnlbhjplcgkofciiegomcon"/><script xmlns="" id="E3A2N7V2-qRlqxkmFQDNwyKDg0" type="text/javascript"/><script xmlns=""/><script xmlns=""/>
<path fill-rule="evenodd" clip-rule="evenodd" d="M0.314646 10.2623C0.865277 8.94472 2.24185 8.00078 3.67743 8.00078C14.5131 8.00078 25.3487 8.00078 36.204 8.00078C37.1479 7.98111 38.0918 8.33509 38.7801 8.96438C39.5667 9.67234 40.019 10.7343 39.9994 11.7962C39.9994 15.9456 39.9994 20.095 39.9994 24.264C39.9797 26.1323 38.3475 27.8235 36.4793 27.8628C32.5265 27.8825 28.5738 27.8628 24.6211 27.8628C25.152 29.1804 25.683 30.4783 26.2139 31.7959C23.8541 30.498 21.5336 29.1607 19.1541 27.8825C13.9624 27.8431 8.75109 27.8825 3.53977 27.8628C1.67156 27.8038 0.0393308 26.1323 0.0196654 24.264C0 20.1933 0.0196654 16.1226 0 12.0715C0 11.4619 0.0589962 10.8326 0.314646 10.2623Z" fill="#945C87"/>
<path fill-rule="evenodd" clip-rule="evenodd" d="M16.2046 10.5575C16.7946 9.92823 17.9352 10.1249 18.3875 10.8525C18.6235 11.2261 18.6431 11.7374 18.4465 12.1308C17.6205 13.7826 17.2665 15.6115 16.9519 17.4011C16.5783 19.7413 16.2636 22.1208 16.3816 24.5003C16.4209 25.1099 16.126 25.8375 15.477 25.9949C14.8674 26.1325 14.2971 25.7195 13.9038 25.2869C12.1339 23.3794 11.1309 20.9212 10.4033 18.463C9.67571 19.8986 8.94809 21.3538 8.24014 22.7894C7.74851 23.7727 7.21754 24.7756 6.43093 25.5622C6.09662 25.8965 5.52632 26.1915 5.09368 25.8572C4.44472 25.2869 4.2874 24.3823 4.01209 23.6153C2.96982 20.0166 2.37986 16.2998 1.77024 12.6027C1.63258 11.9931 1.88823 11.2458 2.49785 11.0098C2.98949 10.8328 3.63845 10.7935 4.05142 11.1672C4.3464 11.4228 4.42506 11.8358 4.48406 12.2094C4.91669 15.0806 5.40833 17.932 6.11628 20.7442C7.2962 18.5023 8.47612 16.2605 9.65605 13.999C9.83303 13.6647 10.0494 13.3303 10.364 13.1337C10.7966 12.8584 11.4259 12.878 11.7996 13.2713C12.0946 13.586 12.2125 14.0383 12.2912 14.4513C12.6452 16.2998 13.1172 18.1484 13.8054 19.8986C14.1004 17.2438 14.4741 14.5496 15.4377 12.0521C15.654 11.5211 15.8506 10.9902 16.2046 10.5575ZM22.8712 11.9931C24.1494 11.8358 25.526 12.2684 26.3913 13.232C27.0992 14.0383 27.4925 15.0806 27.6302 16.1228C27.8465 17.9124 27.5122 19.8003 26.6469 21.3932C26.1553 22.2978 25.526 23.1827 24.6214 23.7137C23.3038 24.5199 21.5339 24.4216 20.2557 23.576C19.2331 22.8681 18.6628 21.6881 18.4268 20.5082C17.9548 17.8141 18.7611 14.8249 20.7866 12.9567C21.3766 12.4257 22.1042 12.0914 22.8712 11.9931ZM23.1268 14.7463C22.5172 14.9429 22.1239 15.5132 21.7896 16.0245C20.9636 17.3617 20.7276 19.112 21.3963 20.5475C21.5733 20.9212 21.8486 21.3342 22.3009 21.4128C22.7728 21.4915 23.2055 21.2162 23.5398 20.9212C24.2871 20.2722 24.6607 19.3086 24.8574 18.345C25.054 17.2634 24.9557 16.0638 24.3264 15.1199C24.0708 14.7659 23.5595 14.6086 23.1268 14.7463ZM33.0775 11.9931C34.3164 11.8358 35.6733 12.2291 36.5386 13.1534C37.3252 13.999 37.7382 15.1199 37.8562 16.2605C38.0332 17.991 37.7185 19.8003 36.8926 21.3342C36.4009 22.2584 35.752 23.163 34.8081 23.7137C33.5495 24.4806 31.8582 24.402 30.5997 23.6547C29.754 23.1434 29.1838 22.2781 28.8494 21.3538C27.9645 18.5417 28.7118 15.2379 30.757 13.114C31.4256 12.5241 32.2319 12.0914 33.0775 11.9931ZM33.3528 14.7463C32.6842 14.9822 32.2909 15.6312 31.9369 16.2015C31.1896 17.5191 30.993 19.23 31.6813 20.6262C31.8582 21.0195 32.1926 21.3932 32.6449 21.4128C33.1365 21.4325 33.5691 21.1178 33.9231 20.7835C34.6901 20.0362 35.0244 18.9743 35.1424 17.932C35.2604 16.9684 35.103 15.9262 34.5327 15.1002C34.2967 14.7659 33.7854 14.6086 33.3528 14.7463Z" fill="white"/>
</svg>