 <svg xmlns="http://www.w3.org/2000/svg" width="50" height="50" fill="none">
    <rect width="50" height="50" fill="#945C87" rx="10"></rect>
    <path fill="#fff" fillRule="evenodd" d="M9.247 17.776C9.679 16.742 10.76 16 11.887 16H37.42a2.94 2.94 0 0 1 2.022.756c.618.556.973 1.39.958 2.223v9.787c-.016 1.467-1.297 2.794-2.764 2.825-3.103.016-6.206 0-9.309 0 .417 1.035.834 2.053 1.25 3.088-1.852-1.02-3.673-2.069-5.541-3.072-4.076-.031-8.166 0-12.257-.016-1.467-.046-2.748-1.358-2.764-2.825-.015-3.195 0-6.39-.015-9.57 0-.48.046-.973.247-1.421" clipRule="evenodd"></path>
    <path fill="#945C87" fillRule="evenodd" d="M21.72 18.008c.464-.494 1.36-.34 1.714.231.185.293.2.695.046 1.003-.648 1.297-.926 2.733-1.173 4.138-.293 1.837-.54 3.705-.447 5.573.03.478-.201 1.05-.71 1.173-.48.108-.927-.216-1.236-.556-1.389-1.497-2.176-3.427-2.747-5.357a347 347 0 0 0-1.699 3.397c-.386.771-.802 1.559-1.42 2.176-.262.263-.71.494-1.05.232-.509-.448-.632-1.158-.848-1.76-.819-2.825-1.282-5.743-1.76-8.645-.109-.479.092-1.065.57-1.25.387-.14.896-.17 1.22.123.232.2.294.525.34.818.34 2.254.726 4.493 1.281 6.7.926-1.76 1.853-3.52 2.779-5.295.139-.262.309-.525.556-.68.34-.215.833-.2 1.127.109.231.247.324.602.386.926.277 1.451.648 2.902 1.188 4.276.232-2.084.525-4.199 1.282-6.16.17-.416.324-.833.602-1.172m5.234 1.127c1.003-.124 2.084.216 2.763.972.556.633.865 1.451.973 2.27.17 1.404-.093 2.886-.772 4.137-.386.71-.88 1.404-1.59 1.821-1.034.633-2.424.556-3.427-.108-.803-.556-1.25-1.482-1.436-2.408-.37-2.115.262-4.462 1.852-5.928a3.02 3.02 0 0 1 1.637-.756m.2 2.16c-.478.155-.787.603-1.05 1.004-.648 1.05-.833 2.424-.308 3.55.139.294.355.618.71.68.37.062.71-.154.973-.386.586-.51.88-1.266 1.034-2.022.154-.85.077-1.791-.417-2.532-.2-.278-.602-.401-.942-.293m7.812-2.16c.972-.124 2.038.185 2.717.91.617.664.941 1.544 1.034 2.44.139 1.358-.108 2.778-.756 3.982-.386.726-.896 1.436-1.637 1.868-.988.602-2.315.54-3.303-.046-.664-.402-1.112-1.08-1.374-1.806-.695-2.208-.108-4.801 1.497-6.469.525-.463 1.158-.802 1.822-.88m.216 2.16c-.525.186-.834.695-1.112 1.143-.586 1.034-.74 2.377-.2 3.473.139.31.401.602.756.618.386.015.726-.232 1.004-.494.602-.587.864-1.42.957-2.238.092-.757-.031-1.575-.479-2.223-.185-.263-.586-.386-.926-.278" clipRule="evenodd"></path>
  </svg>