<?xml version="1.0" encoding="utf-8"?>
<!-- Generator: Adobe Illustrator 25.0.1, SVG Export Plug-In . SVG Version: 6.00 Build 0)  -->
<svg version="1.0" id="Layer_1" xmlns="http://www.w3.org/2000/svg" xmlns:xlink="http://www.w3.org/1999/xlink" x="0px" y="0px"
	 viewBox="0 0 264 172" style="enable-background:new 0 0 264 172;" xml:space="preserve">
<style type="text/css">
	.st0{fill:#F15B41;}
	.st1{fill:#F99D1D;}
	.st2{fill:#272560;}
	.st3{fill:#00B6BD;}
	.st4{fill:none;}
</style>
<g id="Logo_medium_primary-zip">
	<g id="Logo_item_zip_no-divider">
		<g id="Asset-1">
			<g id="Logo_icon_colour-primary">
				<path id="Shape" class="st0" d="M106.2,77.6l-14.5,13H55.8c-3.3,0-6.6,1.2-9.1,3.4l18.1-16.2l0.3-0.2l22.7-20.4
					c5.5-5.2,14.2-4.9,19.4,0.6c5.2,5.5,4.9,14.2-0.6,19.4C106.5,77.4,106.3,77.5,106.2,77.6L106.2,77.6z"/>
				<ellipse id="Oval" class="st1" cx="55.8" cy="67.4" rx="13.8" ry="13.7"/>
				<path id="Shape-2" class="st2" d="M55.8,90.7c-3.3,0-6.6,1.2-9.1,3.4l-0.1,0.1c-5.6,5.1-6.1,13.8-1,19.4s13.8,6.1,19.4,1
					l26.7-24L55.8,90.7z"/>
				<path id="Shape-3" class="st3" d="M91.7,90.7l-26.7,24c-2.5,2.3-5.8,3.5-9.2,3.5H97c7.4,0.1,13.5-5.8,13.6-13.2
					c0-0.2,0-0.3,0-0.5c0.1-7.5-6-13.7-13.5-13.8c0,0,0,0,0,0L91.7,90.7z"/>
			</g>
			<g id="Logo_item_zip_text_primary">
				<path id="Shape-4" class="st2" d="M130.5,106.6c-1.1,0-2.2-0.4-3-1.2c-0.8-0.8-1.2-1.9-1.2-3.1c0-1.1,0.3-2.3,0.8-3.3
					c0.5-0.9,1.1-1.7,1.8-2.5l17-19.2h-14.9c-1.2,0.1-2.3-0.5-3-1.5c-0.6-1-0.8-2.1-0.8-3.2c0-1.1,0.3-2.1,0.9-3
					c0.6-0.8,1.6-1.3,2.7-1.3h26.3c1.1-0.1,2.2,0.4,3,1.1c0.8,0.8,1.2,2,1.1,3.1c0,1-0.2,2.1-0.6,3c-0.4,0.8-1,1.6-1.6,2.2
					l-17.8,19.7H158c1,0,2,0.4,2.6,1.2c0.7,0.9,1,2,0.9,3.1c0,1.2-0.2,2.3-0.8,3.3c-0.7,1-1.8,1.5-3,1.4L130.5,106.6z"/>
				<path id="Shape-5" class="st2" d="M171.7,107.1c-4.7,0-5.6-2.4-5.6-4.4V73.6c-0.1-1.4,0.4-2.7,1.4-3.7c1.2-1,2.8-1.5,4.4-1.4
					c1.4-0.1,2.8,0.3,3.9,1.1c1,0.9,1.5,2.2,1.5,3.5v29.5c0.1,1.3-0.5,2.7-1.5,3.5C174.5,106.9,173.1,107.2,171.7,107.1z
					 M171.7,65.4c-1.6,0.1-3.2-0.5-4.4-1.6c-2.3-2.3-2.3-6.1,0-8.4c1.2-1.1,2.8-1.7,4.4-1.7c1.5,0,3,0.5,4.2,1.4
					c1.4,1.1,2.1,2.7,2,4.4c0.1,1.6-0.6,3.2-1.7,4.3C175,64.9,173.4,65.5,171.7,65.4L171.7,65.4z"/>
				<path id="Shape-6" class="st2" d="M189.4,118.3c-4.4,0-5.3-2.4-5.3-4.5V72.6c0-1.3,0.5-2.5,1.4-3.4c1.2-1,2.8-1.5,4.4-1.4
					c1.2,0,2.4,0.3,3.5,0.8c1.2,0.7,1.9,2,1.8,3.4c0.2-0.3,0.5-0.6,0.8-0.8c0.7-0.8,1.6-1.4,2.5-2c2.2-1.3,4.7-2,7.3-2
					c2.5,0,4.9,0.5,7.1,1.5c2,1,3.8,2.5,5.2,4.3c1.4,1.9,2.5,4.1,3.1,6.4c0.7,2.6,1,5.3,1,8c0,2.8-0.4,5.5-1.1,8.2
					c-0.7,2.3-1.8,4.5-3.4,6.5c-1.5,1.8-3.3,3.3-5.4,4.3c-2.3,1-4.8,1.6-7.4,1.5c-1.7,0-3.4-0.2-5-0.7c-1.2-0.4-2.3-0.9-3.3-1.6
					c-0.6-0.4-1.1-0.8-1.5-1.3v9.4c0.1,1.3-0.4,2.7-1.3,3.6C192.3,118.1,190.8,118.4,189.4,118.3z M202.8,76.5
					c-1.2,0-2.4,0.3-3.5,0.8c-1,0.6-1.8,1.3-2.5,2.3c-0.7,1.1-1.3,2.3-1.6,3.5c-0.4,1.5-0.6,2.9-0.5,4.4c-0.2,2.9,0.6,5.7,2.1,8.2
					c1.3,2,3.6,3.1,6,2.9c2.4,0.1,4.6-1,5.9-3c1.4-2.4,2.1-5.2,2-8c0-1.5-0.2-3-0.6-4.4c-0.3-1.2-0.8-2.4-1.5-3.5
					c-0.6-0.9-1.5-1.7-2.5-2.3C205.1,76.8,204,76.5,202.8,76.5z"/>
			</g>
		</g>
	</g>
</g>
<rect x="34" y="47" class="st4" width="196" height="78"/>
</svg>
